G04 #@! TF.GenerationSoftware,KiCad,Pcbnew,(5.1.2)-1*
G04 #@! TF.CreationDate,2019-07-06T16:25:27-05:00*
G04 #@! TF.ProjectId,Proyecto,50726f79-6563-4746-9f2e-6b696361645f,rev?*
G04 #@! TF.SameCoordinates,Original*
G04 #@! TF.FileFunction,Copper,L2,Bot*
G04 #@! TF.FilePolarity,Positive*
%FSLAX46Y46*%
G04 Gerber Fmt 4.6, Leading zero omitted, Abs format (unit mm)*
G04 Created by KiCad (PCBNEW (5.1.2)-1) date 2019-07-06 16:25:27*
%MOMM*%
%LPD*%
G04 APERTURE LIST*
%ADD10C,0.250000*%
%ADD11C,1.600000*%
%ADD12O,1.600000X1.600000*%
%ADD13O,1.350000X1.350000*%
%ADD14R,1.350000X1.350000*%
%ADD15O,1.524000X2.524000*%
%ADD16R,1.524000X2.524000*%
%ADD17R,1.600000X1.600000*%
%ADD18C,2.000000*%
%ADD19R,1.800000X1.800000*%
%ADD20C,1.800000*%
%ADD21C,3.000000*%
%ADD22C,0.800000*%
%ADD23C,1.000000*%
%ADD24C,0.254000*%
G04 APERTURE END LIST*
D10*
X110862457Y-100958800D02*
X109662457Y-100958800D01*
X109662457Y-101244514D01*
X109719600Y-101415942D01*
X109833885Y-101530228D01*
X109948171Y-101587371D01*
X110176742Y-101644514D01*
X110348171Y-101644514D01*
X110576742Y-101587371D01*
X110691028Y-101530228D01*
X110805314Y-101415942D01*
X110862457Y-101244514D01*
X110862457Y-100958800D01*
X110748171Y-102158800D02*
X110805314Y-102215942D01*
X110862457Y-102158800D01*
X110805314Y-102101657D01*
X110748171Y-102158800D01*
X110862457Y-102158800D01*
X110862457Y-102730228D02*
X109662457Y-102730228D01*
X109662457Y-103187371D01*
X109719600Y-103301657D01*
X109776742Y-103358800D01*
X109891028Y-103415942D01*
X110062457Y-103415942D01*
X110176742Y-103358800D01*
X110233885Y-103301657D01*
X110291028Y-103187371D01*
X110291028Y-102730228D01*
X112569600Y-100987371D02*
X112569600Y-101558800D01*
X112912457Y-100873085D02*
X111712457Y-101273085D01*
X112912457Y-101673085D01*
X112798171Y-102073085D02*
X112855314Y-102130228D01*
X112912457Y-102073085D01*
X112855314Y-102015942D01*
X112798171Y-102073085D01*
X112912457Y-102073085D01*
X112798171Y-103330228D02*
X112855314Y-103273085D01*
X112912457Y-103101657D01*
X112912457Y-102987371D01*
X112855314Y-102815942D01*
X112741028Y-102701657D01*
X112626742Y-102644514D01*
X112398171Y-102587371D01*
X112226742Y-102587371D01*
X111998171Y-102644514D01*
X111883885Y-102701657D01*
X111769600Y-102815942D01*
X111712457Y-102987371D01*
X111712457Y-103101657D01*
X111769600Y-103273085D01*
X111826742Y-103330228D01*
X113762457Y-101587371D02*
X114619600Y-101587371D01*
X114791028Y-101530228D01*
X114905314Y-101415942D01*
X114962457Y-101244514D01*
X114962457Y-101130228D01*
X114848171Y-102158800D02*
X114905314Y-102215942D01*
X114962457Y-102158800D01*
X114905314Y-102101657D01*
X114848171Y-102158800D01*
X114962457Y-102158800D01*
X113762457Y-103073085D02*
X114619600Y-103073085D01*
X114791028Y-103015942D01*
X114905314Y-102901657D01*
X114962457Y-102730228D01*
X114962457Y-102615942D01*
D11*
X158978600Y-71805800D03*
D12*
X166598600Y-71805800D03*
D13*
X120352300Y-65468500D03*
X122352300Y-65468500D03*
X124352300Y-65468500D03*
D14*
X126352300Y-65468500D03*
D15*
X148285200Y-86563200D03*
X150825200Y-86563200D03*
X153365200Y-86563200D03*
X155905200Y-86563200D03*
X158445200Y-86563200D03*
X158445200Y-101803200D03*
X155905200Y-101803200D03*
X153365200Y-101803200D03*
X150825200Y-101803200D03*
D16*
X148285200Y-101803200D03*
X162610800Y-101777800D03*
D15*
X165150800Y-101777800D03*
X167690800Y-101777800D03*
X170230800Y-101777800D03*
X172770800Y-101777800D03*
X172770800Y-86537800D03*
X170230800Y-86537800D03*
X167690800Y-86537800D03*
X165150800Y-86537800D03*
X162610800Y-86537800D03*
D17*
X127127000Y-84988400D03*
D12*
X109347000Y-92608400D03*
X124587000Y-84988400D03*
X111887000Y-92608400D03*
X122047000Y-84988400D03*
X114427000Y-92608400D03*
X119507000Y-84988400D03*
X116967000Y-92608400D03*
X116967000Y-84988400D03*
X119507000Y-92608400D03*
X114427000Y-84988400D03*
X122047000Y-92608400D03*
X111887000Y-84988400D03*
X124587000Y-92608400D03*
X109347000Y-84988400D03*
X127127000Y-92608400D03*
D11*
X143027400Y-99822000D03*
D12*
X135407400Y-99822000D03*
D17*
X134112000Y-77622400D03*
D12*
X151892000Y-70002400D03*
X136652000Y-77622400D03*
X149352000Y-70002400D03*
X139192000Y-77622400D03*
X146812000Y-70002400D03*
X141732000Y-77622400D03*
X144272000Y-70002400D03*
X144272000Y-77622400D03*
X141732000Y-70002400D03*
X146812000Y-77622400D03*
X139192000Y-70002400D03*
X149352000Y-77622400D03*
X136652000Y-70002400D03*
X151892000Y-77622400D03*
X134112000Y-70002400D03*
D18*
X120652400Y-74731000D03*
X120652400Y-70231000D03*
X127152400Y-74731000D03*
X127152400Y-70231000D03*
D11*
X143027400Y-102895400D03*
D12*
X135407400Y-102895400D03*
D11*
X143027400Y-96697800D03*
D12*
X135407400Y-96697800D03*
D11*
X143027400Y-93599000D03*
D12*
X135407400Y-93599000D03*
D11*
X135382000Y-90500200D03*
D12*
X143002000Y-90500200D03*
D11*
X135382000Y-87376000D03*
D12*
X143002000Y-87376000D03*
D11*
X143002000Y-84226400D03*
D12*
X135382000Y-84226400D03*
D11*
X166573200Y-81127600D03*
D12*
X158953200Y-81127600D03*
D11*
X166598600Y-74904600D03*
D12*
X158978600Y-74904600D03*
D11*
X166598600Y-78028800D03*
D12*
X158978600Y-78028800D03*
D11*
X151714200Y-62992000D03*
D12*
X144094200Y-62992000D03*
D11*
X144094200Y-66090800D03*
D12*
X151714200Y-66090800D03*
D11*
X156210000Y-68351400D03*
D12*
X156210000Y-60731400D03*
D11*
X108737400Y-81940400D03*
D12*
X108737400Y-74320400D03*
D11*
X108686600Y-70993000D03*
D12*
X116306600Y-70993000D03*
D14*
X130403600Y-90111600D03*
D13*
X130403600Y-88111600D03*
X130403600Y-86111600D03*
X130403600Y-84111600D03*
X130403600Y-82111600D03*
X130403600Y-80111600D03*
X130403600Y-78111600D03*
X130403600Y-76111600D03*
D14*
X118846600Y-80663800D03*
D13*
X118846600Y-78663800D03*
D14*
X130403600Y-66929000D03*
D13*
X130403600Y-68929000D03*
X130403600Y-70929000D03*
X130403600Y-72929000D03*
D14*
X115747800Y-61696600D03*
D13*
X115747800Y-63696600D03*
X115747800Y-65696600D03*
D19*
X112877600Y-78257400D03*
D20*
X112877600Y-80797400D03*
D17*
X123596400Y-80848200D03*
D11*
X123596400Y-78348200D03*
D21*
X108153200Y-58966100D03*
X107645200Y-103200200D03*
X177063400Y-102463600D03*
X177774600Y-58547000D03*
D18*
X127609600Y-81280000D03*
X120167400Y-62547500D03*
X123913900Y-62026800D03*
X119329200Y-90017600D03*
X168783000Y-77965300D03*
X169240200Y-93751400D03*
X168783000Y-74853800D03*
X165836600Y-93192600D03*
X167944800Y-82969100D03*
X163296600Y-92532200D03*
D22*
X119507000Y-84988400D02*
X122047000Y-84988400D01*
X123596400Y-83439000D02*
X122047000Y-84988400D01*
X123596400Y-80848200D02*
X123596400Y-83439000D01*
X123412000Y-80663800D02*
X123596400Y-80848200D01*
X118846600Y-80663800D02*
X123412000Y-80663800D01*
X130189799Y-74204001D02*
X131154999Y-74204001D01*
X123596400Y-80848200D02*
X123596400Y-80797400D01*
X133312001Y-70802399D02*
X134112000Y-70002400D01*
X133312001Y-71907601D02*
X133312001Y-70802399D01*
X131154999Y-74064603D02*
X133312001Y-71907601D01*
X131154999Y-74204001D02*
X131154999Y-74064603D01*
X133477201Y-71907601D02*
X139192000Y-77622400D01*
X133312001Y-71907601D02*
X133477201Y-71907601D01*
X139192000Y-77622400D02*
X141732000Y-77622400D01*
X113983000Y-65696600D02*
X115747800Y-65696600D01*
X108686600Y-70993000D02*
X113983000Y-65696600D01*
X134112000Y-66878200D02*
X134112000Y-70002400D01*
X125691900Y-78701900D02*
X125691900Y-79362300D01*
X125691900Y-78701900D02*
X130189799Y-74204001D01*
X123596400Y-80797400D02*
X125691900Y-78701900D01*
X125691900Y-79362300D02*
X127609600Y-81280000D01*
X127127000Y-92608400D02*
X128258370Y-92608400D01*
X127609600Y-81280000D02*
X127609600Y-81280000D01*
X128430550Y-64865250D02*
X132099050Y-64865250D01*
X127827300Y-65468500D02*
X128430550Y-64865250D01*
X126352300Y-65468500D02*
X127827300Y-65468500D01*
X134112000Y-66878200D02*
X132099050Y-64865250D01*
X126352300Y-63993500D02*
X126352300Y-65468500D01*
X124385600Y-62026800D02*
X126352300Y-63993500D01*
X123913900Y-62026800D02*
X124385600Y-62026800D01*
X117018300Y-65696600D02*
X120167400Y-62547500D01*
X115747800Y-65696600D02*
X117018300Y-65696600D01*
X127127000Y-92608400D02*
X125234700Y-90716100D01*
X125234700Y-90716100D02*
X120103900Y-90716100D01*
D23*
X120027700Y-90716100D02*
X119329200Y-90017600D01*
X120103900Y-90716100D02*
X120027700Y-90716100D01*
D22*
X109880400Y-80797400D02*
X108737400Y-81940400D01*
X112877600Y-80797400D02*
X109880400Y-80797400D01*
X112706400Y-63696600D02*
X115747800Y-63696600D01*
X116170598Y-72929000D02*
X113379197Y-75720401D01*
X130403600Y-72929000D02*
X116170598Y-72929000D01*
X113379197Y-75720401D02*
X110385399Y-75720401D01*
X110385399Y-75720401D02*
X109689900Y-76415900D01*
X109689900Y-76415900D02*
X107861100Y-76415900D01*
X107861100Y-76415900D02*
X106794300Y-75349100D01*
X106794300Y-69608700D02*
X107607100Y-68795900D01*
X106794300Y-75349100D02*
X106794300Y-69608700D01*
X107286599Y-69116401D02*
X107607100Y-68795900D01*
X107607100Y-68795900D02*
X112706400Y-63696600D01*
X119890400Y-70993000D02*
X120652400Y-70231000D01*
X116306600Y-70993000D02*
X119890400Y-70993000D01*
X120652400Y-70231000D02*
X127152400Y-70231000D01*
X129705600Y-70231000D02*
X130403600Y-70929000D01*
X127152400Y-70231000D02*
X129705600Y-70231000D01*
X129449006Y-68929000D02*
X130403600Y-68929000D01*
X128947606Y-68427600D02*
X129449006Y-68929000D01*
X118922399Y-69592999D02*
X119884399Y-68630999D01*
X115634599Y-69592999D02*
X118922399Y-69592999D01*
X122529401Y-68630999D02*
X122732800Y-68427600D01*
X122732800Y-68427600D02*
X128947606Y-68427600D01*
X108737400Y-74320400D02*
X111963200Y-74320400D01*
X122427198Y-68427600D02*
X122732800Y-68427600D01*
X111963200Y-74320400D02*
X114884200Y-71399400D01*
X119884399Y-68630999D02*
X122529401Y-68630999D01*
X114884200Y-71399400D02*
X114884200Y-70343398D01*
X114884200Y-70343398D02*
X115634599Y-69592999D01*
X120352300Y-66999600D02*
X120352300Y-65468500D01*
X120535700Y-67183000D02*
X120352300Y-66999600D01*
X128674600Y-67183000D02*
X120535700Y-67183000D01*
X130403600Y-66929000D02*
X128928600Y-66929000D01*
X128928600Y-66929000D02*
X128674600Y-67183000D01*
X132601200Y-76111600D02*
X134112000Y-77622400D01*
X130403600Y-76111600D02*
X132601200Y-76111600D01*
X136652000Y-78828900D02*
X136652000Y-77622400D01*
X136118600Y-79362300D02*
X136652000Y-78828900D01*
X132608894Y-79362300D02*
X136118600Y-79362300D01*
X130403600Y-78111600D02*
X131358194Y-78111600D01*
X131358194Y-78111600D02*
X132608894Y-79362300D01*
X131358194Y-80111600D02*
X132120194Y-80873600D01*
X130403600Y-80111600D02*
X131358194Y-80111600D01*
X132120194Y-80873600D02*
X137185400Y-80873600D01*
X137185400Y-80873600D02*
X138607800Y-79451200D01*
X144983200Y-79451200D02*
X146812000Y-77622400D01*
X138607800Y-79451200D02*
X144983200Y-79451200D01*
X146126200Y-80848200D02*
X149352000Y-77622400D01*
X140246100Y-80848200D02*
X146126200Y-80848200D01*
X138823700Y-82270600D02*
X140246100Y-80848200D01*
X131517194Y-82270600D02*
X138823700Y-82270600D01*
X130403600Y-82111600D02*
X131358194Y-82111600D01*
X131358194Y-82111600D02*
X131517194Y-82270600D01*
X129526800Y-84988400D02*
X130403600Y-84111600D01*
X127127000Y-84988400D02*
X129526800Y-84988400D01*
X125386999Y-85788399D02*
X124587000Y-84988400D01*
X125987001Y-86388401D02*
X125386999Y-85788399D01*
X129172205Y-86388401D02*
X125987001Y-86388401D01*
X129449006Y-86111600D02*
X129172205Y-86388401D01*
X130403600Y-86111600D02*
X129449006Y-86111600D01*
X115827001Y-86388401D02*
X123574001Y-86388401D01*
X114427000Y-84988400D02*
X115827001Y-86388401D01*
X125297200Y-88111600D02*
X130403600Y-88111600D01*
X123574001Y-86388401D02*
X125297200Y-88111600D01*
X111887000Y-84988400D02*
X114935000Y-88036400D01*
X114935000Y-88036400D02*
X123012200Y-88036400D01*
X123012200Y-88036400D02*
X123012200Y-88061800D01*
X123012200Y-88061800D02*
X124447300Y-89496900D01*
X128928600Y-90111600D02*
X130403600Y-90111600D01*
X128313900Y-89496900D02*
X128928600Y-90111600D01*
X124447300Y-89496900D02*
X128313900Y-89496900D01*
X155410001Y-59931401D02*
X156210000Y-60731400D01*
X142608199Y-59931401D02*
X155410001Y-59931401D01*
X136652000Y-65887600D02*
X142608199Y-59931401D01*
X136652000Y-70002400D02*
X136652000Y-65887600D01*
X150825200Y-84501200D02*
X149559800Y-83235800D01*
X150825200Y-86563200D02*
X150825200Y-84501200D01*
X143992600Y-83235800D02*
X143002000Y-84226400D01*
X149559800Y-83235800D02*
X143992600Y-83235800D01*
X147472400Y-87376000D02*
X148285200Y-86563200D01*
X143002000Y-87376000D02*
X147472400Y-87376000D01*
X139192000Y-70002400D02*
X139192000Y-65822198D01*
X143422199Y-61591999D02*
X145143397Y-61591999D01*
X152153797Y-68602399D02*
X154388997Y-68602399D01*
X139192000Y-65822198D02*
X143422199Y-61591999D01*
X145143397Y-61591999D02*
X152153797Y-68602399D01*
X154388997Y-68765597D02*
X155994100Y-70370700D01*
X157543500Y-70370700D02*
X158978600Y-71805800D01*
X155994100Y-70370700D02*
X157543500Y-70370700D01*
X149648990Y-88425210D02*
X152801037Y-88425210D01*
X154343200Y-88625200D02*
X155905200Y-87063200D01*
X153001027Y-88625200D02*
X154343200Y-88625200D01*
X152801037Y-88425210D02*
X153001027Y-88625200D01*
X148373999Y-89700201D02*
X148844000Y-89230200D01*
X143801999Y-89700201D02*
X148373999Y-89700201D01*
X143002000Y-90500200D02*
X143801999Y-89700201D01*
X148844000Y-89230200D02*
X149648990Y-88425210D01*
X143865600Y-66319400D02*
X144094200Y-66090800D01*
X141732000Y-68453000D02*
X144094200Y-66090800D01*
X141732000Y-70002400D02*
X141732000Y-68453000D01*
X144894199Y-63791999D02*
X144094200Y-62992000D01*
X145494201Y-64392001D02*
X144894199Y-63791999D01*
X145494201Y-68780199D02*
X145494201Y-64392001D01*
X144272000Y-70002400D02*
X145494201Y-68780199D01*
X155414600Y-90093800D02*
X158445200Y-87063200D01*
X150469600Y-90093800D02*
X155414600Y-90093800D01*
X146964400Y-93599000D02*
X148983700Y-91579700D01*
X143027400Y-93599000D02*
X146964400Y-93599000D01*
X148983700Y-91579700D02*
X150469600Y-90093800D01*
X147611999Y-70802399D02*
X148069199Y-70802399D01*
X146812000Y-70002400D02*
X147611999Y-70802399D01*
X148069199Y-70802399D02*
X150215600Y-72948800D01*
X150215600Y-72948800D02*
X152273000Y-72948800D01*
X157353000Y-78028800D02*
X158978600Y-78028800D01*
X152273000Y-72948800D02*
X157353000Y-78028800D01*
X152099799Y-97497799D02*
X152611900Y-98009900D01*
X143827399Y-97497799D02*
X152099799Y-97497799D01*
X143027400Y-96697800D02*
X143827399Y-97497799D01*
X152611900Y-98009900D02*
X155905200Y-101303200D01*
X150619997Y-70802399D02*
X151369398Y-71551800D01*
X149352000Y-70002400D02*
X150151999Y-70802399D01*
X150151999Y-70802399D02*
X150619997Y-70802399D01*
X151369398Y-71551800D02*
X152933400Y-71551800D01*
X156286200Y-74904600D02*
X158978600Y-74904600D01*
X152933400Y-71551800D02*
X156286200Y-74904600D01*
X150825200Y-101803200D02*
X150825200Y-99741200D01*
X150194800Y-99110800D02*
X150825200Y-99741200D01*
X144627600Y-99110800D02*
X150194800Y-99110800D01*
X144538801Y-99022001D02*
X144627600Y-99110800D01*
X143827399Y-99022001D02*
X144538801Y-99022001D01*
X143027400Y-99822000D02*
X143827399Y-99022001D01*
X160378601Y-79702199D02*
X158953200Y-81127600D01*
X160378601Y-73891601D02*
X160378601Y-79702199D01*
X153492200Y-70002400D02*
X156695601Y-73205801D01*
X151892000Y-70002400D02*
X153492200Y-70002400D01*
X156695601Y-73205801D02*
X157635401Y-73205801D01*
X157635401Y-73205801D02*
X157822900Y-73393300D01*
X157822900Y-73393300D02*
X159880300Y-73393300D01*
X159880300Y-73393300D02*
X160378601Y-73891601D01*
X147193000Y-102895400D02*
X148285200Y-101803200D01*
X143027400Y-102895400D02*
X147193000Y-102895400D01*
X132054600Y-87553800D02*
X135382000Y-84226400D01*
X132054600Y-90890602D02*
X132054600Y-87553800D01*
X128936801Y-94008401D02*
X132054600Y-90890602D01*
X124587000Y-92608400D02*
X125987001Y-94008401D01*
X125987001Y-94008401D02*
X128936801Y-94008401D01*
X133299200Y-89458800D02*
X135382000Y-87376000D01*
X122846999Y-93408399D02*
X122923199Y-93408399D01*
X122047000Y-92608400D02*
X122846999Y-93408399D01*
X122923199Y-93408399D02*
X124815600Y-95300800D01*
X133299200Y-91617800D02*
X133299200Y-89458800D01*
X129616200Y-95300800D02*
X133299200Y-91617800D01*
X127381000Y-95300800D02*
X129616200Y-95300800D01*
X124815600Y-95300800D02*
X127381000Y-95300800D01*
X119507000Y-93739770D02*
X122744430Y-96977200D01*
X119507000Y-92608400D02*
X119507000Y-93739770D01*
X122744430Y-96977200D02*
X130987800Y-96977200D01*
X130987800Y-96977200D02*
X130987800Y-96951800D01*
X135382000Y-91631570D02*
X135382000Y-90500200D01*
X135382000Y-91635026D02*
X135382000Y-91631570D01*
X132641801Y-94375225D02*
X135382000Y-91635026D01*
X132641801Y-95297799D02*
X132641801Y-94375225D01*
X130987800Y-96951800D02*
X132641801Y-95297799D01*
X135407400Y-93599000D02*
X135407400Y-93395800D01*
X135407400Y-93599000D02*
X135407400Y-94945200D01*
X135054801Y-95297799D02*
X134699201Y-95297799D01*
X135407400Y-94945200D02*
X135054801Y-95297799D01*
X134699201Y-95297799D02*
X131622800Y-98374200D01*
X116967000Y-93739770D02*
X116967000Y-92608400D01*
X121601430Y-98374200D02*
X116967000Y-93739770D01*
X131622800Y-98374200D02*
X121601430Y-98374200D01*
X114427000Y-92608400D02*
X114427000Y-94107000D01*
X114427000Y-94107000D02*
X120497600Y-100177600D01*
X131927600Y-100177600D02*
X135407400Y-96697800D01*
X120497600Y-100177600D02*
X131927600Y-100177600D01*
X111887000Y-93739770D02*
X120026630Y-101879400D01*
X111887000Y-92608400D02*
X111887000Y-93739770D01*
X133350000Y-101879400D02*
X135407400Y-99822000D01*
X120026630Y-101879400D02*
X133350000Y-101879400D01*
X109347000Y-93739770D02*
X119163030Y-103555800D01*
X109347000Y-92608400D02*
X109347000Y-93739770D01*
X133615630Y-103555800D02*
X119163030Y-103555800D01*
X134276030Y-102895400D02*
X133615630Y-103555800D01*
X135407400Y-102895400D02*
X134276030Y-102895400D01*
X165150800Y-86537800D02*
X165036973Y-86537800D01*
X160629600Y-68351400D02*
X156210000Y-68351400D01*
X163144200Y-70866000D02*
X160629600Y-68351400D01*
X163144200Y-82677000D02*
X163144200Y-70866000D01*
X165150800Y-88599800D02*
X164228300Y-89522300D01*
X165150800Y-86537800D02*
X165150800Y-88599800D01*
X164228300Y-89522300D02*
X161836100Y-89522300D01*
X161836100Y-89522300D02*
X160489900Y-88176100D01*
X160489900Y-88176100D02*
X160489900Y-85331300D01*
X160489900Y-85331300D02*
X163144200Y-82677000D01*
X162610800Y-86037800D02*
X162610800Y-86537800D01*
X165173199Y-83475401D02*
X162610800Y-86037800D01*
X165173199Y-73231201D02*
X165173199Y-83475401D01*
X166598600Y-71805800D02*
X165173199Y-73231201D01*
X170230800Y-70307200D02*
X170230800Y-86537800D01*
X166014400Y-66090800D02*
X167093900Y-67170300D01*
X151714200Y-66090800D02*
X166014400Y-66090800D01*
X166624000Y-66700400D02*
X167093900Y-67170300D01*
X167093900Y-67170300D02*
X170230800Y-70307200D01*
X172770800Y-69596000D02*
X172770800Y-86537800D01*
X151714200Y-62992000D02*
X166166800Y-62992000D01*
X166166800Y-62992000D02*
X172770800Y-69596000D01*
X167729970Y-78028800D02*
X167780770Y-77978000D01*
X166598600Y-78028800D02*
X167729970Y-78028800D01*
X167780770Y-77978000D02*
X168452800Y-77978000D01*
X168452800Y-77978000D02*
X168452800Y-77978000D01*
X170230800Y-101777800D02*
X170230800Y-94742000D01*
X170230800Y-94742000D02*
X169240200Y-93751400D01*
X169240200Y-93751400D02*
X169240200Y-93751400D01*
X167729970Y-74904600D02*
X167755370Y-74879200D01*
X166598600Y-74904600D02*
X167729970Y-74904600D01*
X167755370Y-74879200D02*
X168529000Y-74879200D01*
X168529000Y-74879200D02*
X168529000Y-74879200D01*
X165150800Y-99715800D02*
X165836600Y-99030000D01*
X165150800Y-101777800D02*
X165150800Y-99715800D01*
X165836600Y-99030000D02*
X165836600Y-93192600D01*
X165836600Y-93192600D02*
X165836600Y-93192600D01*
X162610800Y-99715800D02*
X163296600Y-99030000D01*
X162610800Y-101777800D02*
X162610800Y-99715800D01*
X163296600Y-99030000D02*
X163296600Y-92532200D01*
X163296600Y-92532200D02*
X163296600Y-92532200D01*
X166573200Y-81597500D02*
X167944800Y-82969100D01*
X166573200Y-81127600D02*
X166573200Y-81597500D01*
D24*
G36*
X179719177Y-105090468D02*
G01*
X104598358Y-105773960D01*
X104606990Y-102989921D01*
X105510200Y-102989921D01*
X105510200Y-103410479D01*
X105592247Y-103822956D01*
X105753188Y-104211502D01*
X105986837Y-104561183D01*
X106284217Y-104858563D01*
X106633898Y-105092212D01*
X107022444Y-105253153D01*
X107434921Y-105335200D01*
X107855479Y-105335200D01*
X108267956Y-105253153D01*
X108656502Y-105092212D01*
X109006183Y-104858563D01*
X109303563Y-104561183D01*
X109408246Y-104404514D01*
X116178100Y-104404514D01*
X116178100Y-102034581D01*
X118395227Y-104251708D01*
X118427634Y-104291196D01*
X118467122Y-104323603D01*
X118585232Y-104420534D01*
X118681339Y-104471904D01*
X118765037Y-104516641D01*
X118960135Y-104575824D01*
X119112192Y-104590800D01*
X119112195Y-104590800D01*
X119163030Y-104595807D01*
X119213865Y-104590800D01*
X133564802Y-104590800D01*
X133615630Y-104595806D01*
X133666458Y-104590800D01*
X133666468Y-104590800D01*
X133818525Y-104575824D01*
X134013623Y-104516641D01*
X134193427Y-104420534D01*
X134351026Y-104291196D01*
X134383437Y-104251703D01*
X134570328Y-104064812D01*
X134606299Y-104094332D01*
X134855592Y-104227582D01*
X135126091Y-104309636D01*
X135336908Y-104330400D01*
X135477892Y-104330400D01*
X135688709Y-104309636D01*
X135959208Y-104227582D01*
X136208501Y-104094332D01*
X136427008Y-103915008D01*
X136606332Y-103696501D01*
X136739582Y-103447208D01*
X136821636Y-103176709D01*
X136849343Y-102895400D01*
X136821636Y-102614091D01*
X136739582Y-102343592D01*
X136606332Y-102094299D01*
X136427008Y-101875792D01*
X136208501Y-101696468D01*
X135959208Y-101563218D01*
X135688709Y-101481164D01*
X135477892Y-101460400D01*
X135336908Y-101460400D01*
X135221327Y-101471784D01*
X135436111Y-101257000D01*
X135477892Y-101257000D01*
X135688709Y-101236236D01*
X135959208Y-101154182D01*
X136208501Y-101020932D01*
X136427008Y-100841608D01*
X136606332Y-100623101D01*
X136739582Y-100373808D01*
X136821636Y-100103309D01*
X136849343Y-99822000D01*
X136821636Y-99540691D01*
X136739582Y-99270192D01*
X136606332Y-99020899D01*
X136427008Y-98802392D01*
X136208501Y-98623068D01*
X135959208Y-98489818D01*
X135688709Y-98407764D01*
X135477892Y-98387000D01*
X135336908Y-98387000D01*
X135164977Y-98403934D01*
X135436111Y-98132800D01*
X135477892Y-98132800D01*
X135688709Y-98112036D01*
X135959208Y-98029982D01*
X136208501Y-97896732D01*
X136427008Y-97717408D01*
X136606332Y-97498901D01*
X136739582Y-97249608D01*
X136821636Y-96979109D01*
X136849343Y-96697800D01*
X136835423Y-96556465D01*
X141592400Y-96556465D01*
X141592400Y-96839135D01*
X141647547Y-97116374D01*
X141755720Y-97377527D01*
X141912763Y-97612559D01*
X142112641Y-97812437D01*
X142347673Y-97969480D01*
X142608826Y-98077653D01*
X142886065Y-98132800D01*
X142998689Y-98132800D01*
X143059595Y-98193706D01*
X143092003Y-98233195D01*
X143124543Y-98259900D01*
X143092003Y-98286605D01*
X143059596Y-98326093D01*
X142998689Y-98387000D01*
X142886065Y-98387000D01*
X142608826Y-98442147D01*
X142347673Y-98550320D01*
X142112641Y-98707363D01*
X141912763Y-98907241D01*
X141755720Y-99142273D01*
X141647547Y-99403426D01*
X141592400Y-99680665D01*
X141592400Y-99963335D01*
X141647547Y-100240574D01*
X141755720Y-100501727D01*
X141912763Y-100736759D01*
X142112641Y-100936637D01*
X142347673Y-101093680D01*
X142608826Y-101201853D01*
X142886065Y-101257000D01*
X143168735Y-101257000D01*
X143445974Y-101201853D01*
X143707127Y-101093680D01*
X143942159Y-100936637D01*
X144142037Y-100736759D01*
X144299080Y-100501727D01*
X144407253Y-100240574D01*
X144429000Y-100131247D01*
X144576762Y-100145800D01*
X144576765Y-100145800D01*
X144627600Y-100150807D01*
X144678435Y-100145800D01*
X147026234Y-100145800D01*
X146992663Y-100186706D01*
X146933698Y-100297020D01*
X146897388Y-100416718D01*
X146885128Y-100541200D01*
X146885128Y-101739562D01*
X146764290Y-101860400D01*
X144021796Y-101860400D01*
X143942159Y-101780763D01*
X143707127Y-101623720D01*
X143445974Y-101515547D01*
X143168735Y-101460400D01*
X142886065Y-101460400D01*
X142608826Y-101515547D01*
X142347673Y-101623720D01*
X142112641Y-101780763D01*
X141912763Y-101980641D01*
X141755720Y-102215673D01*
X141647547Y-102476826D01*
X141592400Y-102754065D01*
X141592400Y-103036735D01*
X141647547Y-103313974D01*
X141755720Y-103575127D01*
X141912763Y-103810159D01*
X142112641Y-104010037D01*
X142347673Y-104167080D01*
X142608826Y-104275253D01*
X142886065Y-104330400D01*
X143168735Y-104330400D01*
X143445974Y-104275253D01*
X143707127Y-104167080D01*
X143942159Y-104010037D01*
X144021796Y-103930400D01*
X147142172Y-103930400D01*
X147193000Y-103935406D01*
X147243828Y-103930400D01*
X147243838Y-103930400D01*
X147395895Y-103915424D01*
X147590993Y-103856241D01*
X147770797Y-103760134D01*
X147840084Y-103703272D01*
X149047200Y-103703272D01*
X149171682Y-103691012D01*
X149291380Y-103654702D01*
X149401694Y-103595737D01*
X149498385Y-103516385D01*
X149577737Y-103419694D01*
X149636702Y-103309380D01*
X149673012Y-103189682D01*
X149680779Y-103110822D01*
X149832593Y-103295808D01*
X150045314Y-103470383D01*
X150288006Y-103600104D01*
X150551341Y-103679986D01*
X150825200Y-103706959D01*
X151099060Y-103679986D01*
X151362395Y-103600104D01*
X151605087Y-103470383D01*
X151817808Y-103295808D01*
X151992383Y-103083087D01*
X152096238Y-102888787D01*
X152123141Y-102955142D01*
X152274194Y-103184929D01*
X152467174Y-103380832D01*
X152694665Y-103535322D01*
X152947924Y-103642462D01*
X153022130Y-103657420D01*
X153238200Y-103534920D01*
X153238200Y-101930200D01*
X153218200Y-101930200D01*
X153218200Y-101676200D01*
X153238200Y-101676200D01*
X153238200Y-101656200D01*
X153492200Y-101656200D01*
X153492200Y-101676200D01*
X153512200Y-101676200D01*
X153512200Y-101930200D01*
X153492200Y-101930200D01*
X153492200Y-103534920D01*
X153708270Y-103657420D01*
X153782476Y-103642462D01*
X154035735Y-103535322D01*
X154263226Y-103380832D01*
X154456206Y-103184929D01*
X154607259Y-102955142D01*
X154634162Y-102888787D01*
X154738017Y-103083087D01*
X154912593Y-103295808D01*
X155125314Y-103470383D01*
X155368006Y-103600104D01*
X155631341Y-103679986D01*
X155905200Y-103706959D01*
X156179060Y-103679986D01*
X156442395Y-103600104D01*
X156685087Y-103470383D01*
X156897808Y-103295808D01*
X157072383Y-103083087D01*
X157175200Y-102890729D01*
X157278017Y-103083087D01*
X157452593Y-103295808D01*
X157665314Y-103470383D01*
X157908006Y-103600104D01*
X158171341Y-103679986D01*
X158445200Y-103706959D01*
X158719060Y-103679986D01*
X158982395Y-103600104D01*
X159225087Y-103470383D01*
X159437808Y-103295808D01*
X159612383Y-103083087D01*
X159742104Y-102840395D01*
X159821986Y-102577060D01*
X159842200Y-102371825D01*
X159842200Y-101234575D01*
X159821986Y-101029340D01*
X159742104Y-100766005D01*
X159612383Y-100523313D01*
X159606218Y-100515800D01*
X161210728Y-100515800D01*
X161210728Y-103039800D01*
X161222988Y-103164282D01*
X161259298Y-103283980D01*
X161318263Y-103394294D01*
X161397615Y-103490985D01*
X161494306Y-103570337D01*
X161604620Y-103629302D01*
X161724318Y-103665612D01*
X161848800Y-103677872D01*
X163372800Y-103677872D01*
X163497282Y-103665612D01*
X163616980Y-103629302D01*
X163727294Y-103570337D01*
X163823985Y-103490985D01*
X163903337Y-103394294D01*
X163962302Y-103283980D01*
X163998612Y-103164282D01*
X164006379Y-103085422D01*
X164158193Y-103270408D01*
X164370914Y-103444983D01*
X164613606Y-103574704D01*
X164876941Y-103654586D01*
X165150800Y-103681559D01*
X165424660Y-103654586D01*
X165687995Y-103574704D01*
X165930687Y-103444983D01*
X166143408Y-103270408D01*
X166317983Y-103057687D01*
X166421838Y-102863387D01*
X166448741Y-102929742D01*
X166599794Y-103159529D01*
X166792774Y-103355432D01*
X167020265Y-103509922D01*
X167273524Y-103617062D01*
X167347730Y-103632020D01*
X167563800Y-103509520D01*
X167563800Y-101904800D01*
X167543800Y-101904800D01*
X167543800Y-101650800D01*
X167563800Y-101650800D01*
X167563800Y-100046080D01*
X167347730Y-99923580D01*
X167273524Y-99938538D01*
X167020265Y-100045678D01*
X166792774Y-100200168D01*
X166599794Y-100396071D01*
X166448741Y-100625858D01*
X166421838Y-100692213D01*
X166317983Y-100497913D01*
X166185800Y-100336848D01*
X166185800Y-100144510D01*
X166532503Y-99797807D01*
X166571996Y-99765396D01*
X166692054Y-99619105D01*
X166701334Y-99607798D01*
X166797440Y-99427994D01*
X166797441Y-99427993D01*
X166856624Y-99232895D01*
X166871600Y-99080838D01*
X166871600Y-99080835D01*
X166876607Y-99030000D01*
X166871600Y-98979165D01*
X166871600Y-94467433D01*
X166878852Y-94462587D01*
X167106587Y-94234852D01*
X167285518Y-93967063D01*
X167408768Y-93669512D01*
X167424510Y-93590367D01*
X167605200Y-93590367D01*
X167605200Y-93912433D01*
X167668032Y-94228312D01*
X167791282Y-94525863D01*
X167970213Y-94793652D01*
X168197948Y-95021387D01*
X168465737Y-95200318D01*
X168763288Y-95323568D01*
X169079167Y-95386400D01*
X169195801Y-95386400D01*
X169195800Y-100336848D01*
X169063617Y-100497914D01*
X168959762Y-100692214D01*
X168932859Y-100625858D01*
X168781806Y-100396071D01*
X168588826Y-100200168D01*
X168361335Y-100045678D01*
X168108076Y-99938538D01*
X168033870Y-99923580D01*
X167817800Y-100046080D01*
X167817800Y-101650800D01*
X167837800Y-101650800D01*
X167837800Y-101904800D01*
X167817800Y-101904800D01*
X167817800Y-103509520D01*
X168033870Y-103632020D01*
X168108076Y-103617062D01*
X168361335Y-103509922D01*
X168588826Y-103355432D01*
X168781806Y-103159529D01*
X168932859Y-102929742D01*
X168959762Y-102863387D01*
X169063617Y-103057687D01*
X169238193Y-103270408D01*
X169450914Y-103444983D01*
X169693606Y-103574704D01*
X169956941Y-103654586D01*
X170230800Y-103681559D01*
X170504660Y-103654586D01*
X170767995Y-103574704D01*
X171010687Y-103444983D01*
X171223408Y-103270408D01*
X171397983Y-103057687D01*
X171500800Y-102865329D01*
X171603617Y-103057687D01*
X171778193Y-103270408D01*
X171990914Y-103444983D01*
X172233606Y-103574704D01*
X172496941Y-103654586D01*
X172770800Y-103681559D01*
X173044660Y-103654586D01*
X173307995Y-103574704D01*
X173550687Y-103444983D01*
X173763408Y-103270408D01*
X173937983Y-103057687D01*
X174067704Y-102814995D01*
X174147586Y-102551660D01*
X174167800Y-102346425D01*
X174167800Y-102253321D01*
X174928400Y-102253321D01*
X174928400Y-102673879D01*
X175010447Y-103086356D01*
X175171388Y-103474902D01*
X175405037Y-103824583D01*
X175702417Y-104121963D01*
X176052098Y-104355612D01*
X176440644Y-104516553D01*
X176853121Y-104598600D01*
X177273679Y-104598600D01*
X177686156Y-104516553D01*
X178074702Y-104355612D01*
X178424383Y-104121963D01*
X178721763Y-103824583D01*
X178955412Y-103474902D01*
X179116353Y-103086356D01*
X179198400Y-102673879D01*
X179198400Y-102253321D01*
X179116353Y-101840844D01*
X178955412Y-101452298D01*
X178721763Y-101102617D01*
X178424383Y-100805237D01*
X178074702Y-100571588D01*
X177686156Y-100410647D01*
X177273679Y-100328600D01*
X176853121Y-100328600D01*
X176440644Y-100410647D01*
X176052098Y-100571588D01*
X175702417Y-100805237D01*
X175405037Y-101102617D01*
X175171388Y-101452298D01*
X175010447Y-101840844D01*
X174928400Y-102253321D01*
X174167800Y-102253321D01*
X174167800Y-101209175D01*
X174147586Y-101003940D01*
X174067704Y-100740605D01*
X173937983Y-100497913D01*
X173763407Y-100285192D01*
X173550686Y-100110617D01*
X173307994Y-99980896D01*
X173044659Y-99901014D01*
X172770800Y-99874041D01*
X172496940Y-99901014D01*
X172233605Y-99980896D01*
X171990913Y-100110617D01*
X171778192Y-100285193D01*
X171603617Y-100497914D01*
X171500800Y-100690271D01*
X171397983Y-100497913D01*
X171265800Y-100336848D01*
X171265800Y-94792835D01*
X171270807Y-94742000D01*
X171265173Y-94684797D01*
X171250824Y-94539105D01*
X171191641Y-94344007D01*
X171129420Y-94227600D01*
X171095534Y-94164202D01*
X170998603Y-94046092D01*
X170966196Y-94006604D01*
X170926708Y-93974197D01*
X170873498Y-93920988D01*
X170875200Y-93912433D01*
X170875200Y-93590367D01*
X170812368Y-93274488D01*
X170689118Y-92976937D01*
X170510187Y-92709148D01*
X170282452Y-92481413D01*
X170014663Y-92302482D01*
X169717112Y-92179232D01*
X169401233Y-92116400D01*
X169079167Y-92116400D01*
X168763288Y-92179232D01*
X168465737Y-92302482D01*
X168197948Y-92481413D01*
X167970213Y-92709148D01*
X167791282Y-92976937D01*
X167668032Y-93274488D01*
X167605200Y-93590367D01*
X167424510Y-93590367D01*
X167471600Y-93353633D01*
X167471600Y-93031567D01*
X167408768Y-92715688D01*
X167285518Y-92418137D01*
X167106587Y-92150348D01*
X166878852Y-91922613D01*
X166611063Y-91743682D01*
X166313512Y-91620432D01*
X165997633Y-91557600D01*
X165675567Y-91557600D01*
X165359688Y-91620432D01*
X165062137Y-91743682D01*
X164809593Y-91912427D01*
X164745518Y-91757737D01*
X164566587Y-91489948D01*
X164338852Y-91262213D01*
X164071063Y-91083282D01*
X163773512Y-90960032D01*
X163457633Y-90897200D01*
X163135567Y-90897200D01*
X162819688Y-90960032D01*
X162522137Y-91083282D01*
X162254348Y-91262213D01*
X162026613Y-91489948D01*
X161847682Y-91757737D01*
X161724432Y-92055288D01*
X161661600Y-92371167D01*
X161661600Y-92693233D01*
X161724432Y-93009112D01*
X161847682Y-93306663D01*
X162026613Y-93574452D01*
X162254348Y-93802187D01*
X162261601Y-93807033D01*
X162261600Y-98601290D01*
X161914893Y-98947997D01*
X161875405Y-98980404D01*
X161842998Y-99019892D01*
X161842997Y-99019893D01*
X161746066Y-99138003D01*
X161649960Y-99317807D01*
X161590777Y-99512905D01*
X161570794Y-99715800D01*
X161575801Y-99766637D01*
X161575801Y-99941702D01*
X161494306Y-99985263D01*
X161397615Y-100064615D01*
X161318263Y-100161306D01*
X161259298Y-100271620D01*
X161222988Y-100391318D01*
X161210728Y-100515800D01*
X159606218Y-100515800D01*
X159437807Y-100310592D01*
X159225086Y-100136017D01*
X158982394Y-100006296D01*
X158719059Y-99926414D01*
X158445200Y-99899441D01*
X158171340Y-99926414D01*
X157908005Y-100006296D01*
X157665313Y-100136017D01*
X157452592Y-100310593D01*
X157278017Y-100523314D01*
X157175200Y-100715671D01*
X157072383Y-100523313D01*
X156897807Y-100310592D01*
X156685086Y-100136017D01*
X156442394Y-100006296D01*
X156179059Y-99926414D01*
X155971702Y-99905991D01*
X153307807Y-97242097D01*
X152867606Y-96801896D01*
X152835195Y-96762403D01*
X152677596Y-96633065D01*
X152497792Y-96536958D01*
X152302694Y-96477775D01*
X152150637Y-96462799D01*
X152150627Y-96462799D01*
X152099799Y-96457793D01*
X152048971Y-96462799D01*
X144443768Y-96462799D01*
X144407253Y-96279226D01*
X144299080Y-96018073D01*
X144142037Y-95783041D01*
X143942159Y-95583163D01*
X143707127Y-95426120D01*
X143445974Y-95317947D01*
X143168735Y-95262800D01*
X142886065Y-95262800D01*
X142608826Y-95317947D01*
X142347673Y-95426120D01*
X142112641Y-95583163D01*
X141912763Y-95783041D01*
X141755720Y-96018073D01*
X141647547Y-96279226D01*
X141592400Y-96556465D01*
X136835423Y-96556465D01*
X136821636Y-96416491D01*
X136739582Y-96145992D01*
X136606332Y-95896699D01*
X136427008Y-95678192D01*
X136258357Y-95539784D01*
X136272134Y-95522997D01*
X136368241Y-95343193D01*
X136427424Y-95148095D01*
X136442400Y-94996038D01*
X136442400Y-94996029D01*
X136447406Y-94945201D01*
X136442400Y-94894373D01*
X136442400Y-94599853D01*
X136606332Y-94400101D01*
X136739582Y-94150808D01*
X136821636Y-93880309D01*
X136849343Y-93599000D01*
X136821636Y-93317691D01*
X136739582Y-93047192D01*
X136606332Y-92797899D01*
X136427008Y-92579392D01*
X136208501Y-92400068D01*
X136128263Y-92357180D01*
X136231194Y-92231759D01*
X136246734Y-92212824D01*
X136342841Y-92033020D01*
X136373907Y-91930609D01*
X136402024Y-91837921D01*
X136417000Y-91685864D01*
X136417000Y-91685861D01*
X136422007Y-91635026D01*
X136417000Y-91584191D01*
X136417000Y-91494596D01*
X136496637Y-91414959D01*
X136653680Y-91179927D01*
X136761853Y-90918774D01*
X136817000Y-90641535D01*
X136817000Y-90358865D01*
X136761853Y-90081626D01*
X136653680Y-89820473D01*
X136496637Y-89585441D01*
X136296759Y-89385563D01*
X136061727Y-89228520D01*
X135800574Y-89120347D01*
X135523335Y-89065200D01*
X135240665Y-89065200D01*
X135135614Y-89086096D01*
X135410711Y-88811000D01*
X135523335Y-88811000D01*
X135800574Y-88755853D01*
X136061727Y-88647680D01*
X136296759Y-88490637D01*
X136496637Y-88290759D01*
X136653680Y-88055727D01*
X136761853Y-87794574D01*
X136817000Y-87517335D01*
X136817000Y-87234665D01*
X136761853Y-86957426D01*
X136653680Y-86696273D01*
X136496637Y-86461241D01*
X136296759Y-86261363D01*
X136061727Y-86104320D01*
X135800574Y-85996147D01*
X135523335Y-85941000D01*
X135240665Y-85941000D01*
X135103908Y-85968203D01*
X135410711Y-85661400D01*
X135452492Y-85661400D01*
X135663309Y-85640636D01*
X135933808Y-85558582D01*
X136183101Y-85425332D01*
X136401608Y-85246008D01*
X136580932Y-85027501D01*
X136714182Y-84778208D01*
X136796236Y-84507709D01*
X136823943Y-84226400D01*
X136796236Y-83945091D01*
X136714182Y-83674592D01*
X136580932Y-83425299D01*
X136482698Y-83305600D01*
X138772872Y-83305600D01*
X138823700Y-83310606D01*
X138874528Y-83305600D01*
X138874538Y-83305600D01*
X139026595Y-83290624D01*
X139221693Y-83231441D01*
X139401497Y-83135334D01*
X139559096Y-83005996D01*
X139591507Y-82966503D01*
X140674811Y-81883200D01*
X146075372Y-81883200D01*
X146126200Y-81888206D01*
X146177028Y-81883200D01*
X146177038Y-81883200D01*
X146329095Y-81868224D01*
X146524193Y-81809041D01*
X146703997Y-81712934D01*
X146861596Y-81583596D01*
X146894007Y-81544103D01*
X149380711Y-79057400D01*
X149422492Y-79057400D01*
X149633309Y-79036636D01*
X149903808Y-78954582D01*
X150153101Y-78821332D01*
X150371608Y-78642008D01*
X150550932Y-78423501D01*
X150624579Y-78285718D01*
X150739615Y-78477531D01*
X150928586Y-78685919D01*
X151154580Y-78853437D01*
X151408913Y-78973646D01*
X151542961Y-79014304D01*
X151765000Y-78892315D01*
X151765000Y-77749400D01*
X152019000Y-77749400D01*
X152019000Y-78892315D01*
X152241039Y-79014304D01*
X152375087Y-78973646D01*
X152629420Y-78853437D01*
X152855414Y-78685919D01*
X153044385Y-78477531D01*
X153189070Y-78236281D01*
X153283909Y-77971440D01*
X153162624Y-77749400D01*
X152019000Y-77749400D01*
X151765000Y-77749400D01*
X151745000Y-77749400D01*
X151745000Y-77495400D01*
X151765000Y-77495400D01*
X151765000Y-76352485D01*
X152019000Y-76352485D01*
X152019000Y-77495400D01*
X153162624Y-77495400D01*
X153283909Y-77273360D01*
X153189070Y-77008519D01*
X153044385Y-76767269D01*
X152855414Y-76558881D01*
X152629420Y-76391363D01*
X152375087Y-76271154D01*
X152241039Y-76230496D01*
X152019000Y-76352485D01*
X151765000Y-76352485D01*
X151542961Y-76230496D01*
X151408913Y-76271154D01*
X151154580Y-76391363D01*
X150928586Y-76558881D01*
X150739615Y-76767269D01*
X150624579Y-76959082D01*
X150550932Y-76821299D01*
X150371608Y-76602792D01*
X150153101Y-76423468D01*
X149903808Y-76290218D01*
X149633309Y-76208164D01*
X149422492Y-76187400D01*
X149281508Y-76187400D01*
X149070691Y-76208164D01*
X148800192Y-76290218D01*
X148550899Y-76423468D01*
X148332392Y-76602792D01*
X148153068Y-76821299D01*
X148082000Y-76954258D01*
X148010932Y-76821299D01*
X147831608Y-76602792D01*
X147613101Y-76423468D01*
X147363808Y-76290218D01*
X147093309Y-76208164D01*
X146882492Y-76187400D01*
X146741508Y-76187400D01*
X146530691Y-76208164D01*
X146260192Y-76290218D01*
X146010899Y-76423468D01*
X145792392Y-76602792D01*
X145613068Y-76821299D01*
X145539421Y-76959082D01*
X145424385Y-76767269D01*
X145235414Y-76558881D01*
X145009420Y-76391363D01*
X144755087Y-76271154D01*
X144621039Y-76230496D01*
X144399000Y-76352485D01*
X144399000Y-77495400D01*
X144419000Y-77495400D01*
X144419000Y-77749400D01*
X144399000Y-77749400D01*
X144399000Y-77769400D01*
X144145000Y-77769400D01*
X144145000Y-77749400D01*
X144125000Y-77749400D01*
X144125000Y-77495400D01*
X144145000Y-77495400D01*
X144145000Y-76352485D01*
X143922961Y-76230496D01*
X143788913Y-76271154D01*
X143534580Y-76391363D01*
X143308586Y-76558881D01*
X143119615Y-76767269D01*
X143004579Y-76959082D01*
X142930932Y-76821299D01*
X142751608Y-76602792D01*
X142533101Y-76423468D01*
X142283808Y-76290218D01*
X142013309Y-76208164D01*
X141802492Y-76187400D01*
X141661508Y-76187400D01*
X141450691Y-76208164D01*
X141180192Y-76290218D01*
X140930899Y-76423468D01*
X140731147Y-76587400D01*
X140192853Y-76587400D01*
X139993101Y-76423468D01*
X139743808Y-76290218D01*
X139473309Y-76208164D01*
X139262492Y-76187400D01*
X139220711Y-76187400D01*
X134436764Y-71403454D01*
X134663808Y-71334582D01*
X134913101Y-71201332D01*
X135131608Y-71022008D01*
X135310932Y-70803501D01*
X135382000Y-70670542D01*
X135453068Y-70803501D01*
X135632392Y-71022008D01*
X135850899Y-71201332D01*
X136100192Y-71334582D01*
X136370691Y-71416636D01*
X136581508Y-71437400D01*
X136722492Y-71437400D01*
X136933309Y-71416636D01*
X137203808Y-71334582D01*
X137453101Y-71201332D01*
X137671608Y-71022008D01*
X137850932Y-70803501D01*
X137922000Y-70670542D01*
X137993068Y-70803501D01*
X138172392Y-71022008D01*
X138390899Y-71201332D01*
X138640192Y-71334582D01*
X138910691Y-71416636D01*
X139121508Y-71437400D01*
X139262492Y-71437400D01*
X139473309Y-71416636D01*
X139743808Y-71334582D01*
X139993101Y-71201332D01*
X140211608Y-71022008D01*
X140390932Y-70803501D01*
X140462000Y-70670542D01*
X140533068Y-70803501D01*
X140712392Y-71022008D01*
X140930899Y-71201332D01*
X141180192Y-71334582D01*
X141450691Y-71416636D01*
X141661508Y-71437400D01*
X141802492Y-71437400D01*
X142013309Y-71416636D01*
X142283808Y-71334582D01*
X142533101Y-71201332D01*
X142751608Y-71022008D01*
X142930932Y-70803501D01*
X143002000Y-70670542D01*
X143073068Y-70803501D01*
X143252392Y-71022008D01*
X143470899Y-71201332D01*
X143720192Y-71334582D01*
X143990691Y-71416636D01*
X144201508Y-71437400D01*
X144342492Y-71437400D01*
X144553309Y-71416636D01*
X144823808Y-71334582D01*
X145073101Y-71201332D01*
X145291608Y-71022008D01*
X145470932Y-70803501D01*
X145542000Y-70670542D01*
X145613068Y-70803501D01*
X145792392Y-71022008D01*
X146010899Y-71201332D01*
X146260192Y-71334582D01*
X146530691Y-71416636D01*
X146741508Y-71437400D01*
X146783289Y-71437400D01*
X146844195Y-71498306D01*
X146876603Y-71537795D01*
X146916091Y-71570202D01*
X147034201Y-71667133D01*
X147104496Y-71704706D01*
X147214006Y-71763240D01*
X147409104Y-71822423D01*
X147561161Y-71837399D01*
X147561170Y-71837399D01*
X147611998Y-71842405D01*
X147642492Y-71839402D01*
X149447796Y-73644707D01*
X149480204Y-73684196D01*
X149519692Y-73716603D01*
X149637802Y-73813534D01*
X149695175Y-73844200D01*
X149817607Y-73909641D01*
X150012705Y-73968824D01*
X150164762Y-73983800D01*
X150164771Y-73983800D01*
X150215599Y-73988806D01*
X150266427Y-73983800D01*
X151844290Y-73983800D01*
X156585197Y-78724708D01*
X156617604Y-78764196D01*
X156657092Y-78796603D01*
X156775202Y-78893534D01*
X156859967Y-78938841D01*
X156955007Y-78989641D01*
X157150105Y-79048824D01*
X157302162Y-79063800D01*
X157302164Y-79063800D01*
X157353000Y-79068807D01*
X157403835Y-79063800D01*
X157977747Y-79063800D01*
X158177499Y-79227732D01*
X158426792Y-79360982D01*
X158697291Y-79443036D01*
X158908108Y-79463800D01*
X159049092Y-79463800D01*
X159164673Y-79452416D01*
X158924490Y-79692600D01*
X158882708Y-79692600D01*
X158671891Y-79713364D01*
X158401392Y-79795418D01*
X158152099Y-79928668D01*
X157933592Y-80107992D01*
X157754268Y-80326499D01*
X157621018Y-80575792D01*
X157538964Y-80846291D01*
X157511257Y-81127600D01*
X157538964Y-81408909D01*
X157621018Y-81679408D01*
X157754268Y-81928701D01*
X157933592Y-82147208D01*
X158152099Y-82326532D01*
X158401392Y-82459782D01*
X158671891Y-82541836D01*
X158882708Y-82562600D01*
X159023692Y-82562600D01*
X159234509Y-82541836D01*
X159505008Y-82459782D01*
X159754301Y-82326532D01*
X159972808Y-82147208D01*
X160152132Y-81928701D01*
X160285382Y-81679408D01*
X160367436Y-81408909D01*
X160392765Y-81151746D01*
X161074509Y-80470002D01*
X161113997Y-80437595D01*
X161186166Y-80349657D01*
X161243335Y-80279997D01*
X161303861Y-80166759D01*
X161339442Y-80100192D01*
X161398625Y-79905094D01*
X161413601Y-79753037D01*
X161413601Y-79753028D01*
X161418607Y-79702200D01*
X161413601Y-79651372D01*
X161413601Y-73942428D01*
X161418607Y-73891600D01*
X161413601Y-73840772D01*
X161413601Y-73840763D01*
X161398625Y-73688706D01*
X161339442Y-73493608D01*
X161243335Y-73313804D01*
X161113997Y-73156205D01*
X161074504Y-73123794D01*
X160648107Y-72697397D01*
X160615696Y-72657904D01*
X160458097Y-72528566D01*
X160278293Y-72432459D01*
X160272935Y-72430834D01*
X160358453Y-72224374D01*
X160413600Y-71947135D01*
X160413600Y-71664465D01*
X160358453Y-71387226D01*
X160250280Y-71126073D01*
X160093237Y-70891041D01*
X159893359Y-70691163D01*
X159658327Y-70534120D01*
X159397174Y-70425947D01*
X159119935Y-70370800D01*
X159007311Y-70370800D01*
X158311307Y-69674797D01*
X158278896Y-69635304D01*
X158121297Y-69505966D01*
X157941493Y-69409859D01*
X157864160Y-69386400D01*
X160200890Y-69386400D01*
X162109201Y-71294712D01*
X162109200Y-82248289D01*
X159793992Y-84563498D01*
X159754505Y-84595904D01*
X159722098Y-84635392D01*
X159722097Y-84635393D01*
X159625166Y-84753503D01*
X159529060Y-84933307D01*
X159474027Y-85114726D01*
X159437807Y-85070592D01*
X159225086Y-84896017D01*
X158982394Y-84766296D01*
X158719059Y-84686414D01*
X158445200Y-84659441D01*
X158171340Y-84686414D01*
X157908005Y-84766296D01*
X157665313Y-84896017D01*
X157452592Y-85070593D01*
X157278017Y-85283314D01*
X157175200Y-85475671D01*
X157072383Y-85283313D01*
X156897807Y-85070592D01*
X156685086Y-84896017D01*
X156442394Y-84766296D01*
X156179059Y-84686414D01*
X155905200Y-84659441D01*
X155631340Y-84686414D01*
X155368005Y-84766296D01*
X155125313Y-84896017D01*
X154912592Y-85070593D01*
X154738017Y-85283314D01*
X154634162Y-85477614D01*
X154607259Y-85411258D01*
X154456206Y-85181471D01*
X154263226Y-84985568D01*
X154035735Y-84831078D01*
X153782476Y-84723938D01*
X153708270Y-84708980D01*
X153492200Y-84831480D01*
X153492200Y-86436200D01*
X153512200Y-86436200D01*
X153512200Y-86690200D01*
X153492200Y-86690200D01*
X153492200Y-86710200D01*
X153238200Y-86710200D01*
X153238200Y-86690200D01*
X153218200Y-86690200D01*
X153218200Y-86436200D01*
X153238200Y-86436200D01*
X153238200Y-84831480D01*
X153022130Y-84708980D01*
X152947924Y-84723938D01*
X152694665Y-84831078D01*
X152467174Y-84985568D01*
X152274194Y-85181471D01*
X152123141Y-85411258D01*
X152096238Y-85477613D01*
X151992383Y-85283313D01*
X151860200Y-85122248D01*
X151860200Y-84552035D01*
X151865207Y-84501200D01*
X151860200Y-84450362D01*
X151845224Y-84298305D01*
X151786041Y-84103207D01*
X151703292Y-83948394D01*
X151689934Y-83923402D01*
X151593003Y-83805292D01*
X151560596Y-83765804D01*
X151521108Y-83733397D01*
X150327607Y-82539897D01*
X150295196Y-82500404D01*
X150137597Y-82371066D01*
X149957793Y-82274959D01*
X149762695Y-82215776D01*
X149610638Y-82200800D01*
X149610628Y-82200800D01*
X149559800Y-82195794D01*
X149508972Y-82200800D01*
X144043435Y-82200800D01*
X143992600Y-82195793D01*
X143941764Y-82200800D01*
X143941762Y-82200800D01*
X143789705Y-82215776D01*
X143594607Y-82274959D01*
X143547714Y-82300024D01*
X143414802Y-82371066D01*
X143312068Y-82455378D01*
X143257204Y-82500404D01*
X143224797Y-82539892D01*
X142973289Y-82791400D01*
X142860665Y-82791400D01*
X142583426Y-82846547D01*
X142322273Y-82954720D01*
X142087241Y-83111763D01*
X141887363Y-83311641D01*
X141730320Y-83546673D01*
X141622147Y-83807826D01*
X141567000Y-84085065D01*
X141567000Y-84367735D01*
X141622147Y-84644974D01*
X141730320Y-84906127D01*
X141887363Y-85141159D01*
X142087241Y-85341037D01*
X142322273Y-85498080D01*
X142583426Y-85606253D01*
X142860665Y-85661400D01*
X143143335Y-85661400D01*
X143420574Y-85606253D01*
X143681727Y-85498080D01*
X143916759Y-85341037D01*
X144116637Y-85141159D01*
X144273680Y-84906127D01*
X144381853Y-84644974D01*
X144437000Y-84367735D01*
X144437000Y-84270800D01*
X149131090Y-84270800D01*
X149790201Y-84929912D01*
X149790201Y-85122247D01*
X149658017Y-85283314D01*
X149555200Y-85475671D01*
X149452383Y-85283313D01*
X149277807Y-85070592D01*
X149065086Y-84896017D01*
X148822394Y-84766296D01*
X148559059Y-84686414D01*
X148285200Y-84659441D01*
X148011340Y-84686414D01*
X147748005Y-84766296D01*
X147505313Y-84896017D01*
X147292592Y-85070593D01*
X147118017Y-85283314D01*
X146988296Y-85526006D01*
X146908414Y-85789341D01*
X146888200Y-85994576D01*
X146888200Y-86341000D01*
X144002853Y-86341000D01*
X143803101Y-86177068D01*
X143553808Y-86043818D01*
X143283309Y-85961764D01*
X143072492Y-85941000D01*
X142931508Y-85941000D01*
X142720691Y-85961764D01*
X142450192Y-86043818D01*
X142200899Y-86177068D01*
X141982392Y-86356392D01*
X141803068Y-86574899D01*
X141669818Y-86824192D01*
X141587764Y-87094691D01*
X141560057Y-87376000D01*
X141587764Y-87657309D01*
X141669818Y-87927808D01*
X141803068Y-88177101D01*
X141982392Y-88395608D01*
X142200899Y-88574932D01*
X142450192Y-88708182D01*
X142720691Y-88790236D01*
X142931508Y-88811000D01*
X143072492Y-88811000D01*
X143283309Y-88790236D01*
X143342304Y-88772340D01*
X143320308Y-88784097D01*
X143224201Y-88835467D01*
X143144186Y-88901134D01*
X143066603Y-88964805D01*
X143034196Y-89004293D01*
X142973289Y-89065200D01*
X142931508Y-89065200D01*
X142720691Y-89085964D01*
X142450192Y-89168018D01*
X142200899Y-89301268D01*
X141982392Y-89480592D01*
X141803068Y-89699099D01*
X141669818Y-89948392D01*
X141587764Y-90218891D01*
X141560057Y-90500200D01*
X141587764Y-90781509D01*
X141669818Y-91052008D01*
X141803068Y-91301301D01*
X141982392Y-91519808D01*
X142200899Y-91699132D01*
X142450192Y-91832382D01*
X142720691Y-91914436D01*
X142931508Y-91935200D01*
X143072492Y-91935200D01*
X143283309Y-91914436D01*
X143553808Y-91832382D01*
X143803101Y-91699132D01*
X144021608Y-91519808D01*
X144200932Y-91301301D01*
X144334182Y-91052008D01*
X144416236Y-90781509D01*
X144420797Y-90735201D01*
X148323171Y-90735201D01*
X148360784Y-90738906D01*
X148287797Y-90811893D01*
X148287792Y-90811897D01*
X146535690Y-92564000D01*
X144021796Y-92564000D01*
X143942159Y-92484363D01*
X143707127Y-92327320D01*
X143445974Y-92219147D01*
X143168735Y-92164000D01*
X142886065Y-92164000D01*
X142608826Y-92219147D01*
X142347673Y-92327320D01*
X142112641Y-92484363D01*
X141912763Y-92684241D01*
X141755720Y-92919273D01*
X141647547Y-93180426D01*
X141592400Y-93457665D01*
X141592400Y-93740335D01*
X141647547Y-94017574D01*
X141755720Y-94278727D01*
X141912763Y-94513759D01*
X142112641Y-94713637D01*
X142347673Y-94870680D01*
X142608826Y-94978853D01*
X142886065Y-95034000D01*
X143168735Y-95034000D01*
X143445974Y-94978853D01*
X143707127Y-94870680D01*
X143942159Y-94713637D01*
X144021796Y-94634000D01*
X146913572Y-94634000D01*
X146964400Y-94639006D01*
X147015228Y-94634000D01*
X147015238Y-94634000D01*
X147167295Y-94619024D01*
X147362393Y-94559841D01*
X147542197Y-94463734D01*
X147699796Y-94334396D01*
X147732207Y-94294903D01*
X149751503Y-92275608D01*
X149751507Y-92275603D01*
X150898311Y-91128800D01*
X155363772Y-91128800D01*
X155414600Y-91133806D01*
X155465428Y-91128800D01*
X155465438Y-91128800D01*
X155617495Y-91113824D01*
X155812593Y-91054641D01*
X155992397Y-90958534D01*
X156149996Y-90829196D01*
X156182407Y-90789703D01*
X158511702Y-88460409D01*
X158719060Y-88439986D01*
X158982395Y-88360104D01*
X159225087Y-88230383D01*
X159437808Y-88055808D01*
X159454900Y-88034981D01*
X159454900Y-88125272D01*
X159449894Y-88176100D01*
X159454900Y-88226928D01*
X159454900Y-88226937D01*
X159469876Y-88378994D01*
X159529059Y-88574092D01*
X159625166Y-88753897D01*
X159754504Y-88911496D01*
X159793997Y-88943907D01*
X161068297Y-90218208D01*
X161100704Y-90257696D01*
X161140192Y-90290103D01*
X161258302Y-90387034D01*
X161349158Y-90435597D01*
X161438107Y-90483141D01*
X161633205Y-90542324D01*
X161785262Y-90557300D01*
X161785271Y-90557300D01*
X161836099Y-90562306D01*
X161886927Y-90557300D01*
X164177472Y-90557300D01*
X164228300Y-90562306D01*
X164279128Y-90557300D01*
X164279138Y-90557300D01*
X164431195Y-90542324D01*
X164626293Y-90483141D01*
X164806097Y-90387034D01*
X164963696Y-90257696D01*
X164996107Y-90218203D01*
X165846708Y-89367603D01*
X165886196Y-89335196D01*
X165923333Y-89289944D01*
X166015534Y-89177598D01*
X166088635Y-89040834D01*
X166111641Y-88997793D01*
X166170824Y-88802695D01*
X166185800Y-88650638D01*
X166185800Y-88650629D01*
X166190806Y-88599801D01*
X166185800Y-88548973D01*
X166185800Y-87978753D01*
X166317983Y-87817687D01*
X166421838Y-87623387D01*
X166448741Y-87689742D01*
X166599794Y-87919529D01*
X166792774Y-88115432D01*
X167020265Y-88269922D01*
X167273524Y-88377062D01*
X167347730Y-88392020D01*
X167563800Y-88269520D01*
X167563800Y-86664800D01*
X167543800Y-86664800D01*
X167543800Y-86410800D01*
X167563800Y-86410800D01*
X167563800Y-84806080D01*
X167347730Y-84683580D01*
X167273524Y-84698538D01*
X167020265Y-84805678D01*
X166792774Y-84960168D01*
X166599794Y-85156071D01*
X166448741Y-85385858D01*
X166421838Y-85452213D01*
X166317983Y-85257913D01*
X166143407Y-85045192D01*
X165930686Y-84870617D01*
X165687994Y-84740896D01*
X165445097Y-84667214D01*
X165869107Y-84243204D01*
X165908595Y-84210797D01*
X165941002Y-84171309D01*
X166037933Y-84053199D01*
X166096183Y-83944220D01*
X166134040Y-83873394D01*
X166193223Y-83678296D01*
X166208199Y-83526239D01*
X166208199Y-83526230D01*
X166213205Y-83475402D01*
X166208199Y-83424574D01*
X166208199Y-82696209D01*
X166311502Y-82799512D01*
X166309800Y-82808067D01*
X166309800Y-83130133D01*
X166372632Y-83446012D01*
X166495882Y-83743563D01*
X166674813Y-84011352D01*
X166902548Y-84239087D01*
X167170337Y-84418018D01*
X167467888Y-84541268D01*
X167783767Y-84604100D01*
X168105833Y-84604100D01*
X168421712Y-84541268D01*
X168719263Y-84418018D01*
X168987052Y-84239087D01*
X169195801Y-84030338D01*
X169195801Y-85096847D01*
X169063617Y-85257914D01*
X168959762Y-85452214D01*
X168932859Y-85385858D01*
X168781806Y-85156071D01*
X168588826Y-84960168D01*
X168361335Y-84805678D01*
X168108076Y-84698538D01*
X168033870Y-84683580D01*
X167817800Y-84806080D01*
X167817800Y-86410800D01*
X167837800Y-86410800D01*
X167837800Y-86664800D01*
X167817800Y-86664800D01*
X167817800Y-88269520D01*
X168033870Y-88392020D01*
X168108076Y-88377062D01*
X168361335Y-88269922D01*
X168588826Y-88115432D01*
X168781806Y-87919529D01*
X168932859Y-87689742D01*
X168959762Y-87623387D01*
X169063617Y-87817687D01*
X169238193Y-88030408D01*
X169450914Y-88204983D01*
X169693606Y-88334704D01*
X169956941Y-88414586D01*
X170230800Y-88441559D01*
X170504660Y-88414586D01*
X170767995Y-88334704D01*
X171010687Y-88204983D01*
X171223408Y-88030408D01*
X171397983Y-87817687D01*
X171500800Y-87625329D01*
X171603617Y-87817687D01*
X171778193Y-88030408D01*
X171990914Y-88204983D01*
X172233606Y-88334704D01*
X172496941Y-88414586D01*
X172770800Y-88441559D01*
X173044660Y-88414586D01*
X173307995Y-88334704D01*
X173550687Y-88204983D01*
X173763408Y-88030408D01*
X173937983Y-87817687D01*
X174067704Y-87574995D01*
X174147586Y-87311660D01*
X174167800Y-87106425D01*
X174167800Y-85969175D01*
X174147586Y-85763940D01*
X174067704Y-85500605D01*
X173937983Y-85257913D01*
X173805800Y-85096848D01*
X173805800Y-69646827D01*
X173810806Y-69595999D01*
X173805800Y-69545171D01*
X173805800Y-69545162D01*
X173790824Y-69393105D01*
X173731641Y-69198007D01*
X173672198Y-69086796D01*
X173635534Y-69018202D01*
X173538603Y-68900092D01*
X173506196Y-68860604D01*
X173466708Y-68828197D01*
X166934607Y-62296097D01*
X166902196Y-62256604D01*
X166744597Y-62127266D01*
X166564793Y-62031159D01*
X166369695Y-61971976D01*
X166217638Y-61957000D01*
X166217628Y-61957000D01*
X166166800Y-61951994D01*
X166115972Y-61957000D01*
X156961209Y-61957000D01*
X157011101Y-61930332D01*
X157229608Y-61751008D01*
X157408932Y-61532501D01*
X157542182Y-61283208D01*
X157624236Y-61012709D01*
X157651943Y-60731400D01*
X157624236Y-60450091D01*
X157542182Y-60179592D01*
X157408932Y-59930299D01*
X157229608Y-59711792D01*
X157011101Y-59532468D01*
X156761808Y-59399218D01*
X156491309Y-59317164D01*
X156280492Y-59296400D01*
X156238710Y-59296400D01*
X156177808Y-59235498D01*
X156145397Y-59196005D01*
X155987798Y-59066667D01*
X155807994Y-58970560D01*
X155612896Y-58911377D01*
X155460839Y-58896401D01*
X155460829Y-58896401D01*
X155410001Y-58891395D01*
X155359173Y-58896401D01*
X142659026Y-58896401D01*
X142608198Y-58891395D01*
X142557370Y-58896401D01*
X142557361Y-58896401D01*
X142405304Y-58911377D01*
X142210206Y-58970560D01*
X142126508Y-59015297D01*
X142030401Y-59066667D01*
X141912291Y-59163598D01*
X141872803Y-59196005D01*
X141840396Y-59235493D01*
X135956093Y-65119797D01*
X135916605Y-65152204D01*
X135884198Y-65191692D01*
X135884197Y-65191693D01*
X135787266Y-65309803D01*
X135691160Y-65489607D01*
X135631977Y-65684705D01*
X135611994Y-65887600D01*
X135617001Y-65938438D01*
X135617000Y-69001547D01*
X135453068Y-69201299D01*
X135382000Y-69334258D01*
X135310932Y-69201299D01*
X135147000Y-69001547D01*
X135147000Y-66929027D01*
X135152006Y-66878199D01*
X135147000Y-66827371D01*
X135147000Y-66827362D01*
X135132024Y-66675305D01*
X135072841Y-66480207D01*
X135003887Y-66351203D01*
X134976734Y-66300402D01*
X134879803Y-66182292D01*
X134847396Y-66142804D01*
X134807908Y-66110397D01*
X132866857Y-64169347D01*
X132834446Y-64129854D01*
X132676847Y-64000516D01*
X132497043Y-63904409D01*
X132301945Y-63845226D01*
X132149888Y-63830250D01*
X132149878Y-63830250D01*
X132099050Y-63825244D01*
X132048222Y-63830250D01*
X128481377Y-63830250D01*
X128430549Y-63825244D01*
X128379721Y-63830250D01*
X128379712Y-63830250D01*
X128227655Y-63845226D01*
X128032557Y-63904409D01*
X127960989Y-63942663D01*
X127852752Y-64000516D01*
X127839237Y-64011608D01*
X127695154Y-64129854D01*
X127662743Y-64169347D01*
X127483574Y-64348516D01*
X127478485Y-64342315D01*
X127387300Y-64267482D01*
X127387300Y-64044335D01*
X127392307Y-63993500D01*
X127383764Y-63906759D01*
X127372324Y-63790605D01*
X127313141Y-63595507D01*
X127249113Y-63475718D01*
X127217034Y-63415702D01*
X127120103Y-63297592D01*
X127087696Y-63258104D01*
X127048208Y-63225697D01*
X125514292Y-61691782D01*
X125486068Y-61549888D01*
X125362818Y-61252337D01*
X125183887Y-60984548D01*
X124956152Y-60756813D01*
X124688363Y-60577882D01*
X124390812Y-60454632D01*
X124074933Y-60391800D01*
X123752867Y-60391800D01*
X123436988Y-60454632D01*
X123139437Y-60577882D01*
X122871648Y-60756813D01*
X122643913Y-60984548D01*
X122464982Y-61252337D01*
X122341732Y-61549888D01*
X122278900Y-61865767D01*
X122278900Y-62187833D01*
X122341732Y-62503712D01*
X122464982Y-62801263D01*
X122643913Y-63069052D01*
X122871648Y-63296787D01*
X123139437Y-63475718D01*
X123436988Y-63598968D01*
X123752867Y-63661800D01*
X124074933Y-63661800D01*
X124390812Y-63598968D01*
X124463818Y-63568728D01*
X125232316Y-64337226D01*
X125226115Y-64342315D01*
X125149181Y-64436059D01*
X125015929Y-64339027D01*
X124782828Y-64231262D01*
X124681700Y-64200590D01*
X124479300Y-64324276D01*
X124479300Y-65341500D01*
X124499300Y-65341500D01*
X124499300Y-65595500D01*
X124479300Y-65595500D01*
X124479300Y-65615500D01*
X124225300Y-65615500D01*
X124225300Y-65595500D01*
X124205300Y-65595500D01*
X124205300Y-65341500D01*
X124225300Y-65341500D01*
X124225300Y-64324276D01*
X124022900Y-64200590D01*
X123921772Y-64231262D01*
X123688671Y-64339027D01*
X123481073Y-64490197D01*
X123355672Y-64626148D01*
X123283092Y-64537708D01*
X123083618Y-64374005D01*
X122856041Y-64252362D01*
X122609105Y-64177455D01*
X122416651Y-64158500D01*
X122287949Y-64158500D01*
X122095495Y-64177455D01*
X121848559Y-64252362D01*
X121620982Y-64374005D01*
X121421508Y-64537708D01*
X121352300Y-64622039D01*
X121283092Y-64537708D01*
X121083618Y-64374005D01*
X120856041Y-64252362D01*
X120609105Y-64177455D01*
X120438347Y-64160637D01*
X120644312Y-64119668D01*
X120941863Y-63996418D01*
X121209652Y-63817487D01*
X121437387Y-63589752D01*
X121616318Y-63321963D01*
X121739568Y-63024412D01*
X121802400Y-62708533D01*
X121802400Y-62386467D01*
X121739568Y-62070588D01*
X121616318Y-61773037D01*
X121437387Y-61505248D01*
X121209652Y-61277513D01*
X120941863Y-61098582D01*
X120644312Y-60975332D01*
X120328433Y-60912500D01*
X120006367Y-60912500D01*
X119690488Y-60975332D01*
X119392937Y-61098582D01*
X119125148Y-61277513D01*
X118897413Y-61505248D01*
X118718482Y-61773037D01*
X118595232Y-62070588D01*
X118532400Y-62386467D01*
X118532400Y-62708533D01*
X118534102Y-62717088D01*
X116864139Y-64387051D01*
X116963938Y-64200341D01*
X117038845Y-63953405D01*
X117064138Y-63696600D01*
X117038845Y-63439795D01*
X116963938Y-63192859D01*
X116842295Y-62965282D01*
X116785169Y-62895674D01*
X116873985Y-62822785D01*
X116953337Y-62726094D01*
X117012302Y-62615780D01*
X117048612Y-62496082D01*
X117060872Y-62371600D01*
X117057800Y-61982350D01*
X116899050Y-61823600D01*
X115874800Y-61823600D01*
X115874800Y-61843600D01*
X115620800Y-61843600D01*
X115620800Y-61823600D01*
X114596550Y-61823600D01*
X114437800Y-61982350D01*
X114434728Y-62371600D01*
X114446988Y-62496082D01*
X114483298Y-62615780D01*
X114507790Y-62661600D01*
X112757227Y-62661600D01*
X112706399Y-62656594D01*
X112655571Y-62661600D01*
X112655562Y-62661600D01*
X112503505Y-62676576D01*
X112308407Y-62735759D01*
X112258947Y-62762196D01*
X112128602Y-62831866D01*
X112109126Y-62847850D01*
X111971004Y-62961204D01*
X111938597Y-63000692D01*
X106911192Y-68028097D01*
X106098392Y-68840898D01*
X106058905Y-68873304D01*
X106026498Y-68912792D01*
X106026497Y-68912793D01*
X105929566Y-69030903D01*
X105833460Y-69210707D01*
X105774277Y-69405805D01*
X105754294Y-69608700D01*
X105759301Y-69659538D01*
X105759300Y-75298272D01*
X105754294Y-75349100D01*
X105759300Y-75399928D01*
X105759300Y-75399937D01*
X105774276Y-75551994D01*
X105833459Y-75747092D01*
X105929566Y-75926897D01*
X106058904Y-76084496D01*
X106098397Y-76116907D01*
X107093297Y-77111808D01*
X107125704Y-77151296D01*
X107165192Y-77183703D01*
X107283302Y-77280634D01*
X107371429Y-77327738D01*
X107463107Y-77376741D01*
X107658205Y-77435924D01*
X107810262Y-77450900D01*
X107810271Y-77450900D01*
X107861099Y-77455906D01*
X107911927Y-77450900D01*
X109639072Y-77450900D01*
X109689900Y-77455906D01*
X109740728Y-77450900D01*
X109740738Y-77450900D01*
X109892795Y-77435924D01*
X110087893Y-77376741D01*
X110267697Y-77280634D01*
X110425296Y-77151296D01*
X110457707Y-77111803D01*
X110814109Y-76755401D01*
X111774617Y-76755401D01*
X111733420Y-76767898D01*
X111623106Y-76826863D01*
X111526415Y-76906215D01*
X111447063Y-77002906D01*
X111388098Y-77113220D01*
X111351788Y-77232918D01*
X111339528Y-77357400D01*
X111342600Y-77971650D01*
X111501350Y-78130400D01*
X112750600Y-78130400D01*
X112750600Y-78110400D01*
X113004600Y-78110400D01*
X113004600Y-78130400D01*
X114253850Y-78130400D01*
X114412600Y-77971650D01*
X114415672Y-77357400D01*
X114415485Y-77355498D01*
X122783303Y-77355498D01*
X123596400Y-78168595D01*
X124409497Y-77355498D01*
X124337914Y-77111529D01*
X124082404Y-76990629D01*
X123808216Y-76921900D01*
X123525888Y-76907983D01*
X123246270Y-76949413D01*
X122980108Y-77044597D01*
X122854886Y-77111529D01*
X122783303Y-77355498D01*
X114415485Y-77355498D01*
X114403412Y-77232918D01*
X114367102Y-77113220D01*
X114308137Y-77002906D01*
X114228785Y-76906215D01*
X114132094Y-76826863D01*
X114021780Y-76767898D01*
X113902082Y-76731588D01*
X113777600Y-76719328D01*
X113649527Y-76719969D01*
X113777190Y-76681242D01*
X113956994Y-76585135D01*
X114114593Y-76455797D01*
X114147004Y-76416304D01*
X114696895Y-75866413D01*
X119696592Y-75866413D01*
X119792356Y-76130814D01*
X120081971Y-76271704D01*
X120393508Y-76353384D01*
X120714995Y-76372718D01*
X121034075Y-76328961D01*
X121338488Y-76223795D01*
X121512444Y-76130814D01*
X121608208Y-75866413D01*
X120652400Y-74910605D01*
X119696592Y-75866413D01*
X114696895Y-75866413D01*
X116599309Y-73964000D01*
X119207323Y-73964000D01*
X119111696Y-74160571D01*
X119030016Y-74472108D01*
X119010682Y-74793595D01*
X119054439Y-75112675D01*
X119159605Y-75417088D01*
X119252586Y-75591044D01*
X119516987Y-75686808D01*
X120472795Y-74731000D01*
X120458653Y-74716858D01*
X120638258Y-74537253D01*
X120652400Y-74551395D01*
X120666543Y-74537253D01*
X120846148Y-74716858D01*
X120832005Y-74731000D01*
X121787813Y-75686808D01*
X122052214Y-75591044D01*
X122193104Y-75301429D01*
X122274784Y-74989892D01*
X122294118Y-74668405D01*
X122250361Y-74349325D01*
X122145195Y-74044912D01*
X122101947Y-73964000D01*
X125707323Y-73964000D01*
X125611696Y-74160571D01*
X125530016Y-74472108D01*
X125510682Y-74793595D01*
X125554439Y-75112675D01*
X125659605Y-75417088D01*
X125752586Y-75591044D01*
X126016987Y-75686808D01*
X126972795Y-74731000D01*
X126958653Y-74716858D01*
X127138258Y-74537253D01*
X127152400Y-74551395D01*
X127166543Y-74537253D01*
X127346148Y-74716858D01*
X127332005Y-74731000D01*
X127346148Y-74745143D01*
X127166543Y-74924748D01*
X127152400Y-74910605D01*
X126196592Y-75866413D01*
X126292356Y-76130814D01*
X126581971Y-76271704D01*
X126642513Y-76287577D01*
X124995997Y-77934093D01*
X124977683Y-77949123D01*
X124900003Y-77731908D01*
X124833071Y-77606686D01*
X124589102Y-77535103D01*
X123776005Y-78348200D01*
X123790148Y-78362343D01*
X123610543Y-78541948D01*
X123596400Y-78527805D01*
X122783303Y-79340902D01*
X122803615Y-79410128D01*
X122796400Y-79410128D01*
X122671918Y-79422388D01*
X122552220Y-79458698D01*
X122441906Y-79517663D01*
X122345215Y-79597015D01*
X122319130Y-79628800D01*
X120047618Y-79628800D01*
X119972785Y-79537615D01*
X119879041Y-79460681D01*
X119976073Y-79327429D01*
X120083838Y-79094328D01*
X120114510Y-78993200D01*
X119990824Y-78790800D01*
X118973600Y-78790800D01*
X118973600Y-78810800D01*
X118719600Y-78810800D01*
X118719600Y-78790800D01*
X117702376Y-78790800D01*
X117578690Y-78993200D01*
X117609362Y-79094328D01*
X117717127Y-79327429D01*
X117814159Y-79460681D01*
X117720415Y-79537615D01*
X117641063Y-79634306D01*
X117582098Y-79744620D01*
X117545788Y-79864318D01*
X117533528Y-79988800D01*
X117533528Y-81338800D01*
X117545788Y-81463282D01*
X117582098Y-81582980D01*
X117641063Y-81693294D01*
X117720415Y-81789985D01*
X117817106Y-81869337D01*
X117927420Y-81928302D01*
X118047118Y-81964612D01*
X118171600Y-81976872D01*
X119521600Y-81976872D01*
X119646082Y-81964612D01*
X119765780Y-81928302D01*
X119876094Y-81869337D01*
X119972785Y-81789985D01*
X120047618Y-81698800D01*
X122163311Y-81698800D01*
X122170588Y-81772682D01*
X122206898Y-81892380D01*
X122265863Y-82002694D01*
X122345215Y-82099385D01*
X122441906Y-82178737D01*
X122552220Y-82237702D01*
X122561401Y-82240487D01*
X122561401Y-83010288D01*
X122018290Y-83553400D01*
X121976508Y-83553400D01*
X121765691Y-83574164D01*
X121495192Y-83656218D01*
X121245899Y-83789468D01*
X121046147Y-83953400D01*
X120507853Y-83953400D01*
X120308101Y-83789468D01*
X120058808Y-83656218D01*
X119788309Y-83574164D01*
X119577492Y-83553400D01*
X119436508Y-83553400D01*
X119225691Y-83574164D01*
X118955192Y-83656218D01*
X118705899Y-83789468D01*
X118487392Y-83968792D01*
X118308068Y-84187299D01*
X118234421Y-84325082D01*
X118119385Y-84133269D01*
X117930414Y-83924881D01*
X117704420Y-83757363D01*
X117450087Y-83637154D01*
X117316039Y-83596496D01*
X117094000Y-83718485D01*
X117094000Y-84861400D01*
X117114000Y-84861400D01*
X117114000Y-85115400D01*
X117094000Y-85115400D01*
X117094000Y-85135400D01*
X116840000Y-85135400D01*
X116840000Y-85115400D01*
X116820000Y-85115400D01*
X116820000Y-84861400D01*
X116840000Y-84861400D01*
X116840000Y-83718485D01*
X116617961Y-83596496D01*
X116483913Y-83637154D01*
X116229580Y-83757363D01*
X116003586Y-83924881D01*
X115814615Y-84133269D01*
X115699579Y-84325082D01*
X115625932Y-84187299D01*
X115446608Y-83968792D01*
X115228101Y-83789468D01*
X114978808Y-83656218D01*
X114708309Y-83574164D01*
X114497492Y-83553400D01*
X114356508Y-83553400D01*
X114145691Y-83574164D01*
X113875192Y-83656218D01*
X113625899Y-83789468D01*
X113407392Y-83968792D01*
X113228068Y-84187299D01*
X113157000Y-84320258D01*
X113085932Y-84187299D01*
X112906608Y-83968792D01*
X112688101Y-83789468D01*
X112438808Y-83656218D01*
X112168309Y-83574164D01*
X111957492Y-83553400D01*
X111816508Y-83553400D01*
X111605691Y-83574164D01*
X111335192Y-83656218D01*
X111085899Y-83789468D01*
X110867392Y-83968792D01*
X110688068Y-84187299D01*
X110614421Y-84325082D01*
X110499385Y-84133269D01*
X110310414Y-83924881D01*
X110084420Y-83757363D01*
X109830087Y-83637154D01*
X109696039Y-83596496D01*
X109474000Y-83718485D01*
X109474000Y-84861400D01*
X109494000Y-84861400D01*
X109494000Y-85115400D01*
X109474000Y-85115400D01*
X109474000Y-86258315D01*
X109696039Y-86380304D01*
X109830087Y-86339646D01*
X110084420Y-86219437D01*
X110310414Y-86051919D01*
X110499385Y-85843531D01*
X110614421Y-85651718D01*
X110688068Y-85789501D01*
X110867392Y-86008008D01*
X111085899Y-86187332D01*
X111335192Y-86320582D01*
X111605691Y-86402636D01*
X111816508Y-86423400D01*
X111858290Y-86423400D01*
X114167197Y-88732308D01*
X114199604Y-88771796D01*
X114239092Y-88804203D01*
X114357202Y-88901134D01*
X114404723Y-88926534D01*
X114537007Y-88997241D01*
X114732105Y-89056424D01*
X114884162Y-89071400D01*
X114884164Y-89071400D01*
X114935000Y-89076407D01*
X114985835Y-89071400D01*
X117995033Y-89071400D01*
X117880282Y-89243137D01*
X117757032Y-89540688D01*
X117694200Y-89856567D01*
X117694200Y-90178633D01*
X117757032Y-90494512D01*
X117880282Y-90792063D01*
X118059213Y-91059852D01*
X118286948Y-91287587D01*
X118554737Y-91466518D01*
X118608997Y-91488993D01*
X118487392Y-91588792D01*
X118308068Y-91807299D01*
X118237000Y-91940258D01*
X118165932Y-91807299D01*
X117986608Y-91588792D01*
X117768101Y-91409468D01*
X117518808Y-91276218D01*
X117248309Y-91194164D01*
X117037492Y-91173400D01*
X116896508Y-91173400D01*
X116685691Y-91194164D01*
X116415192Y-91276218D01*
X116165899Y-91409468D01*
X115947392Y-91588792D01*
X115768068Y-91807299D01*
X115697000Y-91940258D01*
X115625932Y-91807299D01*
X115446608Y-91588792D01*
X115228101Y-91409468D01*
X114978808Y-91276218D01*
X114708309Y-91194164D01*
X114497492Y-91173400D01*
X114356508Y-91173400D01*
X114145691Y-91194164D01*
X113875192Y-91276218D01*
X113625899Y-91409468D01*
X113407392Y-91588792D01*
X113228068Y-91807299D01*
X113157000Y-91940258D01*
X113085932Y-91807299D01*
X112906608Y-91588792D01*
X112688101Y-91409468D01*
X112438808Y-91276218D01*
X112168309Y-91194164D01*
X111957492Y-91173400D01*
X111816508Y-91173400D01*
X111605691Y-91194164D01*
X111335192Y-91276218D01*
X111085899Y-91409468D01*
X110867392Y-91588792D01*
X110688068Y-91807299D01*
X110617000Y-91940258D01*
X110545932Y-91807299D01*
X110366608Y-91588792D01*
X110148101Y-91409468D01*
X109898808Y-91276218D01*
X109628309Y-91194164D01*
X109417492Y-91173400D01*
X109276508Y-91173400D01*
X109065691Y-91194164D01*
X108795192Y-91276218D01*
X108545899Y-91409468D01*
X108327392Y-91588792D01*
X108148068Y-91807299D01*
X108014818Y-92056592D01*
X107932764Y-92327091D01*
X107905057Y-92608400D01*
X107932764Y-92889709D01*
X108014818Y-93160208D01*
X108148068Y-93409501D01*
X108312001Y-93609254D01*
X108312001Y-93688933D01*
X108306994Y-93739770D01*
X108326977Y-93942665D01*
X108386160Y-94137763D01*
X108482266Y-94317567D01*
X108579197Y-94435677D01*
X108611605Y-94475166D01*
X108651093Y-94507573D01*
X114056604Y-99913085D01*
X108758100Y-99913085D01*
X108758100Y-101376074D01*
X108656502Y-101308188D01*
X108267956Y-101147247D01*
X107855479Y-101065200D01*
X107434921Y-101065200D01*
X107022444Y-101147247D01*
X106633898Y-101308188D01*
X106284217Y-101541837D01*
X105986837Y-101839217D01*
X105753188Y-102188898D01*
X105592247Y-102577444D01*
X105510200Y-102989921D01*
X104606990Y-102989921D01*
X104661725Y-85337440D01*
X107955091Y-85337440D01*
X108049930Y-85602281D01*
X108194615Y-85843531D01*
X108383586Y-86051919D01*
X108609580Y-86219437D01*
X108863913Y-86339646D01*
X108997961Y-86380304D01*
X109220000Y-86258315D01*
X109220000Y-85115400D01*
X108076376Y-85115400D01*
X107955091Y-85337440D01*
X104661725Y-85337440D01*
X104663889Y-84639360D01*
X107955091Y-84639360D01*
X108076376Y-84861400D01*
X109220000Y-84861400D01*
X109220000Y-83718485D01*
X108997961Y-83596496D01*
X108863913Y-83637154D01*
X108609580Y-83757363D01*
X108383586Y-83924881D01*
X108194615Y-84133269D01*
X108049930Y-84374519D01*
X107955091Y-84639360D01*
X104663889Y-84639360D01*
X104672697Y-81799065D01*
X107302400Y-81799065D01*
X107302400Y-82081735D01*
X107357547Y-82358974D01*
X107465720Y-82620127D01*
X107622763Y-82855159D01*
X107822641Y-83055037D01*
X108057673Y-83212080D01*
X108318826Y-83320253D01*
X108596065Y-83375400D01*
X108878735Y-83375400D01*
X109155974Y-83320253D01*
X109417127Y-83212080D01*
X109652159Y-83055037D01*
X109852037Y-82855159D01*
X110009080Y-82620127D01*
X110117253Y-82358974D01*
X110172400Y-82081735D01*
X110172400Y-81969111D01*
X110309111Y-81832400D01*
X111741783Y-81832400D01*
X111899095Y-81989712D01*
X112150505Y-82157699D01*
X112429857Y-82273411D01*
X112726416Y-82332400D01*
X113028784Y-82332400D01*
X113325343Y-82273411D01*
X113604695Y-82157699D01*
X113856105Y-81989712D01*
X114069912Y-81775905D01*
X114237899Y-81524495D01*
X114353611Y-81245143D01*
X114412600Y-80948584D01*
X114412600Y-80646216D01*
X114353611Y-80349657D01*
X114237899Y-80070305D01*
X114069912Y-79818895D01*
X114003473Y-79752456D01*
X114021780Y-79746902D01*
X114132094Y-79687937D01*
X114228785Y-79608585D01*
X114308137Y-79511894D01*
X114367102Y-79401580D01*
X114403412Y-79281882D01*
X114415672Y-79157400D01*
X114412600Y-78543150D01*
X114253850Y-78384400D01*
X113004600Y-78384400D01*
X113004600Y-78404400D01*
X112750600Y-78404400D01*
X112750600Y-78384400D01*
X111501350Y-78384400D01*
X111342600Y-78543150D01*
X111339528Y-79157400D01*
X111351788Y-79281882D01*
X111388098Y-79401580D01*
X111447063Y-79511894D01*
X111526415Y-79608585D01*
X111623106Y-79687937D01*
X111733420Y-79746902D01*
X111751727Y-79752456D01*
X111741783Y-79762400D01*
X109931227Y-79762400D01*
X109880399Y-79757394D01*
X109829571Y-79762400D01*
X109829562Y-79762400D01*
X109677505Y-79777376D01*
X109482407Y-79836559D01*
X109421888Y-79868907D01*
X109302602Y-79932666D01*
X109185223Y-80028997D01*
X109145004Y-80062004D01*
X109112597Y-80101492D01*
X108708689Y-80505400D01*
X108596065Y-80505400D01*
X108318826Y-80560547D01*
X108057673Y-80668720D01*
X107822641Y-80825763D01*
X107622763Y-81025641D01*
X107465720Y-81260673D01*
X107357547Y-81521826D01*
X107302400Y-81799065D01*
X104672697Y-81799065D01*
X104683439Y-78334400D01*
X117578690Y-78334400D01*
X117702376Y-78536800D01*
X118719600Y-78536800D01*
X118719600Y-77518715D01*
X118973600Y-77518715D01*
X118973600Y-78536800D01*
X119990824Y-78536800D01*
X120062987Y-78418712D01*
X122156183Y-78418712D01*
X122197613Y-78698330D01*
X122292797Y-78964492D01*
X122359729Y-79089714D01*
X122603698Y-79161297D01*
X123416795Y-78348200D01*
X122603698Y-77535103D01*
X122359729Y-77606686D01*
X122238829Y-77862196D01*
X122170100Y-78136384D01*
X122156183Y-78418712D01*
X120062987Y-78418712D01*
X120114510Y-78334400D01*
X120083838Y-78233272D01*
X119976073Y-78000171D01*
X119824903Y-77792573D01*
X119636137Y-77618456D01*
X119417030Y-77484511D01*
X119176001Y-77395885D01*
X118973600Y-77518715D01*
X118719600Y-77518715D01*
X118517199Y-77395885D01*
X118276170Y-77484511D01*
X118057063Y-77618456D01*
X117868297Y-77792573D01*
X117717127Y-78000171D01*
X117609362Y-78233272D01*
X117578690Y-78334400D01*
X104683439Y-78334400D01*
X104748451Y-57368015D01*
X106748762Y-57351192D01*
X106494837Y-57605117D01*
X106261188Y-57954798D01*
X106100247Y-58343344D01*
X106018200Y-58755821D01*
X106018200Y-59176379D01*
X106100247Y-59588856D01*
X106261188Y-59977402D01*
X106494837Y-60327083D01*
X106792217Y-60624463D01*
X107141898Y-60858112D01*
X107530444Y-61019053D01*
X107942921Y-61101100D01*
X108363479Y-61101100D01*
X108763151Y-61021600D01*
X114434728Y-61021600D01*
X114437800Y-61410850D01*
X114596550Y-61569600D01*
X115620800Y-61569600D01*
X115620800Y-60545350D01*
X115874800Y-60545350D01*
X115874800Y-61569600D01*
X116899050Y-61569600D01*
X117057800Y-61410850D01*
X117060872Y-61021600D01*
X117048612Y-60897118D01*
X117012302Y-60777420D01*
X116953337Y-60667106D01*
X116873985Y-60570415D01*
X116777294Y-60491063D01*
X116666980Y-60432098D01*
X116547282Y-60395788D01*
X116422800Y-60383528D01*
X116033550Y-60386600D01*
X115874800Y-60545350D01*
X115620800Y-60545350D01*
X115462050Y-60386600D01*
X115072800Y-60383528D01*
X114948318Y-60395788D01*
X114828620Y-60432098D01*
X114718306Y-60491063D01*
X114621615Y-60570415D01*
X114542263Y-60667106D01*
X114483298Y-60777420D01*
X114446988Y-60897118D01*
X114434728Y-61021600D01*
X108763151Y-61021600D01*
X108775956Y-61019053D01*
X109164502Y-60858112D01*
X109514183Y-60624463D01*
X109811563Y-60327083D01*
X110045212Y-59977402D01*
X110206153Y-59588856D01*
X110288200Y-59176379D01*
X110288200Y-58755821D01*
X110206153Y-58343344D01*
X110045212Y-57954798D01*
X109811563Y-57605117D01*
X109534211Y-57327765D01*
X176600587Y-56763708D01*
X176413617Y-56888637D01*
X176116237Y-57186017D01*
X175882588Y-57535698D01*
X175721647Y-57924244D01*
X175639600Y-58336721D01*
X175639600Y-58757279D01*
X175721647Y-59169756D01*
X175882588Y-59558302D01*
X176116237Y-59907983D01*
X176413617Y-60205363D01*
X176763298Y-60439012D01*
X177151844Y-60599953D01*
X177564321Y-60682000D01*
X177984879Y-60682000D01*
X178397356Y-60599953D01*
X178785902Y-60439012D01*
X179135583Y-60205363D01*
X179432963Y-59907983D01*
X179666612Y-59558302D01*
X179827553Y-59169756D01*
X179909600Y-58757279D01*
X179909600Y-58336721D01*
X179827553Y-57924244D01*
X179666612Y-57535698D01*
X179432963Y-57186017D01*
X179135583Y-56888637D01*
X178919425Y-56744205D01*
X179995607Y-56735154D01*
X179719177Y-105090468D01*
X179719177Y-105090468D01*
G37*
X179719177Y-105090468D02*
X104598358Y-105773960D01*
X104606990Y-102989921D01*
X105510200Y-102989921D01*
X105510200Y-103410479D01*
X105592247Y-103822956D01*
X105753188Y-104211502D01*
X105986837Y-104561183D01*
X106284217Y-104858563D01*
X106633898Y-105092212D01*
X107022444Y-105253153D01*
X107434921Y-105335200D01*
X107855479Y-105335200D01*
X108267956Y-105253153D01*
X108656502Y-105092212D01*
X109006183Y-104858563D01*
X109303563Y-104561183D01*
X109408246Y-104404514D01*
X116178100Y-104404514D01*
X116178100Y-102034581D01*
X118395227Y-104251708D01*
X118427634Y-104291196D01*
X118467122Y-104323603D01*
X118585232Y-104420534D01*
X118681339Y-104471904D01*
X118765037Y-104516641D01*
X118960135Y-104575824D01*
X119112192Y-104590800D01*
X119112195Y-104590800D01*
X119163030Y-104595807D01*
X119213865Y-104590800D01*
X133564802Y-104590800D01*
X133615630Y-104595806D01*
X133666458Y-104590800D01*
X133666468Y-104590800D01*
X133818525Y-104575824D01*
X134013623Y-104516641D01*
X134193427Y-104420534D01*
X134351026Y-104291196D01*
X134383437Y-104251703D01*
X134570328Y-104064812D01*
X134606299Y-104094332D01*
X134855592Y-104227582D01*
X135126091Y-104309636D01*
X135336908Y-104330400D01*
X135477892Y-104330400D01*
X135688709Y-104309636D01*
X135959208Y-104227582D01*
X136208501Y-104094332D01*
X136427008Y-103915008D01*
X136606332Y-103696501D01*
X136739582Y-103447208D01*
X136821636Y-103176709D01*
X136849343Y-102895400D01*
X136821636Y-102614091D01*
X136739582Y-102343592D01*
X136606332Y-102094299D01*
X136427008Y-101875792D01*
X136208501Y-101696468D01*
X135959208Y-101563218D01*
X135688709Y-101481164D01*
X135477892Y-101460400D01*
X135336908Y-101460400D01*
X135221327Y-101471784D01*
X135436111Y-101257000D01*
X135477892Y-101257000D01*
X135688709Y-101236236D01*
X135959208Y-101154182D01*
X136208501Y-101020932D01*
X136427008Y-100841608D01*
X136606332Y-100623101D01*
X136739582Y-100373808D01*
X136821636Y-100103309D01*
X136849343Y-99822000D01*
X136821636Y-99540691D01*
X136739582Y-99270192D01*
X136606332Y-99020899D01*
X136427008Y-98802392D01*
X136208501Y-98623068D01*
X135959208Y-98489818D01*
X135688709Y-98407764D01*
X135477892Y-98387000D01*
X135336908Y-98387000D01*
X135164977Y-98403934D01*
X135436111Y-98132800D01*
X135477892Y-98132800D01*
X135688709Y-98112036D01*
X135959208Y-98029982D01*
X136208501Y-97896732D01*
X136427008Y-97717408D01*
X136606332Y-97498901D01*
X136739582Y-97249608D01*
X136821636Y-96979109D01*
X136849343Y-96697800D01*
X136835423Y-96556465D01*
X141592400Y-96556465D01*
X141592400Y-96839135D01*
X141647547Y-97116374D01*
X141755720Y-97377527D01*
X141912763Y-97612559D01*
X142112641Y-97812437D01*
X142347673Y-97969480D01*
X142608826Y-98077653D01*
X142886065Y-98132800D01*
X142998689Y-98132800D01*
X143059595Y-98193706D01*
X143092003Y-98233195D01*
X143124543Y-98259900D01*
X143092003Y-98286605D01*
X143059596Y-98326093D01*
X142998689Y-98387000D01*
X142886065Y-98387000D01*
X142608826Y-98442147D01*
X142347673Y-98550320D01*
X142112641Y-98707363D01*
X141912763Y-98907241D01*
X141755720Y-99142273D01*
X141647547Y-99403426D01*
X141592400Y-99680665D01*
X141592400Y-99963335D01*
X141647547Y-100240574D01*
X141755720Y-100501727D01*
X141912763Y-100736759D01*
X142112641Y-100936637D01*
X142347673Y-101093680D01*
X142608826Y-101201853D01*
X142886065Y-101257000D01*
X143168735Y-101257000D01*
X143445974Y-101201853D01*
X143707127Y-101093680D01*
X143942159Y-100936637D01*
X144142037Y-100736759D01*
X144299080Y-100501727D01*
X144407253Y-100240574D01*
X144429000Y-100131247D01*
X144576762Y-100145800D01*
X144576765Y-100145800D01*
X144627600Y-100150807D01*
X144678435Y-100145800D01*
X147026234Y-100145800D01*
X146992663Y-100186706D01*
X146933698Y-100297020D01*
X146897388Y-100416718D01*
X146885128Y-100541200D01*
X146885128Y-101739562D01*
X146764290Y-101860400D01*
X144021796Y-101860400D01*
X143942159Y-101780763D01*
X143707127Y-101623720D01*
X143445974Y-101515547D01*
X143168735Y-101460400D01*
X142886065Y-101460400D01*
X142608826Y-101515547D01*
X142347673Y-101623720D01*
X142112641Y-101780763D01*
X141912763Y-101980641D01*
X141755720Y-102215673D01*
X141647547Y-102476826D01*
X141592400Y-102754065D01*
X141592400Y-103036735D01*
X141647547Y-103313974D01*
X141755720Y-103575127D01*
X141912763Y-103810159D01*
X142112641Y-104010037D01*
X142347673Y-104167080D01*
X142608826Y-104275253D01*
X142886065Y-104330400D01*
X143168735Y-104330400D01*
X143445974Y-104275253D01*
X143707127Y-104167080D01*
X143942159Y-104010037D01*
X144021796Y-103930400D01*
X147142172Y-103930400D01*
X147193000Y-103935406D01*
X147243828Y-103930400D01*
X147243838Y-103930400D01*
X147395895Y-103915424D01*
X147590993Y-103856241D01*
X147770797Y-103760134D01*
X147840084Y-103703272D01*
X149047200Y-103703272D01*
X149171682Y-103691012D01*
X149291380Y-103654702D01*
X149401694Y-103595737D01*
X149498385Y-103516385D01*
X149577737Y-103419694D01*
X149636702Y-103309380D01*
X149673012Y-103189682D01*
X149680779Y-103110822D01*
X149832593Y-103295808D01*
X150045314Y-103470383D01*
X150288006Y-103600104D01*
X150551341Y-103679986D01*
X150825200Y-103706959D01*
X151099060Y-103679986D01*
X151362395Y-103600104D01*
X151605087Y-103470383D01*
X151817808Y-103295808D01*
X151992383Y-103083087D01*
X152096238Y-102888787D01*
X152123141Y-102955142D01*
X152274194Y-103184929D01*
X152467174Y-103380832D01*
X152694665Y-103535322D01*
X152947924Y-103642462D01*
X153022130Y-103657420D01*
X153238200Y-103534920D01*
X153238200Y-101930200D01*
X153218200Y-101930200D01*
X153218200Y-101676200D01*
X153238200Y-101676200D01*
X153238200Y-101656200D01*
X153492200Y-101656200D01*
X153492200Y-101676200D01*
X153512200Y-101676200D01*
X153512200Y-101930200D01*
X153492200Y-101930200D01*
X153492200Y-103534920D01*
X153708270Y-103657420D01*
X153782476Y-103642462D01*
X154035735Y-103535322D01*
X154263226Y-103380832D01*
X154456206Y-103184929D01*
X154607259Y-102955142D01*
X154634162Y-102888787D01*
X154738017Y-103083087D01*
X154912593Y-103295808D01*
X155125314Y-103470383D01*
X155368006Y-103600104D01*
X155631341Y-103679986D01*
X155905200Y-103706959D01*
X156179060Y-103679986D01*
X156442395Y-103600104D01*
X156685087Y-103470383D01*
X156897808Y-103295808D01*
X157072383Y-103083087D01*
X157175200Y-102890729D01*
X157278017Y-103083087D01*
X157452593Y-103295808D01*
X157665314Y-103470383D01*
X157908006Y-103600104D01*
X158171341Y-103679986D01*
X158445200Y-103706959D01*
X158719060Y-103679986D01*
X158982395Y-103600104D01*
X159225087Y-103470383D01*
X159437808Y-103295808D01*
X159612383Y-103083087D01*
X159742104Y-102840395D01*
X159821986Y-102577060D01*
X159842200Y-102371825D01*
X159842200Y-101234575D01*
X159821986Y-101029340D01*
X159742104Y-100766005D01*
X159612383Y-100523313D01*
X159606218Y-100515800D01*
X161210728Y-100515800D01*
X161210728Y-103039800D01*
X161222988Y-103164282D01*
X161259298Y-103283980D01*
X161318263Y-103394294D01*
X161397615Y-103490985D01*
X161494306Y-103570337D01*
X161604620Y-103629302D01*
X161724318Y-103665612D01*
X161848800Y-103677872D01*
X163372800Y-103677872D01*
X163497282Y-103665612D01*
X163616980Y-103629302D01*
X163727294Y-103570337D01*
X163823985Y-103490985D01*
X163903337Y-103394294D01*
X163962302Y-103283980D01*
X163998612Y-103164282D01*
X164006379Y-103085422D01*
X164158193Y-103270408D01*
X164370914Y-103444983D01*
X164613606Y-103574704D01*
X164876941Y-103654586D01*
X165150800Y-103681559D01*
X165424660Y-103654586D01*
X165687995Y-103574704D01*
X165930687Y-103444983D01*
X166143408Y-103270408D01*
X166317983Y-103057687D01*
X166421838Y-102863387D01*
X166448741Y-102929742D01*
X166599794Y-103159529D01*
X166792774Y-103355432D01*
X167020265Y-103509922D01*
X167273524Y-103617062D01*
X167347730Y-103632020D01*
X167563800Y-103509520D01*
X167563800Y-101904800D01*
X167543800Y-101904800D01*
X167543800Y-101650800D01*
X167563800Y-101650800D01*
X167563800Y-100046080D01*
X167347730Y-99923580D01*
X167273524Y-99938538D01*
X167020265Y-100045678D01*
X166792774Y-100200168D01*
X166599794Y-100396071D01*
X166448741Y-100625858D01*
X166421838Y-100692213D01*
X166317983Y-100497913D01*
X166185800Y-100336848D01*
X166185800Y-100144510D01*
X166532503Y-99797807D01*
X166571996Y-99765396D01*
X166692054Y-99619105D01*
X166701334Y-99607798D01*
X166797440Y-99427994D01*
X166797441Y-99427993D01*
X166856624Y-99232895D01*
X166871600Y-99080838D01*
X166871600Y-99080835D01*
X166876607Y-99030000D01*
X166871600Y-98979165D01*
X166871600Y-94467433D01*
X166878852Y-94462587D01*
X167106587Y-94234852D01*
X167285518Y-93967063D01*
X167408768Y-93669512D01*
X167424510Y-93590367D01*
X167605200Y-93590367D01*
X167605200Y-93912433D01*
X167668032Y-94228312D01*
X167791282Y-94525863D01*
X167970213Y-94793652D01*
X168197948Y-95021387D01*
X168465737Y-95200318D01*
X168763288Y-95323568D01*
X169079167Y-95386400D01*
X169195801Y-95386400D01*
X169195800Y-100336848D01*
X169063617Y-100497914D01*
X168959762Y-100692214D01*
X168932859Y-100625858D01*
X168781806Y-100396071D01*
X168588826Y-100200168D01*
X168361335Y-100045678D01*
X168108076Y-99938538D01*
X168033870Y-99923580D01*
X167817800Y-100046080D01*
X167817800Y-101650800D01*
X167837800Y-101650800D01*
X167837800Y-101904800D01*
X167817800Y-101904800D01*
X167817800Y-103509520D01*
X168033870Y-103632020D01*
X168108076Y-103617062D01*
X168361335Y-103509922D01*
X168588826Y-103355432D01*
X168781806Y-103159529D01*
X168932859Y-102929742D01*
X168959762Y-102863387D01*
X169063617Y-103057687D01*
X169238193Y-103270408D01*
X169450914Y-103444983D01*
X169693606Y-103574704D01*
X169956941Y-103654586D01*
X170230800Y-103681559D01*
X170504660Y-103654586D01*
X170767995Y-103574704D01*
X171010687Y-103444983D01*
X171223408Y-103270408D01*
X171397983Y-103057687D01*
X171500800Y-102865329D01*
X171603617Y-103057687D01*
X171778193Y-103270408D01*
X171990914Y-103444983D01*
X172233606Y-103574704D01*
X172496941Y-103654586D01*
X172770800Y-103681559D01*
X173044660Y-103654586D01*
X173307995Y-103574704D01*
X173550687Y-103444983D01*
X173763408Y-103270408D01*
X173937983Y-103057687D01*
X174067704Y-102814995D01*
X174147586Y-102551660D01*
X174167800Y-102346425D01*
X174167800Y-102253321D01*
X174928400Y-102253321D01*
X174928400Y-102673879D01*
X175010447Y-103086356D01*
X175171388Y-103474902D01*
X175405037Y-103824583D01*
X175702417Y-104121963D01*
X176052098Y-104355612D01*
X176440644Y-104516553D01*
X176853121Y-104598600D01*
X177273679Y-104598600D01*
X177686156Y-104516553D01*
X178074702Y-104355612D01*
X178424383Y-104121963D01*
X178721763Y-103824583D01*
X178955412Y-103474902D01*
X179116353Y-103086356D01*
X179198400Y-102673879D01*
X179198400Y-102253321D01*
X179116353Y-101840844D01*
X178955412Y-101452298D01*
X178721763Y-101102617D01*
X178424383Y-100805237D01*
X178074702Y-100571588D01*
X177686156Y-100410647D01*
X177273679Y-100328600D01*
X176853121Y-100328600D01*
X176440644Y-100410647D01*
X176052098Y-100571588D01*
X175702417Y-100805237D01*
X175405037Y-101102617D01*
X175171388Y-101452298D01*
X175010447Y-101840844D01*
X174928400Y-102253321D01*
X174167800Y-102253321D01*
X174167800Y-101209175D01*
X174147586Y-101003940D01*
X174067704Y-100740605D01*
X173937983Y-100497913D01*
X173763407Y-100285192D01*
X173550686Y-100110617D01*
X173307994Y-99980896D01*
X173044659Y-99901014D01*
X172770800Y-99874041D01*
X172496940Y-99901014D01*
X172233605Y-99980896D01*
X171990913Y-100110617D01*
X171778192Y-100285193D01*
X171603617Y-100497914D01*
X171500800Y-100690271D01*
X171397983Y-100497913D01*
X171265800Y-100336848D01*
X171265800Y-94792835D01*
X171270807Y-94742000D01*
X171265173Y-94684797D01*
X171250824Y-94539105D01*
X171191641Y-94344007D01*
X171129420Y-94227600D01*
X171095534Y-94164202D01*
X170998603Y-94046092D01*
X170966196Y-94006604D01*
X170926708Y-93974197D01*
X170873498Y-93920988D01*
X170875200Y-93912433D01*
X170875200Y-93590367D01*
X170812368Y-93274488D01*
X170689118Y-92976937D01*
X170510187Y-92709148D01*
X170282452Y-92481413D01*
X170014663Y-92302482D01*
X169717112Y-92179232D01*
X169401233Y-92116400D01*
X169079167Y-92116400D01*
X168763288Y-92179232D01*
X168465737Y-92302482D01*
X168197948Y-92481413D01*
X167970213Y-92709148D01*
X167791282Y-92976937D01*
X167668032Y-93274488D01*
X167605200Y-93590367D01*
X167424510Y-93590367D01*
X167471600Y-93353633D01*
X167471600Y-93031567D01*
X167408768Y-92715688D01*
X167285518Y-92418137D01*
X167106587Y-92150348D01*
X166878852Y-91922613D01*
X166611063Y-91743682D01*
X166313512Y-91620432D01*
X165997633Y-91557600D01*
X165675567Y-91557600D01*
X165359688Y-91620432D01*
X165062137Y-91743682D01*
X164809593Y-91912427D01*
X164745518Y-91757737D01*
X164566587Y-91489948D01*
X164338852Y-91262213D01*
X164071063Y-91083282D01*
X163773512Y-90960032D01*
X163457633Y-90897200D01*
X163135567Y-90897200D01*
X162819688Y-90960032D01*
X162522137Y-91083282D01*
X162254348Y-91262213D01*
X162026613Y-91489948D01*
X161847682Y-91757737D01*
X161724432Y-92055288D01*
X161661600Y-92371167D01*
X161661600Y-92693233D01*
X161724432Y-93009112D01*
X161847682Y-93306663D01*
X162026613Y-93574452D01*
X162254348Y-93802187D01*
X162261601Y-93807033D01*
X162261600Y-98601290D01*
X161914893Y-98947997D01*
X161875405Y-98980404D01*
X161842998Y-99019892D01*
X161842997Y-99019893D01*
X161746066Y-99138003D01*
X161649960Y-99317807D01*
X161590777Y-99512905D01*
X161570794Y-99715800D01*
X161575801Y-99766637D01*
X161575801Y-99941702D01*
X161494306Y-99985263D01*
X161397615Y-100064615D01*
X161318263Y-100161306D01*
X161259298Y-100271620D01*
X161222988Y-100391318D01*
X161210728Y-100515800D01*
X159606218Y-100515800D01*
X159437807Y-100310592D01*
X159225086Y-100136017D01*
X158982394Y-100006296D01*
X158719059Y-99926414D01*
X158445200Y-99899441D01*
X158171340Y-99926414D01*
X157908005Y-100006296D01*
X157665313Y-100136017D01*
X157452592Y-100310593D01*
X157278017Y-100523314D01*
X157175200Y-100715671D01*
X157072383Y-100523313D01*
X156897807Y-100310592D01*
X156685086Y-100136017D01*
X156442394Y-100006296D01*
X156179059Y-99926414D01*
X155971702Y-99905991D01*
X153307807Y-97242097D01*
X152867606Y-96801896D01*
X152835195Y-96762403D01*
X152677596Y-96633065D01*
X152497792Y-96536958D01*
X152302694Y-96477775D01*
X152150637Y-96462799D01*
X152150627Y-96462799D01*
X152099799Y-96457793D01*
X152048971Y-96462799D01*
X144443768Y-96462799D01*
X144407253Y-96279226D01*
X144299080Y-96018073D01*
X144142037Y-95783041D01*
X143942159Y-95583163D01*
X143707127Y-95426120D01*
X143445974Y-95317947D01*
X143168735Y-95262800D01*
X142886065Y-95262800D01*
X142608826Y-95317947D01*
X142347673Y-95426120D01*
X142112641Y-95583163D01*
X141912763Y-95783041D01*
X141755720Y-96018073D01*
X141647547Y-96279226D01*
X141592400Y-96556465D01*
X136835423Y-96556465D01*
X136821636Y-96416491D01*
X136739582Y-96145992D01*
X136606332Y-95896699D01*
X136427008Y-95678192D01*
X136258357Y-95539784D01*
X136272134Y-95522997D01*
X136368241Y-95343193D01*
X136427424Y-95148095D01*
X136442400Y-94996038D01*
X136442400Y-94996029D01*
X136447406Y-94945201D01*
X136442400Y-94894373D01*
X136442400Y-94599853D01*
X136606332Y-94400101D01*
X136739582Y-94150808D01*
X136821636Y-93880309D01*
X136849343Y-93599000D01*
X136821636Y-93317691D01*
X136739582Y-93047192D01*
X136606332Y-92797899D01*
X136427008Y-92579392D01*
X136208501Y-92400068D01*
X136128263Y-92357180D01*
X136231194Y-92231759D01*
X136246734Y-92212824D01*
X136342841Y-92033020D01*
X136373907Y-91930609D01*
X136402024Y-91837921D01*
X136417000Y-91685864D01*
X136417000Y-91685861D01*
X136422007Y-91635026D01*
X136417000Y-91584191D01*
X136417000Y-91494596D01*
X136496637Y-91414959D01*
X136653680Y-91179927D01*
X136761853Y-90918774D01*
X136817000Y-90641535D01*
X136817000Y-90358865D01*
X136761853Y-90081626D01*
X136653680Y-89820473D01*
X136496637Y-89585441D01*
X136296759Y-89385563D01*
X136061727Y-89228520D01*
X135800574Y-89120347D01*
X135523335Y-89065200D01*
X135240665Y-89065200D01*
X135135614Y-89086096D01*
X135410711Y-88811000D01*
X135523335Y-88811000D01*
X135800574Y-88755853D01*
X136061727Y-88647680D01*
X136296759Y-88490637D01*
X136496637Y-88290759D01*
X136653680Y-88055727D01*
X136761853Y-87794574D01*
X136817000Y-87517335D01*
X136817000Y-87234665D01*
X136761853Y-86957426D01*
X136653680Y-86696273D01*
X136496637Y-86461241D01*
X136296759Y-86261363D01*
X136061727Y-86104320D01*
X135800574Y-85996147D01*
X135523335Y-85941000D01*
X135240665Y-85941000D01*
X135103908Y-85968203D01*
X135410711Y-85661400D01*
X135452492Y-85661400D01*
X135663309Y-85640636D01*
X135933808Y-85558582D01*
X136183101Y-85425332D01*
X136401608Y-85246008D01*
X136580932Y-85027501D01*
X136714182Y-84778208D01*
X136796236Y-84507709D01*
X136823943Y-84226400D01*
X136796236Y-83945091D01*
X136714182Y-83674592D01*
X136580932Y-83425299D01*
X136482698Y-83305600D01*
X138772872Y-83305600D01*
X138823700Y-83310606D01*
X138874528Y-83305600D01*
X138874538Y-83305600D01*
X139026595Y-83290624D01*
X139221693Y-83231441D01*
X139401497Y-83135334D01*
X139559096Y-83005996D01*
X139591507Y-82966503D01*
X140674811Y-81883200D01*
X146075372Y-81883200D01*
X146126200Y-81888206D01*
X146177028Y-81883200D01*
X146177038Y-81883200D01*
X146329095Y-81868224D01*
X146524193Y-81809041D01*
X146703997Y-81712934D01*
X146861596Y-81583596D01*
X146894007Y-81544103D01*
X149380711Y-79057400D01*
X149422492Y-79057400D01*
X149633309Y-79036636D01*
X149903808Y-78954582D01*
X150153101Y-78821332D01*
X150371608Y-78642008D01*
X150550932Y-78423501D01*
X150624579Y-78285718D01*
X150739615Y-78477531D01*
X150928586Y-78685919D01*
X151154580Y-78853437D01*
X151408913Y-78973646D01*
X151542961Y-79014304D01*
X151765000Y-78892315D01*
X151765000Y-77749400D01*
X152019000Y-77749400D01*
X152019000Y-78892315D01*
X152241039Y-79014304D01*
X152375087Y-78973646D01*
X152629420Y-78853437D01*
X152855414Y-78685919D01*
X153044385Y-78477531D01*
X153189070Y-78236281D01*
X153283909Y-77971440D01*
X153162624Y-77749400D01*
X152019000Y-77749400D01*
X151765000Y-77749400D01*
X151745000Y-77749400D01*
X151745000Y-77495400D01*
X151765000Y-77495400D01*
X151765000Y-76352485D01*
X152019000Y-76352485D01*
X152019000Y-77495400D01*
X153162624Y-77495400D01*
X153283909Y-77273360D01*
X153189070Y-77008519D01*
X153044385Y-76767269D01*
X152855414Y-76558881D01*
X152629420Y-76391363D01*
X152375087Y-76271154D01*
X152241039Y-76230496D01*
X152019000Y-76352485D01*
X151765000Y-76352485D01*
X151542961Y-76230496D01*
X151408913Y-76271154D01*
X151154580Y-76391363D01*
X150928586Y-76558881D01*
X150739615Y-76767269D01*
X150624579Y-76959082D01*
X150550932Y-76821299D01*
X150371608Y-76602792D01*
X150153101Y-76423468D01*
X149903808Y-76290218D01*
X149633309Y-76208164D01*
X149422492Y-76187400D01*
X149281508Y-76187400D01*
X149070691Y-76208164D01*
X148800192Y-76290218D01*
X148550899Y-76423468D01*
X148332392Y-76602792D01*
X148153068Y-76821299D01*
X148082000Y-76954258D01*
X148010932Y-76821299D01*
X147831608Y-76602792D01*
X147613101Y-76423468D01*
X147363808Y-76290218D01*
X147093309Y-76208164D01*
X146882492Y-76187400D01*
X146741508Y-76187400D01*
X146530691Y-76208164D01*
X146260192Y-76290218D01*
X146010899Y-76423468D01*
X145792392Y-76602792D01*
X145613068Y-76821299D01*
X145539421Y-76959082D01*
X145424385Y-76767269D01*
X145235414Y-76558881D01*
X145009420Y-76391363D01*
X144755087Y-76271154D01*
X144621039Y-76230496D01*
X144399000Y-76352485D01*
X144399000Y-77495400D01*
X144419000Y-77495400D01*
X144419000Y-77749400D01*
X144399000Y-77749400D01*
X144399000Y-77769400D01*
X144145000Y-77769400D01*
X144145000Y-77749400D01*
X144125000Y-77749400D01*
X144125000Y-77495400D01*
X144145000Y-77495400D01*
X144145000Y-76352485D01*
X143922961Y-76230496D01*
X143788913Y-76271154D01*
X143534580Y-76391363D01*
X143308586Y-76558881D01*
X143119615Y-76767269D01*
X143004579Y-76959082D01*
X142930932Y-76821299D01*
X142751608Y-76602792D01*
X142533101Y-76423468D01*
X142283808Y-76290218D01*
X142013309Y-76208164D01*
X141802492Y-76187400D01*
X141661508Y-76187400D01*
X141450691Y-76208164D01*
X141180192Y-76290218D01*
X140930899Y-76423468D01*
X140731147Y-76587400D01*
X140192853Y-76587400D01*
X139993101Y-76423468D01*
X139743808Y-76290218D01*
X139473309Y-76208164D01*
X139262492Y-76187400D01*
X139220711Y-76187400D01*
X134436764Y-71403454D01*
X134663808Y-71334582D01*
X134913101Y-71201332D01*
X135131608Y-71022008D01*
X135310932Y-70803501D01*
X135382000Y-70670542D01*
X135453068Y-70803501D01*
X135632392Y-71022008D01*
X135850899Y-71201332D01*
X136100192Y-71334582D01*
X136370691Y-71416636D01*
X136581508Y-71437400D01*
X136722492Y-71437400D01*
X136933309Y-71416636D01*
X137203808Y-71334582D01*
X137453101Y-71201332D01*
X137671608Y-71022008D01*
X137850932Y-70803501D01*
X137922000Y-70670542D01*
X137993068Y-70803501D01*
X138172392Y-71022008D01*
X138390899Y-71201332D01*
X138640192Y-71334582D01*
X138910691Y-71416636D01*
X139121508Y-71437400D01*
X139262492Y-71437400D01*
X139473309Y-71416636D01*
X139743808Y-71334582D01*
X139993101Y-71201332D01*
X140211608Y-71022008D01*
X140390932Y-70803501D01*
X140462000Y-70670542D01*
X140533068Y-70803501D01*
X140712392Y-71022008D01*
X140930899Y-71201332D01*
X141180192Y-71334582D01*
X141450691Y-71416636D01*
X141661508Y-71437400D01*
X141802492Y-71437400D01*
X142013309Y-71416636D01*
X142283808Y-71334582D01*
X142533101Y-71201332D01*
X142751608Y-71022008D01*
X142930932Y-70803501D01*
X143002000Y-70670542D01*
X143073068Y-70803501D01*
X143252392Y-71022008D01*
X143470899Y-71201332D01*
X143720192Y-71334582D01*
X143990691Y-71416636D01*
X144201508Y-71437400D01*
X144342492Y-71437400D01*
X144553309Y-71416636D01*
X144823808Y-71334582D01*
X145073101Y-71201332D01*
X145291608Y-71022008D01*
X145470932Y-70803501D01*
X145542000Y-70670542D01*
X145613068Y-70803501D01*
X145792392Y-71022008D01*
X146010899Y-71201332D01*
X146260192Y-71334582D01*
X146530691Y-71416636D01*
X146741508Y-71437400D01*
X146783289Y-71437400D01*
X146844195Y-71498306D01*
X146876603Y-71537795D01*
X146916091Y-71570202D01*
X147034201Y-71667133D01*
X147104496Y-71704706D01*
X147214006Y-71763240D01*
X147409104Y-71822423D01*
X147561161Y-71837399D01*
X147561170Y-71837399D01*
X147611998Y-71842405D01*
X147642492Y-71839402D01*
X149447796Y-73644707D01*
X149480204Y-73684196D01*
X149519692Y-73716603D01*
X149637802Y-73813534D01*
X149695175Y-73844200D01*
X149817607Y-73909641D01*
X150012705Y-73968824D01*
X150164762Y-73983800D01*
X150164771Y-73983800D01*
X150215599Y-73988806D01*
X150266427Y-73983800D01*
X151844290Y-73983800D01*
X156585197Y-78724708D01*
X156617604Y-78764196D01*
X156657092Y-78796603D01*
X156775202Y-78893534D01*
X156859967Y-78938841D01*
X156955007Y-78989641D01*
X157150105Y-79048824D01*
X157302162Y-79063800D01*
X157302164Y-79063800D01*
X157353000Y-79068807D01*
X157403835Y-79063800D01*
X157977747Y-79063800D01*
X158177499Y-79227732D01*
X158426792Y-79360982D01*
X158697291Y-79443036D01*
X158908108Y-79463800D01*
X159049092Y-79463800D01*
X159164673Y-79452416D01*
X158924490Y-79692600D01*
X158882708Y-79692600D01*
X158671891Y-79713364D01*
X158401392Y-79795418D01*
X158152099Y-79928668D01*
X157933592Y-80107992D01*
X157754268Y-80326499D01*
X157621018Y-80575792D01*
X157538964Y-80846291D01*
X157511257Y-81127600D01*
X157538964Y-81408909D01*
X157621018Y-81679408D01*
X157754268Y-81928701D01*
X157933592Y-82147208D01*
X158152099Y-82326532D01*
X158401392Y-82459782D01*
X158671891Y-82541836D01*
X158882708Y-82562600D01*
X159023692Y-82562600D01*
X159234509Y-82541836D01*
X159505008Y-82459782D01*
X159754301Y-82326532D01*
X159972808Y-82147208D01*
X160152132Y-81928701D01*
X160285382Y-81679408D01*
X160367436Y-81408909D01*
X160392765Y-81151746D01*
X161074509Y-80470002D01*
X161113997Y-80437595D01*
X161186166Y-80349657D01*
X161243335Y-80279997D01*
X161303861Y-80166759D01*
X161339442Y-80100192D01*
X161398625Y-79905094D01*
X161413601Y-79753037D01*
X161413601Y-79753028D01*
X161418607Y-79702200D01*
X161413601Y-79651372D01*
X161413601Y-73942428D01*
X161418607Y-73891600D01*
X161413601Y-73840772D01*
X161413601Y-73840763D01*
X161398625Y-73688706D01*
X161339442Y-73493608D01*
X161243335Y-73313804D01*
X161113997Y-73156205D01*
X161074504Y-73123794D01*
X160648107Y-72697397D01*
X160615696Y-72657904D01*
X160458097Y-72528566D01*
X160278293Y-72432459D01*
X160272935Y-72430834D01*
X160358453Y-72224374D01*
X160413600Y-71947135D01*
X160413600Y-71664465D01*
X160358453Y-71387226D01*
X160250280Y-71126073D01*
X160093237Y-70891041D01*
X159893359Y-70691163D01*
X159658327Y-70534120D01*
X159397174Y-70425947D01*
X159119935Y-70370800D01*
X159007311Y-70370800D01*
X158311307Y-69674797D01*
X158278896Y-69635304D01*
X158121297Y-69505966D01*
X157941493Y-69409859D01*
X157864160Y-69386400D01*
X160200890Y-69386400D01*
X162109201Y-71294712D01*
X162109200Y-82248289D01*
X159793992Y-84563498D01*
X159754505Y-84595904D01*
X159722098Y-84635392D01*
X159722097Y-84635393D01*
X159625166Y-84753503D01*
X159529060Y-84933307D01*
X159474027Y-85114726D01*
X159437807Y-85070592D01*
X159225086Y-84896017D01*
X158982394Y-84766296D01*
X158719059Y-84686414D01*
X158445200Y-84659441D01*
X158171340Y-84686414D01*
X157908005Y-84766296D01*
X157665313Y-84896017D01*
X157452592Y-85070593D01*
X157278017Y-85283314D01*
X157175200Y-85475671D01*
X157072383Y-85283313D01*
X156897807Y-85070592D01*
X156685086Y-84896017D01*
X156442394Y-84766296D01*
X156179059Y-84686414D01*
X155905200Y-84659441D01*
X155631340Y-84686414D01*
X155368005Y-84766296D01*
X155125313Y-84896017D01*
X154912592Y-85070593D01*
X154738017Y-85283314D01*
X154634162Y-85477614D01*
X154607259Y-85411258D01*
X154456206Y-85181471D01*
X154263226Y-84985568D01*
X154035735Y-84831078D01*
X153782476Y-84723938D01*
X153708270Y-84708980D01*
X153492200Y-84831480D01*
X153492200Y-86436200D01*
X153512200Y-86436200D01*
X153512200Y-86690200D01*
X153492200Y-86690200D01*
X153492200Y-86710200D01*
X153238200Y-86710200D01*
X153238200Y-86690200D01*
X153218200Y-86690200D01*
X153218200Y-86436200D01*
X153238200Y-86436200D01*
X153238200Y-84831480D01*
X153022130Y-84708980D01*
X152947924Y-84723938D01*
X152694665Y-84831078D01*
X152467174Y-84985568D01*
X152274194Y-85181471D01*
X152123141Y-85411258D01*
X152096238Y-85477613D01*
X151992383Y-85283313D01*
X151860200Y-85122248D01*
X151860200Y-84552035D01*
X151865207Y-84501200D01*
X151860200Y-84450362D01*
X151845224Y-84298305D01*
X151786041Y-84103207D01*
X151703292Y-83948394D01*
X151689934Y-83923402D01*
X151593003Y-83805292D01*
X151560596Y-83765804D01*
X151521108Y-83733397D01*
X150327607Y-82539897D01*
X150295196Y-82500404D01*
X150137597Y-82371066D01*
X149957793Y-82274959D01*
X149762695Y-82215776D01*
X149610638Y-82200800D01*
X149610628Y-82200800D01*
X149559800Y-82195794D01*
X149508972Y-82200800D01*
X144043435Y-82200800D01*
X143992600Y-82195793D01*
X143941764Y-82200800D01*
X143941762Y-82200800D01*
X143789705Y-82215776D01*
X143594607Y-82274959D01*
X143547714Y-82300024D01*
X143414802Y-82371066D01*
X143312068Y-82455378D01*
X143257204Y-82500404D01*
X143224797Y-82539892D01*
X142973289Y-82791400D01*
X142860665Y-82791400D01*
X142583426Y-82846547D01*
X142322273Y-82954720D01*
X142087241Y-83111763D01*
X141887363Y-83311641D01*
X141730320Y-83546673D01*
X141622147Y-83807826D01*
X141567000Y-84085065D01*
X141567000Y-84367735D01*
X141622147Y-84644974D01*
X141730320Y-84906127D01*
X141887363Y-85141159D01*
X142087241Y-85341037D01*
X142322273Y-85498080D01*
X142583426Y-85606253D01*
X142860665Y-85661400D01*
X143143335Y-85661400D01*
X143420574Y-85606253D01*
X143681727Y-85498080D01*
X143916759Y-85341037D01*
X144116637Y-85141159D01*
X144273680Y-84906127D01*
X144381853Y-84644974D01*
X144437000Y-84367735D01*
X144437000Y-84270800D01*
X149131090Y-84270800D01*
X149790201Y-84929912D01*
X149790201Y-85122247D01*
X149658017Y-85283314D01*
X149555200Y-85475671D01*
X149452383Y-85283313D01*
X149277807Y-85070592D01*
X149065086Y-84896017D01*
X148822394Y-84766296D01*
X148559059Y-84686414D01*
X148285200Y-84659441D01*
X148011340Y-84686414D01*
X147748005Y-84766296D01*
X147505313Y-84896017D01*
X147292592Y-85070593D01*
X147118017Y-85283314D01*
X146988296Y-85526006D01*
X146908414Y-85789341D01*
X146888200Y-85994576D01*
X146888200Y-86341000D01*
X144002853Y-86341000D01*
X143803101Y-86177068D01*
X143553808Y-86043818D01*
X143283309Y-85961764D01*
X143072492Y-85941000D01*
X142931508Y-85941000D01*
X142720691Y-85961764D01*
X142450192Y-86043818D01*
X142200899Y-86177068D01*
X141982392Y-86356392D01*
X141803068Y-86574899D01*
X141669818Y-86824192D01*
X141587764Y-87094691D01*
X141560057Y-87376000D01*
X141587764Y-87657309D01*
X141669818Y-87927808D01*
X141803068Y-88177101D01*
X141982392Y-88395608D01*
X142200899Y-88574932D01*
X142450192Y-88708182D01*
X142720691Y-88790236D01*
X142931508Y-88811000D01*
X143072492Y-88811000D01*
X143283309Y-88790236D01*
X143342304Y-88772340D01*
X143320308Y-88784097D01*
X143224201Y-88835467D01*
X143144186Y-88901134D01*
X143066603Y-88964805D01*
X143034196Y-89004293D01*
X142973289Y-89065200D01*
X142931508Y-89065200D01*
X142720691Y-89085964D01*
X142450192Y-89168018D01*
X142200899Y-89301268D01*
X141982392Y-89480592D01*
X141803068Y-89699099D01*
X141669818Y-89948392D01*
X141587764Y-90218891D01*
X141560057Y-90500200D01*
X141587764Y-90781509D01*
X141669818Y-91052008D01*
X141803068Y-91301301D01*
X141982392Y-91519808D01*
X142200899Y-91699132D01*
X142450192Y-91832382D01*
X142720691Y-91914436D01*
X142931508Y-91935200D01*
X143072492Y-91935200D01*
X143283309Y-91914436D01*
X143553808Y-91832382D01*
X143803101Y-91699132D01*
X144021608Y-91519808D01*
X144200932Y-91301301D01*
X144334182Y-91052008D01*
X144416236Y-90781509D01*
X144420797Y-90735201D01*
X148323171Y-90735201D01*
X148360784Y-90738906D01*
X148287797Y-90811893D01*
X148287792Y-90811897D01*
X146535690Y-92564000D01*
X144021796Y-92564000D01*
X143942159Y-92484363D01*
X143707127Y-92327320D01*
X143445974Y-92219147D01*
X143168735Y-92164000D01*
X142886065Y-92164000D01*
X142608826Y-92219147D01*
X142347673Y-92327320D01*
X142112641Y-92484363D01*
X141912763Y-92684241D01*
X141755720Y-92919273D01*
X141647547Y-93180426D01*
X141592400Y-93457665D01*
X141592400Y-93740335D01*
X141647547Y-94017574D01*
X141755720Y-94278727D01*
X141912763Y-94513759D01*
X142112641Y-94713637D01*
X142347673Y-94870680D01*
X142608826Y-94978853D01*
X142886065Y-95034000D01*
X143168735Y-95034000D01*
X143445974Y-94978853D01*
X143707127Y-94870680D01*
X143942159Y-94713637D01*
X144021796Y-94634000D01*
X146913572Y-94634000D01*
X146964400Y-94639006D01*
X147015228Y-94634000D01*
X147015238Y-94634000D01*
X147167295Y-94619024D01*
X147362393Y-94559841D01*
X147542197Y-94463734D01*
X147699796Y-94334396D01*
X147732207Y-94294903D01*
X149751503Y-92275608D01*
X149751507Y-92275603D01*
X150898311Y-91128800D01*
X155363772Y-91128800D01*
X155414600Y-91133806D01*
X155465428Y-91128800D01*
X155465438Y-91128800D01*
X155617495Y-91113824D01*
X155812593Y-91054641D01*
X155992397Y-90958534D01*
X156149996Y-90829196D01*
X156182407Y-90789703D01*
X158511702Y-88460409D01*
X158719060Y-88439986D01*
X158982395Y-88360104D01*
X159225087Y-88230383D01*
X159437808Y-88055808D01*
X159454900Y-88034981D01*
X159454900Y-88125272D01*
X159449894Y-88176100D01*
X159454900Y-88226928D01*
X159454900Y-88226937D01*
X159469876Y-88378994D01*
X159529059Y-88574092D01*
X159625166Y-88753897D01*
X159754504Y-88911496D01*
X159793997Y-88943907D01*
X161068297Y-90218208D01*
X161100704Y-90257696D01*
X161140192Y-90290103D01*
X161258302Y-90387034D01*
X161349158Y-90435597D01*
X161438107Y-90483141D01*
X161633205Y-90542324D01*
X161785262Y-90557300D01*
X161785271Y-90557300D01*
X161836099Y-90562306D01*
X161886927Y-90557300D01*
X164177472Y-90557300D01*
X164228300Y-90562306D01*
X164279128Y-90557300D01*
X164279138Y-90557300D01*
X164431195Y-90542324D01*
X164626293Y-90483141D01*
X164806097Y-90387034D01*
X164963696Y-90257696D01*
X164996107Y-90218203D01*
X165846708Y-89367603D01*
X165886196Y-89335196D01*
X165923333Y-89289944D01*
X166015534Y-89177598D01*
X166088635Y-89040834D01*
X166111641Y-88997793D01*
X166170824Y-88802695D01*
X166185800Y-88650638D01*
X166185800Y-88650629D01*
X166190806Y-88599801D01*
X166185800Y-88548973D01*
X166185800Y-87978753D01*
X166317983Y-87817687D01*
X166421838Y-87623387D01*
X166448741Y-87689742D01*
X166599794Y-87919529D01*
X166792774Y-88115432D01*
X167020265Y-88269922D01*
X167273524Y-88377062D01*
X167347730Y-88392020D01*
X167563800Y-88269520D01*
X167563800Y-86664800D01*
X167543800Y-86664800D01*
X167543800Y-86410800D01*
X167563800Y-86410800D01*
X167563800Y-84806080D01*
X167347730Y-84683580D01*
X167273524Y-84698538D01*
X167020265Y-84805678D01*
X166792774Y-84960168D01*
X166599794Y-85156071D01*
X166448741Y-85385858D01*
X166421838Y-85452213D01*
X166317983Y-85257913D01*
X166143407Y-85045192D01*
X165930686Y-84870617D01*
X165687994Y-84740896D01*
X165445097Y-84667214D01*
X165869107Y-84243204D01*
X165908595Y-84210797D01*
X165941002Y-84171309D01*
X166037933Y-84053199D01*
X166096183Y-83944220D01*
X166134040Y-83873394D01*
X166193223Y-83678296D01*
X166208199Y-83526239D01*
X166208199Y-83526230D01*
X166213205Y-83475402D01*
X166208199Y-83424574D01*
X166208199Y-82696209D01*
X166311502Y-82799512D01*
X166309800Y-82808067D01*
X166309800Y-83130133D01*
X166372632Y-83446012D01*
X166495882Y-83743563D01*
X166674813Y-84011352D01*
X166902548Y-84239087D01*
X167170337Y-84418018D01*
X167467888Y-84541268D01*
X167783767Y-84604100D01*
X168105833Y-84604100D01*
X168421712Y-84541268D01*
X168719263Y-84418018D01*
X168987052Y-84239087D01*
X169195801Y-84030338D01*
X169195801Y-85096847D01*
X169063617Y-85257914D01*
X168959762Y-85452214D01*
X168932859Y-85385858D01*
X168781806Y-85156071D01*
X168588826Y-84960168D01*
X168361335Y-84805678D01*
X168108076Y-84698538D01*
X168033870Y-84683580D01*
X167817800Y-84806080D01*
X167817800Y-86410800D01*
X167837800Y-86410800D01*
X167837800Y-86664800D01*
X167817800Y-86664800D01*
X167817800Y-88269520D01*
X168033870Y-88392020D01*
X168108076Y-88377062D01*
X168361335Y-88269922D01*
X168588826Y-88115432D01*
X168781806Y-87919529D01*
X168932859Y-87689742D01*
X168959762Y-87623387D01*
X169063617Y-87817687D01*
X169238193Y-88030408D01*
X169450914Y-88204983D01*
X169693606Y-88334704D01*
X169956941Y-88414586D01*
X170230800Y-88441559D01*
X170504660Y-88414586D01*
X170767995Y-88334704D01*
X171010687Y-88204983D01*
X171223408Y-88030408D01*
X171397983Y-87817687D01*
X171500800Y-87625329D01*
X171603617Y-87817687D01*
X171778193Y-88030408D01*
X171990914Y-88204983D01*
X172233606Y-88334704D01*
X172496941Y-88414586D01*
X172770800Y-88441559D01*
X173044660Y-88414586D01*
X173307995Y-88334704D01*
X173550687Y-88204983D01*
X173763408Y-88030408D01*
X173937983Y-87817687D01*
X174067704Y-87574995D01*
X174147586Y-87311660D01*
X174167800Y-87106425D01*
X174167800Y-85969175D01*
X174147586Y-85763940D01*
X174067704Y-85500605D01*
X173937983Y-85257913D01*
X173805800Y-85096848D01*
X173805800Y-69646827D01*
X173810806Y-69595999D01*
X173805800Y-69545171D01*
X173805800Y-69545162D01*
X173790824Y-69393105D01*
X173731641Y-69198007D01*
X173672198Y-69086796D01*
X173635534Y-69018202D01*
X173538603Y-68900092D01*
X173506196Y-68860604D01*
X173466708Y-68828197D01*
X166934607Y-62296097D01*
X166902196Y-62256604D01*
X166744597Y-62127266D01*
X166564793Y-62031159D01*
X166369695Y-61971976D01*
X166217638Y-61957000D01*
X166217628Y-61957000D01*
X166166800Y-61951994D01*
X166115972Y-61957000D01*
X156961209Y-61957000D01*
X157011101Y-61930332D01*
X157229608Y-61751008D01*
X157408932Y-61532501D01*
X157542182Y-61283208D01*
X157624236Y-61012709D01*
X157651943Y-60731400D01*
X157624236Y-60450091D01*
X157542182Y-60179592D01*
X157408932Y-59930299D01*
X157229608Y-59711792D01*
X157011101Y-59532468D01*
X156761808Y-59399218D01*
X156491309Y-59317164D01*
X156280492Y-59296400D01*
X156238710Y-59296400D01*
X156177808Y-59235498D01*
X156145397Y-59196005D01*
X155987798Y-59066667D01*
X155807994Y-58970560D01*
X155612896Y-58911377D01*
X155460839Y-58896401D01*
X155460829Y-58896401D01*
X155410001Y-58891395D01*
X155359173Y-58896401D01*
X142659026Y-58896401D01*
X142608198Y-58891395D01*
X142557370Y-58896401D01*
X142557361Y-58896401D01*
X142405304Y-58911377D01*
X142210206Y-58970560D01*
X142126508Y-59015297D01*
X142030401Y-59066667D01*
X141912291Y-59163598D01*
X141872803Y-59196005D01*
X141840396Y-59235493D01*
X135956093Y-65119797D01*
X135916605Y-65152204D01*
X135884198Y-65191692D01*
X135884197Y-65191693D01*
X135787266Y-65309803D01*
X135691160Y-65489607D01*
X135631977Y-65684705D01*
X135611994Y-65887600D01*
X135617001Y-65938438D01*
X135617000Y-69001547D01*
X135453068Y-69201299D01*
X135382000Y-69334258D01*
X135310932Y-69201299D01*
X135147000Y-69001547D01*
X135147000Y-66929027D01*
X135152006Y-66878199D01*
X135147000Y-66827371D01*
X135147000Y-66827362D01*
X135132024Y-66675305D01*
X135072841Y-66480207D01*
X135003887Y-66351203D01*
X134976734Y-66300402D01*
X134879803Y-66182292D01*
X134847396Y-66142804D01*
X134807908Y-66110397D01*
X132866857Y-64169347D01*
X132834446Y-64129854D01*
X132676847Y-64000516D01*
X132497043Y-63904409D01*
X132301945Y-63845226D01*
X132149888Y-63830250D01*
X132149878Y-63830250D01*
X132099050Y-63825244D01*
X132048222Y-63830250D01*
X128481377Y-63830250D01*
X128430549Y-63825244D01*
X128379721Y-63830250D01*
X128379712Y-63830250D01*
X128227655Y-63845226D01*
X128032557Y-63904409D01*
X127960989Y-63942663D01*
X127852752Y-64000516D01*
X127839237Y-64011608D01*
X127695154Y-64129854D01*
X127662743Y-64169347D01*
X127483574Y-64348516D01*
X127478485Y-64342315D01*
X127387300Y-64267482D01*
X127387300Y-64044335D01*
X127392307Y-63993500D01*
X127383764Y-63906759D01*
X127372324Y-63790605D01*
X127313141Y-63595507D01*
X127249113Y-63475718D01*
X127217034Y-63415702D01*
X127120103Y-63297592D01*
X127087696Y-63258104D01*
X127048208Y-63225697D01*
X125514292Y-61691782D01*
X125486068Y-61549888D01*
X125362818Y-61252337D01*
X125183887Y-60984548D01*
X124956152Y-60756813D01*
X124688363Y-60577882D01*
X124390812Y-60454632D01*
X124074933Y-60391800D01*
X123752867Y-60391800D01*
X123436988Y-60454632D01*
X123139437Y-60577882D01*
X122871648Y-60756813D01*
X122643913Y-60984548D01*
X122464982Y-61252337D01*
X122341732Y-61549888D01*
X122278900Y-61865767D01*
X122278900Y-62187833D01*
X122341732Y-62503712D01*
X122464982Y-62801263D01*
X122643913Y-63069052D01*
X122871648Y-63296787D01*
X123139437Y-63475718D01*
X123436988Y-63598968D01*
X123752867Y-63661800D01*
X124074933Y-63661800D01*
X124390812Y-63598968D01*
X124463818Y-63568728D01*
X125232316Y-64337226D01*
X125226115Y-64342315D01*
X125149181Y-64436059D01*
X125015929Y-64339027D01*
X124782828Y-64231262D01*
X124681700Y-64200590D01*
X124479300Y-64324276D01*
X124479300Y-65341500D01*
X124499300Y-65341500D01*
X124499300Y-65595500D01*
X124479300Y-65595500D01*
X124479300Y-65615500D01*
X124225300Y-65615500D01*
X124225300Y-65595500D01*
X124205300Y-65595500D01*
X124205300Y-65341500D01*
X124225300Y-65341500D01*
X124225300Y-64324276D01*
X124022900Y-64200590D01*
X123921772Y-64231262D01*
X123688671Y-64339027D01*
X123481073Y-64490197D01*
X123355672Y-64626148D01*
X123283092Y-64537708D01*
X123083618Y-64374005D01*
X122856041Y-64252362D01*
X122609105Y-64177455D01*
X122416651Y-64158500D01*
X122287949Y-64158500D01*
X122095495Y-64177455D01*
X121848559Y-64252362D01*
X121620982Y-64374005D01*
X121421508Y-64537708D01*
X121352300Y-64622039D01*
X121283092Y-64537708D01*
X121083618Y-64374005D01*
X120856041Y-64252362D01*
X120609105Y-64177455D01*
X120438347Y-64160637D01*
X120644312Y-64119668D01*
X120941863Y-63996418D01*
X121209652Y-63817487D01*
X121437387Y-63589752D01*
X121616318Y-63321963D01*
X121739568Y-63024412D01*
X121802400Y-62708533D01*
X121802400Y-62386467D01*
X121739568Y-62070588D01*
X121616318Y-61773037D01*
X121437387Y-61505248D01*
X121209652Y-61277513D01*
X120941863Y-61098582D01*
X120644312Y-60975332D01*
X120328433Y-60912500D01*
X120006367Y-60912500D01*
X119690488Y-60975332D01*
X119392937Y-61098582D01*
X119125148Y-61277513D01*
X118897413Y-61505248D01*
X118718482Y-61773037D01*
X118595232Y-62070588D01*
X118532400Y-62386467D01*
X118532400Y-62708533D01*
X118534102Y-62717088D01*
X116864139Y-64387051D01*
X116963938Y-64200341D01*
X117038845Y-63953405D01*
X117064138Y-63696600D01*
X117038845Y-63439795D01*
X116963938Y-63192859D01*
X116842295Y-62965282D01*
X116785169Y-62895674D01*
X116873985Y-62822785D01*
X116953337Y-62726094D01*
X117012302Y-62615780D01*
X117048612Y-62496082D01*
X117060872Y-62371600D01*
X117057800Y-61982350D01*
X116899050Y-61823600D01*
X115874800Y-61823600D01*
X115874800Y-61843600D01*
X115620800Y-61843600D01*
X115620800Y-61823600D01*
X114596550Y-61823600D01*
X114437800Y-61982350D01*
X114434728Y-62371600D01*
X114446988Y-62496082D01*
X114483298Y-62615780D01*
X114507790Y-62661600D01*
X112757227Y-62661600D01*
X112706399Y-62656594D01*
X112655571Y-62661600D01*
X112655562Y-62661600D01*
X112503505Y-62676576D01*
X112308407Y-62735759D01*
X112258947Y-62762196D01*
X112128602Y-62831866D01*
X112109126Y-62847850D01*
X111971004Y-62961204D01*
X111938597Y-63000692D01*
X106911192Y-68028097D01*
X106098392Y-68840898D01*
X106058905Y-68873304D01*
X106026498Y-68912792D01*
X106026497Y-68912793D01*
X105929566Y-69030903D01*
X105833460Y-69210707D01*
X105774277Y-69405805D01*
X105754294Y-69608700D01*
X105759301Y-69659538D01*
X105759300Y-75298272D01*
X105754294Y-75349100D01*
X105759300Y-75399928D01*
X105759300Y-75399937D01*
X105774276Y-75551994D01*
X105833459Y-75747092D01*
X105929566Y-75926897D01*
X106058904Y-76084496D01*
X106098397Y-76116907D01*
X107093297Y-77111808D01*
X107125704Y-77151296D01*
X107165192Y-77183703D01*
X107283302Y-77280634D01*
X107371429Y-77327738D01*
X107463107Y-77376741D01*
X107658205Y-77435924D01*
X107810262Y-77450900D01*
X107810271Y-77450900D01*
X107861099Y-77455906D01*
X107911927Y-77450900D01*
X109639072Y-77450900D01*
X109689900Y-77455906D01*
X109740728Y-77450900D01*
X109740738Y-77450900D01*
X109892795Y-77435924D01*
X110087893Y-77376741D01*
X110267697Y-77280634D01*
X110425296Y-77151296D01*
X110457707Y-77111803D01*
X110814109Y-76755401D01*
X111774617Y-76755401D01*
X111733420Y-76767898D01*
X111623106Y-76826863D01*
X111526415Y-76906215D01*
X111447063Y-77002906D01*
X111388098Y-77113220D01*
X111351788Y-77232918D01*
X111339528Y-77357400D01*
X111342600Y-77971650D01*
X111501350Y-78130400D01*
X112750600Y-78130400D01*
X112750600Y-78110400D01*
X113004600Y-78110400D01*
X113004600Y-78130400D01*
X114253850Y-78130400D01*
X114412600Y-77971650D01*
X114415672Y-77357400D01*
X114415485Y-77355498D01*
X122783303Y-77355498D01*
X123596400Y-78168595D01*
X124409497Y-77355498D01*
X124337914Y-77111529D01*
X124082404Y-76990629D01*
X123808216Y-76921900D01*
X123525888Y-76907983D01*
X123246270Y-76949413D01*
X122980108Y-77044597D01*
X122854886Y-77111529D01*
X122783303Y-77355498D01*
X114415485Y-77355498D01*
X114403412Y-77232918D01*
X114367102Y-77113220D01*
X114308137Y-77002906D01*
X114228785Y-76906215D01*
X114132094Y-76826863D01*
X114021780Y-76767898D01*
X113902082Y-76731588D01*
X113777600Y-76719328D01*
X113649527Y-76719969D01*
X113777190Y-76681242D01*
X113956994Y-76585135D01*
X114114593Y-76455797D01*
X114147004Y-76416304D01*
X114696895Y-75866413D01*
X119696592Y-75866413D01*
X119792356Y-76130814D01*
X120081971Y-76271704D01*
X120393508Y-76353384D01*
X120714995Y-76372718D01*
X121034075Y-76328961D01*
X121338488Y-76223795D01*
X121512444Y-76130814D01*
X121608208Y-75866413D01*
X120652400Y-74910605D01*
X119696592Y-75866413D01*
X114696895Y-75866413D01*
X116599309Y-73964000D01*
X119207323Y-73964000D01*
X119111696Y-74160571D01*
X119030016Y-74472108D01*
X119010682Y-74793595D01*
X119054439Y-75112675D01*
X119159605Y-75417088D01*
X119252586Y-75591044D01*
X119516987Y-75686808D01*
X120472795Y-74731000D01*
X120458653Y-74716858D01*
X120638258Y-74537253D01*
X120652400Y-74551395D01*
X120666543Y-74537253D01*
X120846148Y-74716858D01*
X120832005Y-74731000D01*
X121787813Y-75686808D01*
X122052214Y-75591044D01*
X122193104Y-75301429D01*
X122274784Y-74989892D01*
X122294118Y-74668405D01*
X122250361Y-74349325D01*
X122145195Y-74044912D01*
X122101947Y-73964000D01*
X125707323Y-73964000D01*
X125611696Y-74160571D01*
X125530016Y-74472108D01*
X125510682Y-74793595D01*
X125554439Y-75112675D01*
X125659605Y-75417088D01*
X125752586Y-75591044D01*
X126016987Y-75686808D01*
X126972795Y-74731000D01*
X126958653Y-74716858D01*
X127138258Y-74537253D01*
X127152400Y-74551395D01*
X127166543Y-74537253D01*
X127346148Y-74716858D01*
X127332005Y-74731000D01*
X127346148Y-74745143D01*
X127166543Y-74924748D01*
X127152400Y-74910605D01*
X126196592Y-75866413D01*
X126292356Y-76130814D01*
X126581971Y-76271704D01*
X126642513Y-76287577D01*
X124995997Y-77934093D01*
X124977683Y-77949123D01*
X124900003Y-77731908D01*
X124833071Y-77606686D01*
X124589102Y-77535103D01*
X123776005Y-78348200D01*
X123790148Y-78362343D01*
X123610543Y-78541948D01*
X123596400Y-78527805D01*
X122783303Y-79340902D01*
X122803615Y-79410128D01*
X122796400Y-79410128D01*
X122671918Y-79422388D01*
X122552220Y-79458698D01*
X122441906Y-79517663D01*
X122345215Y-79597015D01*
X122319130Y-79628800D01*
X120047618Y-79628800D01*
X119972785Y-79537615D01*
X119879041Y-79460681D01*
X119976073Y-79327429D01*
X120083838Y-79094328D01*
X120114510Y-78993200D01*
X119990824Y-78790800D01*
X118973600Y-78790800D01*
X118973600Y-78810800D01*
X118719600Y-78810800D01*
X118719600Y-78790800D01*
X117702376Y-78790800D01*
X117578690Y-78993200D01*
X117609362Y-79094328D01*
X117717127Y-79327429D01*
X117814159Y-79460681D01*
X117720415Y-79537615D01*
X117641063Y-79634306D01*
X117582098Y-79744620D01*
X117545788Y-79864318D01*
X117533528Y-79988800D01*
X117533528Y-81338800D01*
X117545788Y-81463282D01*
X117582098Y-81582980D01*
X117641063Y-81693294D01*
X117720415Y-81789985D01*
X117817106Y-81869337D01*
X117927420Y-81928302D01*
X118047118Y-81964612D01*
X118171600Y-81976872D01*
X119521600Y-81976872D01*
X119646082Y-81964612D01*
X119765780Y-81928302D01*
X119876094Y-81869337D01*
X119972785Y-81789985D01*
X120047618Y-81698800D01*
X122163311Y-81698800D01*
X122170588Y-81772682D01*
X122206898Y-81892380D01*
X122265863Y-82002694D01*
X122345215Y-82099385D01*
X122441906Y-82178737D01*
X122552220Y-82237702D01*
X122561401Y-82240487D01*
X122561401Y-83010288D01*
X122018290Y-83553400D01*
X121976508Y-83553400D01*
X121765691Y-83574164D01*
X121495192Y-83656218D01*
X121245899Y-83789468D01*
X121046147Y-83953400D01*
X120507853Y-83953400D01*
X120308101Y-83789468D01*
X120058808Y-83656218D01*
X119788309Y-83574164D01*
X119577492Y-83553400D01*
X119436508Y-83553400D01*
X119225691Y-83574164D01*
X118955192Y-83656218D01*
X118705899Y-83789468D01*
X118487392Y-83968792D01*
X118308068Y-84187299D01*
X118234421Y-84325082D01*
X118119385Y-84133269D01*
X117930414Y-83924881D01*
X117704420Y-83757363D01*
X117450087Y-83637154D01*
X117316039Y-83596496D01*
X117094000Y-83718485D01*
X117094000Y-84861400D01*
X117114000Y-84861400D01*
X117114000Y-85115400D01*
X117094000Y-85115400D01*
X117094000Y-85135400D01*
X116840000Y-85135400D01*
X116840000Y-85115400D01*
X116820000Y-85115400D01*
X116820000Y-84861400D01*
X116840000Y-84861400D01*
X116840000Y-83718485D01*
X116617961Y-83596496D01*
X116483913Y-83637154D01*
X116229580Y-83757363D01*
X116003586Y-83924881D01*
X115814615Y-84133269D01*
X115699579Y-84325082D01*
X115625932Y-84187299D01*
X115446608Y-83968792D01*
X115228101Y-83789468D01*
X114978808Y-83656218D01*
X114708309Y-83574164D01*
X114497492Y-83553400D01*
X114356508Y-83553400D01*
X114145691Y-83574164D01*
X113875192Y-83656218D01*
X113625899Y-83789468D01*
X113407392Y-83968792D01*
X113228068Y-84187299D01*
X113157000Y-84320258D01*
X113085932Y-84187299D01*
X112906608Y-83968792D01*
X112688101Y-83789468D01*
X112438808Y-83656218D01*
X112168309Y-83574164D01*
X111957492Y-83553400D01*
X111816508Y-83553400D01*
X111605691Y-83574164D01*
X111335192Y-83656218D01*
X111085899Y-83789468D01*
X110867392Y-83968792D01*
X110688068Y-84187299D01*
X110614421Y-84325082D01*
X110499385Y-84133269D01*
X110310414Y-83924881D01*
X110084420Y-83757363D01*
X109830087Y-83637154D01*
X109696039Y-83596496D01*
X109474000Y-83718485D01*
X109474000Y-84861400D01*
X109494000Y-84861400D01*
X109494000Y-85115400D01*
X109474000Y-85115400D01*
X109474000Y-86258315D01*
X109696039Y-86380304D01*
X109830087Y-86339646D01*
X110084420Y-86219437D01*
X110310414Y-86051919D01*
X110499385Y-85843531D01*
X110614421Y-85651718D01*
X110688068Y-85789501D01*
X110867392Y-86008008D01*
X111085899Y-86187332D01*
X111335192Y-86320582D01*
X111605691Y-86402636D01*
X111816508Y-86423400D01*
X111858290Y-86423400D01*
X114167197Y-88732308D01*
X114199604Y-88771796D01*
X114239092Y-88804203D01*
X114357202Y-88901134D01*
X114404723Y-88926534D01*
X114537007Y-88997241D01*
X114732105Y-89056424D01*
X114884162Y-89071400D01*
X114884164Y-89071400D01*
X114935000Y-89076407D01*
X114985835Y-89071400D01*
X117995033Y-89071400D01*
X117880282Y-89243137D01*
X117757032Y-89540688D01*
X117694200Y-89856567D01*
X117694200Y-90178633D01*
X117757032Y-90494512D01*
X117880282Y-90792063D01*
X118059213Y-91059852D01*
X118286948Y-91287587D01*
X118554737Y-91466518D01*
X118608997Y-91488993D01*
X118487392Y-91588792D01*
X118308068Y-91807299D01*
X118237000Y-91940258D01*
X118165932Y-91807299D01*
X117986608Y-91588792D01*
X117768101Y-91409468D01*
X117518808Y-91276218D01*
X117248309Y-91194164D01*
X117037492Y-91173400D01*
X116896508Y-91173400D01*
X116685691Y-91194164D01*
X116415192Y-91276218D01*
X116165899Y-91409468D01*
X115947392Y-91588792D01*
X115768068Y-91807299D01*
X115697000Y-91940258D01*
X115625932Y-91807299D01*
X115446608Y-91588792D01*
X115228101Y-91409468D01*
X114978808Y-91276218D01*
X114708309Y-91194164D01*
X114497492Y-91173400D01*
X114356508Y-91173400D01*
X114145691Y-91194164D01*
X113875192Y-91276218D01*
X113625899Y-91409468D01*
X113407392Y-91588792D01*
X113228068Y-91807299D01*
X113157000Y-91940258D01*
X113085932Y-91807299D01*
X112906608Y-91588792D01*
X112688101Y-91409468D01*
X112438808Y-91276218D01*
X112168309Y-91194164D01*
X111957492Y-91173400D01*
X111816508Y-91173400D01*
X111605691Y-91194164D01*
X111335192Y-91276218D01*
X111085899Y-91409468D01*
X110867392Y-91588792D01*
X110688068Y-91807299D01*
X110617000Y-91940258D01*
X110545932Y-91807299D01*
X110366608Y-91588792D01*
X110148101Y-91409468D01*
X109898808Y-91276218D01*
X109628309Y-91194164D01*
X109417492Y-91173400D01*
X109276508Y-91173400D01*
X109065691Y-91194164D01*
X108795192Y-91276218D01*
X108545899Y-91409468D01*
X108327392Y-91588792D01*
X108148068Y-91807299D01*
X108014818Y-92056592D01*
X107932764Y-92327091D01*
X107905057Y-92608400D01*
X107932764Y-92889709D01*
X108014818Y-93160208D01*
X108148068Y-93409501D01*
X108312001Y-93609254D01*
X108312001Y-93688933D01*
X108306994Y-93739770D01*
X108326977Y-93942665D01*
X108386160Y-94137763D01*
X108482266Y-94317567D01*
X108579197Y-94435677D01*
X108611605Y-94475166D01*
X108651093Y-94507573D01*
X114056604Y-99913085D01*
X108758100Y-99913085D01*
X108758100Y-101376074D01*
X108656502Y-101308188D01*
X108267956Y-101147247D01*
X107855479Y-101065200D01*
X107434921Y-101065200D01*
X107022444Y-101147247D01*
X106633898Y-101308188D01*
X106284217Y-101541837D01*
X105986837Y-101839217D01*
X105753188Y-102188898D01*
X105592247Y-102577444D01*
X105510200Y-102989921D01*
X104606990Y-102989921D01*
X104661725Y-85337440D01*
X107955091Y-85337440D01*
X108049930Y-85602281D01*
X108194615Y-85843531D01*
X108383586Y-86051919D01*
X108609580Y-86219437D01*
X108863913Y-86339646D01*
X108997961Y-86380304D01*
X109220000Y-86258315D01*
X109220000Y-85115400D01*
X108076376Y-85115400D01*
X107955091Y-85337440D01*
X104661725Y-85337440D01*
X104663889Y-84639360D01*
X107955091Y-84639360D01*
X108076376Y-84861400D01*
X109220000Y-84861400D01*
X109220000Y-83718485D01*
X108997961Y-83596496D01*
X108863913Y-83637154D01*
X108609580Y-83757363D01*
X108383586Y-83924881D01*
X108194615Y-84133269D01*
X108049930Y-84374519D01*
X107955091Y-84639360D01*
X104663889Y-84639360D01*
X104672697Y-81799065D01*
X107302400Y-81799065D01*
X107302400Y-82081735D01*
X107357547Y-82358974D01*
X107465720Y-82620127D01*
X107622763Y-82855159D01*
X107822641Y-83055037D01*
X108057673Y-83212080D01*
X108318826Y-83320253D01*
X108596065Y-83375400D01*
X108878735Y-83375400D01*
X109155974Y-83320253D01*
X109417127Y-83212080D01*
X109652159Y-83055037D01*
X109852037Y-82855159D01*
X110009080Y-82620127D01*
X110117253Y-82358974D01*
X110172400Y-82081735D01*
X110172400Y-81969111D01*
X110309111Y-81832400D01*
X111741783Y-81832400D01*
X111899095Y-81989712D01*
X112150505Y-82157699D01*
X112429857Y-82273411D01*
X112726416Y-82332400D01*
X113028784Y-82332400D01*
X113325343Y-82273411D01*
X113604695Y-82157699D01*
X113856105Y-81989712D01*
X114069912Y-81775905D01*
X114237899Y-81524495D01*
X114353611Y-81245143D01*
X114412600Y-80948584D01*
X114412600Y-80646216D01*
X114353611Y-80349657D01*
X114237899Y-80070305D01*
X114069912Y-79818895D01*
X114003473Y-79752456D01*
X114021780Y-79746902D01*
X114132094Y-79687937D01*
X114228785Y-79608585D01*
X114308137Y-79511894D01*
X114367102Y-79401580D01*
X114403412Y-79281882D01*
X114415672Y-79157400D01*
X114412600Y-78543150D01*
X114253850Y-78384400D01*
X113004600Y-78384400D01*
X113004600Y-78404400D01*
X112750600Y-78404400D01*
X112750600Y-78384400D01*
X111501350Y-78384400D01*
X111342600Y-78543150D01*
X111339528Y-79157400D01*
X111351788Y-79281882D01*
X111388098Y-79401580D01*
X111447063Y-79511894D01*
X111526415Y-79608585D01*
X111623106Y-79687937D01*
X111733420Y-79746902D01*
X111751727Y-79752456D01*
X111741783Y-79762400D01*
X109931227Y-79762400D01*
X109880399Y-79757394D01*
X109829571Y-79762400D01*
X109829562Y-79762400D01*
X109677505Y-79777376D01*
X109482407Y-79836559D01*
X109421888Y-79868907D01*
X109302602Y-79932666D01*
X109185223Y-80028997D01*
X109145004Y-80062004D01*
X109112597Y-80101492D01*
X108708689Y-80505400D01*
X108596065Y-80505400D01*
X108318826Y-80560547D01*
X108057673Y-80668720D01*
X107822641Y-80825763D01*
X107622763Y-81025641D01*
X107465720Y-81260673D01*
X107357547Y-81521826D01*
X107302400Y-81799065D01*
X104672697Y-81799065D01*
X104683439Y-78334400D01*
X117578690Y-78334400D01*
X117702376Y-78536800D01*
X118719600Y-78536800D01*
X118719600Y-77518715D01*
X118973600Y-77518715D01*
X118973600Y-78536800D01*
X119990824Y-78536800D01*
X120062987Y-78418712D01*
X122156183Y-78418712D01*
X122197613Y-78698330D01*
X122292797Y-78964492D01*
X122359729Y-79089714D01*
X122603698Y-79161297D01*
X123416795Y-78348200D01*
X122603698Y-77535103D01*
X122359729Y-77606686D01*
X122238829Y-77862196D01*
X122170100Y-78136384D01*
X122156183Y-78418712D01*
X120062987Y-78418712D01*
X120114510Y-78334400D01*
X120083838Y-78233272D01*
X119976073Y-78000171D01*
X119824903Y-77792573D01*
X119636137Y-77618456D01*
X119417030Y-77484511D01*
X119176001Y-77395885D01*
X118973600Y-77518715D01*
X118719600Y-77518715D01*
X118517199Y-77395885D01*
X118276170Y-77484511D01*
X118057063Y-77618456D01*
X117868297Y-77792573D01*
X117717127Y-78000171D01*
X117609362Y-78233272D01*
X117578690Y-78334400D01*
X104683439Y-78334400D01*
X104748451Y-57368015D01*
X106748762Y-57351192D01*
X106494837Y-57605117D01*
X106261188Y-57954798D01*
X106100247Y-58343344D01*
X106018200Y-58755821D01*
X106018200Y-59176379D01*
X106100247Y-59588856D01*
X106261188Y-59977402D01*
X106494837Y-60327083D01*
X106792217Y-60624463D01*
X107141898Y-60858112D01*
X107530444Y-61019053D01*
X107942921Y-61101100D01*
X108363479Y-61101100D01*
X108763151Y-61021600D01*
X114434728Y-61021600D01*
X114437800Y-61410850D01*
X114596550Y-61569600D01*
X115620800Y-61569600D01*
X115620800Y-60545350D01*
X115874800Y-60545350D01*
X115874800Y-61569600D01*
X116899050Y-61569600D01*
X117057800Y-61410850D01*
X117060872Y-61021600D01*
X117048612Y-60897118D01*
X117012302Y-60777420D01*
X116953337Y-60667106D01*
X116873985Y-60570415D01*
X116777294Y-60491063D01*
X116666980Y-60432098D01*
X116547282Y-60395788D01*
X116422800Y-60383528D01*
X116033550Y-60386600D01*
X115874800Y-60545350D01*
X115620800Y-60545350D01*
X115462050Y-60386600D01*
X115072800Y-60383528D01*
X114948318Y-60395788D01*
X114828620Y-60432098D01*
X114718306Y-60491063D01*
X114621615Y-60570415D01*
X114542263Y-60667106D01*
X114483298Y-60777420D01*
X114446988Y-60897118D01*
X114434728Y-61021600D01*
X108763151Y-61021600D01*
X108775956Y-61019053D01*
X109164502Y-60858112D01*
X109514183Y-60624463D01*
X109811563Y-60327083D01*
X110045212Y-59977402D01*
X110206153Y-59588856D01*
X110288200Y-59176379D01*
X110288200Y-58755821D01*
X110206153Y-58343344D01*
X110045212Y-57954798D01*
X109811563Y-57605117D01*
X109534211Y-57327765D01*
X176600587Y-56763708D01*
X176413617Y-56888637D01*
X176116237Y-57186017D01*
X175882588Y-57535698D01*
X175721647Y-57924244D01*
X175639600Y-58336721D01*
X175639600Y-58757279D01*
X175721647Y-59169756D01*
X175882588Y-59558302D01*
X176116237Y-59907983D01*
X176413617Y-60205363D01*
X176763298Y-60439012D01*
X177151844Y-60599953D01*
X177564321Y-60682000D01*
X177984879Y-60682000D01*
X178397356Y-60599953D01*
X178785902Y-60439012D01*
X179135583Y-60205363D01*
X179432963Y-59907983D01*
X179666612Y-59558302D01*
X179827553Y-59169756D01*
X179909600Y-58757279D01*
X179909600Y-58336721D01*
X179827553Y-57924244D01*
X179666612Y-57535698D01*
X179432963Y-57186017D01*
X179135583Y-56888637D01*
X178919425Y-56744205D01*
X179995607Y-56735154D01*
X179719177Y-105090468D01*
M02*
