M48
; DRILL file {KiCad (5.1.2)-1} date 20/06/2019 2:29:16 p. m.
; FORMAT={3:3/ absolute / metric / suppress leading zeros}
; #@! TF.CreationDate,2019-06-20T14:29:16-05:00
; #@! TF.GenerationSoftware,Kicad,Pcbnew,(5.1.2)-1
FMAT,2
METRIC,TZ
T1C0.650
T2C0.800
T3C0.900
T4C1.000
T5C1.700
%
G90
G05
T1
X184404Y-92964
X184404Y-94234
X187960Y-86360
X187960Y-87630
T2
X181030Y-105410
X189230Y-105410
X161290Y-81280
X161290Y-91440
X163513Y-104203
X173673Y-104203
X166370Y-88900
X166370Y-91440
X166370Y-93980
X166370Y-96520
X173990Y-88900
X173990Y-91440
X173990Y-93980
X173990Y-96520
X156123Y-94488
X158623Y-94488
X180340Y-85090
X180340Y-95250
X178359Y-81382
X188519Y-81382
X188532Y-95568
X191032Y-95568
X169545Y-100076
X174545Y-100076
T3
X162433Y-98298
X162433Y-100838
X155766Y-85408
X155766Y-87948
T4
X180721Y-114300
X188221Y-114300
X174498Y-109474
X174498Y-111974
X174498Y-114474
T5
X154813Y-100434
X154813Y-104394
X168049Y-80112
X172009Y-80112
T0
M30
