G04 #@! TF.GenerationSoftware,KiCad,Pcbnew,(5.1.2)-1*
G04 #@! TF.CreationDate,2019-06-20T14:25:28-05:00*
G04 #@! TF.ProjectId,montaje,6d6f6e74-616a-4652-9e6b-696361645f70,rev?*
G04 #@! TF.SameCoordinates,Original*
G04 #@! TF.FileFunction,Other,Fab,Top*
%FSLAX46Y46*%
G04 Gerber Fmt 4.6, Leading zero omitted, Abs format (unit mm)*
G04 Created by KiCad (PCBNEW (5.1.2)-1) date 2019-06-20 14:25:28*
%MOMM*%
%LPD*%
G04 APERTURE LIST*
%ADD10C,0.100000*%
%ADD11C,0.150000*%
%ADD12C,0.120000*%
G04 APERTURE END LIST*
D10*
X167005000Y-88630000D02*
X168005000Y-87630000D01*
X167005000Y-97790000D02*
X167005000Y-88630000D01*
X173355000Y-97790000D02*
X167005000Y-97790000D01*
X173355000Y-87630000D02*
X173355000Y-97790000D01*
X168005000Y-87630000D02*
X173355000Y-87630000D01*
X189971000Y-111800000D02*
X178971000Y-111800000D01*
X189971000Y-116800000D02*
X189971000Y-111800000D01*
X178971000Y-116800000D02*
X189971000Y-116800000D01*
X178971000Y-111800000D02*
X178971000Y-116800000D01*
X176448000Y-116724000D02*
X176448000Y-107224000D01*
X176448000Y-107224000D02*
X171048000Y-107224000D01*
X171048000Y-107224000D02*
X171048000Y-116724000D01*
X171048000Y-116724000D02*
X176448000Y-116724000D01*
X171048000Y-115474000D02*
X171048000Y-108474000D01*
X171048000Y-108474000D02*
X166048000Y-108474000D01*
X166048000Y-108474000D02*
X166048000Y-115474000D01*
X166048000Y-115474000D02*
X171048000Y-115474000D01*
X166048000Y-114474000D02*
X166048000Y-109474000D01*
X166048000Y-109474000D02*
X159048000Y-109474000D01*
X159048000Y-109474000D02*
X159048000Y-114474000D01*
X159048000Y-114474000D02*
X166048000Y-114474000D01*
X161290000Y-81280000D02*
X161290000Y-83210000D01*
X161290000Y-91440000D02*
X161290000Y-89510000D01*
X160040000Y-83210000D02*
X160040000Y-89510000D01*
X162540000Y-83210000D02*
X160040000Y-83210000D01*
X162540000Y-89510000D02*
X162540000Y-83210000D01*
X160040000Y-89510000D02*
X162540000Y-89510000D01*
X163512500Y-104203500D02*
X165442500Y-104203500D01*
X173672500Y-104203500D02*
X171742500Y-104203500D01*
X165442500Y-105453500D02*
X171742500Y-105453500D01*
X165442500Y-102953500D02*
X165442500Y-105453500D01*
X171742500Y-102953500D02*
X165442500Y-102953500D01*
X171742500Y-105453500D02*
X171742500Y-102953500D01*
X180340000Y-95250000D02*
X180340000Y-93320000D01*
X180340000Y-85090000D02*
X180340000Y-87020000D01*
X181590000Y-93320000D02*
X181590000Y-87020000D01*
X179090000Y-93320000D02*
X181590000Y-93320000D01*
X179090000Y-87020000D02*
X179090000Y-93320000D01*
X181590000Y-87020000D02*
X179090000Y-87020000D01*
X188937229Y-110104146D02*
G75*
G03X188930000Y-100710000I-3807229J4694146D01*
G01*
X181322771Y-100715854D02*
G75*
G03X181330000Y-110110000I3807229J-4694146D01*
G01*
X188930000Y-110110000D02*
X181330000Y-110110000D01*
X181330000Y-100710000D02*
X188930000Y-100710000D01*
X186030000Y-103610000D02*
X184230000Y-103610000D01*
X186030000Y-104210000D02*
X186030000Y-103610000D01*
X184230000Y-104210000D02*
X186030000Y-104210000D01*
X184230000Y-104810000D02*
X184230000Y-104210000D01*
X186030000Y-104810000D02*
X184230000Y-104810000D01*
X186030000Y-105410000D02*
X186030000Y-104810000D01*
X184230000Y-105410000D02*
X186030000Y-105410000D01*
X184230000Y-106010000D02*
X184230000Y-105410000D01*
X186030000Y-106010000D02*
X184230000Y-106010000D01*
X186030000Y-106610000D02*
X186030000Y-106010000D01*
X184230000Y-106610000D02*
X186030000Y-106610000D01*
X184230000Y-107210000D02*
X184230000Y-106610000D01*
X186030000Y-107210000D02*
X184230000Y-107210000D01*
X188518800Y-81381600D02*
X186588800Y-81381600D01*
X178358800Y-81381600D02*
X180288800Y-81381600D01*
X186588800Y-80131600D02*
X180288800Y-80131600D01*
X186588800Y-82631600D02*
X186588800Y-80131600D01*
X180288800Y-82631600D02*
X186588800Y-82631600D01*
X180288800Y-80131600D02*
X180288800Y-82631600D01*
X183354000Y-92854000D02*
X183879000Y-92329000D01*
X183354000Y-94869000D02*
X183354000Y-92854000D01*
X185454000Y-94869000D02*
X183354000Y-94869000D01*
X185454000Y-92329000D02*
X185454000Y-94869000D01*
X183879000Y-92329000D02*
X185454000Y-92329000D01*
X186910000Y-86250000D02*
X187435000Y-85725000D01*
X186910000Y-88265000D02*
X186910000Y-86250000D01*
X189010000Y-88265000D02*
X186910000Y-88265000D01*
X189010000Y-85725000D02*
X189010000Y-88265000D01*
X187435000Y-85725000D02*
X189010000Y-85725000D01*
X173958800Y-79111600D02*
X172958800Y-80111600D01*
X173958800Y-81111600D02*
X172958800Y-80111600D01*
X167298800Y-83811600D02*
X167298800Y-82111600D01*
X172758800Y-83811600D02*
X167298800Y-83811600D01*
X172758800Y-82111600D02*
X172758800Y-83811600D01*
X166098800Y-82111600D02*
X173958800Y-82111600D01*
X166098800Y-75311600D02*
X166098800Y-82111600D01*
X173958800Y-75311600D02*
X166098800Y-75311600D01*
X173958800Y-82111600D02*
X173958800Y-75311600D01*
X153813000Y-98484000D02*
X154813000Y-99484000D01*
X155813000Y-98484000D02*
X154813000Y-99484000D01*
X158513000Y-105144000D02*
X156813000Y-105144000D01*
X158513000Y-99684000D02*
X158513000Y-105144000D01*
X156813000Y-99684000D02*
X158513000Y-99684000D01*
X156813000Y-106344000D02*
X156813000Y-98484000D01*
X150013000Y-106344000D02*
X156813000Y-106344000D01*
X150013000Y-98484000D02*
X150013000Y-106344000D01*
X156813000Y-98484000D02*
X150013000Y-98484000D01*
X156930976Y-88178055D02*
G75*
G03X154599310Y-88177500I-1165476J1500555D01*
G01*
X157265500Y-86677500D02*
G75*
G03X157265500Y-86677500I-1500000J0D01*
G01*
X154599310Y-88177500D02*
X156931690Y-88177500D01*
X161267524Y-98067445D02*
G75*
G03X163599190Y-98068000I1165476J-1500555D01*
G01*
X163933000Y-99568000D02*
G75*
G03X163933000Y-99568000I-1500000J0D01*
G01*
X163599190Y-98068000D02*
X161266810Y-98068000D01*
X159256605Y-95825500D02*
X159256605Y-95325500D01*
X159506605Y-95575500D02*
X159006605Y-95575500D01*
X159873000Y-94488000D02*
G75*
G03X159873000Y-94488000I-2500000J0D01*
G01*
X175545000Y-101326000D02*
X175545000Y-98826000D01*
X175545000Y-98826000D02*
X168545000Y-98826000D01*
X168545000Y-98826000D02*
X168545000Y-101326000D01*
X168545000Y-101326000D02*
X175545000Y-101326000D01*
X187402528Y-93879000D02*
X187402528Y-94509000D01*
X187087528Y-94194000D02*
X187717528Y-94194000D01*
X192931500Y-95567500D02*
G75*
G03X192931500Y-95567500I-3150000J0D01*
G01*
D11*
X168489523Y-99302380D02*
X168013333Y-99302380D01*
X168013333Y-98302380D01*
X168822857Y-99302380D02*
X168822857Y-98302380D01*
X169156190Y-99016666D01*
X169489523Y-98302380D01*
X169489523Y-99302380D01*
X170441904Y-98302380D02*
X169965714Y-98302380D01*
X169918095Y-98778571D01*
X169965714Y-98730952D01*
X170060952Y-98683333D01*
X170299047Y-98683333D01*
X170394285Y-98730952D01*
X170441904Y-98778571D01*
X170489523Y-98873809D01*
X170489523Y-99111904D01*
X170441904Y-99207142D01*
X170394285Y-99254761D01*
X170299047Y-99302380D01*
X170060952Y-99302380D01*
X169965714Y-99254761D01*
X169918095Y-99207142D01*
X171394285Y-98302380D02*
X170918095Y-98302380D01*
X170870476Y-98778571D01*
X170918095Y-98730952D01*
X171013333Y-98683333D01*
X171251428Y-98683333D01*
X171346666Y-98730952D01*
X171394285Y-98778571D01*
X171441904Y-98873809D01*
X171441904Y-99111904D01*
X171394285Y-99207142D01*
X171346666Y-99254761D01*
X171251428Y-99302380D01*
X171013333Y-99302380D01*
X170918095Y-99254761D01*
X170870476Y-99207142D01*
X172346666Y-98302380D02*
X171870476Y-98302380D01*
X171822857Y-98778571D01*
X171870476Y-98730952D01*
X171965714Y-98683333D01*
X172203809Y-98683333D01*
X172299047Y-98730952D01*
X172346666Y-98778571D01*
X172394285Y-98873809D01*
X172394285Y-99111904D01*
X172346666Y-99207142D01*
X172299047Y-99254761D01*
X172203809Y-99302380D01*
X171965714Y-99302380D01*
X171870476Y-99254761D01*
X171822857Y-99207142D01*
X169418095Y-92162380D02*
X169418095Y-92971904D01*
X169465714Y-93067142D01*
X169513333Y-93114761D01*
X169608571Y-93162380D01*
X169799047Y-93162380D01*
X169894285Y-93114761D01*
X169941904Y-93067142D01*
X169989523Y-92971904D01*
X169989523Y-92162380D01*
X170989523Y-93162380D02*
X170418095Y-93162380D01*
X170703809Y-93162380D02*
X170703809Y-92162380D01*
X170608571Y-92305238D01*
X170513333Y-92400476D01*
X170418095Y-92448095D01*
X182828142Y-117502380D02*
X182923380Y-117502380D01*
X183018619Y-117550000D01*
X183066238Y-117597619D01*
X183113857Y-117692857D01*
X183161476Y-117883333D01*
X183161476Y-118121428D01*
X183113857Y-118311904D01*
X183066238Y-118407142D01*
X183018619Y-118454761D01*
X182923380Y-118502380D01*
X182828142Y-118502380D01*
X182732904Y-118454761D01*
X182685285Y-118407142D01*
X182637666Y-118311904D01*
X182590047Y-118121428D01*
X182590047Y-117883333D01*
X182637666Y-117692857D01*
X182685285Y-117597619D01*
X182732904Y-117550000D01*
X182828142Y-117502380D01*
X183590047Y-118407142D02*
X183637666Y-118454761D01*
X183590047Y-118502380D01*
X183542428Y-118454761D01*
X183590047Y-118407142D01*
X183590047Y-118502380D01*
X184590047Y-118502380D02*
X184018619Y-118502380D01*
X184304333Y-118502380D02*
X184304333Y-117502380D01*
X184209095Y-117645238D01*
X184113857Y-117740476D01*
X184018619Y-117788095D01*
X185447190Y-117835714D02*
X185447190Y-118502380D01*
X185018619Y-117835714D02*
X185018619Y-118359523D01*
X185066238Y-118454761D01*
X185161476Y-118502380D01*
X185304333Y-118502380D01*
X185399571Y-118454761D01*
X185447190Y-118407142D01*
X186256714Y-117978571D02*
X185923380Y-117978571D01*
X185923380Y-118502380D02*
X185923380Y-117502380D01*
X186399571Y-117502380D01*
X184304333Y-114657142D02*
X184256714Y-114704761D01*
X184113857Y-114752380D01*
X184018619Y-114752380D01*
X183875761Y-114704761D01*
X183780523Y-114609523D01*
X183732904Y-114514285D01*
X183685285Y-114323809D01*
X183685285Y-114180952D01*
X183732904Y-113990476D01*
X183780523Y-113895238D01*
X183875761Y-113800000D01*
X184018619Y-113752380D01*
X184113857Y-113752380D01*
X184256714Y-113800000D01*
X184304333Y-113847619D01*
X184685285Y-113847619D02*
X184732904Y-113800000D01*
X184828142Y-113752380D01*
X185066238Y-113752380D01*
X185161476Y-113800000D01*
X185209095Y-113847619D01*
X185256714Y-113942857D01*
X185256714Y-114038095D01*
X185209095Y-114180952D01*
X184637666Y-114752380D01*
X185256714Y-114752380D01*
X169743380Y-112228238D02*
X169743380Y-112799666D01*
X169743380Y-112513952D02*
X168743380Y-112513952D01*
X168886238Y-112609190D01*
X168981476Y-112704428D01*
X169029095Y-112799666D01*
X168743380Y-111609190D02*
X168743380Y-111513952D01*
X168791000Y-111418714D01*
X168838619Y-111371095D01*
X168933857Y-111323476D01*
X169124333Y-111275857D01*
X169362428Y-111275857D01*
X169552904Y-111323476D01*
X169648142Y-111371095D01*
X169695761Y-111418714D01*
X169743380Y-111513952D01*
X169743380Y-111609190D01*
X169695761Y-111704428D01*
X169648142Y-111752047D01*
X169552904Y-111799666D01*
X169362428Y-111847285D01*
X169124333Y-111847285D01*
X168933857Y-111799666D01*
X168838619Y-111752047D01*
X168791000Y-111704428D01*
X168743380Y-111609190D01*
X169743380Y-110847285D02*
X168743380Y-110847285D01*
X169362428Y-110752047D02*
X169743380Y-110466333D01*
X169076714Y-110466333D02*
X169457666Y-110847285D01*
X173152761Y-112426380D02*
X172819428Y-111950190D01*
X172581333Y-112426380D02*
X172581333Y-111426380D01*
X172962285Y-111426380D01*
X173057523Y-111474000D01*
X173105142Y-111521619D01*
X173152761Y-111616857D01*
X173152761Y-111759714D01*
X173105142Y-111854952D01*
X173057523Y-111902571D01*
X172962285Y-111950190D01*
X172581333Y-111950190D01*
X173438476Y-111426380D02*
X173771809Y-112426380D01*
X174105142Y-111426380D01*
X174962285Y-112426380D02*
X174390857Y-112426380D01*
X174676571Y-112426380D02*
X174676571Y-111426380D01*
X174581333Y-111569238D01*
X174486095Y-111664476D01*
X174390857Y-111712095D01*
X163207619Y-87598095D02*
X163160000Y-87550476D01*
X163112380Y-87455238D01*
X163112380Y-87217142D01*
X163160000Y-87121904D01*
X163207619Y-87074285D01*
X163302857Y-87026666D01*
X163398095Y-87026666D01*
X163540952Y-87074285D01*
X164112380Y-87645714D01*
X164112380Y-87026666D01*
X163112380Y-86693333D02*
X163112380Y-86026666D01*
X164112380Y-86455238D01*
X163112380Y-85455238D02*
X163112380Y-85360000D01*
X163160000Y-85264761D01*
X163207619Y-85217142D01*
X163302857Y-85169523D01*
X163493333Y-85121904D01*
X163731428Y-85121904D01*
X163921904Y-85169523D01*
X164017142Y-85217142D01*
X164064761Y-85264761D01*
X164112380Y-85360000D01*
X164112380Y-85455238D01*
X164064761Y-85550476D01*
X164017142Y-85598095D01*
X163921904Y-85645714D01*
X163731428Y-85693333D01*
X163493333Y-85693333D01*
X163302857Y-85645714D01*
X163207619Y-85598095D01*
X163160000Y-85550476D01*
X163112380Y-85455238D01*
X161742380Y-86526666D02*
X161266190Y-86860000D01*
X161742380Y-87098095D02*
X160742380Y-87098095D01*
X160742380Y-86717142D01*
X160790000Y-86621904D01*
X160837619Y-86574285D01*
X160932857Y-86526666D01*
X161075714Y-86526666D01*
X161170952Y-86574285D01*
X161218571Y-86621904D01*
X161266190Y-86717142D01*
X161266190Y-87098095D01*
X160742380Y-85621904D02*
X160742380Y-86098095D01*
X161218571Y-86145714D01*
X161170952Y-86098095D01*
X161123333Y-86002857D01*
X161123333Y-85764761D01*
X161170952Y-85669523D01*
X161218571Y-85621904D01*
X161313809Y-85574285D01*
X161551904Y-85574285D01*
X161647142Y-85621904D01*
X161694761Y-85669523D01*
X161742380Y-85764761D01*
X161742380Y-86002857D01*
X161694761Y-86098095D01*
X161647142Y-86145714D01*
X175037904Y-103560619D02*
X175085523Y-103513000D01*
X175180761Y-103465380D01*
X175418857Y-103465380D01*
X175514095Y-103513000D01*
X175561714Y-103560619D01*
X175609333Y-103655857D01*
X175609333Y-103751095D01*
X175561714Y-103893952D01*
X174990285Y-104465380D01*
X175609333Y-104465380D01*
X175942666Y-103465380D02*
X176609333Y-103465380D01*
X176180761Y-104465380D01*
X177180761Y-103465380D02*
X177276000Y-103465380D01*
X177371238Y-103513000D01*
X177418857Y-103560619D01*
X177466476Y-103655857D01*
X177514095Y-103846333D01*
X177514095Y-104084428D01*
X177466476Y-104274904D01*
X177418857Y-104370142D01*
X177371238Y-104417761D01*
X177276000Y-104465380D01*
X177180761Y-104465380D01*
X177085523Y-104417761D01*
X177037904Y-104370142D01*
X176990285Y-104274904D01*
X176942666Y-104084428D01*
X176942666Y-103846333D01*
X176990285Y-103655857D01*
X177037904Y-103560619D01*
X177085523Y-103513000D01*
X177180761Y-103465380D01*
X168425833Y-104655880D02*
X168092500Y-104179690D01*
X167854404Y-104655880D02*
X167854404Y-103655880D01*
X168235357Y-103655880D01*
X168330595Y-103703500D01*
X168378214Y-103751119D01*
X168425833Y-103846357D01*
X168425833Y-103989214D01*
X168378214Y-104084452D01*
X168330595Y-104132071D01*
X168235357Y-104179690D01*
X167854404Y-104179690D01*
X169282976Y-103989214D02*
X169282976Y-104655880D01*
X169044880Y-103608261D02*
X168806785Y-104322547D01*
X169425833Y-104322547D01*
X178422380Y-90836666D02*
X178422380Y-91408095D01*
X178422380Y-91122380D02*
X177422380Y-91122380D01*
X177565238Y-91217619D01*
X177660476Y-91312857D01*
X177708095Y-91408095D01*
X177422380Y-90217619D02*
X177422380Y-90122380D01*
X177470000Y-90027142D01*
X177517619Y-89979523D01*
X177612857Y-89931904D01*
X177803333Y-89884285D01*
X178041428Y-89884285D01*
X178231904Y-89931904D01*
X178327142Y-89979523D01*
X178374761Y-90027142D01*
X178422380Y-90122380D01*
X178422380Y-90217619D01*
X178374761Y-90312857D01*
X178327142Y-90360476D01*
X178231904Y-90408095D01*
X178041428Y-90455714D01*
X177803333Y-90455714D01*
X177612857Y-90408095D01*
X177517619Y-90360476D01*
X177470000Y-90312857D01*
X177422380Y-90217619D01*
X177422380Y-89265238D02*
X177422380Y-89170000D01*
X177470000Y-89074761D01*
X177517619Y-89027142D01*
X177612857Y-88979523D01*
X177803333Y-88931904D01*
X178041428Y-88931904D01*
X178231904Y-88979523D01*
X178327142Y-89027142D01*
X178374761Y-89074761D01*
X178422380Y-89170000D01*
X178422380Y-89265238D01*
X178374761Y-89360476D01*
X178327142Y-89408095D01*
X178231904Y-89455714D01*
X178041428Y-89503333D01*
X177803333Y-89503333D01*
X177612857Y-89455714D01*
X177517619Y-89408095D01*
X177470000Y-89360476D01*
X177422380Y-89265238D01*
X180792380Y-90336666D02*
X180316190Y-90670000D01*
X180792380Y-90908095D02*
X179792380Y-90908095D01*
X179792380Y-90527142D01*
X179840000Y-90431904D01*
X179887619Y-90384285D01*
X179982857Y-90336666D01*
X180125714Y-90336666D01*
X180220952Y-90384285D01*
X180268571Y-90431904D01*
X180316190Y-90527142D01*
X180316190Y-90908095D01*
X179792380Y-90003333D02*
X179792380Y-89384285D01*
X180173333Y-89717619D01*
X180173333Y-89574761D01*
X180220952Y-89479523D01*
X180268571Y-89431904D01*
X180363809Y-89384285D01*
X180601904Y-89384285D01*
X180697142Y-89431904D01*
X180744761Y-89479523D01*
X180792380Y-89574761D01*
X180792380Y-89860476D01*
X180744761Y-89955714D01*
X180697142Y-90003333D01*
X182578690Y-102623880D02*
X182245357Y-102147690D01*
X182007261Y-102623880D02*
X182007261Y-101623880D01*
X182388214Y-101623880D01*
X182483452Y-101671500D01*
X182531071Y-101719119D01*
X182578690Y-101814357D01*
X182578690Y-101957214D01*
X182531071Y-102052452D01*
X182483452Y-102100071D01*
X182388214Y-102147690D01*
X182007261Y-102147690D01*
X182769166Y-102719119D02*
X183531071Y-102719119D01*
X183769166Y-102623880D02*
X183769166Y-101623880D01*
X184150119Y-101623880D01*
X184245357Y-101671500D01*
X184292976Y-101719119D01*
X184340595Y-101814357D01*
X184340595Y-101957214D01*
X184292976Y-102052452D01*
X184245357Y-102100071D01*
X184150119Y-102147690D01*
X183769166Y-102147690D01*
X184769166Y-102623880D02*
X184769166Y-101623880D01*
X184769166Y-102100071D02*
X185340595Y-102100071D01*
X185340595Y-102623880D02*
X185340595Y-101623880D01*
X186007261Y-101623880D02*
X186197738Y-101623880D01*
X186292976Y-101671500D01*
X186388214Y-101766738D01*
X186435833Y-101957214D01*
X186435833Y-102290547D01*
X186388214Y-102481023D01*
X186292976Y-102576261D01*
X186197738Y-102623880D01*
X186007261Y-102623880D01*
X185912023Y-102576261D01*
X185816785Y-102481023D01*
X185769166Y-102290547D01*
X185769166Y-101957214D01*
X185816785Y-101766738D01*
X185912023Y-101671500D01*
X186007261Y-101623880D01*
X186721547Y-101623880D02*
X187292976Y-101623880D01*
X187007261Y-102623880D02*
X187007261Y-101623880D01*
X187816785Y-101623880D02*
X188007261Y-101623880D01*
X188102500Y-101671500D01*
X188197738Y-101766738D01*
X188245357Y-101957214D01*
X188245357Y-102290547D01*
X188197738Y-102481023D01*
X188102500Y-102576261D01*
X188007261Y-102623880D01*
X187816785Y-102623880D01*
X187721547Y-102576261D01*
X187626309Y-102481023D01*
X187578690Y-102290547D01*
X187578690Y-101957214D01*
X187626309Y-101766738D01*
X187721547Y-101671500D01*
X187816785Y-101623880D01*
X184963333Y-108362380D02*
X184630000Y-107886190D01*
X184391904Y-108362380D02*
X184391904Y-107362380D01*
X184772857Y-107362380D01*
X184868095Y-107410000D01*
X184915714Y-107457619D01*
X184963333Y-107552857D01*
X184963333Y-107695714D01*
X184915714Y-107790952D01*
X184868095Y-107838571D01*
X184772857Y-107886190D01*
X184391904Y-107886190D01*
X185344285Y-107457619D02*
X185391904Y-107410000D01*
X185487142Y-107362380D01*
X185725238Y-107362380D01*
X185820476Y-107410000D01*
X185868095Y-107457619D01*
X185915714Y-107552857D01*
X185915714Y-107648095D01*
X185868095Y-107790952D01*
X185296666Y-108362380D01*
X185915714Y-108362380D01*
X185618452Y-79509880D02*
X185047023Y-79509880D01*
X185332738Y-79509880D02*
X185332738Y-78509880D01*
X185237500Y-78652738D01*
X185142261Y-78747976D01*
X185047023Y-78795595D01*
X186047023Y-79509880D02*
X186047023Y-78509880D01*
X186142261Y-79128928D02*
X186427976Y-79509880D01*
X186427976Y-78843214D02*
X186047023Y-79224166D01*
X183272133Y-81833980D02*
X182938800Y-81357790D01*
X182700704Y-81833980D02*
X182700704Y-80833980D01*
X183081657Y-80833980D01*
X183176895Y-80881600D01*
X183224514Y-80929219D01*
X183272133Y-81024457D01*
X183272133Y-81167314D01*
X183224514Y-81262552D01*
X183176895Y-81310171D01*
X183081657Y-81357790D01*
X182700704Y-81357790D01*
X184224514Y-81833980D02*
X183653085Y-81833980D01*
X183938800Y-81833980D02*
X183938800Y-80833980D01*
X183843561Y-80976838D01*
X183748323Y-81072076D01*
X183653085Y-81119695D01*
X178903761Y-96861380D02*
X178903761Y-97575666D01*
X178856142Y-97718523D01*
X178760904Y-97813761D01*
X178618047Y-97861380D01*
X178522809Y-97861380D01*
X179808523Y-97194714D02*
X179808523Y-97861380D01*
X179379952Y-97194714D02*
X179379952Y-97718523D01*
X179427571Y-97813761D01*
X179522809Y-97861380D01*
X179665666Y-97861380D01*
X179760904Y-97813761D01*
X179808523Y-97766142D01*
X180284714Y-97861380D02*
X180284714Y-97194714D01*
X180284714Y-97289952D02*
X180332333Y-97242333D01*
X180427571Y-97194714D01*
X180570428Y-97194714D01*
X180665666Y-97242333D01*
X180713285Y-97337571D01*
X180713285Y-97861380D01*
X180713285Y-97337571D02*
X180760904Y-97242333D01*
X180856142Y-97194714D01*
X180999000Y-97194714D01*
X181094238Y-97242333D01*
X181141857Y-97337571D01*
X181141857Y-97861380D01*
X181618047Y-97194714D02*
X181618047Y-98194714D01*
X181618047Y-97242333D02*
X181713285Y-97194714D01*
X181903761Y-97194714D01*
X181999000Y-97242333D01*
X182046619Y-97289952D01*
X182094238Y-97385190D01*
X182094238Y-97670904D01*
X182046619Y-97766142D01*
X181999000Y-97813761D01*
X181903761Y-97861380D01*
X181713285Y-97861380D01*
X181618047Y-97813761D01*
X182903761Y-97813761D02*
X182808523Y-97861380D01*
X182618047Y-97861380D01*
X182522809Y-97813761D01*
X182475190Y-97718523D01*
X182475190Y-97337571D01*
X182522809Y-97242333D01*
X182618047Y-97194714D01*
X182808523Y-97194714D01*
X182903761Y-97242333D01*
X182951380Y-97337571D01*
X182951380Y-97432809D01*
X182475190Y-97528047D01*
X183379952Y-97861380D02*
X183379952Y-97194714D01*
X183379952Y-97385190D02*
X183427571Y-97289952D01*
X183475190Y-97242333D01*
X183570428Y-97194714D01*
X183665666Y-97194714D01*
X183760904Y-97956619D02*
X184522809Y-97956619D01*
X184760904Y-97861380D02*
X184760904Y-96861380D01*
X185332333Y-97861380D01*
X185332333Y-96861380D01*
X185999000Y-96861380D02*
X186189476Y-96861380D01*
X186284714Y-96909000D01*
X186379952Y-97004238D01*
X186427571Y-97194714D01*
X186427571Y-97528047D01*
X186379952Y-97718523D01*
X186284714Y-97813761D01*
X186189476Y-97861380D01*
X185999000Y-97861380D01*
X185903761Y-97813761D01*
X185808523Y-97718523D01*
X185760904Y-97528047D01*
X185760904Y-97194714D01*
X185808523Y-97004238D01*
X185903761Y-96909000D01*
X185999000Y-96861380D01*
X183856380Y-94432333D02*
X184570666Y-94432333D01*
X184713523Y-94479952D01*
X184808761Y-94575190D01*
X184856380Y-94718047D01*
X184856380Y-94813285D01*
X184856380Y-93956142D02*
X183856380Y-93956142D01*
X183856380Y-93575190D01*
X183904000Y-93479952D01*
X183951619Y-93432333D01*
X184046857Y-93384714D01*
X184189714Y-93384714D01*
X184284952Y-93432333D01*
X184332571Y-93479952D01*
X184380190Y-93575190D01*
X184380190Y-93956142D01*
X183951619Y-93003761D02*
X183904000Y-92956142D01*
X183856380Y-92860904D01*
X183856380Y-92622809D01*
X183904000Y-92527571D01*
X183951619Y-92479952D01*
X184046857Y-92432333D01*
X184142095Y-92432333D01*
X184284952Y-92479952D01*
X184856380Y-93051380D01*
X184856380Y-92432333D01*
X184364761Y-88777380D02*
X184364761Y-89491666D01*
X184317142Y-89634523D01*
X184221904Y-89729761D01*
X184079047Y-89777380D01*
X183983809Y-89777380D01*
X185269523Y-89110714D02*
X185269523Y-89777380D01*
X184840952Y-89110714D02*
X184840952Y-89634523D01*
X184888571Y-89729761D01*
X184983809Y-89777380D01*
X185126666Y-89777380D01*
X185221904Y-89729761D01*
X185269523Y-89682142D01*
X185745714Y-89777380D02*
X185745714Y-89110714D01*
X185745714Y-89205952D02*
X185793333Y-89158333D01*
X185888571Y-89110714D01*
X186031428Y-89110714D01*
X186126666Y-89158333D01*
X186174285Y-89253571D01*
X186174285Y-89777380D01*
X186174285Y-89253571D02*
X186221904Y-89158333D01*
X186317142Y-89110714D01*
X186460000Y-89110714D01*
X186555238Y-89158333D01*
X186602857Y-89253571D01*
X186602857Y-89777380D01*
X187079047Y-89110714D02*
X187079047Y-90110714D01*
X187079047Y-89158333D02*
X187174285Y-89110714D01*
X187364761Y-89110714D01*
X187460000Y-89158333D01*
X187507619Y-89205952D01*
X187555238Y-89301190D01*
X187555238Y-89586904D01*
X187507619Y-89682142D01*
X187460000Y-89729761D01*
X187364761Y-89777380D01*
X187174285Y-89777380D01*
X187079047Y-89729761D01*
X188364761Y-89729761D02*
X188269523Y-89777380D01*
X188079047Y-89777380D01*
X187983809Y-89729761D01*
X187936190Y-89634523D01*
X187936190Y-89253571D01*
X187983809Y-89158333D01*
X188079047Y-89110714D01*
X188269523Y-89110714D01*
X188364761Y-89158333D01*
X188412380Y-89253571D01*
X188412380Y-89348809D01*
X187936190Y-89444047D01*
X188840952Y-89777380D02*
X188840952Y-89110714D01*
X188840952Y-89301190D02*
X188888571Y-89205952D01*
X188936190Y-89158333D01*
X189031428Y-89110714D01*
X189126666Y-89110714D01*
X189221904Y-89872619D02*
X189983809Y-89872619D01*
X190221904Y-89777380D02*
X190221904Y-88777380D01*
X190793333Y-89777380D01*
X190793333Y-88777380D01*
X191460000Y-88777380D02*
X191650476Y-88777380D01*
X191745714Y-88825000D01*
X191840952Y-88920238D01*
X191888571Y-89110714D01*
X191888571Y-89444047D01*
X191840952Y-89634523D01*
X191745714Y-89729761D01*
X191650476Y-89777380D01*
X191460000Y-89777380D01*
X191364761Y-89729761D01*
X191269523Y-89634523D01*
X191221904Y-89444047D01*
X191221904Y-89110714D01*
X191269523Y-88920238D01*
X191364761Y-88825000D01*
X191460000Y-88777380D01*
X187412380Y-87828333D02*
X188126666Y-87828333D01*
X188269523Y-87875952D01*
X188364761Y-87971190D01*
X188412380Y-88114047D01*
X188412380Y-88209285D01*
X188412380Y-87352142D02*
X187412380Y-87352142D01*
X187412380Y-86971190D01*
X187460000Y-86875952D01*
X187507619Y-86828333D01*
X187602857Y-86780714D01*
X187745714Y-86780714D01*
X187840952Y-86828333D01*
X187888571Y-86875952D01*
X187936190Y-86971190D01*
X187936190Y-87352142D01*
X188412380Y-85828333D02*
X188412380Y-86399761D01*
X188412380Y-86114047D02*
X187412380Y-86114047D01*
X187555238Y-86209285D01*
X187650476Y-86304523D01*
X187698095Y-86399761D01*
X164195466Y-74468742D02*
X164147847Y-74516361D01*
X164004990Y-74563980D01*
X163909752Y-74563980D01*
X163766895Y-74516361D01*
X163671657Y-74421123D01*
X163624038Y-74325885D01*
X163576419Y-74135409D01*
X163576419Y-73992552D01*
X163624038Y-73802076D01*
X163671657Y-73706838D01*
X163766895Y-73611600D01*
X163909752Y-73563980D01*
X164004990Y-73563980D01*
X164147847Y-73611600D01*
X164195466Y-73659219D01*
X164766895Y-74563980D02*
X164671657Y-74516361D01*
X164624038Y-74468742D01*
X164576419Y-74373504D01*
X164576419Y-74087790D01*
X164624038Y-73992552D01*
X164671657Y-73944933D01*
X164766895Y-73897314D01*
X164909752Y-73897314D01*
X165004990Y-73944933D01*
X165052609Y-73992552D01*
X165100228Y-74087790D01*
X165100228Y-74373504D01*
X165052609Y-74468742D01*
X165004990Y-74516361D01*
X164909752Y-74563980D01*
X164766895Y-74563980D01*
X165528800Y-73897314D02*
X165528800Y-74563980D01*
X165528800Y-73992552D02*
X165576419Y-73944933D01*
X165671657Y-73897314D01*
X165814514Y-73897314D01*
X165909752Y-73944933D01*
X165957371Y-74040171D01*
X165957371Y-74563980D01*
X166433561Y-73897314D02*
X166433561Y-74563980D01*
X166433561Y-73992552D02*
X166481180Y-73944933D01*
X166576419Y-73897314D01*
X166719276Y-73897314D01*
X166814514Y-73944933D01*
X166862133Y-74040171D01*
X166862133Y-74563980D01*
X167100228Y-74659219D02*
X167862133Y-74659219D01*
X168290704Y-73563980D02*
X168385942Y-73563980D01*
X168481180Y-73611600D01*
X168528800Y-73659219D01*
X168576419Y-73754457D01*
X168624038Y-73944933D01*
X168624038Y-74183028D01*
X168576419Y-74373504D01*
X168528800Y-74468742D01*
X168481180Y-74516361D01*
X168385942Y-74563980D01*
X168290704Y-74563980D01*
X168195466Y-74516361D01*
X168147847Y-74468742D01*
X168100228Y-74373504D01*
X168052609Y-74183028D01*
X168052609Y-73944933D01*
X168100228Y-73754457D01*
X168147847Y-73659219D01*
X168195466Y-73611600D01*
X168290704Y-73563980D01*
X169576419Y-74563980D02*
X169004990Y-74563980D01*
X169290704Y-74563980D02*
X169290704Y-73563980D01*
X169195466Y-73706838D01*
X169100228Y-73802076D01*
X169004990Y-73849695D01*
X169909752Y-74563980D02*
X170433561Y-73897314D01*
X169909752Y-73897314D02*
X170433561Y-74563980D01*
X171004990Y-73563980D02*
X171100228Y-73563980D01*
X171195466Y-73611600D01*
X171243085Y-73659219D01*
X171290704Y-73754457D01*
X171338323Y-73944933D01*
X171338323Y-74183028D01*
X171290704Y-74373504D01*
X171243085Y-74468742D01*
X171195466Y-74516361D01*
X171100228Y-74563980D01*
X171004990Y-74563980D01*
X170909752Y-74516361D01*
X170862133Y-74468742D01*
X170814514Y-74373504D01*
X170766895Y-74183028D01*
X170766895Y-73944933D01*
X170814514Y-73754457D01*
X170862133Y-73659219D01*
X170909752Y-73611600D01*
X171004990Y-73563980D01*
X171719276Y-73659219D02*
X171766895Y-73611600D01*
X171862133Y-73563980D01*
X172100228Y-73563980D01*
X172195466Y-73611600D01*
X172243085Y-73659219D01*
X172290704Y-73754457D01*
X172290704Y-73849695D01*
X172243085Y-73992552D01*
X171671657Y-74563980D01*
X172290704Y-74563980D01*
X172481180Y-74659219D02*
X173243085Y-74659219D01*
X173481180Y-74563980D02*
X173481180Y-73563980D01*
X173814514Y-74278266D01*
X174147847Y-73563980D01*
X174147847Y-74563980D01*
X175052609Y-74563980D02*
X175052609Y-74040171D01*
X175004990Y-73944933D01*
X174909752Y-73897314D01*
X174719276Y-73897314D01*
X174624038Y-73944933D01*
X175052609Y-74516361D02*
X174957371Y-74563980D01*
X174719276Y-74563980D01*
X174624038Y-74516361D01*
X174576419Y-74421123D01*
X174576419Y-74325885D01*
X174624038Y-74230647D01*
X174719276Y-74183028D01*
X174957371Y-74183028D01*
X175052609Y-74135409D01*
X175671657Y-74563980D02*
X175576419Y-74516361D01*
X175528800Y-74421123D01*
X175528800Y-73563980D01*
X176433561Y-74516361D02*
X176338323Y-74563980D01*
X176147847Y-74563980D01*
X176052609Y-74516361D01*
X176004990Y-74421123D01*
X176004990Y-74040171D01*
X176052609Y-73944933D01*
X176147847Y-73897314D01*
X176338323Y-73897314D01*
X176433561Y-73944933D01*
X176481180Y-74040171D01*
X176481180Y-74135409D01*
X176004990Y-74230647D01*
X169695466Y-75463980D02*
X169695466Y-76178266D01*
X169647847Y-76321123D01*
X169552609Y-76416361D01*
X169409752Y-76463980D01*
X169314514Y-76463980D01*
X170124038Y-75559219D02*
X170171657Y-75511600D01*
X170266895Y-75463980D01*
X170504990Y-75463980D01*
X170600228Y-75511600D01*
X170647847Y-75559219D01*
X170695466Y-75654457D01*
X170695466Y-75749695D01*
X170647847Y-75892552D01*
X170076419Y-76463980D01*
X170695466Y-76463980D01*
X149170142Y-108247333D02*
X149217761Y-108294952D01*
X149265380Y-108437809D01*
X149265380Y-108533047D01*
X149217761Y-108675904D01*
X149122523Y-108771142D01*
X149027285Y-108818761D01*
X148836809Y-108866380D01*
X148693952Y-108866380D01*
X148503476Y-108818761D01*
X148408238Y-108771142D01*
X148313000Y-108675904D01*
X148265380Y-108533047D01*
X148265380Y-108437809D01*
X148313000Y-108294952D01*
X148360619Y-108247333D01*
X149265380Y-107675904D02*
X149217761Y-107771142D01*
X149170142Y-107818761D01*
X149074904Y-107866380D01*
X148789190Y-107866380D01*
X148693952Y-107818761D01*
X148646333Y-107771142D01*
X148598714Y-107675904D01*
X148598714Y-107533047D01*
X148646333Y-107437809D01*
X148693952Y-107390190D01*
X148789190Y-107342571D01*
X149074904Y-107342571D01*
X149170142Y-107390190D01*
X149217761Y-107437809D01*
X149265380Y-107533047D01*
X149265380Y-107675904D01*
X148598714Y-106914000D02*
X149265380Y-106914000D01*
X148693952Y-106914000D02*
X148646333Y-106866380D01*
X148598714Y-106771142D01*
X148598714Y-106628285D01*
X148646333Y-106533047D01*
X148741571Y-106485428D01*
X149265380Y-106485428D01*
X148598714Y-106009238D02*
X149265380Y-106009238D01*
X148693952Y-106009238D02*
X148646333Y-105961619D01*
X148598714Y-105866380D01*
X148598714Y-105723523D01*
X148646333Y-105628285D01*
X148741571Y-105580666D01*
X149265380Y-105580666D01*
X149360619Y-105342571D02*
X149360619Y-104580666D01*
X148265380Y-104152095D02*
X148265380Y-104056857D01*
X148313000Y-103961619D01*
X148360619Y-103914000D01*
X148455857Y-103866380D01*
X148646333Y-103818761D01*
X148884428Y-103818761D01*
X149074904Y-103866380D01*
X149170142Y-103914000D01*
X149217761Y-103961619D01*
X149265380Y-104056857D01*
X149265380Y-104152095D01*
X149217761Y-104247333D01*
X149170142Y-104294952D01*
X149074904Y-104342571D01*
X148884428Y-104390190D01*
X148646333Y-104390190D01*
X148455857Y-104342571D01*
X148360619Y-104294952D01*
X148313000Y-104247333D01*
X148265380Y-104152095D01*
X149265380Y-102866380D02*
X149265380Y-103437809D01*
X149265380Y-103152095D02*
X148265380Y-103152095D01*
X148408238Y-103247333D01*
X148503476Y-103342571D01*
X148551095Y-103437809D01*
X149265380Y-102533047D02*
X148598714Y-102009238D01*
X148598714Y-102533047D02*
X149265380Y-102009238D01*
X148265380Y-101437809D02*
X148265380Y-101342571D01*
X148313000Y-101247333D01*
X148360619Y-101199714D01*
X148455857Y-101152095D01*
X148646333Y-101104476D01*
X148884428Y-101104476D01*
X149074904Y-101152095D01*
X149170142Y-101199714D01*
X149217761Y-101247333D01*
X149265380Y-101342571D01*
X149265380Y-101437809D01*
X149217761Y-101533047D01*
X149170142Y-101580666D01*
X149074904Y-101628285D01*
X148884428Y-101675904D01*
X148646333Y-101675904D01*
X148455857Y-101628285D01*
X148360619Y-101580666D01*
X148313000Y-101533047D01*
X148265380Y-101437809D01*
X148360619Y-100723523D02*
X148313000Y-100675904D01*
X148265380Y-100580666D01*
X148265380Y-100342571D01*
X148313000Y-100247333D01*
X148360619Y-100199714D01*
X148455857Y-100152095D01*
X148551095Y-100152095D01*
X148693952Y-100199714D01*
X149265380Y-100771142D01*
X149265380Y-100152095D01*
X149360619Y-99961619D02*
X149360619Y-99199714D01*
X149265380Y-98961619D02*
X148265380Y-98961619D01*
X148979666Y-98628285D01*
X148265380Y-98294952D01*
X149265380Y-98294952D01*
X149265380Y-97390190D02*
X148741571Y-97390190D01*
X148646333Y-97437809D01*
X148598714Y-97533047D01*
X148598714Y-97723523D01*
X148646333Y-97818761D01*
X149217761Y-97390190D02*
X149265380Y-97485428D01*
X149265380Y-97723523D01*
X149217761Y-97818761D01*
X149122523Y-97866380D01*
X149027285Y-97866380D01*
X148932047Y-97818761D01*
X148884428Y-97723523D01*
X148884428Y-97485428D01*
X148836809Y-97390190D01*
X149265380Y-96771142D02*
X149217761Y-96866380D01*
X149122523Y-96914000D01*
X148265380Y-96914000D01*
X149217761Y-96009238D02*
X149265380Y-96104476D01*
X149265380Y-96294952D01*
X149217761Y-96390190D01*
X149122523Y-96437809D01*
X148741571Y-96437809D01*
X148646333Y-96390190D01*
X148598714Y-96294952D01*
X148598714Y-96104476D01*
X148646333Y-96009238D01*
X148741571Y-95961619D01*
X148836809Y-95961619D01*
X148932047Y-96437809D01*
X150165380Y-102747333D02*
X150879666Y-102747333D01*
X151022523Y-102794952D01*
X151117761Y-102890190D01*
X151165380Y-103033047D01*
X151165380Y-103128285D01*
X151165380Y-101747333D02*
X151165380Y-102318761D01*
X151165380Y-102033047D02*
X150165380Y-102033047D01*
X150308238Y-102128285D01*
X150403476Y-102223523D01*
X150451095Y-102318761D01*
X159177880Y-89748928D02*
X159177880Y-90225119D01*
X158177880Y-90225119D01*
X158654071Y-89415595D02*
X158654071Y-89082261D01*
X159177880Y-88939404D02*
X159177880Y-89415595D01*
X158177880Y-89415595D01*
X158177880Y-88939404D01*
X159177880Y-88510833D02*
X158177880Y-88510833D01*
X158177880Y-88272738D01*
X158225500Y-88129880D01*
X158320738Y-88034642D01*
X158415976Y-87987023D01*
X158606452Y-87939404D01*
X158749309Y-87939404D01*
X158939785Y-87987023D01*
X159035023Y-88034642D01*
X159130261Y-88129880D01*
X159177880Y-88272738D01*
X159177880Y-88510833D01*
X159273119Y-87748928D02*
X159273119Y-86987023D01*
X158177880Y-86891785D02*
X159177880Y-86558452D01*
X158177880Y-86225119D01*
X159130261Y-85510833D02*
X159177880Y-85606071D01*
X159177880Y-85796547D01*
X159130261Y-85891785D01*
X159035023Y-85939404D01*
X158654071Y-85939404D01*
X158558833Y-85891785D01*
X158511214Y-85796547D01*
X158511214Y-85606071D01*
X158558833Y-85510833D01*
X158654071Y-85463214D01*
X158749309Y-85463214D01*
X158844547Y-85939404D01*
X159177880Y-85034642D02*
X158511214Y-85034642D01*
X158701690Y-85034642D02*
X158606452Y-84987023D01*
X158558833Y-84939404D01*
X158511214Y-84844166D01*
X158511214Y-84748928D01*
X159177880Y-83987023D02*
X158177880Y-83987023D01*
X159130261Y-83987023D02*
X159177880Y-84082261D01*
X159177880Y-84272738D01*
X159130261Y-84367976D01*
X159082642Y-84415595D01*
X158987404Y-84463214D01*
X158701690Y-84463214D01*
X158606452Y-84415595D01*
X158558833Y-84367976D01*
X158511214Y-84272738D01*
X158511214Y-84082261D01*
X158558833Y-83987023D01*
X159130261Y-83129880D02*
X159177880Y-83225119D01*
X159177880Y-83415595D01*
X159130261Y-83510833D01*
X159035023Y-83558452D01*
X158654071Y-83558452D01*
X158558833Y-83510833D01*
X158511214Y-83415595D01*
X158511214Y-83225119D01*
X158558833Y-83129880D01*
X158654071Y-83082261D01*
X158749309Y-83082261D01*
X158844547Y-83558452D01*
D12*
X156127404Y-87067976D02*
X155327404Y-87067976D01*
X155327404Y-86877500D01*
X155365500Y-86763214D01*
X155441690Y-86687023D01*
X155517880Y-86648928D01*
X155670261Y-86610833D01*
X155784547Y-86610833D01*
X155936928Y-86648928D01*
X156013119Y-86687023D01*
X156089309Y-86763214D01*
X156127404Y-86877500D01*
X156127404Y-87067976D01*
X155403595Y-86306071D02*
X155365500Y-86267976D01*
X155327404Y-86191785D01*
X155327404Y-86001309D01*
X155365500Y-85925119D01*
X155403595Y-85887023D01*
X155479785Y-85848928D01*
X155555976Y-85848928D01*
X155670261Y-85887023D01*
X156127404Y-86344166D01*
X156127404Y-85848928D01*
D11*
X159925380Y-102520380D02*
X159925380Y-102996571D01*
X158925380Y-102996571D01*
X159401571Y-102187047D02*
X159401571Y-101853714D01*
X159925380Y-101710857D02*
X159925380Y-102187047D01*
X158925380Y-102187047D01*
X158925380Y-101710857D01*
X159925380Y-101282285D02*
X158925380Y-101282285D01*
X158925380Y-101044190D01*
X158973000Y-100901333D01*
X159068238Y-100806095D01*
X159163476Y-100758476D01*
X159353952Y-100710857D01*
X159496809Y-100710857D01*
X159687285Y-100758476D01*
X159782523Y-100806095D01*
X159877761Y-100901333D01*
X159925380Y-101044190D01*
X159925380Y-101282285D01*
X160020619Y-100520380D02*
X160020619Y-99758476D01*
X159925380Y-98948952D02*
X159449190Y-99282285D01*
X159925380Y-99520380D02*
X158925380Y-99520380D01*
X158925380Y-99139428D01*
X158973000Y-99044190D01*
X159020619Y-98996571D01*
X159115857Y-98948952D01*
X159258714Y-98948952D01*
X159353952Y-98996571D01*
X159401571Y-99044190D01*
X159449190Y-99139428D01*
X159449190Y-99520380D01*
X158925380Y-98329904D02*
X158925380Y-98139428D01*
X158973000Y-98044190D01*
X159068238Y-97948952D01*
X159258714Y-97901333D01*
X159592047Y-97901333D01*
X159782523Y-97948952D01*
X159877761Y-98044190D01*
X159925380Y-98139428D01*
X159925380Y-98329904D01*
X159877761Y-98425142D01*
X159782523Y-98520380D01*
X159592047Y-98568000D01*
X159258714Y-98568000D01*
X159068238Y-98520380D01*
X158973000Y-98425142D01*
X158925380Y-98329904D01*
X158925380Y-97187047D02*
X159639666Y-97187047D01*
X159782523Y-97234666D01*
X159877761Y-97329904D01*
X159925380Y-97472761D01*
X159925380Y-97568000D01*
X158925380Y-96520380D02*
X158925380Y-96329904D01*
X158973000Y-96234666D01*
X159068238Y-96139428D01*
X159258714Y-96091809D01*
X159592047Y-96091809D01*
X159782523Y-96139428D01*
X159877761Y-96234666D01*
X159925380Y-96329904D01*
X159925380Y-96520380D01*
X159877761Y-96615619D01*
X159782523Y-96710857D01*
X159592047Y-96758476D01*
X159258714Y-96758476D01*
X159068238Y-96710857D01*
X158973000Y-96615619D01*
X158925380Y-96520380D01*
D12*
X162794904Y-100358476D02*
X161994904Y-100358476D01*
X161994904Y-100168000D01*
X162033000Y-100053714D01*
X162109190Y-99977523D01*
X162185380Y-99939428D01*
X162337761Y-99901333D01*
X162452047Y-99901333D01*
X162604428Y-99939428D01*
X162680619Y-99977523D01*
X162756809Y-100053714D01*
X162794904Y-100168000D01*
X162794904Y-100358476D01*
X162794904Y-99139428D02*
X162794904Y-99596571D01*
X162794904Y-99368000D02*
X161994904Y-99368000D01*
X162109190Y-99444190D01*
X162185380Y-99520380D01*
X162223476Y-99596571D01*
D11*
X152122333Y-92622714D02*
X152122333Y-93289380D01*
X151884238Y-92241761D02*
X151646142Y-92956047D01*
X152265190Y-92956047D01*
X152550904Y-92289380D02*
X153217571Y-92289380D01*
X152789000Y-93289380D01*
X154027095Y-92622714D02*
X154027095Y-93289380D01*
X153598523Y-92622714D02*
X153598523Y-93146523D01*
X153646142Y-93241761D01*
X153741380Y-93289380D01*
X153884238Y-93289380D01*
X153979476Y-93241761D01*
X154027095Y-93194142D01*
X154836619Y-92765571D02*
X154503285Y-92765571D01*
X154503285Y-93289380D02*
X154503285Y-92289380D01*
X154979476Y-92289380D01*
X157206333Y-94845142D02*
X157158714Y-94892761D01*
X157015857Y-94940380D01*
X156920619Y-94940380D01*
X156777761Y-94892761D01*
X156682523Y-94797523D01*
X156634904Y-94702285D01*
X156587285Y-94511809D01*
X156587285Y-94368952D01*
X156634904Y-94178476D01*
X156682523Y-94083238D01*
X156777761Y-93988000D01*
X156920619Y-93940380D01*
X157015857Y-93940380D01*
X157158714Y-93988000D01*
X157206333Y-94035619D01*
X158063476Y-94273714D02*
X158063476Y-94940380D01*
X157825380Y-93892761D02*
X157587285Y-94607047D01*
X158206333Y-94607047D01*
X176109380Y-102004547D02*
X176109380Y-101909309D01*
X176157000Y-101814071D01*
X176204619Y-101766452D01*
X176299857Y-101718833D01*
X176490333Y-101671214D01*
X176728428Y-101671214D01*
X176918904Y-101718833D01*
X177014142Y-101766452D01*
X177061761Y-101814071D01*
X177109380Y-101909309D01*
X177109380Y-102004547D01*
X177061761Y-102099785D01*
X177014142Y-102147404D01*
X176918904Y-102195023D01*
X176728428Y-102242642D01*
X176490333Y-102242642D01*
X176299857Y-102195023D01*
X176204619Y-102147404D01*
X176157000Y-102099785D01*
X176109380Y-102004547D01*
X177014142Y-101242642D02*
X177061761Y-101195023D01*
X177109380Y-101242642D01*
X177061761Y-101290261D01*
X177014142Y-101242642D01*
X177109380Y-101242642D01*
X176109380Y-100575976D02*
X176109380Y-100480738D01*
X176157000Y-100385500D01*
X176204619Y-100337880D01*
X176299857Y-100290261D01*
X176490333Y-100242642D01*
X176728428Y-100242642D01*
X176918904Y-100290261D01*
X177014142Y-100337880D01*
X177061761Y-100385500D01*
X177109380Y-100480738D01*
X177109380Y-100575976D01*
X177061761Y-100671214D01*
X177014142Y-100718833D01*
X176918904Y-100766452D01*
X176728428Y-100814071D01*
X176490333Y-100814071D01*
X176299857Y-100766452D01*
X176204619Y-100718833D01*
X176157000Y-100671214D01*
X176109380Y-100575976D01*
X177109380Y-99290261D02*
X177109380Y-99861690D01*
X177109380Y-99575976D02*
X176109380Y-99575976D01*
X176252238Y-99671214D01*
X176347476Y-99766452D01*
X176395095Y-99861690D01*
X176442714Y-98433119D02*
X177109380Y-98433119D01*
X176442714Y-98861690D02*
X176966523Y-98861690D01*
X177061761Y-98814071D01*
X177109380Y-98718833D01*
X177109380Y-98575976D01*
X177061761Y-98480738D01*
X177014142Y-98433119D01*
X176585571Y-97623595D02*
X176585571Y-97956928D01*
X177109380Y-97956928D02*
X176109380Y-97956928D01*
X176109380Y-97480738D01*
X171878333Y-100433142D02*
X171830714Y-100480761D01*
X171687857Y-100528380D01*
X171592619Y-100528380D01*
X171449761Y-100480761D01*
X171354523Y-100385523D01*
X171306904Y-100290285D01*
X171259285Y-100099809D01*
X171259285Y-99956952D01*
X171306904Y-99766476D01*
X171354523Y-99671238D01*
X171449761Y-99576000D01*
X171592619Y-99528380D01*
X171687857Y-99528380D01*
X171830714Y-99576000D01*
X171878333Y-99623619D01*
X172211666Y-99528380D02*
X172830714Y-99528380D01*
X172497380Y-99909333D01*
X172640238Y-99909333D01*
X172735476Y-99956952D01*
X172783095Y-100004571D01*
X172830714Y-100099809D01*
X172830714Y-100337904D01*
X172783095Y-100433142D01*
X172735476Y-100480761D01*
X172640238Y-100528380D01*
X172354523Y-100528380D01*
X172259285Y-100480761D01*
X172211666Y-100433142D01*
X194444880Y-97115119D02*
X194444880Y-97686547D01*
X194444880Y-97400833D02*
X193444880Y-97400833D01*
X193587738Y-97496071D01*
X193682976Y-97591309D01*
X193730595Y-97686547D01*
X193444880Y-96496071D02*
X193444880Y-96400833D01*
X193492500Y-96305595D01*
X193540119Y-96257976D01*
X193635357Y-96210357D01*
X193825833Y-96162738D01*
X194063928Y-96162738D01*
X194254404Y-96210357D01*
X194349642Y-96257976D01*
X194397261Y-96305595D01*
X194444880Y-96400833D01*
X194444880Y-96496071D01*
X194397261Y-96591309D01*
X194349642Y-96638928D01*
X194254404Y-96686547D01*
X194063928Y-96734166D01*
X193825833Y-96734166D01*
X193635357Y-96686547D01*
X193540119Y-96638928D01*
X193492500Y-96591309D01*
X193444880Y-96496071D01*
X193444880Y-95543690D02*
X193444880Y-95448452D01*
X193492500Y-95353214D01*
X193540119Y-95305595D01*
X193635357Y-95257976D01*
X193825833Y-95210357D01*
X194063928Y-95210357D01*
X194254404Y-95257976D01*
X194349642Y-95305595D01*
X194397261Y-95353214D01*
X194444880Y-95448452D01*
X194444880Y-95543690D01*
X194397261Y-95638928D01*
X194349642Y-95686547D01*
X194254404Y-95734166D01*
X194063928Y-95781785D01*
X193825833Y-95781785D01*
X193635357Y-95734166D01*
X193540119Y-95686547D01*
X193492500Y-95638928D01*
X193444880Y-95543690D01*
X193778214Y-94353214D02*
X194444880Y-94353214D01*
X193778214Y-94781785D02*
X194302023Y-94781785D01*
X194397261Y-94734166D01*
X194444880Y-94638928D01*
X194444880Y-94496071D01*
X194397261Y-94400833D01*
X194349642Y-94353214D01*
X193921071Y-93543690D02*
X193921071Y-93877023D01*
X194444880Y-93877023D02*
X193444880Y-93877023D01*
X193444880Y-93400833D01*
X189614833Y-95924642D02*
X189567214Y-95972261D01*
X189424357Y-96019880D01*
X189329119Y-96019880D01*
X189186261Y-95972261D01*
X189091023Y-95877023D01*
X189043404Y-95781785D01*
X188995785Y-95591309D01*
X188995785Y-95448452D01*
X189043404Y-95257976D01*
X189091023Y-95162738D01*
X189186261Y-95067500D01*
X189329119Y-95019880D01*
X189424357Y-95019880D01*
X189567214Y-95067500D01*
X189614833Y-95115119D01*
X190567214Y-96019880D02*
X189995785Y-96019880D01*
X190281500Y-96019880D02*
X190281500Y-95019880D01*
X190186261Y-95162738D01*
X190091023Y-95257976D01*
X189995785Y-95305595D01*
M02*
