G04 #@! TF.GenerationSoftware,KiCad,Pcbnew,(5.1.2)-1*
G04 #@! TF.CreationDate,2019-06-20T14:25:27-05:00*
G04 #@! TF.ProjectId,montaje,6d6f6e74-616a-4652-9e6b-696361645f70,rev?*
G04 #@! TF.SameCoordinates,Original*
G04 #@! TF.FileFunction,Other,User*
%FSLAX46Y46*%
G04 Gerber Fmt 4.6, Leading zero omitted, Abs format (unit mm)*
G04 Created by KiCad (PCBNEW (5.1.2)-1) date 2019-06-20 14:25:27*
%MOMM*%
%LPD*%
G04 APERTURE LIST*
%ADD10C,0.050000*%
G04 APERTURE END LIST*
D10*
X175070000Y-87350000D02*
X165270000Y-87350000D01*
X175070000Y-98050000D02*
X175070000Y-87350000D01*
X165270000Y-98050000D02*
X175070000Y-98050000D01*
X165270000Y-87350000D02*
X165270000Y-98050000D01*
X190221000Y-111550000D02*
X178721000Y-111550000D01*
X190221000Y-117050000D02*
X190221000Y-111550000D01*
X178721000Y-117050000D02*
X190221000Y-117050000D01*
X178721000Y-111550000D02*
X178721000Y-117050000D01*
X176698000Y-116974000D02*
X176698000Y-106974000D01*
X176698000Y-106974000D02*
X158798000Y-106974000D01*
X158798000Y-106974000D02*
X158798000Y-116974000D01*
X158798000Y-116974000D02*
X176698000Y-116974000D01*
X159790000Y-80230000D02*
X159790000Y-92490000D01*
X162790000Y-80230000D02*
X159790000Y-80230000D01*
X162790000Y-92490000D02*
X162790000Y-80230000D01*
X159790000Y-92490000D02*
X162790000Y-92490000D01*
X162462500Y-105703500D02*
X174722500Y-105703500D01*
X162462500Y-102703500D02*
X162462500Y-105703500D01*
X174722500Y-102703500D02*
X162462500Y-102703500D01*
X174722500Y-105703500D02*
X174722500Y-102703500D01*
X181840000Y-96300000D02*
X181840000Y-84040000D01*
X178840000Y-96300000D02*
X181840000Y-96300000D01*
X178840000Y-84040000D02*
X178840000Y-96300000D01*
X181840000Y-84040000D02*
X178840000Y-84040000D01*
X178840000Y-100460000D02*
X191420000Y-100460000D01*
X178840000Y-100460000D02*
X178840000Y-110360000D01*
X191420000Y-110360000D02*
X191420000Y-100460000D01*
X191420000Y-110360000D02*
X178840000Y-110360000D01*
X189568800Y-79881600D02*
X177308800Y-79881600D01*
X189568800Y-82881600D02*
X189568800Y-79881600D01*
X177308800Y-82881600D02*
X189568800Y-82881600D01*
X177308800Y-79881600D02*
X177308800Y-82881600D01*
X185954000Y-91814000D02*
X182854000Y-91814000D01*
X185954000Y-95414000D02*
X185954000Y-91814000D01*
X182854000Y-95414000D02*
X185954000Y-95414000D01*
X182854000Y-91814000D02*
X182854000Y-95414000D01*
X189510000Y-85210000D02*
X186410000Y-85210000D01*
X189510000Y-88810000D02*
X189510000Y-85210000D01*
X186410000Y-88810000D02*
X189510000Y-88810000D01*
X186410000Y-85210000D02*
X186410000Y-88810000D01*
X165598800Y-84311600D02*
X174458800Y-84311600D01*
X165598800Y-74811600D02*
X165598800Y-84311600D01*
X174458800Y-74811600D02*
X165598800Y-74811600D01*
X174458800Y-84311600D02*
X174458800Y-74811600D01*
X159013000Y-106844000D02*
X159013000Y-97984000D01*
X149513000Y-106844000D02*
X159013000Y-106844000D01*
X149513000Y-97984000D02*
X149513000Y-106844000D01*
X159013000Y-97984000D02*
X149513000Y-97984000D01*
X153515500Y-84247500D02*
X153515500Y-89097500D01*
X158015500Y-84247500D02*
X153515500Y-84247500D01*
X158015500Y-89097500D02*
X158015500Y-84247500D01*
X153515500Y-89097500D02*
X158015500Y-89097500D01*
X164683000Y-101998000D02*
X164683000Y-97148000D01*
X160183000Y-101998000D02*
X164683000Y-101998000D01*
X160183000Y-97148000D02*
X160183000Y-101998000D01*
X164683000Y-97148000D02*
X160183000Y-97148000D01*
X160123000Y-94488000D02*
G75*
G03X160123000Y-94488000I-2750000J0D01*
G01*
X175795000Y-101576000D02*
X175795000Y-98576000D01*
X175795000Y-98576000D02*
X168295000Y-98576000D01*
X168295000Y-98576000D02*
X168295000Y-101576000D01*
X168295000Y-101576000D02*
X175795000Y-101576000D01*
X193181500Y-95567500D02*
G75*
G03X193181500Y-95567500I-3400000J0D01*
G01*
M02*
