G04 #@! TF.GenerationSoftware,KiCad,Pcbnew,(5.1.2)-1*
G04 #@! TF.CreationDate,2019-06-20T14:25:27-05:00*
G04 #@! TF.ProjectId,montaje,6d6f6e74-616a-4652-9e6b-696361645f70,rev?*
G04 #@! TF.SameCoordinates,Original*
G04 #@! TF.FileFunction,Copper,L2,Bot*
G04 #@! TF.FilePolarity,Positive*
%FSLAX46Y46*%
G04 Gerber Fmt 4.6, Leading zero omitted, Abs format (unit mm)*
G04 Created by KiCad (PCBNEW (5.1.2)-1) date 2019-06-20 14:25:27*
%MOMM*%
%LPD*%
G04 APERTURE LIST*
%ADD10O,1.600000X1.600000*%
%ADD11R,1.600000X1.600000*%
%ADD12C,2.000000*%
%ADD13C,1.800000*%
%ADD14C,1.600000*%
%ADD15O,1.000000X1.000000*%
%ADD16R,1.000000X1.000000*%
%ADD17C,2.700000*%
%ADD18C,0.100000*%
%ADD19R,1.800000X1.800000*%
%ADD20C,0.500000*%
%ADD21C,0.254000*%
G04 APERTURE END LIST*
D10*
X173990000Y-88900000D03*
X166370000Y-96520000D03*
X173990000Y-91440000D03*
X166370000Y-93980000D03*
X173990000Y-93980000D03*
X166370000Y-91440000D03*
X173990000Y-96520000D03*
D11*
X166370000Y-88900000D03*
D12*
X188221000Y-114300000D03*
X180721000Y-114300000D03*
D13*
X174498000Y-114474000D03*
X174498000Y-111974000D03*
X174498000Y-109474000D03*
D10*
X161290000Y-81280000D03*
D14*
X161290000Y-91440000D03*
D10*
X163512500Y-104203500D03*
D14*
X173672500Y-104203500D03*
D10*
X180340000Y-95250000D03*
D14*
X180340000Y-85090000D03*
X181030000Y-105410000D03*
X189230000Y-105410000D03*
D10*
X188518800Y-81381600D03*
D14*
X178358800Y-81381600D03*
D15*
X184404000Y-94234000D03*
D16*
X184404000Y-92964000D03*
D15*
X187960000Y-87630000D03*
D16*
X187960000Y-86360000D03*
D17*
X168048800Y-80111600D03*
D18*
G36*
X173133303Y-78762804D02*
G01*
X173157572Y-78766404D01*
X173181370Y-78772365D01*
X173204470Y-78780630D01*
X173226649Y-78791120D01*
X173247692Y-78803733D01*
X173267398Y-78818348D01*
X173285576Y-78834824D01*
X173302052Y-78853002D01*
X173316667Y-78872708D01*
X173329280Y-78893751D01*
X173339770Y-78915930D01*
X173348035Y-78939030D01*
X173353996Y-78962828D01*
X173357596Y-78987097D01*
X173358800Y-79011601D01*
X173358800Y-81211599D01*
X173357596Y-81236103D01*
X173353996Y-81260372D01*
X173348035Y-81284170D01*
X173339770Y-81307270D01*
X173329280Y-81329449D01*
X173316667Y-81350492D01*
X173302052Y-81370198D01*
X173285576Y-81388376D01*
X173267398Y-81404852D01*
X173247692Y-81419467D01*
X173226649Y-81432080D01*
X173204470Y-81442570D01*
X173181370Y-81450835D01*
X173157572Y-81456796D01*
X173133303Y-81460396D01*
X173108799Y-81461600D01*
X170908801Y-81461600D01*
X170884297Y-81460396D01*
X170860028Y-81456796D01*
X170836230Y-81450835D01*
X170813130Y-81442570D01*
X170790951Y-81432080D01*
X170769908Y-81419467D01*
X170750202Y-81404852D01*
X170732024Y-81388376D01*
X170715548Y-81370198D01*
X170700933Y-81350492D01*
X170688320Y-81329449D01*
X170677830Y-81307270D01*
X170669565Y-81284170D01*
X170663604Y-81260372D01*
X170660004Y-81236103D01*
X170658800Y-81211599D01*
X170658800Y-79011601D01*
X170660004Y-78987097D01*
X170663604Y-78962828D01*
X170669565Y-78939030D01*
X170677830Y-78915930D01*
X170688320Y-78893751D01*
X170700933Y-78872708D01*
X170715548Y-78853002D01*
X170732024Y-78834824D01*
X170750202Y-78818348D01*
X170769908Y-78803733D01*
X170790951Y-78791120D01*
X170813130Y-78780630D01*
X170836230Y-78772365D01*
X170860028Y-78766404D01*
X170884297Y-78762804D01*
X170908801Y-78761600D01*
X173108799Y-78761600D01*
X173133303Y-78762804D01*
X173133303Y-78762804D01*
G37*
D17*
X172008800Y-80111600D03*
X154813000Y-104394000D03*
D18*
G36*
X155937503Y-99085204D02*
G01*
X155961772Y-99088804D01*
X155985570Y-99094765D01*
X156008670Y-99103030D01*
X156030849Y-99113520D01*
X156051892Y-99126133D01*
X156071598Y-99140748D01*
X156089776Y-99157224D01*
X156106252Y-99175402D01*
X156120867Y-99195108D01*
X156133480Y-99216151D01*
X156143970Y-99238330D01*
X156152235Y-99261430D01*
X156158196Y-99285228D01*
X156161796Y-99309497D01*
X156163000Y-99334001D01*
X156163000Y-101533999D01*
X156161796Y-101558503D01*
X156158196Y-101582772D01*
X156152235Y-101606570D01*
X156143970Y-101629670D01*
X156133480Y-101651849D01*
X156120867Y-101672892D01*
X156106252Y-101692598D01*
X156089776Y-101710776D01*
X156071598Y-101727252D01*
X156051892Y-101741867D01*
X156030849Y-101754480D01*
X156008670Y-101764970D01*
X155985570Y-101773235D01*
X155961772Y-101779196D01*
X155937503Y-101782796D01*
X155912999Y-101784000D01*
X153713001Y-101784000D01*
X153688497Y-101782796D01*
X153664228Y-101779196D01*
X153640430Y-101773235D01*
X153617330Y-101764970D01*
X153595151Y-101754480D01*
X153574108Y-101741867D01*
X153554402Y-101727252D01*
X153536224Y-101710776D01*
X153519748Y-101692598D01*
X153505133Y-101672892D01*
X153492520Y-101651849D01*
X153482030Y-101629670D01*
X153473765Y-101606570D01*
X153467804Y-101582772D01*
X153464204Y-101558503D01*
X153463000Y-101533999D01*
X153463000Y-99334001D01*
X153464204Y-99309497D01*
X153467804Y-99285228D01*
X153473765Y-99261430D01*
X153482030Y-99238330D01*
X153492520Y-99216151D01*
X153505133Y-99195108D01*
X153519748Y-99175402D01*
X153536224Y-99157224D01*
X153554402Y-99140748D01*
X153574108Y-99126133D01*
X153595151Y-99113520D01*
X153617330Y-99103030D01*
X153640430Y-99094765D01*
X153664228Y-99088804D01*
X153688497Y-99085204D01*
X153713001Y-99084000D01*
X155912999Y-99084000D01*
X155937503Y-99085204D01*
X155937503Y-99085204D01*
G37*
D17*
X154813000Y-100434000D03*
D13*
X155765500Y-85407500D03*
D19*
X155765500Y-87947500D03*
D13*
X162433000Y-100838000D03*
D19*
X162433000Y-98298000D03*
D14*
X156123000Y-94488000D03*
D11*
X158623000Y-94488000D03*
D14*
X174545000Y-100076000D03*
X169545000Y-100076000D03*
X191031500Y-95567500D03*
D11*
X188531500Y-95567500D03*
D20*
X167068500Y-88900000D02*
X166370000Y-88900000D01*
X185737500Y-95567500D02*
X184404000Y-94234000D01*
X188531500Y-95567500D02*
X185737500Y-95567500D01*
X181030000Y-99910000D02*
X181030000Y-105410000D01*
X183446800Y-93785198D02*
X183446800Y-97493200D01*
X184267998Y-92964000D02*
X183446800Y-93785198D01*
X184404000Y-92964000D02*
X184267998Y-92964000D01*
X183446800Y-97493200D02*
X181030000Y-99910000D01*
X173990000Y-93980000D02*
X174390000Y-93980000D01*
X179197000Y-112776000D02*
X180721000Y-114300000D01*
X179197000Y-106111630D02*
X179197000Y-112776000D01*
X181030000Y-105410000D02*
X179898630Y-105410000D01*
X179898630Y-105410000D02*
X179197000Y-106111630D01*
X176196000Y-112776000D02*
X174498000Y-114474000D01*
X179197000Y-112776000D02*
X176196000Y-112776000D01*
X174498000Y-111974000D02*
X174498000Y-114474000D01*
X175690000Y-93980000D02*
X177800000Y-91870000D01*
X173990000Y-93980000D02*
X175690000Y-93980000D01*
X181531602Y-91870000D02*
X183446800Y-93785198D01*
X177800000Y-91870000D02*
X181531602Y-91870000D01*
X171450000Y-91440000D02*
X173990000Y-93980000D01*
X166370000Y-91440000D02*
X171450000Y-91440000D01*
X175690000Y-96520000D02*
X176657000Y-97487000D01*
X173990000Y-96520000D02*
X175690000Y-96520000D01*
X176657000Y-97487000D02*
X176657000Y-98679000D01*
X175624500Y-98996500D02*
X174545000Y-100076000D01*
X176339500Y-98996500D02*
X175624500Y-98996500D01*
X176657000Y-98679000D02*
X176339500Y-98996500D01*
X156263000Y-100434000D02*
X158686500Y-98010500D01*
X154813000Y-100434000D02*
X156263000Y-100434000D01*
X158686500Y-97051500D02*
X156123000Y-94488000D01*
X158686500Y-98010500D02*
X158686500Y-97051500D01*
X163830000Y-93980000D02*
X166370000Y-93980000D01*
X161290000Y-91440000D02*
X163830000Y-93980000D01*
X163830000Y-95501000D02*
X163830000Y-93980000D01*
X162433000Y-96898000D02*
X163830000Y-95501000D01*
X162433000Y-98298000D02*
X162433000Y-96898000D01*
X162817000Y-94488000D02*
X158623000Y-94488000D01*
X163830000Y-95501000D02*
X162817000Y-94488000D01*
X162433000Y-103124000D02*
X163512500Y-104203500D01*
X162433000Y-100838000D02*
X162433000Y-103124000D01*
X161290000Y-81280000D02*
X160020000Y-81280000D01*
X159893000Y-81280000D02*
X161290000Y-81280000D01*
X155765500Y-85407500D02*
X159893000Y-81280000D01*
X172290000Y-88900000D02*
X173990000Y-88900000D01*
X171039999Y-90150001D02*
X172290000Y-88900000D01*
X166370000Y-96520000D02*
X166770000Y-96520000D01*
X175006000Y-83108800D02*
X172008800Y-80111600D01*
X176631600Y-83108800D02*
X178358800Y-81381600D01*
X175006000Y-83108800D02*
X176631600Y-83108800D01*
X166370000Y-101600000D02*
X166370000Y-96520000D01*
X166370000Y-101600000D02*
X169037000Y-104267000D01*
X171039999Y-87074801D02*
X175006000Y-83108800D01*
X171039999Y-90150001D02*
X171039999Y-87074801D01*
X164103999Y-90150001D02*
X171039999Y-90150001D01*
X163639500Y-90614500D02*
X164103999Y-90150001D01*
X163639500Y-92329000D02*
X163639500Y-90614500D01*
X166370000Y-96520000D02*
X168070000Y-96520000D01*
X168070000Y-96520000D02*
X169862500Y-94727500D01*
X169862500Y-94727500D02*
X169862500Y-93916500D01*
X169862500Y-93916500D02*
X168636010Y-92690010D01*
X168636010Y-92690010D02*
X164000510Y-92690010D01*
X164000510Y-92690010D02*
X163639500Y-92329000D01*
X169100500Y-104203500D02*
X173672500Y-104203500D01*
X169037000Y-104267000D02*
X169100500Y-104203500D01*
X190029999Y-104610001D02*
X189230000Y-105410000D01*
X193548000Y-101092000D02*
X190029999Y-104610001D01*
X193548000Y-93218000D02*
X193548000Y-101092000D01*
X187960000Y-87630000D02*
X193548000Y-93218000D01*
X181471370Y-85090000D02*
X181826970Y-85445600D01*
X180340000Y-85090000D02*
X181471370Y-85090000D01*
X181826970Y-85445600D02*
X184708800Y-85445600D01*
X185623200Y-86360000D02*
X187960000Y-86360000D01*
X184912000Y-84988400D02*
X184912000Y-85648800D01*
X188518800Y-81381600D02*
X184912000Y-84988400D01*
X184708800Y-85445600D02*
X184912000Y-85648800D01*
X184912000Y-85648800D02*
X185623200Y-86360000D01*
X173990000Y-91440000D02*
X180340000Y-85090000D01*
X180340000Y-95250000D02*
X180340000Y-98044000D01*
X177165000Y-101219000D02*
X180340000Y-98044000D01*
X177165000Y-106807000D02*
X177165000Y-101219000D01*
X174498000Y-109474000D02*
X177165000Y-106807000D01*
D21*
G36*
X197612000Y-119697500D02*
G01*
X147193000Y-119697500D01*
X147193000Y-105778838D01*
X153607767Y-105778838D01*
X153745724Y-106079044D01*
X154094967Y-106254882D01*
X154471804Y-106359207D01*
X154861753Y-106388009D01*
X155249828Y-106340184D01*
X155621116Y-106217568D01*
X155880276Y-106079044D01*
X156018233Y-105778838D01*
X154813000Y-104573605D01*
X153607767Y-105778838D01*
X147193000Y-105778838D01*
X147193000Y-104442753D01*
X152818991Y-104442753D01*
X152866816Y-104830828D01*
X152989432Y-105202116D01*
X153127956Y-105461276D01*
X153428162Y-105599233D01*
X154633395Y-104394000D01*
X154992605Y-104394000D01*
X156197838Y-105599233D01*
X156498044Y-105461276D01*
X156673882Y-105112033D01*
X156778207Y-104735196D01*
X156807009Y-104345247D01*
X156759184Y-103957172D01*
X156636568Y-103585884D01*
X156498044Y-103326724D01*
X156197838Y-103188767D01*
X154992605Y-104394000D01*
X154633395Y-104394000D01*
X153428162Y-103188767D01*
X153127956Y-103326724D01*
X152952118Y-103675967D01*
X152847793Y-104052804D01*
X152818991Y-104442753D01*
X147193000Y-104442753D01*
X147193000Y-99334001D01*
X152824928Y-99334001D01*
X152824928Y-101533999D01*
X152841992Y-101707253D01*
X152892529Y-101873850D01*
X152974595Y-102027386D01*
X153085039Y-102161961D01*
X153219614Y-102272405D01*
X153373150Y-102354471D01*
X153539747Y-102405008D01*
X153713001Y-102422072D01*
X154585071Y-102422072D01*
X154376172Y-102447816D01*
X154004884Y-102570432D01*
X153745724Y-102708956D01*
X153607767Y-103009162D01*
X154813000Y-104214395D01*
X156018233Y-103009162D01*
X155880276Y-102708956D01*
X155531033Y-102533118D01*
X155154196Y-102428793D01*
X155063201Y-102422072D01*
X155912999Y-102422072D01*
X156086253Y-102405008D01*
X156252850Y-102354471D01*
X156406386Y-102272405D01*
X156540961Y-102161961D01*
X156651405Y-102027386D01*
X156733471Y-101873850D01*
X156784008Y-101707253D01*
X156801072Y-101533999D01*
X156801072Y-101137290D01*
X156891817Y-101062817D01*
X156919534Y-101029044D01*
X159281550Y-98667029D01*
X159315317Y-98639317D01*
X159425911Y-98504559D01*
X159490183Y-98384314D01*
X159508089Y-98350814D01*
X159558695Y-98183990D01*
X159559589Y-98174911D01*
X159571500Y-98053977D01*
X159571500Y-98053969D01*
X159575781Y-98010500D01*
X159571500Y-97967031D01*
X159571500Y-97094965D01*
X159575781Y-97051499D01*
X159571500Y-97008033D01*
X159571500Y-97008023D01*
X159558695Y-96878010D01*
X159508089Y-96711187D01*
X159425911Y-96557441D01*
X159315317Y-96422683D01*
X159281549Y-96394970D01*
X158812651Y-95926072D01*
X159423000Y-95926072D01*
X159547482Y-95913812D01*
X159667180Y-95877502D01*
X159777494Y-95818537D01*
X159874185Y-95739185D01*
X159953537Y-95642494D01*
X160012502Y-95532180D01*
X160048812Y-95412482D01*
X160052701Y-95373000D01*
X162450422Y-95373000D01*
X162578422Y-95501000D01*
X161837951Y-96241471D01*
X161804184Y-96269183D01*
X161776471Y-96302951D01*
X161776468Y-96302954D01*
X161693590Y-96403941D01*
X161611412Y-96557687D01*
X161560805Y-96724510D01*
X161557317Y-96759928D01*
X161533000Y-96759928D01*
X161408518Y-96772188D01*
X161288820Y-96808498D01*
X161178506Y-96867463D01*
X161081815Y-96946815D01*
X161002463Y-97043506D01*
X160943498Y-97153820D01*
X160907188Y-97273518D01*
X160894928Y-97398000D01*
X160894928Y-99198000D01*
X160907188Y-99322482D01*
X160943498Y-99442180D01*
X161002463Y-99552494D01*
X161081815Y-99649185D01*
X161178506Y-99728537D01*
X161288820Y-99787502D01*
X161307127Y-99793056D01*
X161240688Y-99859495D01*
X161072701Y-100110905D01*
X160956989Y-100390257D01*
X160898000Y-100686816D01*
X160898000Y-100989184D01*
X160956989Y-101285743D01*
X161072701Y-101565095D01*
X161240688Y-101816505D01*
X161454495Y-102030312D01*
X161548001Y-102092790D01*
X161548001Y-103080521D01*
X161543719Y-103124000D01*
X161560805Y-103297490D01*
X161611412Y-103464313D01*
X161693590Y-103618059D01*
X161776468Y-103719046D01*
X161776471Y-103719049D01*
X161804184Y-103752817D01*
X161837951Y-103780529D01*
X162087625Y-104030204D01*
X162070557Y-104203500D01*
X162098264Y-104484809D01*
X162180318Y-104755308D01*
X162313568Y-105004601D01*
X162492892Y-105223108D01*
X162711399Y-105402432D01*
X162960692Y-105535682D01*
X163231191Y-105617736D01*
X163442008Y-105638500D01*
X163582992Y-105638500D01*
X163793809Y-105617736D01*
X164064308Y-105535682D01*
X164313601Y-105402432D01*
X164532108Y-105223108D01*
X164711432Y-105004601D01*
X164844682Y-104755308D01*
X164926736Y-104484809D01*
X164954443Y-104203500D01*
X164926736Y-103922191D01*
X164844682Y-103651692D01*
X164711432Y-103402399D01*
X164532108Y-103183892D01*
X164313601Y-103004568D01*
X164064308Y-102871318D01*
X163793809Y-102789264D01*
X163582992Y-102768500D01*
X163442008Y-102768500D01*
X163339204Y-102778625D01*
X163318000Y-102757422D01*
X163318000Y-102092790D01*
X163411505Y-102030312D01*
X163625312Y-101816505D01*
X163793299Y-101565095D01*
X163909011Y-101285743D01*
X163968000Y-100989184D01*
X163968000Y-100686816D01*
X163909011Y-100390257D01*
X163793299Y-100110905D01*
X163625312Y-99859495D01*
X163558873Y-99793056D01*
X163577180Y-99787502D01*
X163687494Y-99728537D01*
X163784185Y-99649185D01*
X163863537Y-99552494D01*
X163922502Y-99442180D01*
X163958812Y-99322482D01*
X163971072Y-99198000D01*
X163971072Y-97398000D01*
X163958812Y-97273518D01*
X163922502Y-97153820D01*
X163863537Y-97043506D01*
X163784185Y-96946815D01*
X163702665Y-96879913D01*
X164425050Y-96157529D01*
X164458817Y-96129817D01*
X164514836Y-96061559D01*
X164569410Y-95995060D01*
X164569411Y-95995059D01*
X164651589Y-95841313D01*
X164702195Y-95674490D01*
X164715000Y-95544477D01*
X164715000Y-95544467D01*
X164719281Y-95501001D01*
X164718886Y-95496988D01*
X164715000Y-95457533D01*
X164715000Y-94865000D01*
X165239922Y-94865000D01*
X165350392Y-94999608D01*
X165568899Y-95178932D01*
X165701858Y-95250000D01*
X165568899Y-95321068D01*
X165350392Y-95500392D01*
X165171068Y-95718899D01*
X165037818Y-95968192D01*
X164955764Y-96238691D01*
X164928057Y-96520000D01*
X164955764Y-96801309D01*
X165037818Y-97071808D01*
X165171068Y-97321101D01*
X165350392Y-97539608D01*
X165485001Y-97650079D01*
X165485000Y-101556531D01*
X165480719Y-101600000D01*
X165485000Y-101643469D01*
X165485000Y-101643476D01*
X165497805Y-101773489D01*
X165548411Y-101940312D01*
X165630589Y-102094058D01*
X165741183Y-102228817D01*
X165774956Y-102256534D01*
X168380472Y-104862051D01*
X168408183Y-104895817D01*
X168441949Y-104923528D01*
X168441953Y-104923532D01*
X168542941Y-105006411D01*
X168696686Y-105088589D01*
X168863510Y-105139195D01*
X169037000Y-105156281D01*
X169210490Y-105139195D01*
X169377313Y-105088589D01*
X169377480Y-105088500D01*
X172537979Y-105088500D01*
X172557863Y-105118259D01*
X172757741Y-105318137D01*
X172992773Y-105475180D01*
X173253926Y-105583353D01*
X173531165Y-105638500D01*
X173813835Y-105638500D01*
X174091074Y-105583353D01*
X174352227Y-105475180D01*
X174587259Y-105318137D01*
X174787137Y-105118259D01*
X174944180Y-104883227D01*
X175052353Y-104622074D01*
X175107500Y-104344835D01*
X175107500Y-104062165D01*
X175052353Y-103784926D01*
X174944180Y-103523773D01*
X174787137Y-103288741D01*
X174587259Y-103088863D01*
X174352227Y-102931820D01*
X174091074Y-102823647D01*
X173813835Y-102768500D01*
X173531165Y-102768500D01*
X173253926Y-102823647D01*
X172992773Y-102931820D01*
X172757741Y-103088863D01*
X172557863Y-103288741D01*
X172537979Y-103318500D01*
X169340079Y-103318500D01*
X167255000Y-101233422D01*
X167255000Y-101068702D01*
X168731903Y-101068702D01*
X168803486Y-101312671D01*
X169058996Y-101433571D01*
X169333184Y-101502300D01*
X169615512Y-101516217D01*
X169895130Y-101474787D01*
X170161292Y-101379603D01*
X170286514Y-101312671D01*
X170358097Y-101068702D01*
X169545000Y-100255605D01*
X168731903Y-101068702D01*
X167255000Y-101068702D01*
X167255000Y-100146512D01*
X168104783Y-100146512D01*
X168146213Y-100426130D01*
X168241397Y-100692292D01*
X168308329Y-100817514D01*
X168552298Y-100889097D01*
X169365395Y-100076000D01*
X169724605Y-100076000D01*
X170537702Y-100889097D01*
X170781671Y-100817514D01*
X170902571Y-100562004D01*
X170971300Y-100287816D01*
X170985217Y-100005488D01*
X170943787Y-99725870D01*
X170848603Y-99459708D01*
X170781671Y-99334486D01*
X170537702Y-99262903D01*
X169724605Y-100076000D01*
X169365395Y-100076000D01*
X168552298Y-99262903D01*
X168308329Y-99334486D01*
X168187429Y-99589996D01*
X168118700Y-99864184D01*
X168104783Y-100146512D01*
X167255000Y-100146512D01*
X167255000Y-99083298D01*
X168731903Y-99083298D01*
X169545000Y-99896395D01*
X170358097Y-99083298D01*
X170286514Y-98839329D01*
X170031004Y-98718429D01*
X169756816Y-98649700D01*
X169474488Y-98635783D01*
X169194870Y-98677213D01*
X168928708Y-98772397D01*
X168803486Y-98839329D01*
X168731903Y-99083298D01*
X167255000Y-99083298D01*
X167255000Y-97650078D01*
X167389608Y-97539608D01*
X167500078Y-97405000D01*
X168026531Y-97405000D01*
X168070000Y-97409281D01*
X168113469Y-97405000D01*
X168113477Y-97405000D01*
X168243490Y-97392195D01*
X168410313Y-97341589D01*
X168564059Y-97259411D01*
X168698817Y-97148817D01*
X168726534Y-97115044D01*
X170457550Y-95384029D01*
X170491317Y-95356317D01*
X170520246Y-95321068D01*
X170601911Y-95221559D01*
X170674902Y-95085000D01*
X170684089Y-95067813D01*
X170734695Y-94900990D01*
X170747500Y-94770977D01*
X170747500Y-94770969D01*
X170751781Y-94727500D01*
X170747500Y-94684031D01*
X170747500Y-93959969D01*
X170751781Y-93916500D01*
X170747500Y-93873031D01*
X170747500Y-93873023D01*
X170734695Y-93743010D01*
X170684089Y-93576187D01*
X170601911Y-93422441D01*
X170571145Y-93384953D01*
X170519032Y-93321453D01*
X170519030Y-93321451D01*
X170491317Y-93287683D01*
X170457549Y-93259970D01*
X169522578Y-92325000D01*
X171083422Y-92325000D01*
X172565125Y-93806704D01*
X172548057Y-93980000D01*
X172575764Y-94261309D01*
X172657818Y-94531808D01*
X172791068Y-94781101D01*
X172970392Y-94999608D01*
X173188899Y-95178932D01*
X173321858Y-95250000D01*
X173188899Y-95321068D01*
X172970392Y-95500392D01*
X172791068Y-95718899D01*
X172657818Y-95968192D01*
X172575764Y-96238691D01*
X172548057Y-96520000D01*
X172575764Y-96801309D01*
X172657818Y-97071808D01*
X172791068Y-97321101D01*
X172970392Y-97539608D01*
X173188899Y-97718932D01*
X173438192Y-97852182D01*
X173708691Y-97934236D01*
X173919508Y-97955000D01*
X174060492Y-97955000D01*
X174271309Y-97934236D01*
X174541808Y-97852182D01*
X174791101Y-97718932D01*
X175009608Y-97539608D01*
X175120078Y-97405000D01*
X175323422Y-97405000D01*
X175772000Y-97853579D01*
X175772001Y-98111500D01*
X175667969Y-98111500D01*
X175624500Y-98107219D01*
X175581031Y-98111500D01*
X175581023Y-98111500D01*
X175451010Y-98124305D01*
X175284186Y-98174911D01*
X175130441Y-98257089D01*
X175029453Y-98339968D01*
X175029451Y-98339970D01*
X174995683Y-98367683D01*
X174967970Y-98401451D01*
X174721439Y-98647983D01*
X174686335Y-98641000D01*
X174403665Y-98641000D01*
X174126426Y-98696147D01*
X173865273Y-98804320D01*
X173630241Y-98961363D01*
X173430363Y-99161241D01*
X173273320Y-99396273D01*
X173165147Y-99657426D01*
X173110000Y-99934665D01*
X173110000Y-100217335D01*
X173165147Y-100494574D01*
X173273320Y-100755727D01*
X173430363Y-100990759D01*
X173630241Y-101190637D01*
X173865273Y-101347680D01*
X174126426Y-101455853D01*
X174403665Y-101511000D01*
X174686335Y-101511000D01*
X174963574Y-101455853D01*
X175224727Y-101347680D01*
X175459759Y-101190637D01*
X175659637Y-100990759D01*
X175816680Y-100755727D01*
X175924853Y-100494574D01*
X175980000Y-100217335D01*
X175980000Y-99934665D01*
X175973017Y-99899561D01*
X175991079Y-99881500D01*
X176296031Y-99881500D01*
X176339500Y-99885781D01*
X176382969Y-99881500D01*
X176382977Y-99881500D01*
X176512990Y-99868695D01*
X176679813Y-99818089D01*
X176833559Y-99735911D01*
X176968317Y-99625317D01*
X176996034Y-99591544D01*
X177252044Y-99335534D01*
X177285817Y-99307817D01*
X177396411Y-99173059D01*
X177478589Y-99019313D01*
X177529195Y-98852490D01*
X177542000Y-98722477D01*
X177542000Y-98722469D01*
X177546281Y-98679000D01*
X177542000Y-98635531D01*
X177542000Y-97530469D01*
X177546281Y-97487000D01*
X177542000Y-97443531D01*
X177542000Y-97443523D01*
X177529195Y-97313510D01*
X177479235Y-97148817D01*
X177478589Y-97146686D01*
X177396411Y-96992941D01*
X177313532Y-96891953D01*
X177313530Y-96891951D01*
X177285817Y-96858183D01*
X177252050Y-96830471D01*
X176346532Y-95924954D01*
X176318817Y-95891183D01*
X176184059Y-95780589D01*
X176030313Y-95698411D01*
X175863490Y-95647805D01*
X175733477Y-95635000D01*
X175733469Y-95635000D01*
X175690000Y-95630719D01*
X175646531Y-95635000D01*
X175120078Y-95635000D01*
X175009608Y-95500392D01*
X174791101Y-95321068D01*
X174658142Y-95250000D01*
X174791101Y-95178932D01*
X175009608Y-94999608D01*
X175120078Y-94865000D01*
X175646531Y-94865000D01*
X175690000Y-94869281D01*
X175733469Y-94865000D01*
X175733477Y-94865000D01*
X175863490Y-94852195D01*
X176030313Y-94801589D01*
X176184059Y-94719411D01*
X176318817Y-94608817D01*
X176346534Y-94575044D01*
X178166579Y-92755000D01*
X181165024Y-92755000D01*
X182561800Y-94151777D01*
X182561801Y-97126620D01*
X180434956Y-99253466D01*
X180401183Y-99281183D01*
X180290589Y-99415942D01*
X180208411Y-99569688D01*
X180157805Y-99736511D01*
X180145000Y-99866524D01*
X180145000Y-99866531D01*
X180140719Y-99910000D01*
X180145000Y-99953469D01*
X180145001Y-104275478D01*
X180115241Y-104295363D01*
X179915363Y-104495241D01*
X179898319Y-104520750D01*
X179855161Y-104525000D01*
X179855153Y-104525000D01*
X179725140Y-104537805D01*
X179558316Y-104588411D01*
X179404571Y-104670589D01*
X179303583Y-104753468D01*
X179303581Y-104753470D01*
X179269813Y-104781183D01*
X179242100Y-104814951D01*
X178601956Y-105455096D01*
X178568183Y-105482813D01*
X178457589Y-105617572D01*
X178375411Y-105771318D01*
X178324805Y-105938141D01*
X178312000Y-106068154D01*
X178312000Y-106068161D01*
X178307719Y-106111630D01*
X178312000Y-106155099D01*
X178312001Y-111891000D01*
X176239469Y-111891000D01*
X176196000Y-111886719D01*
X176152531Y-111891000D01*
X176152523Y-111891000D01*
X176033000Y-111902772D01*
X176033000Y-111822816D01*
X175974011Y-111526257D01*
X175858299Y-111246905D01*
X175690312Y-110995495D01*
X175476505Y-110781688D01*
X175390169Y-110724000D01*
X175476505Y-110666312D01*
X175690312Y-110452505D01*
X175858299Y-110201095D01*
X175974011Y-109921743D01*
X176033000Y-109625184D01*
X176033000Y-109322816D01*
X176011060Y-109212518D01*
X177760050Y-107463529D01*
X177793817Y-107435817D01*
X177904411Y-107301059D01*
X177904412Y-107301058D01*
X177986589Y-107147314D01*
X178037195Y-106980490D01*
X178041851Y-106933218D01*
X178050000Y-106850477D01*
X178050000Y-106850469D01*
X178054281Y-106807000D01*
X178050000Y-106763531D01*
X178050000Y-101585578D01*
X180935049Y-98700530D01*
X180968817Y-98672817D01*
X180999211Y-98635783D01*
X181079410Y-98538060D01*
X181092522Y-98513529D01*
X181161589Y-98384313D01*
X181212195Y-98217490D01*
X181225000Y-98087477D01*
X181225000Y-98087467D01*
X181229281Y-98044001D01*
X181225000Y-98000534D01*
X181225000Y-96380078D01*
X181359608Y-96269608D01*
X181538932Y-96051101D01*
X181672182Y-95801808D01*
X181754236Y-95531309D01*
X181781943Y-95250000D01*
X181754236Y-94968691D01*
X181672182Y-94698192D01*
X181538932Y-94448899D01*
X181359608Y-94230392D01*
X181141101Y-94051068D01*
X180891808Y-93917818D01*
X180621309Y-93835764D01*
X180410492Y-93815000D01*
X180269508Y-93815000D01*
X180058691Y-93835764D01*
X179788192Y-93917818D01*
X179538899Y-94051068D01*
X179320392Y-94230392D01*
X179141068Y-94448899D01*
X179007818Y-94698192D01*
X178925764Y-94968691D01*
X178898057Y-95250000D01*
X178925764Y-95531309D01*
X179007818Y-95801808D01*
X179141068Y-96051101D01*
X179320392Y-96269608D01*
X179455000Y-96380078D01*
X179455001Y-97677420D01*
X176569951Y-100562471D01*
X176536184Y-100590183D01*
X176508471Y-100623951D01*
X176508468Y-100623954D01*
X176425590Y-100724941D01*
X176343412Y-100878687D01*
X176292805Y-101045510D01*
X176275719Y-101219000D01*
X176280001Y-101262479D01*
X176280000Y-106440421D01*
X174759482Y-107960940D01*
X174649184Y-107939000D01*
X174346816Y-107939000D01*
X174050257Y-107997989D01*
X173770905Y-108113701D01*
X173519495Y-108281688D01*
X173305688Y-108495495D01*
X173137701Y-108746905D01*
X173021989Y-109026257D01*
X172963000Y-109322816D01*
X172963000Y-109625184D01*
X173021989Y-109921743D01*
X173137701Y-110201095D01*
X173305688Y-110452505D01*
X173519495Y-110666312D01*
X173605831Y-110724000D01*
X173519495Y-110781688D01*
X173305688Y-110995495D01*
X173137701Y-111246905D01*
X173021989Y-111526257D01*
X172963000Y-111822816D01*
X172963000Y-112125184D01*
X173021989Y-112421743D01*
X173137701Y-112701095D01*
X173305688Y-112952505D01*
X173519495Y-113166312D01*
X173605831Y-113224000D01*
X173519495Y-113281688D01*
X173305688Y-113495495D01*
X173137701Y-113746905D01*
X173021989Y-114026257D01*
X172963000Y-114322816D01*
X172963000Y-114625184D01*
X173021989Y-114921743D01*
X173137701Y-115201095D01*
X173305688Y-115452505D01*
X173519495Y-115666312D01*
X173770905Y-115834299D01*
X174050257Y-115950011D01*
X174346816Y-116009000D01*
X174649184Y-116009000D01*
X174945743Y-115950011D01*
X175225095Y-115834299D01*
X175476505Y-115666312D01*
X175690312Y-115452505D01*
X175858299Y-115201095D01*
X175974011Y-114921743D01*
X176033000Y-114625184D01*
X176033000Y-114322816D01*
X176011060Y-114212518D01*
X176562579Y-113661000D01*
X178830422Y-113661000D01*
X179122897Y-113953475D01*
X179086000Y-114138967D01*
X179086000Y-114461033D01*
X179148832Y-114776912D01*
X179272082Y-115074463D01*
X179451013Y-115342252D01*
X179678748Y-115569987D01*
X179946537Y-115748918D01*
X180244088Y-115872168D01*
X180559967Y-115935000D01*
X180882033Y-115935000D01*
X181197912Y-115872168D01*
X181495463Y-115748918D01*
X181763252Y-115569987D01*
X181897826Y-115435413D01*
X187265192Y-115435413D01*
X187360956Y-115699814D01*
X187650571Y-115840704D01*
X187962108Y-115922384D01*
X188283595Y-115941718D01*
X188602675Y-115897961D01*
X188907088Y-115792795D01*
X189081044Y-115699814D01*
X189176808Y-115435413D01*
X188221000Y-114479605D01*
X187265192Y-115435413D01*
X181897826Y-115435413D01*
X181990987Y-115342252D01*
X182169918Y-115074463D01*
X182293168Y-114776912D01*
X182356000Y-114461033D01*
X182356000Y-114362595D01*
X186579282Y-114362595D01*
X186623039Y-114681675D01*
X186728205Y-114986088D01*
X186821186Y-115160044D01*
X187085587Y-115255808D01*
X188041395Y-114300000D01*
X188400605Y-114300000D01*
X189356413Y-115255808D01*
X189620814Y-115160044D01*
X189761704Y-114870429D01*
X189843384Y-114558892D01*
X189862718Y-114237405D01*
X189818961Y-113918325D01*
X189713795Y-113613912D01*
X189620814Y-113439956D01*
X189356413Y-113344192D01*
X188400605Y-114300000D01*
X188041395Y-114300000D01*
X187085587Y-113344192D01*
X186821186Y-113439956D01*
X186680296Y-113729571D01*
X186598616Y-114041108D01*
X186579282Y-114362595D01*
X182356000Y-114362595D01*
X182356000Y-114138967D01*
X182293168Y-113823088D01*
X182169918Y-113525537D01*
X181990987Y-113257748D01*
X181897826Y-113164587D01*
X187265192Y-113164587D01*
X188221000Y-114120395D01*
X189176808Y-113164587D01*
X189081044Y-112900186D01*
X188791429Y-112759296D01*
X188479892Y-112677616D01*
X188158405Y-112658282D01*
X187839325Y-112702039D01*
X187534912Y-112807205D01*
X187360956Y-112900186D01*
X187265192Y-113164587D01*
X181897826Y-113164587D01*
X181763252Y-113030013D01*
X181495463Y-112851082D01*
X181197912Y-112727832D01*
X180882033Y-112665000D01*
X180559967Y-112665000D01*
X180374475Y-112701897D01*
X180082000Y-112409422D01*
X180082000Y-106491396D01*
X180115241Y-106524637D01*
X180350273Y-106681680D01*
X180611426Y-106789853D01*
X180888665Y-106845000D01*
X181171335Y-106845000D01*
X181448574Y-106789853D01*
X181709727Y-106681680D01*
X181944759Y-106524637D01*
X182144637Y-106324759D01*
X182301680Y-106089727D01*
X182409853Y-105828574D01*
X182465000Y-105551335D01*
X182465000Y-105268665D01*
X182409853Y-104991426D01*
X182301680Y-104730273D01*
X182144637Y-104495241D01*
X181944759Y-104295363D01*
X181915000Y-104275479D01*
X181915000Y-100276578D01*
X184041849Y-98149730D01*
X184075617Y-98122017D01*
X184103964Y-98087477D01*
X184186210Y-97987260D01*
X184186211Y-97987259D01*
X184268389Y-97833513D01*
X184318995Y-97666690D01*
X184331800Y-97536677D01*
X184331800Y-97536667D01*
X184336081Y-97493201D01*
X184331800Y-97449735D01*
X184331800Y-95413378D01*
X185080970Y-96162549D01*
X185108683Y-96196317D01*
X185142451Y-96224030D01*
X185142453Y-96224032D01*
X185238619Y-96302954D01*
X185243441Y-96306911D01*
X185397187Y-96389089D01*
X185564010Y-96439695D01*
X185694023Y-96452500D01*
X185694031Y-96452500D01*
X185737500Y-96456781D01*
X185780969Y-96452500D01*
X187101799Y-96452500D01*
X187105688Y-96491982D01*
X187141998Y-96611680D01*
X187200963Y-96721994D01*
X187280315Y-96818685D01*
X187377006Y-96898037D01*
X187487320Y-96957002D01*
X187607018Y-96993312D01*
X187731500Y-97005572D01*
X189331500Y-97005572D01*
X189455982Y-96993312D01*
X189575680Y-96957002D01*
X189685994Y-96898037D01*
X189782685Y-96818685D01*
X189862037Y-96721994D01*
X189921002Y-96611680D01*
X189936617Y-96560202D01*
X190218403Y-96560202D01*
X190289986Y-96804171D01*
X190545496Y-96925071D01*
X190819684Y-96993800D01*
X191102012Y-97007717D01*
X191381630Y-96966287D01*
X191647792Y-96871103D01*
X191773014Y-96804171D01*
X191844597Y-96560202D01*
X191031500Y-95747105D01*
X190218403Y-96560202D01*
X189936617Y-96560202D01*
X189957312Y-96491982D01*
X189969572Y-96367500D01*
X189969572Y-96360285D01*
X190038798Y-96380597D01*
X190851895Y-95567500D01*
X191211105Y-95567500D01*
X192024202Y-96380597D01*
X192268171Y-96309014D01*
X192389071Y-96053504D01*
X192457800Y-95779316D01*
X192471717Y-95496988D01*
X192430287Y-95217370D01*
X192335103Y-94951208D01*
X192268171Y-94825986D01*
X192024202Y-94754403D01*
X191211105Y-95567500D01*
X190851895Y-95567500D01*
X190038798Y-94754403D01*
X189969572Y-94774715D01*
X189969572Y-94767500D01*
X189957312Y-94643018D01*
X189936618Y-94574798D01*
X190218403Y-94574798D01*
X191031500Y-95387895D01*
X191844597Y-94574798D01*
X191773014Y-94330829D01*
X191517504Y-94209929D01*
X191243316Y-94141200D01*
X190960988Y-94127283D01*
X190681370Y-94168713D01*
X190415208Y-94263897D01*
X190289986Y-94330829D01*
X190218403Y-94574798D01*
X189936618Y-94574798D01*
X189921002Y-94523320D01*
X189862037Y-94413006D01*
X189782685Y-94316315D01*
X189685994Y-94236963D01*
X189575680Y-94177998D01*
X189455982Y-94141688D01*
X189331500Y-94129428D01*
X187731500Y-94129428D01*
X187607018Y-94141688D01*
X187487320Y-94177998D01*
X187377006Y-94236963D01*
X187280315Y-94316315D01*
X187200963Y-94413006D01*
X187141998Y-94523320D01*
X187105688Y-94643018D01*
X187101799Y-94682500D01*
X186104079Y-94682500D01*
X185532355Y-94110776D01*
X185522577Y-94011501D01*
X185457676Y-93797553D01*
X185451703Y-93786379D01*
X185493502Y-93708180D01*
X185529812Y-93588482D01*
X185542072Y-93464000D01*
X185542072Y-92464000D01*
X185529812Y-92339518D01*
X185493502Y-92219820D01*
X185434537Y-92109506D01*
X185355185Y-92012815D01*
X185258494Y-91933463D01*
X185148180Y-91874498D01*
X185028482Y-91838188D01*
X184904000Y-91825928D01*
X183904000Y-91825928D01*
X183779518Y-91838188D01*
X183659820Y-91874498D01*
X183549506Y-91933463D01*
X183452815Y-92012815D01*
X183373463Y-92109506D01*
X183314498Y-92219820D01*
X183278188Y-92339518D01*
X183275903Y-92362722D01*
X182188136Y-91274956D01*
X182160419Y-91241183D01*
X182025661Y-91130589D01*
X181871915Y-91048411D01*
X181705092Y-90997805D01*
X181575079Y-90985000D01*
X181575071Y-90985000D01*
X181531602Y-90980719D01*
X181488133Y-90985000D01*
X177843469Y-90985000D01*
X177800000Y-90980719D01*
X177756531Y-90985000D01*
X177756523Y-90985000D01*
X177626510Y-90997805D01*
X177459686Y-91048411D01*
X177305941Y-91130589D01*
X177204953Y-91213468D01*
X177204951Y-91213470D01*
X177171183Y-91241183D01*
X177143470Y-91274951D01*
X175323422Y-93095000D01*
X175120078Y-93095000D01*
X175009608Y-92960392D01*
X174791101Y-92781068D01*
X174658142Y-92710000D01*
X174791101Y-92638932D01*
X175009608Y-92459608D01*
X175188932Y-92241101D01*
X175322182Y-91991808D01*
X175404236Y-91721309D01*
X175431943Y-91440000D01*
X175414875Y-91266704D01*
X180163561Y-86518017D01*
X180198665Y-86525000D01*
X180481335Y-86525000D01*
X180758574Y-86469853D01*
X181019727Y-86361680D01*
X181254759Y-86204637D01*
X181300766Y-86158630D01*
X181332911Y-86185011D01*
X181486657Y-86267189D01*
X181653480Y-86317795D01*
X181783493Y-86330600D01*
X181783503Y-86330600D01*
X181826969Y-86334881D01*
X181870435Y-86330600D01*
X184342222Y-86330600D01*
X184966670Y-86955049D01*
X184994383Y-86988817D01*
X185028151Y-87016530D01*
X185028153Y-87016532D01*
X185129141Y-87099411D01*
X185282886Y-87181589D01*
X185449710Y-87232195D01*
X185579723Y-87245000D01*
X185579731Y-87245000D01*
X185623200Y-87249281D01*
X185666669Y-87245000D01*
X186890718Y-87245000D01*
X186841423Y-87407501D01*
X186819509Y-87630000D01*
X186841423Y-87852499D01*
X186906324Y-88066447D01*
X187011716Y-88263623D01*
X187153551Y-88436449D01*
X187326377Y-88578284D01*
X187523553Y-88683676D01*
X187737501Y-88748577D01*
X187836777Y-88758355D01*
X192663000Y-93584579D01*
X192663001Y-100725420D01*
X189434957Y-103953465D01*
X189434952Y-103953469D01*
X189406438Y-103981983D01*
X189371335Y-103975000D01*
X189088665Y-103975000D01*
X188811426Y-104030147D01*
X188550273Y-104138320D01*
X188315241Y-104295363D01*
X188115363Y-104495241D01*
X187958320Y-104730273D01*
X187850147Y-104991426D01*
X187795000Y-105268665D01*
X187795000Y-105551335D01*
X187850147Y-105828574D01*
X187958320Y-106089727D01*
X188115363Y-106324759D01*
X188315241Y-106524637D01*
X188550273Y-106681680D01*
X188811426Y-106789853D01*
X189088665Y-106845000D01*
X189371335Y-106845000D01*
X189648574Y-106789853D01*
X189909727Y-106681680D01*
X190144759Y-106524637D01*
X190344637Y-106324759D01*
X190501680Y-106089727D01*
X190609853Y-105828574D01*
X190665000Y-105551335D01*
X190665000Y-105268665D01*
X190658017Y-105233562D01*
X190686531Y-105205048D01*
X190686535Y-105205043D01*
X194143049Y-101748530D01*
X194176817Y-101720817D01*
X194287411Y-101586059D01*
X194369589Y-101432313D01*
X194420195Y-101265490D01*
X194433000Y-101135477D01*
X194433000Y-101135469D01*
X194437281Y-101092000D01*
X194433000Y-101048531D01*
X194433000Y-93261465D01*
X194437281Y-93217999D01*
X194433000Y-93174533D01*
X194433000Y-93174523D01*
X194420195Y-93044510D01*
X194369589Y-92877687D01*
X194287411Y-92723941D01*
X194259564Y-92690010D01*
X194204532Y-92622953D01*
X194204530Y-92622951D01*
X194176817Y-92589183D01*
X194143051Y-92561472D01*
X189088355Y-87506777D01*
X189078577Y-87407501D01*
X189013676Y-87193553D01*
X189007703Y-87182379D01*
X189049502Y-87104180D01*
X189085812Y-86984482D01*
X189098072Y-86860000D01*
X189098072Y-85860000D01*
X189085812Y-85735518D01*
X189049502Y-85615820D01*
X188990537Y-85505506D01*
X188911185Y-85408815D01*
X188814494Y-85329463D01*
X188704180Y-85270498D01*
X188584482Y-85234188D01*
X188460000Y-85221928D01*
X187460000Y-85221928D01*
X187335518Y-85234188D01*
X187215820Y-85270498D01*
X187105506Y-85329463D01*
X187008815Y-85408815D01*
X186954499Y-85475000D01*
X185989779Y-85475000D01*
X185833378Y-85318600D01*
X188345504Y-82806475D01*
X188448308Y-82816600D01*
X188589292Y-82816600D01*
X188800109Y-82795836D01*
X189070608Y-82713782D01*
X189319901Y-82580532D01*
X189538408Y-82401208D01*
X189717732Y-82182701D01*
X189850982Y-81933408D01*
X189933036Y-81662909D01*
X189960743Y-81381600D01*
X189933036Y-81100291D01*
X189850982Y-80829792D01*
X189717732Y-80580499D01*
X189538408Y-80361992D01*
X189319901Y-80182668D01*
X189070608Y-80049418D01*
X188800109Y-79967364D01*
X188589292Y-79946600D01*
X188448308Y-79946600D01*
X188237491Y-79967364D01*
X187966992Y-80049418D01*
X187717699Y-80182668D01*
X187499192Y-80361992D01*
X187319868Y-80580499D01*
X187186618Y-80829792D01*
X187104564Y-81100291D01*
X187076857Y-81381600D01*
X187093925Y-81554896D01*
X184316956Y-84331866D01*
X184283183Y-84359583D01*
X184172589Y-84494342D01*
X184137174Y-84560600D01*
X182193548Y-84560600D01*
X182127904Y-84494956D01*
X182100187Y-84461183D01*
X181965429Y-84350589D01*
X181811683Y-84268411D01*
X181644860Y-84217805D01*
X181514847Y-84205000D01*
X181514839Y-84205000D01*
X181471681Y-84200750D01*
X181454637Y-84175241D01*
X181254759Y-83975363D01*
X181019727Y-83818320D01*
X180758574Y-83710147D01*
X180481335Y-83655000D01*
X180198665Y-83655000D01*
X179921426Y-83710147D01*
X179660273Y-83818320D01*
X179425241Y-83975363D01*
X179225363Y-84175241D01*
X179068320Y-84410273D01*
X178960147Y-84671426D01*
X178905000Y-84948665D01*
X178905000Y-85231335D01*
X178911983Y-85266439D01*
X175418178Y-88760244D01*
X175404236Y-88618691D01*
X175322182Y-88348192D01*
X175188932Y-88098899D01*
X175009608Y-87880392D01*
X174791101Y-87701068D01*
X174541808Y-87567818D01*
X174271309Y-87485764D01*
X174060492Y-87465000D01*
X173919508Y-87465000D01*
X173708691Y-87485764D01*
X173438192Y-87567818D01*
X173188899Y-87701068D01*
X172970392Y-87880392D01*
X172859922Y-88015000D01*
X172333465Y-88015000D01*
X172289999Y-88010719D01*
X172246533Y-88015000D01*
X172246523Y-88015000D01*
X172116510Y-88027805D01*
X171949687Y-88078411D01*
X171924999Y-88091607D01*
X171924999Y-87441379D01*
X175372579Y-83993800D01*
X176588131Y-83993800D01*
X176631600Y-83998081D01*
X176675069Y-83993800D01*
X176675077Y-83993800D01*
X176805090Y-83980995D01*
X176971913Y-83930389D01*
X177125659Y-83848211D01*
X177260417Y-83737617D01*
X177288134Y-83703844D01*
X178182361Y-82809617D01*
X178217465Y-82816600D01*
X178500135Y-82816600D01*
X178777374Y-82761453D01*
X179038527Y-82653280D01*
X179273559Y-82496237D01*
X179473437Y-82296359D01*
X179630480Y-82061327D01*
X179738653Y-81800174D01*
X179793800Y-81522935D01*
X179793800Y-81240265D01*
X179738653Y-80963026D01*
X179630480Y-80701873D01*
X179473437Y-80466841D01*
X179273559Y-80266963D01*
X179038527Y-80109920D01*
X178777374Y-80001747D01*
X178500135Y-79946600D01*
X178217465Y-79946600D01*
X177940226Y-80001747D01*
X177679073Y-80109920D01*
X177444041Y-80266963D01*
X177244163Y-80466841D01*
X177087120Y-80701873D01*
X176978947Y-80963026D01*
X176923800Y-81240265D01*
X176923800Y-81522935D01*
X176930783Y-81558039D01*
X176265022Y-82223800D01*
X175372579Y-82223800D01*
X173996872Y-80848094D01*
X173996872Y-79011601D01*
X173979808Y-78838347D01*
X173929271Y-78671750D01*
X173847205Y-78518214D01*
X173736761Y-78383639D01*
X173602186Y-78273195D01*
X173448650Y-78191129D01*
X173282053Y-78140592D01*
X173108799Y-78123528D01*
X170908801Y-78123528D01*
X170735547Y-78140592D01*
X170568950Y-78191129D01*
X170415414Y-78273195D01*
X170280839Y-78383639D01*
X170170395Y-78518214D01*
X170088329Y-78671750D01*
X170037792Y-78838347D01*
X170020728Y-79011601D01*
X170020728Y-79883671D01*
X169994984Y-79674772D01*
X169872368Y-79303484D01*
X169733844Y-79044324D01*
X169433638Y-78906367D01*
X168228405Y-80111600D01*
X169433638Y-81316833D01*
X169733844Y-81178876D01*
X169909682Y-80829633D01*
X170014007Y-80452796D01*
X170020728Y-80361801D01*
X170020728Y-81211599D01*
X170037792Y-81384853D01*
X170088329Y-81551450D01*
X170170395Y-81704986D01*
X170280839Y-81839561D01*
X170415414Y-81950005D01*
X170568950Y-82032071D01*
X170735547Y-82082608D01*
X170908801Y-82099672D01*
X172745294Y-82099672D01*
X173754421Y-83108800D01*
X170444950Y-86418271D01*
X170411183Y-86445984D01*
X170383470Y-86479752D01*
X170383467Y-86479755D01*
X170300589Y-86580742D01*
X170218411Y-86734488D01*
X170167804Y-86901311D01*
X170150718Y-87074801D01*
X170155000Y-87118280D01*
X170154999Y-89265001D01*
X167805473Y-89265001D01*
X167805000Y-89185750D01*
X167646250Y-89027000D01*
X166497000Y-89027000D01*
X166497000Y-89047000D01*
X166243000Y-89047000D01*
X166243000Y-89027000D01*
X165093750Y-89027000D01*
X164935000Y-89185750D01*
X164934527Y-89265001D01*
X164147468Y-89265001D01*
X164103999Y-89260720D01*
X164060530Y-89265001D01*
X164060522Y-89265001D01*
X163930509Y-89277806D01*
X163763686Y-89328412D01*
X163609940Y-89410590D01*
X163475182Y-89521184D01*
X163447467Y-89554955D01*
X163044452Y-89957970D01*
X163010684Y-89985683D01*
X162982971Y-90019451D01*
X162982968Y-90019454D01*
X162900090Y-90120441D01*
X162817912Y-90274187D01*
X162767305Y-90441010D01*
X162750219Y-90614500D01*
X162754501Y-90657979D01*
X162754500Y-91652922D01*
X162718017Y-91616439D01*
X162725000Y-91581335D01*
X162725000Y-91298665D01*
X162669853Y-91021426D01*
X162561680Y-90760273D01*
X162404637Y-90525241D01*
X162204759Y-90325363D01*
X161969727Y-90168320D01*
X161708574Y-90060147D01*
X161431335Y-90005000D01*
X161148665Y-90005000D01*
X160871426Y-90060147D01*
X160610273Y-90168320D01*
X160375241Y-90325363D01*
X160175363Y-90525241D01*
X160018320Y-90760273D01*
X159910147Y-91021426D01*
X159855000Y-91298665D01*
X159855000Y-91581335D01*
X159910147Y-91858574D01*
X160018320Y-92119727D01*
X160175363Y-92354759D01*
X160375241Y-92554637D01*
X160610273Y-92711680D01*
X160871426Y-92819853D01*
X161148665Y-92875000D01*
X161431335Y-92875000D01*
X161466439Y-92868017D01*
X162201421Y-93603000D01*
X160052701Y-93603000D01*
X160048812Y-93563518D01*
X160012502Y-93443820D01*
X159953537Y-93333506D01*
X159874185Y-93236815D01*
X159777494Y-93157463D01*
X159667180Y-93098498D01*
X159547482Y-93062188D01*
X159423000Y-93049928D01*
X157823000Y-93049928D01*
X157698518Y-93062188D01*
X157578820Y-93098498D01*
X157468506Y-93157463D01*
X157371815Y-93236815D01*
X157292463Y-93333506D01*
X157233498Y-93443820D01*
X157204339Y-93539943D01*
X157037759Y-93373363D01*
X156802727Y-93216320D01*
X156541574Y-93108147D01*
X156264335Y-93053000D01*
X155981665Y-93053000D01*
X155704426Y-93108147D01*
X155443273Y-93216320D01*
X155208241Y-93373363D01*
X155008363Y-93573241D01*
X154851320Y-93808273D01*
X154743147Y-94069426D01*
X154688000Y-94346665D01*
X154688000Y-94629335D01*
X154743147Y-94906574D01*
X154851320Y-95167727D01*
X155008363Y-95402759D01*
X155208241Y-95602637D01*
X155443273Y-95759680D01*
X155704426Y-95867853D01*
X155981665Y-95923000D01*
X156264335Y-95923000D01*
X156299439Y-95916017D01*
X157801501Y-97418079D01*
X157801500Y-97643921D01*
X156630401Y-98815021D01*
X156540961Y-98706039D01*
X156406386Y-98595595D01*
X156252850Y-98513529D01*
X156086253Y-98462992D01*
X155912999Y-98445928D01*
X153713001Y-98445928D01*
X153539747Y-98462992D01*
X153373150Y-98513529D01*
X153219614Y-98595595D01*
X153085039Y-98706039D01*
X152974595Y-98840614D01*
X152892529Y-98994150D01*
X152841992Y-99160747D01*
X152824928Y-99334001D01*
X147193000Y-99334001D01*
X147193000Y-88847500D01*
X154227428Y-88847500D01*
X154239688Y-88971982D01*
X154275998Y-89091680D01*
X154334963Y-89201994D01*
X154414315Y-89298685D01*
X154511006Y-89378037D01*
X154621320Y-89437002D01*
X154741018Y-89473312D01*
X154865500Y-89485572D01*
X155479750Y-89482500D01*
X155638500Y-89323750D01*
X155638500Y-88074500D01*
X155892500Y-88074500D01*
X155892500Y-89323750D01*
X156051250Y-89482500D01*
X156665500Y-89485572D01*
X156789982Y-89473312D01*
X156909680Y-89437002D01*
X157019994Y-89378037D01*
X157116685Y-89298685D01*
X157196037Y-89201994D01*
X157255002Y-89091680D01*
X157291312Y-88971982D01*
X157303572Y-88847500D01*
X157300500Y-88233250D01*
X157167250Y-88100000D01*
X164931928Y-88100000D01*
X164935000Y-88614250D01*
X165093750Y-88773000D01*
X166243000Y-88773000D01*
X166243000Y-87623750D01*
X166497000Y-87623750D01*
X166497000Y-88773000D01*
X167646250Y-88773000D01*
X167805000Y-88614250D01*
X167808072Y-88100000D01*
X167795812Y-87975518D01*
X167759502Y-87855820D01*
X167700537Y-87745506D01*
X167621185Y-87648815D01*
X167524494Y-87569463D01*
X167414180Y-87510498D01*
X167294482Y-87474188D01*
X167170000Y-87461928D01*
X166655750Y-87465000D01*
X166497000Y-87623750D01*
X166243000Y-87623750D01*
X166084250Y-87465000D01*
X165570000Y-87461928D01*
X165445518Y-87474188D01*
X165325820Y-87510498D01*
X165215506Y-87569463D01*
X165118815Y-87648815D01*
X165039463Y-87745506D01*
X164980498Y-87855820D01*
X164944188Y-87975518D01*
X164931928Y-88100000D01*
X157167250Y-88100000D01*
X157141750Y-88074500D01*
X155892500Y-88074500D01*
X155638500Y-88074500D01*
X154389250Y-88074500D01*
X154230500Y-88233250D01*
X154227428Y-88847500D01*
X147193000Y-88847500D01*
X147193000Y-87047500D01*
X154227428Y-87047500D01*
X154230500Y-87661750D01*
X154389250Y-87820500D01*
X155638500Y-87820500D01*
X155638500Y-87800500D01*
X155892500Y-87800500D01*
X155892500Y-87820500D01*
X157141750Y-87820500D01*
X157300500Y-87661750D01*
X157303572Y-87047500D01*
X157291312Y-86923018D01*
X157255002Y-86803320D01*
X157196037Y-86693006D01*
X157116685Y-86596315D01*
X157019994Y-86516963D01*
X156909680Y-86457998D01*
X156891373Y-86452444D01*
X156957812Y-86386005D01*
X157125799Y-86134595D01*
X157241511Y-85855243D01*
X157300500Y-85558684D01*
X157300500Y-85256316D01*
X157278560Y-85146018D01*
X160204843Y-82219736D01*
X160270392Y-82299608D01*
X160488899Y-82478932D01*
X160738192Y-82612182D01*
X161008691Y-82694236D01*
X161219508Y-82715000D01*
X161360492Y-82715000D01*
X161571309Y-82694236D01*
X161841808Y-82612182D01*
X162091101Y-82478932D01*
X162309608Y-82299608D01*
X162488932Y-82081101D01*
X162622182Y-81831808D01*
X162704236Y-81561309D01*
X162710625Y-81496438D01*
X166843567Y-81496438D01*
X166981524Y-81796644D01*
X167330767Y-81972482D01*
X167707604Y-82076807D01*
X168097553Y-82105609D01*
X168485628Y-82057784D01*
X168856916Y-81935168D01*
X169116076Y-81796644D01*
X169254033Y-81496438D01*
X168048800Y-80291205D01*
X166843567Y-81496438D01*
X162710625Y-81496438D01*
X162731943Y-81280000D01*
X162704236Y-80998691D01*
X162622182Y-80728192D01*
X162488932Y-80478899D01*
X162309608Y-80260392D01*
X162187711Y-80160353D01*
X166054791Y-80160353D01*
X166102616Y-80548428D01*
X166225232Y-80919716D01*
X166363756Y-81178876D01*
X166663962Y-81316833D01*
X167869195Y-80111600D01*
X166663962Y-78906367D01*
X166363756Y-79044324D01*
X166187918Y-79393567D01*
X166083593Y-79770404D01*
X166054791Y-80160353D01*
X162187711Y-80160353D01*
X162091101Y-80081068D01*
X161841808Y-79947818D01*
X161571309Y-79865764D01*
X161360492Y-79845000D01*
X161219508Y-79845000D01*
X161008691Y-79865764D01*
X160738192Y-79947818D01*
X160488899Y-80081068D01*
X160270392Y-80260392D01*
X160159922Y-80395000D01*
X159936465Y-80395000D01*
X159892999Y-80390719D01*
X159849533Y-80395000D01*
X159849523Y-80395000D01*
X159719510Y-80407805D01*
X159552687Y-80458411D01*
X159398941Y-80540589D01*
X159398939Y-80540590D01*
X159398940Y-80540590D01*
X159297953Y-80623468D01*
X159297951Y-80623470D01*
X159264183Y-80651183D01*
X159236470Y-80684951D01*
X156026982Y-83894440D01*
X155916684Y-83872500D01*
X155614316Y-83872500D01*
X155317757Y-83931489D01*
X155038405Y-84047201D01*
X154786995Y-84215188D01*
X154573188Y-84428995D01*
X154405201Y-84680405D01*
X154289489Y-84959757D01*
X154230500Y-85256316D01*
X154230500Y-85558684D01*
X154289489Y-85855243D01*
X154405201Y-86134595D01*
X154573188Y-86386005D01*
X154639627Y-86452444D01*
X154621320Y-86457998D01*
X154511006Y-86516963D01*
X154414315Y-86596315D01*
X154334963Y-86693006D01*
X154275998Y-86803320D01*
X154239688Y-86923018D01*
X154227428Y-87047500D01*
X147193000Y-87047500D01*
X147193000Y-78726762D01*
X166843567Y-78726762D01*
X168048800Y-79931995D01*
X169254033Y-78726762D01*
X169116076Y-78426556D01*
X168766833Y-78250718D01*
X168389996Y-78146393D01*
X168000047Y-78117591D01*
X167611972Y-78165416D01*
X167240684Y-78288032D01*
X166981524Y-78426556D01*
X166843567Y-78726762D01*
X147193000Y-78726762D01*
X147193000Y-71818500D01*
X197612000Y-71818500D01*
X197612000Y-119697500D01*
X197612000Y-119697500D01*
G37*
X197612000Y-119697500D02*
X147193000Y-119697500D01*
X147193000Y-105778838D01*
X153607767Y-105778838D01*
X153745724Y-106079044D01*
X154094967Y-106254882D01*
X154471804Y-106359207D01*
X154861753Y-106388009D01*
X155249828Y-106340184D01*
X155621116Y-106217568D01*
X155880276Y-106079044D01*
X156018233Y-105778838D01*
X154813000Y-104573605D01*
X153607767Y-105778838D01*
X147193000Y-105778838D01*
X147193000Y-104442753D01*
X152818991Y-104442753D01*
X152866816Y-104830828D01*
X152989432Y-105202116D01*
X153127956Y-105461276D01*
X153428162Y-105599233D01*
X154633395Y-104394000D01*
X154992605Y-104394000D01*
X156197838Y-105599233D01*
X156498044Y-105461276D01*
X156673882Y-105112033D01*
X156778207Y-104735196D01*
X156807009Y-104345247D01*
X156759184Y-103957172D01*
X156636568Y-103585884D01*
X156498044Y-103326724D01*
X156197838Y-103188767D01*
X154992605Y-104394000D01*
X154633395Y-104394000D01*
X153428162Y-103188767D01*
X153127956Y-103326724D01*
X152952118Y-103675967D01*
X152847793Y-104052804D01*
X152818991Y-104442753D01*
X147193000Y-104442753D01*
X147193000Y-99334001D01*
X152824928Y-99334001D01*
X152824928Y-101533999D01*
X152841992Y-101707253D01*
X152892529Y-101873850D01*
X152974595Y-102027386D01*
X153085039Y-102161961D01*
X153219614Y-102272405D01*
X153373150Y-102354471D01*
X153539747Y-102405008D01*
X153713001Y-102422072D01*
X154585071Y-102422072D01*
X154376172Y-102447816D01*
X154004884Y-102570432D01*
X153745724Y-102708956D01*
X153607767Y-103009162D01*
X154813000Y-104214395D01*
X156018233Y-103009162D01*
X155880276Y-102708956D01*
X155531033Y-102533118D01*
X155154196Y-102428793D01*
X155063201Y-102422072D01*
X155912999Y-102422072D01*
X156086253Y-102405008D01*
X156252850Y-102354471D01*
X156406386Y-102272405D01*
X156540961Y-102161961D01*
X156651405Y-102027386D01*
X156733471Y-101873850D01*
X156784008Y-101707253D01*
X156801072Y-101533999D01*
X156801072Y-101137290D01*
X156891817Y-101062817D01*
X156919534Y-101029044D01*
X159281550Y-98667029D01*
X159315317Y-98639317D01*
X159425911Y-98504559D01*
X159490183Y-98384314D01*
X159508089Y-98350814D01*
X159558695Y-98183990D01*
X159559589Y-98174911D01*
X159571500Y-98053977D01*
X159571500Y-98053969D01*
X159575781Y-98010500D01*
X159571500Y-97967031D01*
X159571500Y-97094965D01*
X159575781Y-97051499D01*
X159571500Y-97008033D01*
X159571500Y-97008023D01*
X159558695Y-96878010D01*
X159508089Y-96711187D01*
X159425911Y-96557441D01*
X159315317Y-96422683D01*
X159281549Y-96394970D01*
X158812651Y-95926072D01*
X159423000Y-95926072D01*
X159547482Y-95913812D01*
X159667180Y-95877502D01*
X159777494Y-95818537D01*
X159874185Y-95739185D01*
X159953537Y-95642494D01*
X160012502Y-95532180D01*
X160048812Y-95412482D01*
X160052701Y-95373000D01*
X162450422Y-95373000D01*
X162578422Y-95501000D01*
X161837951Y-96241471D01*
X161804184Y-96269183D01*
X161776471Y-96302951D01*
X161776468Y-96302954D01*
X161693590Y-96403941D01*
X161611412Y-96557687D01*
X161560805Y-96724510D01*
X161557317Y-96759928D01*
X161533000Y-96759928D01*
X161408518Y-96772188D01*
X161288820Y-96808498D01*
X161178506Y-96867463D01*
X161081815Y-96946815D01*
X161002463Y-97043506D01*
X160943498Y-97153820D01*
X160907188Y-97273518D01*
X160894928Y-97398000D01*
X160894928Y-99198000D01*
X160907188Y-99322482D01*
X160943498Y-99442180D01*
X161002463Y-99552494D01*
X161081815Y-99649185D01*
X161178506Y-99728537D01*
X161288820Y-99787502D01*
X161307127Y-99793056D01*
X161240688Y-99859495D01*
X161072701Y-100110905D01*
X160956989Y-100390257D01*
X160898000Y-100686816D01*
X160898000Y-100989184D01*
X160956989Y-101285743D01*
X161072701Y-101565095D01*
X161240688Y-101816505D01*
X161454495Y-102030312D01*
X161548001Y-102092790D01*
X161548001Y-103080521D01*
X161543719Y-103124000D01*
X161560805Y-103297490D01*
X161611412Y-103464313D01*
X161693590Y-103618059D01*
X161776468Y-103719046D01*
X161776471Y-103719049D01*
X161804184Y-103752817D01*
X161837951Y-103780529D01*
X162087625Y-104030204D01*
X162070557Y-104203500D01*
X162098264Y-104484809D01*
X162180318Y-104755308D01*
X162313568Y-105004601D01*
X162492892Y-105223108D01*
X162711399Y-105402432D01*
X162960692Y-105535682D01*
X163231191Y-105617736D01*
X163442008Y-105638500D01*
X163582992Y-105638500D01*
X163793809Y-105617736D01*
X164064308Y-105535682D01*
X164313601Y-105402432D01*
X164532108Y-105223108D01*
X164711432Y-105004601D01*
X164844682Y-104755308D01*
X164926736Y-104484809D01*
X164954443Y-104203500D01*
X164926736Y-103922191D01*
X164844682Y-103651692D01*
X164711432Y-103402399D01*
X164532108Y-103183892D01*
X164313601Y-103004568D01*
X164064308Y-102871318D01*
X163793809Y-102789264D01*
X163582992Y-102768500D01*
X163442008Y-102768500D01*
X163339204Y-102778625D01*
X163318000Y-102757422D01*
X163318000Y-102092790D01*
X163411505Y-102030312D01*
X163625312Y-101816505D01*
X163793299Y-101565095D01*
X163909011Y-101285743D01*
X163968000Y-100989184D01*
X163968000Y-100686816D01*
X163909011Y-100390257D01*
X163793299Y-100110905D01*
X163625312Y-99859495D01*
X163558873Y-99793056D01*
X163577180Y-99787502D01*
X163687494Y-99728537D01*
X163784185Y-99649185D01*
X163863537Y-99552494D01*
X163922502Y-99442180D01*
X163958812Y-99322482D01*
X163971072Y-99198000D01*
X163971072Y-97398000D01*
X163958812Y-97273518D01*
X163922502Y-97153820D01*
X163863537Y-97043506D01*
X163784185Y-96946815D01*
X163702665Y-96879913D01*
X164425050Y-96157529D01*
X164458817Y-96129817D01*
X164514836Y-96061559D01*
X164569410Y-95995060D01*
X164569411Y-95995059D01*
X164651589Y-95841313D01*
X164702195Y-95674490D01*
X164715000Y-95544477D01*
X164715000Y-95544467D01*
X164719281Y-95501001D01*
X164718886Y-95496988D01*
X164715000Y-95457533D01*
X164715000Y-94865000D01*
X165239922Y-94865000D01*
X165350392Y-94999608D01*
X165568899Y-95178932D01*
X165701858Y-95250000D01*
X165568899Y-95321068D01*
X165350392Y-95500392D01*
X165171068Y-95718899D01*
X165037818Y-95968192D01*
X164955764Y-96238691D01*
X164928057Y-96520000D01*
X164955764Y-96801309D01*
X165037818Y-97071808D01*
X165171068Y-97321101D01*
X165350392Y-97539608D01*
X165485001Y-97650079D01*
X165485000Y-101556531D01*
X165480719Y-101600000D01*
X165485000Y-101643469D01*
X165485000Y-101643476D01*
X165497805Y-101773489D01*
X165548411Y-101940312D01*
X165630589Y-102094058D01*
X165741183Y-102228817D01*
X165774956Y-102256534D01*
X168380472Y-104862051D01*
X168408183Y-104895817D01*
X168441949Y-104923528D01*
X168441953Y-104923532D01*
X168542941Y-105006411D01*
X168696686Y-105088589D01*
X168863510Y-105139195D01*
X169037000Y-105156281D01*
X169210490Y-105139195D01*
X169377313Y-105088589D01*
X169377480Y-105088500D01*
X172537979Y-105088500D01*
X172557863Y-105118259D01*
X172757741Y-105318137D01*
X172992773Y-105475180D01*
X173253926Y-105583353D01*
X173531165Y-105638500D01*
X173813835Y-105638500D01*
X174091074Y-105583353D01*
X174352227Y-105475180D01*
X174587259Y-105318137D01*
X174787137Y-105118259D01*
X174944180Y-104883227D01*
X175052353Y-104622074D01*
X175107500Y-104344835D01*
X175107500Y-104062165D01*
X175052353Y-103784926D01*
X174944180Y-103523773D01*
X174787137Y-103288741D01*
X174587259Y-103088863D01*
X174352227Y-102931820D01*
X174091074Y-102823647D01*
X173813835Y-102768500D01*
X173531165Y-102768500D01*
X173253926Y-102823647D01*
X172992773Y-102931820D01*
X172757741Y-103088863D01*
X172557863Y-103288741D01*
X172537979Y-103318500D01*
X169340079Y-103318500D01*
X167255000Y-101233422D01*
X167255000Y-101068702D01*
X168731903Y-101068702D01*
X168803486Y-101312671D01*
X169058996Y-101433571D01*
X169333184Y-101502300D01*
X169615512Y-101516217D01*
X169895130Y-101474787D01*
X170161292Y-101379603D01*
X170286514Y-101312671D01*
X170358097Y-101068702D01*
X169545000Y-100255605D01*
X168731903Y-101068702D01*
X167255000Y-101068702D01*
X167255000Y-100146512D01*
X168104783Y-100146512D01*
X168146213Y-100426130D01*
X168241397Y-100692292D01*
X168308329Y-100817514D01*
X168552298Y-100889097D01*
X169365395Y-100076000D01*
X169724605Y-100076000D01*
X170537702Y-100889097D01*
X170781671Y-100817514D01*
X170902571Y-100562004D01*
X170971300Y-100287816D01*
X170985217Y-100005488D01*
X170943787Y-99725870D01*
X170848603Y-99459708D01*
X170781671Y-99334486D01*
X170537702Y-99262903D01*
X169724605Y-100076000D01*
X169365395Y-100076000D01*
X168552298Y-99262903D01*
X168308329Y-99334486D01*
X168187429Y-99589996D01*
X168118700Y-99864184D01*
X168104783Y-100146512D01*
X167255000Y-100146512D01*
X167255000Y-99083298D01*
X168731903Y-99083298D01*
X169545000Y-99896395D01*
X170358097Y-99083298D01*
X170286514Y-98839329D01*
X170031004Y-98718429D01*
X169756816Y-98649700D01*
X169474488Y-98635783D01*
X169194870Y-98677213D01*
X168928708Y-98772397D01*
X168803486Y-98839329D01*
X168731903Y-99083298D01*
X167255000Y-99083298D01*
X167255000Y-97650078D01*
X167389608Y-97539608D01*
X167500078Y-97405000D01*
X168026531Y-97405000D01*
X168070000Y-97409281D01*
X168113469Y-97405000D01*
X168113477Y-97405000D01*
X168243490Y-97392195D01*
X168410313Y-97341589D01*
X168564059Y-97259411D01*
X168698817Y-97148817D01*
X168726534Y-97115044D01*
X170457550Y-95384029D01*
X170491317Y-95356317D01*
X170520246Y-95321068D01*
X170601911Y-95221559D01*
X170674902Y-95085000D01*
X170684089Y-95067813D01*
X170734695Y-94900990D01*
X170747500Y-94770977D01*
X170747500Y-94770969D01*
X170751781Y-94727500D01*
X170747500Y-94684031D01*
X170747500Y-93959969D01*
X170751781Y-93916500D01*
X170747500Y-93873031D01*
X170747500Y-93873023D01*
X170734695Y-93743010D01*
X170684089Y-93576187D01*
X170601911Y-93422441D01*
X170571145Y-93384953D01*
X170519032Y-93321453D01*
X170519030Y-93321451D01*
X170491317Y-93287683D01*
X170457549Y-93259970D01*
X169522578Y-92325000D01*
X171083422Y-92325000D01*
X172565125Y-93806704D01*
X172548057Y-93980000D01*
X172575764Y-94261309D01*
X172657818Y-94531808D01*
X172791068Y-94781101D01*
X172970392Y-94999608D01*
X173188899Y-95178932D01*
X173321858Y-95250000D01*
X173188899Y-95321068D01*
X172970392Y-95500392D01*
X172791068Y-95718899D01*
X172657818Y-95968192D01*
X172575764Y-96238691D01*
X172548057Y-96520000D01*
X172575764Y-96801309D01*
X172657818Y-97071808D01*
X172791068Y-97321101D01*
X172970392Y-97539608D01*
X173188899Y-97718932D01*
X173438192Y-97852182D01*
X173708691Y-97934236D01*
X173919508Y-97955000D01*
X174060492Y-97955000D01*
X174271309Y-97934236D01*
X174541808Y-97852182D01*
X174791101Y-97718932D01*
X175009608Y-97539608D01*
X175120078Y-97405000D01*
X175323422Y-97405000D01*
X175772000Y-97853579D01*
X175772001Y-98111500D01*
X175667969Y-98111500D01*
X175624500Y-98107219D01*
X175581031Y-98111500D01*
X175581023Y-98111500D01*
X175451010Y-98124305D01*
X175284186Y-98174911D01*
X175130441Y-98257089D01*
X175029453Y-98339968D01*
X175029451Y-98339970D01*
X174995683Y-98367683D01*
X174967970Y-98401451D01*
X174721439Y-98647983D01*
X174686335Y-98641000D01*
X174403665Y-98641000D01*
X174126426Y-98696147D01*
X173865273Y-98804320D01*
X173630241Y-98961363D01*
X173430363Y-99161241D01*
X173273320Y-99396273D01*
X173165147Y-99657426D01*
X173110000Y-99934665D01*
X173110000Y-100217335D01*
X173165147Y-100494574D01*
X173273320Y-100755727D01*
X173430363Y-100990759D01*
X173630241Y-101190637D01*
X173865273Y-101347680D01*
X174126426Y-101455853D01*
X174403665Y-101511000D01*
X174686335Y-101511000D01*
X174963574Y-101455853D01*
X175224727Y-101347680D01*
X175459759Y-101190637D01*
X175659637Y-100990759D01*
X175816680Y-100755727D01*
X175924853Y-100494574D01*
X175980000Y-100217335D01*
X175980000Y-99934665D01*
X175973017Y-99899561D01*
X175991079Y-99881500D01*
X176296031Y-99881500D01*
X176339500Y-99885781D01*
X176382969Y-99881500D01*
X176382977Y-99881500D01*
X176512990Y-99868695D01*
X176679813Y-99818089D01*
X176833559Y-99735911D01*
X176968317Y-99625317D01*
X176996034Y-99591544D01*
X177252044Y-99335534D01*
X177285817Y-99307817D01*
X177396411Y-99173059D01*
X177478589Y-99019313D01*
X177529195Y-98852490D01*
X177542000Y-98722477D01*
X177542000Y-98722469D01*
X177546281Y-98679000D01*
X177542000Y-98635531D01*
X177542000Y-97530469D01*
X177546281Y-97487000D01*
X177542000Y-97443531D01*
X177542000Y-97443523D01*
X177529195Y-97313510D01*
X177479235Y-97148817D01*
X177478589Y-97146686D01*
X177396411Y-96992941D01*
X177313532Y-96891953D01*
X177313530Y-96891951D01*
X177285817Y-96858183D01*
X177252050Y-96830471D01*
X176346532Y-95924954D01*
X176318817Y-95891183D01*
X176184059Y-95780589D01*
X176030313Y-95698411D01*
X175863490Y-95647805D01*
X175733477Y-95635000D01*
X175733469Y-95635000D01*
X175690000Y-95630719D01*
X175646531Y-95635000D01*
X175120078Y-95635000D01*
X175009608Y-95500392D01*
X174791101Y-95321068D01*
X174658142Y-95250000D01*
X174791101Y-95178932D01*
X175009608Y-94999608D01*
X175120078Y-94865000D01*
X175646531Y-94865000D01*
X175690000Y-94869281D01*
X175733469Y-94865000D01*
X175733477Y-94865000D01*
X175863490Y-94852195D01*
X176030313Y-94801589D01*
X176184059Y-94719411D01*
X176318817Y-94608817D01*
X176346534Y-94575044D01*
X178166579Y-92755000D01*
X181165024Y-92755000D01*
X182561800Y-94151777D01*
X182561801Y-97126620D01*
X180434956Y-99253466D01*
X180401183Y-99281183D01*
X180290589Y-99415942D01*
X180208411Y-99569688D01*
X180157805Y-99736511D01*
X180145000Y-99866524D01*
X180145000Y-99866531D01*
X180140719Y-99910000D01*
X180145000Y-99953469D01*
X180145001Y-104275478D01*
X180115241Y-104295363D01*
X179915363Y-104495241D01*
X179898319Y-104520750D01*
X179855161Y-104525000D01*
X179855153Y-104525000D01*
X179725140Y-104537805D01*
X179558316Y-104588411D01*
X179404571Y-104670589D01*
X179303583Y-104753468D01*
X179303581Y-104753470D01*
X179269813Y-104781183D01*
X179242100Y-104814951D01*
X178601956Y-105455096D01*
X178568183Y-105482813D01*
X178457589Y-105617572D01*
X178375411Y-105771318D01*
X178324805Y-105938141D01*
X178312000Y-106068154D01*
X178312000Y-106068161D01*
X178307719Y-106111630D01*
X178312000Y-106155099D01*
X178312001Y-111891000D01*
X176239469Y-111891000D01*
X176196000Y-111886719D01*
X176152531Y-111891000D01*
X176152523Y-111891000D01*
X176033000Y-111902772D01*
X176033000Y-111822816D01*
X175974011Y-111526257D01*
X175858299Y-111246905D01*
X175690312Y-110995495D01*
X175476505Y-110781688D01*
X175390169Y-110724000D01*
X175476505Y-110666312D01*
X175690312Y-110452505D01*
X175858299Y-110201095D01*
X175974011Y-109921743D01*
X176033000Y-109625184D01*
X176033000Y-109322816D01*
X176011060Y-109212518D01*
X177760050Y-107463529D01*
X177793817Y-107435817D01*
X177904411Y-107301059D01*
X177904412Y-107301058D01*
X177986589Y-107147314D01*
X178037195Y-106980490D01*
X178041851Y-106933218D01*
X178050000Y-106850477D01*
X178050000Y-106850469D01*
X178054281Y-106807000D01*
X178050000Y-106763531D01*
X178050000Y-101585578D01*
X180935049Y-98700530D01*
X180968817Y-98672817D01*
X180999211Y-98635783D01*
X181079410Y-98538060D01*
X181092522Y-98513529D01*
X181161589Y-98384313D01*
X181212195Y-98217490D01*
X181225000Y-98087477D01*
X181225000Y-98087467D01*
X181229281Y-98044001D01*
X181225000Y-98000534D01*
X181225000Y-96380078D01*
X181359608Y-96269608D01*
X181538932Y-96051101D01*
X181672182Y-95801808D01*
X181754236Y-95531309D01*
X181781943Y-95250000D01*
X181754236Y-94968691D01*
X181672182Y-94698192D01*
X181538932Y-94448899D01*
X181359608Y-94230392D01*
X181141101Y-94051068D01*
X180891808Y-93917818D01*
X180621309Y-93835764D01*
X180410492Y-93815000D01*
X180269508Y-93815000D01*
X180058691Y-93835764D01*
X179788192Y-93917818D01*
X179538899Y-94051068D01*
X179320392Y-94230392D01*
X179141068Y-94448899D01*
X179007818Y-94698192D01*
X178925764Y-94968691D01*
X178898057Y-95250000D01*
X178925764Y-95531309D01*
X179007818Y-95801808D01*
X179141068Y-96051101D01*
X179320392Y-96269608D01*
X179455000Y-96380078D01*
X179455001Y-97677420D01*
X176569951Y-100562471D01*
X176536184Y-100590183D01*
X176508471Y-100623951D01*
X176508468Y-100623954D01*
X176425590Y-100724941D01*
X176343412Y-100878687D01*
X176292805Y-101045510D01*
X176275719Y-101219000D01*
X176280001Y-101262479D01*
X176280000Y-106440421D01*
X174759482Y-107960940D01*
X174649184Y-107939000D01*
X174346816Y-107939000D01*
X174050257Y-107997989D01*
X173770905Y-108113701D01*
X173519495Y-108281688D01*
X173305688Y-108495495D01*
X173137701Y-108746905D01*
X173021989Y-109026257D01*
X172963000Y-109322816D01*
X172963000Y-109625184D01*
X173021989Y-109921743D01*
X173137701Y-110201095D01*
X173305688Y-110452505D01*
X173519495Y-110666312D01*
X173605831Y-110724000D01*
X173519495Y-110781688D01*
X173305688Y-110995495D01*
X173137701Y-111246905D01*
X173021989Y-111526257D01*
X172963000Y-111822816D01*
X172963000Y-112125184D01*
X173021989Y-112421743D01*
X173137701Y-112701095D01*
X173305688Y-112952505D01*
X173519495Y-113166312D01*
X173605831Y-113224000D01*
X173519495Y-113281688D01*
X173305688Y-113495495D01*
X173137701Y-113746905D01*
X173021989Y-114026257D01*
X172963000Y-114322816D01*
X172963000Y-114625184D01*
X173021989Y-114921743D01*
X173137701Y-115201095D01*
X173305688Y-115452505D01*
X173519495Y-115666312D01*
X173770905Y-115834299D01*
X174050257Y-115950011D01*
X174346816Y-116009000D01*
X174649184Y-116009000D01*
X174945743Y-115950011D01*
X175225095Y-115834299D01*
X175476505Y-115666312D01*
X175690312Y-115452505D01*
X175858299Y-115201095D01*
X175974011Y-114921743D01*
X176033000Y-114625184D01*
X176033000Y-114322816D01*
X176011060Y-114212518D01*
X176562579Y-113661000D01*
X178830422Y-113661000D01*
X179122897Y-113953475D01*
X179086000Y-114138967D01*
X179086000Y-114461033D01*
X179148832Y-114776912D01*
X179272082Y-115074463D01*
X179451013Y-115342252D01*
X179678748Y-115569987D01*
X179946537Y-115748918D01*
X180244088Y-115872168D01*
X180559967Y-115935000D01*
X180882033Y-115935000D01*
X181197912Y-115872168D01*
X181495463Y-115748918D01*
X181763252Y-115569987D01*
X181897826Y-115435413D01*
X187265192Y-115435413D01*
X187360956Y-115699814D01*
X187650571Y-115840704D01*
X187962108Y-115922384D01*
X188283595Y-115941718D01*
X188602675Y-115897961D01*
X188907088Y-115792795D01*
X189081044Y-115699814D01*
X189176808Y-115435413D01*
X188221000Y-114479605D01*
X187265192Y-115435413D01*
X181897826Y-115435413D01*
X181990987Y-115342252D01*
X182169918Y-115074463D01*
X182293168Y-114776912D01*
X182356000Y-114461033D01*
X182356000Y-114362595D01*
X186579282Y-114362595D01*
X186623039Y-114681675D01*
X186728205Y-114986088D01*
X186821186Y-115160044D01*
X187085587Y-115255808D01*
X188041395Y-114300000D01*
X188400605Y-114300000D01*
X189356413Y-115255808D01*
X189620814Y-115160044D01*
X189761704Y-114870429D01*
X189843384Y-114558892D01*
X189862718Y-114237405D01*
X189818961Y-113918325D01*
X189713795Y-113613912D01*
X189620814Y-113439956D01*
X189356413Y-113344192D01*
X188400605Y-114300000D01*
X188041395Y-114300000D01*
X187085587Y-113344192D01*
X186821186Y-113439956D01*
X186680296Y-113729571D01*
X186598616Y-114041108D01*
X186579282Y-114362595D01*
X182356000Y-114362595D01*
X182356000Y-114138967D01*
X182293168Y-113823088D01*
X182169918Y-113525537D01*
X181990987Y-113257748D01*
X181897826Y-113164587D01*
X187265192Y-113164587D01*
X188221000Y-114120395D01*
X189176808Y-113164587D01*
X189081044Y-112900186D01*
X188791429Y-112759296D01*
X188479892Y-112677616D01*
X188158405Y-112658282D01*
X187839325Y-112702039D01*
X187534912Y-112807205D01*
X187360956Y-112900186D01*
X187265192Y-113164587D01*
X181897826Y-113164587D01*
X181763252Y-113030013D01*
X181495463Y-112851082D01*
X181197912Y-112727832D01*
X180882033Y-112665000D01*
X180559967Y-112665000D01*
X180374475Y-112701897D01*
X180082000Y-112409422D01*
X180082000Y-106491396D01*
X180115241Y-106524637D01*
X180350273Y-106681680D01*
X180611426Y-106789853D01*
X180888665Y-106845000D01*
X181171335Y-106845000D01*
X181448574Y-106789853D01*
X181709727Y-106681680D01*
X181944759Y-106524637D01*
X182144637Y-106324759D01*
X182301680Y-106089727D01*
X182409853Y-105828574D01*
X182465000Y-105551335D01*
X182465000Y-105268665D01*
X182409853Y-104991426D01*
X182301680Y-104730273D01*
X182144637Y-104495241D01*
X181944759Y-104295363D01*
X181915000Y-104275479D01*
X181915000Y-100276578D01*
X184041849Y-98149730D01*
X184075617Y-98122017D01*
X184103964Y-98087477D01*
X184186210Y-97987260D01*
X184186211Y-97987259D01*
X184268389Y-97833513D01*
X184318995Y-97666690D01*
X184331800Y-97536677D01*
X184331800Y-97536667D01*
X184336081Y-97493201D01*
X184331800Y-97449735D01*
X184331800Y-95413378D01*
X185080970Y-96162549D01*
X185108683Y-96196317D01*
X185142451Y-96224030D01*
X185142453Y-96224032D01*
X185238619Y-96302954D01*
X185243441Y-96306911D01*
X185397187Y-96389089D01*
X185564010Y-96439695D01*
X185694023Y-96452500D01*
X185694031Y-96452500D01*
X185737500Y-96456781D01*
X185780969Y-96452500D01*
X187101799Y-96452500D01*
X187105688Y-96491982D01*
X187141998Y-96611680D01*
X187200963Y-96721994D01*
X187280315Y-96818685D01*
X187377006Y-96898037D01*
X187487320Y-96957002D01*
X187607018Y-96993312D01*
X187731500Y-97005572D01*
X189331500Y-97005572D01*
X189455982Y-96993312D01*
X189575680Y-96957002D01*
X189685994Y-96898037D01*
X189782685Y-96818685D01*
X189862037Y-96721994D01*
X189921002Y-96611680D01*
X189936617Y-96560202D01*
X190218403Y-96560202D01*
X190289986Y-96804171D01*
X190545496Y-96925071D01*
X190819684Y-96993800D01*
X191102012Y-97007717D01*
X191381630Y-96966287D01*
X191647792Y-96871103D01*
X191773014Y-96804171D01*
X191844597Y-96560202D01*
X191031500Y-95747105D01*
X190218403Y-96560202D01*
X189936617Y-96560202D01*
X189957312Y-96491982D01*
X189969572Y-96367500D01*
X189969572Y-96360285D01*
X190038798Y-96380597D01*
X190851895Y-95567500D01*
X191211105Y-95567500D01*
X192024202Y-96380597D01*
X192268171Y-96309014D01*
X192389071Y-96053504D01*
X192457800Y-95779316D01*
X192471717Y-95496988D01*
X192430287Y-95217370D01*
X192335103Y-94951208D01*
X192268171Y-94825986D01*
X192024202Y-94754403D01*
X191211105Y-95567500D01*
X190851895Y-95567500D01*
X190038798Y-94754403D01*
X189969572Y-94774715D01*
X189969572Y-94767500D01*
X189957312Y-94643018D01*
X189936618Y-94574798D01*
X190218403Y-94574798D01*
X191031500Y-95387895D01*
X191844597Y-94574798D01*
X191773014Y-94330829D01*
X191517504Y-94209929D01*
X191243316Y-94141200D01*
X190960988Y-94127283D01*
X190681370Y-94168713D01*
X190415208Y-94263897D01*
X190289986Y-94330829D01*
X190218403Y-94574798D01*
X189936618Y-94574798D01*
X189921002Y-94523320D01*
X189862037Y-94413006D01*
X189782685Y-94316315D01*
X189685994Y-94236963D01*
X189575680Y-94177998D01*
X189455982Y-94141688D01*
X189331500Y-94129428D01*
X187731500Y-94129428D01*
X187607018Y-94141688D01*
X187487320Y-94177998D01*
X187377006Y-94236963D01*
X187280315Y-94316315D01*
X187200963Y-94413006D01*
X187141998Y-94523320D01*
X187105688Y-94643018D01*
X187101799Y-94682500D01*
X186104079Y-94682500D01*
X185532355Y-94110776D01*
X185522577Y-94011501D01*
X185457676Y-93797553D01*
X185451703Y-93786379D01*
X185493502Y-93708180D01*
X185529812Y-93588482D01*
X185542072Y-93464000D01*
X185542072Y-92464000D01*
X185529812Y-92339518D01*
X185493502Y-92219820D01*
X185434537Y-92109506D01*
X185355185Y-92012815D01*
X185258494Y-91933463D01*
X185148180Y-91874498D01*
X185028482Y-91838188D01*
X184904000Y-91825928D01*
X183904000Y-91825928D01*
X183779518Y-91838188D01*
X183659820Y-91874498D01*
X183549506Y-91933463D01*
X183452815Y-92012815D01*
X183373463Y-92109506D01*
X183314498Y-92219820D01*
X183278188Y-92339518D01*
X183275903Y-92362722D01*
X182188136Y-91274956D01*
X182160419Y-91241183D01*
X182025661Y-91130589D01*
X181871915Y-91048411D01*
X181705092Y-90997805D01*
X181575079Y-90985000D01*
X181575071Y-90985000D01*
X181531602Y-90980719D01*
X181488133Y-90985000D01*
X177843469Y-90985000D01*
X177800000Y-90980719D01*
X177756531Y-90985000D01*
X177756523Y-90985000D01*
X177626510Y-90997805D01*
X177459686Y-91048411D01*
X177305941Y-91130589D01*
X177204953Y-91213468D01*
X177204951Y-91213470D01*
X177171183Y-91241183D01*
X177143470Y-91274951D01*
X175323422Y-93095000D01*
X175120078Y-93095000D01*
X175009608Y-92960392D01*
X174791101Y-92781068D01*
X174658142Y-92710000D01*
X174791101Y-92638932D01*
X175009608Y-92459608D01*
X175188932Y-92241101D01*
X175322182Y-91991808D01*
X175404236Y-91721309D01*
X175431943Y-91440000D01*
X175414875Y-91266704D01*
X180163561Y-86518017D01*
X180198665Y-86525000D01*
X180481335Y-86525000D01*
X180758574Y-86469853D01*
X181019727Y-86361680D01*
X181254759Y-86204637D01*
X181300766Y-86158630D01*
X181332911Y-86185011D01*
X181486657Y-86267189D01*
X181653480Y-86317795D01*
X181783493Y-86330600D01*
X181783503Y-86330600D01*
X181826969Y-86334881D01*
X181870435Y-86330600D01*
X184342222Y-86330600D01*
X184966670Y-86955049D01*
X184994383Y-86988817D01*
X185028151Y-87016530D01*
X185028153Y-87016532D01*
X185129141Y-87099411D01*
X185282886Y-87181589D01*
X185449710Y-87232195D01*
X185579723Y-87245000D01*
X185579731Y-87245000D01*
X185623200Y-87249281D01*
X185666669Y-87245000D01*
X186890718Y-87245000D01*
X186841423Y-87407501D01*
X186819509Y-87630000D01*
X186841423Y-87852499D01*
X186906324Y-88066447D01*
X187011716Y-88263623D01*
X187153551Y-88436449D01*
X187326377Y-88578284D01*
X187523553Y-88683676D01*
X187737501Y-88748577D01*
X187836777Y-88758355D01*
X192663000Y-93584579D01*
X192663001Y-100725420D01*
X189434957Y-103953465D01*
X189434952Y-103953469D01*
X189406438Y-103981983D01*
X189371335Y-103975000D01*
X189088665Y-103975000D01*
X188811426Y-104030147D01*
X188550273Y-104138320D01*
X188315241Y-104295363D01*
X188115363Y-104495241D01*
X187958320Y-104730273D01*
X187850147Y-104991426D01*
X187795000Y-105268665D01*
X187795000Y-105551335D01*
X187850147Y-105828574D01*
X187958320Y-106089727D01*
X188115363Y-106324759D01*
X188315241Y-106524637D01*
X188550273Y-106681680D01*
X188811426Y-106789853D01*
X189088665Y-106845000D01*
X189371335Y-106845000D01*
X189648574Y-106789853D01*
X189909727Y-106681680D01*
X190144759Y-106524637D01*
X190344637Y-106324759D01*
X190501680Y-106089727D01*
X190609853Y-105828574D01*
X190665000Y-105551335D01*
X190665000Y-105268665D01*
X190658017Y-105233562D01*
X190686531Y-105205048D01*
X190686535Y-105205043D01*
X194143049Y-101748530D01*
X194176817Y-101720817D01*
X194287411Y-101586059D01*
X194369589Y-101432313D01*
X194420195Y-101265490D01*
X194433000Y-101135477D01*
X194433000Y-101135469D01*
X194437281Y-101092000D01*
X194433000Y-101048531D01*
X194433000Y-93261465D01*
X194437281Y-93217999D01*
X194433000Y-93174533D01*
X194433000Y-93174523D01*
X194420195Y-93044510D01*
X194369589Y-92877687D01*
X194287411Y-92723941D01*
X194259564Y-92690010D01*
X194204532Y-92622953D01*
X194204530Y-92622951D01*
X194176817Y-92589183D01*
X194143051Y-92561472D01*
X189088355Y-87506777D01*
X189078577Y-87407501D01*
X189013676Y-87193553D01*
X189007703Y-87182379D01*
X189049502Y-87104180D01*
X189085812Y-86984482D01*
X189098072Y-86860000D01*
X189098072Y-85860000D01*
X189085812Y-85735518D01*
X189049502Y-85615820D01*
X188990537Y-85505506D01*
X188911185Y-85408815D01*
X188814494Y-85329463D01*
X188704180Y-85270498D01*
X188584482Y-85234188D01*
X188460000Y-85221928D01*
X187460000Y-85221928D01*
X187335518Y-85234188D01*
X187215820Y-85270498D01*
X187105506Y-85329463D01*
X187008815Y-85408815D01*
X186954499Y-85475000D01*
X185989779Y-85475000D01*
X185833378Y-85318600D01*
X188345504Y-82806475D01*
X188448308Y-82816600D01*
X188589292Y-82816600D01*
X188800109Y-82795836D01*
X189070608Y-82713782D01*
X189319901Y-82580532D01*
X189538408Y-82401208D01*
X189717732Y-82182701D01*
X189850982Y-81933408D01*
X189933036Y-81662909D01*
X189960743Y-81381600D01*
X189933036Y-81100291D01*
X189850982Y-80829792D01*
X189717732Y-80580499D01*
X189538408Y-80361992D01*
X189319901Y-80182668D01*
X189070608Y-80049418D01*
X188800109Y-79967364D01*
X188589292Y-79946600D01*
X188448308Y-79946600D01*
X188237491Y-79967364D01*
X187966992Y-80049418D01*
X187717699Y-80182668D01*
X187499192Y-80361992D01*
X187319868Y-80580499D01*
X187186618Y-80829792D01*
X187104564Y-81100291D01*
X187076857Y-81381600D01*
X187093925Y-81554896D01*
X184316956Y-84331866D01*
X184283183Y-84359583D01*
X184172589Y-84494342D01*
X184137174Y-84560600D01*
X182193548Y-84560600D01*
X182127904Y-84494956D01*
X182100187Y-84461183D01*
X181965429Y-84350589D01*
X181811683Y-84268411D01*
X181644860Y-84217805D01*
X181514847Y-84205000D01*
X181514839Y-84205000D01*
X181471681Y-84200750D01*
X181454637Y-84175241D01*
X181254759Y-83975363D01*
X181019727Y-83818320D01*
X180758574Y-83710147D01*
X180481335Y-83655000D01*
X180198665Y-83655000D01*
X179921426Y-83710147D01*
X179660273Y-83818320D01*
X179425241Y-83975363D01*
X179225363Y-84175241D01*
X179068320Y-84410273D01*
X178960147Y-84671426D01*
X178905000Y-84948665D01*
X178905000Y-85231335D01*
X178911983Y-85266439D01*
X175418178Y-88760244D01*
X175404236Y-88618691D01*
X175322182Y-88348192D01*
X175188932Y-88098899D01*
X175009608Y-87880392D01*
X174791101Y-87701068D01*
X174541808Y-87567818D01*
X174271309Y-87485764D01*
X174060492Y-87465000D01*
X173919508Y-87465000D01*
X173708691Y-87485764D01*
X173438192Y-87567818D01*
X173188899Y-87701068D01*
X172970392Y-87880392D01*
X172859922Y-88015000D01*
X172333465Y-88015000D01*
X172289999Y-88010719D01*
X172246533Y-88015000D01*
X172246523Y-88015000D01*
X172116510Y-88027805D01*
X171949687Y-88078411D01*
X171924999Y-88091607D01*
X171924999Y-87441379D01*
X175372579Y-83993800D01*
X176588131Y-83993800D01*
X176631600Y-83998081D01*
X176675069Y-83993800D01*
X176675077Y-83993800D01*
X176805090Y-83980995D01*
X176971913Y-83930389D01*
X177125659Y-83848211D01*
X177260417Y-83737617D01*
X177288134Y-83703844D01*
X178182361Y-82809617D01*
X178217465Y-82816600D01*
X178500135Y-82816600D01*
X178777374Y-82761453D01*
X179038527Y-82653280D01*
X179273559Y-82496237D01*
X179473437Y-82296359D01*
X179630480Y-82061327D01*
X179738653Y-81800174D01*
X179793800Y-81522935D01*
X179793800Y-81240265D01*
X179738653Y-80963026D01*
X179630480Y-80701873D01*
X179473437Y-80466841D01*
X179273559Y-80266963D01*
X179038527Y-80109920D01*
X178777374Y-80001747D01*
X178500135Y-79946600D01*
X178217465Y-79946600D01*
X177940226Y-80001747D01*
X177679073Y-80109920D01*
X177444041Y-80266963D01*
X177244163Y-80466841D01*
X177087120Y-80701873D01*
X176978947Y-80963026D01*
X176923800Y-81240265D01*
X176923800Y-81522935D01*
X176930783Y-81558039D01*
X176265022Y-82223800D01*
X175372579Y-82223800D01*
X173996872Y-80848094D01*
X173996872Y-79011601D01*
X173979808Y-78838347D01*
X173929271Y-78671750D01*
X173847205Y-78518214D01*
X173736761Y-78383639D01*
X173602186Y-78273195D01*
X173448650Y-78191129D01*
X173282053Y-78140592D01*
X173108799Y-78123528D01*
X170908801Y-78123528D01*
X170735547Y-78140592D01*
X170568950Y-78191129D01*
X170415414Y-78273195D01*
X170280839Y-78383639D01*
X170170395Y-78518214D01*
X170088329Y-78671750D01*
X170037792Y-78838347D01*
X170020728Y-79011601D01*
X170020728Y-79883671D01*
X169994984Y-79674772D01*
X169872368Y-79303484D01*
X169733844Y-79044324D01*
X169433638Y-78906367D01*
X168228405Y-80111600D01*
X169433638Y-81316833D01*
X169733844Y-81178876D01*
X169909682Y-80829633D01*
X170014007Y-80452796D01*
X170020728Y-80361801D01*
X170020728Y-81211599D01*
X170037792Y-81384853D01*
X170088329Y-81551450D01*
X170170395Y-81704986D01*
X170280839Y-81839561D01*
X170415414Y-81950005D01*
X170568950Y-82032071D01*
X170735547Y-82082608D01*
X170908801Y-82099672D01*
X172745294Y-82099672D01*
X173754421Y-83108800D01*
X170444950Y-86418271D01*
X170411183Y-86445984D01*
X170383470Y-86479752D01*
X170383467Y-86479755D01*
X170300589Y-86580742D01*
X170218411Y-86734488D01*
X170167804Y-86901311D01*
X170150718Y-87074801D01*
X170155000Y-87118280D01*
X170154999Y-89265001D01*
X167805473Y-89265001D01*
X167805000Y-89185750D01*
X167646250Y-89027000D01*
X166497000Y-89027000D01*
X166497000Y-89047000D01*
X166243000Y-89047000D01*
X166243000Y-89027000D01*
X165093750Y-89027000D01*
X164935000Y-89185750D01*
X164934527Y-89265001D01*
X164147468Y-89265001D01*
X164103999Y-89260720D01*
X164060530Y-89265001D01*
X164060522Y-89265001D01*
X163930509Y-89277806D01*
X163763686Y-89328412D01*
X163609940Y-89410590D01*
X163475182Y-89521184D01*
X163447467Y-89554955D01*
X163044452Y-89957970D01*
X163010684Y-89985683D01*
X162982971Y-90019451D01*
X162982968Y-90019454D01*
X162900090Y-90120441D01*
X162817912Y-90274187D01*
X162767305Y-90441010D01*
X162750219Y-90614500D01*
X162754501Y-90657979D01*
X162754500Y-91652922D01*
X162718017Y-91616439D01*
X162725000Y-91581335D01*
X162725000Y-91298665D01*
X162669853Y-91021426D01*
X162561680Y-90760273D01*
X162404637Y-90525241D01*
X162204759Y-90325363D01*
X161969727Y-90168320D01*
X161708574Y-90060147D01*
X161431335Y-90005000D01*
X161148665Y-90005000D01*
X160871426Y-90060147D01*
X160610273Y-90168320D01*
X160375241Y-90325363D01*
X160175363Y-90525241D01*
X160018320Y-90760273D01*
X159910147Y-91021426D01*
X159855000Y-91298665D01*
X159855000Y-91581335D01*
X159910147Y-91858574D01*
X160018320Y-92119727D01*
X160175363Y-92354759D01*
X160375241Y-92554637D01*
X160610273Y-92711680D01*
X160871426Y-92819853D01*
X161148665Y-92875000D01*
X161431335Y-92875000D01*
X161466439Y-92868017D01*
X162201421Y-93603000D01*
X160052701Y-93603000D01*
X160048812Y-93563518D01*
X160012502Y-93443820D01*
X159953537Y-93333506D01*
X159874185Y-93236815D01*
X159777494Y-93157463D01*
X159667180Y-93098498D01*
X159547482Y-93062188D01*
X159423000Y-93049928D01*
X157823000Y-93049928D01*
X157698518Y-93062188D01*
X157578820Y-93098498D01*
X157468506Y-93157463D01*
X157371815Y-93236815D01*
X157292463Y-93333506D01*
X157233498Y-93443820D01*
X157204339Y-93539943D01*
X157037759Y-93373363D01*
X156802727Y-93216320D01*
X156541574Y-93108147D01*
X156264335Y-93053000D01*
X155981665Y-93053000D01*
X155704426Y-93108147D01*
X155443273Y-93216320D01*
X155208241Y-93373363D01*
X155008363Y-93573241D01*
X154851320Y-93808273D01*
X154743147Y-94069426D01*
X154688000Y-94346665D01*
X154688000Y-94629335D01*
X154743147Y-94906574D01*
X154851320Y-95167727D01*
X155008363Y-95402759D01*
X155208241Y-95602637D01*
X155443273Y-95759680D01*
X155704426Y-95867853D01*
X155981665Y-95923000D01*
X156264335Y-95923000D01*
X156299439Y-95916017D01*
X157801501Y-97418079D01*
X157801500Y-97643921D01*
X156630401Y-98815021D01*
X156540961Y-98706039D01*
X156406386Y-98595595D01*
X156252850Y-98513529D01*
X156086253Y-98462992D01*
X155912999Y-98445928D01*
X153713001Y-98445928D01*
X153539747Y-98462992D01*
X153373150Y-98513529D01*
X153219614Y-98595595D01*
X153085039Y-98706039D01*
X152974595Y-98840614D01*
X152892529Y-98994150D01*
X152841992Y-99160747D01*
X152824928Y-99334001D01*
X147193000Y-99334001D01*
X147193000Y-88847500D01*
X154227428Y-88847500D01*
X154239688Y-88971982D01*
X154275998Y-89091680D01*
X154334963Y-89201994D01*
X154414315Y-89298685D01*
X154511006Y-89378037D01*
X154621320Y-89437002D01*
X154741018Y-89473312D01*
X154865500Y-89485572D01*
X155479750Y-89482500D01*
X155638500Y-89323750D01*
X155638500Y-88074500D01*
X155892500Y-88074500D01*
X155892500Y-89323750D01*
X156051250Y-89482500D01*
X156665500Y-89485572D01*
X156789982Y-89473312D01*
X156909680Y-89437002D01*
X157019994Y-89378037D01*
X157116685Y-89298685D01*
X157196037Y-89201994D01*
X157255002Y-89091680D01*
X157291312Y-88971982D01*
X157303572Y-88847500D01*
X157300500Y-88233250D01*
X157167250Y-88100000D01*
X164931928Y-88100000D01*
X164935000Y-88614250D01*
X165093750Y-88773000D01*
X166243000Y-88773000D01*
X166243000Y-87623750D01*
X166497000Y-87623750D01*
X166497000Y-88773000D01*
X167646250Y-88773000D01*
X167805000Y-88614250D01*
X167808072Y-88100000D01*
X167795812Y-87975518D01*
X167759502Y-87855820D01*
X167700537Y-87745506D01*
X167621185Y-87648815D01*
X167524494Y-87569463D01*
X167414180Y-87510498D01*
X167294482Y-87474188D01*
X167170000Y-87461928D01*
X166655750Y-87465000D01*
X166497000Y-87623750D01*
X166243000Y-87623750D01*
X166084250Y-87465000D01*
X165570000Y-87461928D01*
X165445518Y-87474188D01*
X165325820Y-87510498D01*
X165215506Y-87569463D01*
X165118815Y-87648815D01*
X165039463Y-87745506D01*
X164980498Y-87855820D01*
X164944188Y-87975518D01*
X164931928Y-88100000D01*
X157167250Y-88100000D01*
X157141750Y-88074500D01*
X155892500Y-88074500D01*
X155638500Y-88074500D01*
X154389250Y-88074500D01*
X154230500Y-88233250D01*
X154227428Y-88847500D01*
X147193000Y-88847500D01*
X147193000Y-87047500D01*
X154227428Y-87047500D01*
X154230500Y-87661750D01*
X154389250Y-87820500D01*
X155638500Y-87820500D01*
X155638500Y-87800500D01*
X155892500Y-87800500D01*
X155892500Y-87820500D01*
X157141750Y-87820500D01*
X157300500Y-87661750D01*
X157303572Y-87047500D01*
X157291312Y-86923018D01*
X157255002Y-86803320D01*
X157196037Y-86693006D01*
X157116685Y-86596315D01*
X157019994Y-86516963D01*
X156909680Y-86457998D01*
X156891373Y-86452444D01*
X156957812Y-86386005D01*
X157125799Y-86134595D01*
X157241511Y-85855243D01*
X157300500Y-85558684D01*
X157300500Y-85256316D01*
X157278560Y-85146018D01*
X160204843Y-82219736D01*
X160270392Y-82299608D01*
X160488899Y-82478932D01*
X160738192Y-82612182D01*
X161008691Y-82694236D01*
X161219508Y-82715000D01*
X161360492Y-82715000D01*
X161571309Y-82694236D01*
X161841808Y-82612182D01*
X162091101Y-82478932D01*
X162309608Y-82299608D01*
X162488932Y-82081101D01*
X162622182Y-81831808D01*
X162704236Y-81561309D01*
X162710625Y-81496438D01*
X166843567Y-81496438D01*
X166981524Y-81796644D01*
X167330767Y-81972482D01*
X167707604Y-82076807D01*
X168097553Y-82105609D01*
X168485628Y-82057784D01*
X168856916Y-81935168D01*
X169116076Y-81796644D01*
X169254033Y-81496438D01*
X168048800Y-80291205D01*
X166843567Y-81496438D01*
X162710625Y-81496438D01*
X162731943Y-81280000D01*
X162704236Y-80998691D01*
X162622182Y-80728192D01*
X162488932Y-80478899D01*
X162309608Y-80260392D01*
X162187711Y-80160353D01*
X166054791Y-80160353D01*
X166102616Y-80548428D01*
X166225232Y-80919716D01*
X166363756Y-81178876D01*
X166663962Y-81316833D01*
X167869195Y-80111600D01*
X166663962Y-78906367D01*
X166363756Y-79044324D01*
X166187918Y-79393567D01*
X166083593Y-79770404D01*
X166054791Y-80160353D01*
X162187711Y-80160353D01*
X162091101Y-80081068D01*
X161841808Y-79947818D01*
X161571309Y-79865764D01*
X161360492Y-79845000D01*
X161219508Y-79845000D01*
X161008691Y-79865764D01*
X160738192Y-79947818D01*
X160488899Y-80081068D01*
X160270392Y-80260392D01*
X160159922Y-80395000D01*
X159936465Y-80395000D01*
X159892999Y-80390719D01*
X159849533Y-80395000D01*
X159849523Y-80395000D01*
X159719510Y-80407805D01*
X159552687Y-80458411D01*
X159398941Y-80540589D01*
X159398939Y-80540590D01*
X159398940Y-80540590D01*
X159297953Y-80623468D01*
X159297951Y-80623470D01*
X159264183Y-80651183D01*
X159236470Y-80684951D01*
X156026982Y-83894440D01*
X155916684Y-83872500D01*
X155614316Y-83872500D01*
X155317757Y-83931489D01*
X155038405Y-84047201D01*
X154786995Y-84215188D01*
X154573188Y-84428995D01*
X154405201Y-84680405D01*
X154289489Y-84959757D01*
X154230500Y-85256316D01*
X154230500Y-85558684D01*
X154289489Y-85855243D01*
X154405201Y-86134595D01*
X154573188Y-86386005D01*
X154639627Y-86452444D01*
X154621320Y-86457998D01*
X154511006Y-86516963D01*
X154414315Y-86596315D01*
X154334963Y-86693006D01*
X154275998Y-86803320D01*
X154239688Y-86923018D01*
X154227428Y-87047500D01*
X147193000Y-87047500D01*
X147193000Y-78726762D01*
X166843567Y-78726762D01*
X168048800Y-79931995D01*
X169254033Y-78726762D01*
X169116076Y-78426556D01*
X168766833Y-78250718D01*
X168389996Y-78146393D01*
X168000047Y-78117591D01*
X167611972Y-78165416D01*
X167240684Y-78288032D01*
X166981524Y-78426556D01*
X166843567Y-78726762D01*
X147193000Y-78726762D01*
X147193000Y-71818500D01*
X197612000Y-71818500D01*
X197612000Y-119697500D01*
M02*
