G04 #@! TF.GenerationSoftware,KiCad,Pcbnew,(5.1.2)-1*
G04 #@! TF.CreationDate,2019-07-05T22:38:24-05:00*
G04 #@! TF.ProjectId,Proyecto,50726f79-6563-4746-9f2e-6b696361645f,rev?*
G04 #@! TF.SameCoordinates,Original*
G04 #@! TF.FileFunction,Legend,Top*
G04 #@! TF.FilePolarity,Positive*
%FSLAX46Y46*%
G04 Gerber Fmt 4.6, Leading zero omitted, Abs format (unit mm)*
G04 Created by KiCad (PCBNEW (5.1.2)-1) date 2019-07-05 22:38:24*
%MOMM*%
%LPD*%
G04 APERTURE LIST*
%ADD10C,0.120000*%
%ADD11C,0.150000*%
G04 APERTURE END LIST*
D10*
X127412300Y-65468500D02*
X127412300Y-66403500D01*
X127412300Y-66403500D02*
X126352300Y-66403500D01*
X127412300Y-57788500D02*
X119292300Y-57788500D01*
X119292300Y-57788500D02*
X119292300Y-64258500D01*
X127412300Y-64258500D02*
X119292300Y-64258500D01*
X127412300Y-57788500D02*
X127412300Y-64258500D01*
X121352300Y-57788500D02*
X121352300Y-64258500D01*
X123352300Y-57788500D02*
X123352300Y-64258500D01*
X125352300Y-57788500D02*
X125352300Y-64258500D01*
X119992300Y-64258500D02*
X119992300Y-64605583D01*
X120712300Y-64258500D02*
X120712300Y-64605583D01*
X121992300Y-64258500D02*
X121992300Y-64605583D01*
X122712300Y-64258500D02*
X122712300Y-64605583D01*
X123992300Y-64258500D02*
X123992300Y-64605583D01*
X124712300Y-64258500D02*
X124712300Y-64605583D01*
X125992300Y-64258500D02*
X125992300Y-64533500D01*
X126712300Y-64258500D02*
X126712300Y-64533500D01*
X125466412Y-57788500D02*
X125466412Y-64258500D01*
X125580530Y-57788500D02*
X125580530Y-64258500D01*
X125694648Y-57788500D02*
X125694648Y-64258500D01*
X125808766Y-57788500D02*
X125808766Y-64258500D01*
X125922884Y-57788500D02*
X125922884Y-64258500D01*
X126037002Y-57788500D02*
X126037002Y-64258500D01*
X126151120Y-57788500D02*
X126151120Y-64258500D01*
X126265238Y-57788500D02*
X126265238Y-64258500D01*
X126379356Y-57788500D02*
X126379356Y-64258500D01*
X126493474Y-57788500D02*
X126493474Y-64258500D01*
X126607592Y-57788500D02*
X126607592Y-64258500D01*
X126721710Y-57788500D02*
X126721710Y-64258500D01*
X126835828Y-57788500D02*
X126835828Y-64258500D01*
X126949946Y-57788500D02*
X126949946Y-64258500D01*
X127064064Y-57788500D02*
X127064064Y-64258500D01*
X127178182Y-57788500D02*
X127178182Y-64258500D01*
X127292300Y-57788500D02*
X127292300Y-64258500D01*
D11*
X157812414Y-99183200D02*
G75*
G03X157812414Y-99183200I-447214J0D01*
G01*
X147065200Y-84583200D02*
X159665200Y-84583200D01*
X159665200Y-88483200D02*
X159665200Y-99883200D01*
X147065200Y-88483200D02*
X147065200Y-99883200D01*
X159665200Y-103783200D02*
X147065200Y-103783200D01*
X150365200Y-89183200D02*
X157365200Y-89183200D01*
X156365200Y-94183200D02*
X149365200Y-94183200D01*
X157365200Y-89183200D02*
X156365200Y-94183200D01*
X155365200Y-99183200D02*
X156365200Y-94183200D01*
X148365200Y-99183200D02*
X155365200Y-99183200D01*
X149365200Y-94183200D02*
X148365200Y-99183200D01*
X150365200Y-89183200D02*
X149365200Y-94183200D01*
X164690800Y-89157800D02*
X163690800Y-94157800D01*
X163690800Y-94157800D02*
X162690800Y-99157800D01*
X162690800Y-99157800D02*
X169690800Y-99157800D01*
X169690800Y-99157800D02*
X170690800Y-94157800D01*
X171690800Y-89157800D02*
X170690800Y-94157800D01*
X170690800Y-94157800D02*
X163690800Y-94157800D01*
X164690800Y-89157800D02*
X171690800Y-89157800D01*
X173990800Y-103757800D02*
X161390800Y-103757800D01*
X161390800Y-88457800D02*
X161390800Y-99857800D01*
X173990800Y-88457800D02*
X173990800Y-99857800D01*
X161390800Y-84557800D02*
X173990800Y-84557800D01*
X172138014Y-99157800D02*
G75*
G03X172138014Y-99157800I-447214J0D01*
G01*
D10*
X128457000Y-89798400D02*
G75*
G02X128457000Y-87798400I0J1000000D01*
G01*
X128457000Y-87798400D02*
X128457000Y-86148400D01*
X128457000Y-86148400D02*
X108017000Y-86148400D01*
X108017000Y-86148400D02*
X108017000Y-91448400D01*
X108017000Y-91448400D02*
X128457000Y-91448400D01*
X128457000Y-91448400D02*
X128457000Y-89798400D01*
X128517000Y-83658400D02*
X107957000Y-83658400D01*
X107957000Y-83658400D02*
X107957000Y-93938400D01*
X107957000Y-93938400D02*
X128517000Y-93938400D01*
X128517000Y-93938400D02*
X128517000Y-83658400D01*
X142487400Y-100862000D02*
X142487400Y-101192000D01*
X142487400Y-101192000D02*
X135947400Y-101192000D01*
X135947400Y-101192000D02*
X135947400Y-100862000D01*
X142487400Y-98782000D02*
X142487400Y-98452000D01*
X142487400Y-98452000D02*
X135947400Y-98452000D01*
X135947400Y-98452000D02*
X135947400Y-98782000D01*
X132782000Y-72812400D02*
G75*
G02X132782000Y-74812400I0J-1000000D01*
G01*
X132782000Y-74812400D02*
X132782000Y-76462400D01*
X132782000Y-76462400D02*
X153222000Y-76462400D01*
X153222000Y-76462400D02*
X153222000Y-71162400D01*
X153222000Y-71162400D02*
X132782000Y-71162400D01*
X132782000Y-71162400D02*
X132782000Y-72812400D01*
X132722000Y-78952400D02*
X153282000Y-78952400D01*
X153282000Y-78952400D02*
X153282000Y-68672400D01*
X153282000Y-68672400D02*
X132722000Y-68672400D01*
X132722000Y-68672400D02*
X132722000Y-78952400D01*
X121652400Y-75731000D02*
X126152400Y-75731000D01*
X120402400Y-71731000D02*
X120402400Y-73231000D01*
X126152400Y-69231000D02*
X121652400Y-69231000D01*
X127402400Y-73231000D02*
X127402400Y-71731000D01*
X142487400Y-103935400D02*
X142487400Y-104265400D01*
X142487400Y-104265400D02*
X135947400Y-104265400D01*
X135947400Y-104265400D02*
X135947400Y-103935400D01*
X142487400Y-101855400D02*
X142487400Y-101525400D01*
X142487400Y-101525400D02*
X135947400Y-101525400D01*
X135947400Y-101525400D02*
X135947400Y-101855400D01*
X142487400Y-97737800D02*
X142487400Y-98067800D01*
X142487400Y-98067800D02*
X135947400Y-98067800D01*
X135947400Y-98067800D02*
X135947400Y-97737800D01*
X142487400Y-95657800D02*
X142487400Y-95327800D01*
X142487400Y-95327800D02*
X135947400Y-95327800D01*
X135947400Y-95327800D02*
X135947400Y-95657800D01*
X142487400Y-94639000D02*
X142487400Y-94969000D01*
X142487400Y-94969000D02*
X135947400Y-94969000D01*
X135947400Y-94969000D02*
X135947400Y-94639000D01*
X142487400Y-92559000D02*
X142487400Y-92229000D01*
X142487400Y-92229000D02*
X135947400Y-92229000D01*
X135947400Y-92229000D02*
X135947400Y-92559000D01*
X135922000Y-89460200D02*
X135922000Y-89130200D01*
X135922000Y-89130200D02*
X142462000Y-89130200D01*
X142462000Y-89130200D02*
X142462000Y-89460200D01*
X135922000Y-91540200D02*
X135922000Y-91870200D01*
X135922000Y-91870200D02*
X142462000Y-91870200D01*
X142462000Y-91870200D02*
X142462000Y-91540200D01*
X135922000Y-86336000D02*
X135922000Y-86006000D01*
X135922000Y-86006000D02*
X142462000Y-86006000D01*
X142462000Y-86006000D02*
X142462000Y-86336000D01*
X135922000Y-88416000D02*
X135922000Y-88746000D01*
X135922000Y-88746000D02*
X142462000Y-88746000D01*
X142462000Y-88746000D02*
X142462000Y-88416000D01*
X142462000Y-85266400D02*
X142462000Y-85596400D01*
X142462000Y-85596400D02*
X135922000Y-85596400D01*
X135922000Y-85596400D02*
X135922000Y-85266400D01*
X142462000Y-83186400D02*
X142462000Y-82856400D01*
X142462000Y-82856400D02*
X135922000Y-82856400D01*
X135922000Y-82856400D02*
X135922000Y-83186400D01*
X166033200Y-82167600D02*
X166033200Y-82497600D01*
X166033200Y-82497600D02*
X159493200Y-82497600D01*
X159493200Y-82497600D02*
X159493200Y-82167600D01*
X166033200Y-80087600D02*
X166033200Y-79757600D01*
X166033200Y-79757600D02*
X159493200Y-79757600D01*
X159493200Y-79757600D02*
X159493200Y-80087600D01*
X166058600Y-75944600D02*
X166058600Y-76274600D01*
X166058600Y-76274600D02*
X159518600Y-76274600D01*
X159518600Y-76274600D02*
X159518600Y-75944600D01*
X166058600Y-73864600D02*
X166058600Y-73534600D01*
X166058600Y-73534600D02*
X159518600Y-73534600D01*
X159518600Y-73534600D02*
X159518600Y-73864600D01*
X166058600Y-79068800D02*
X166058600Y-79398800D01*
X166058600Y-79398800D02*
X159518600Y-79398800D01*
X159518600Y-79398800D02*
X159518600Y-79068800D01*
X166058600Y-76988800D02*
X166058600Y-76658800D01*
X166058600Y-76658800D02*
X159518600Y-76658800D01*
X159518600Y-76658800D02*
X159518600Y-76988800D01*
X151174200Y-64032000D02*
X151174200Y-64362000D01*
X151174200Y-64362000D02*
X144634200Y-64362000D01*
X144634200Y-64362000D02*
X144634200Y-64032000D01*
X151174200Y-61952000D02*
X151174200Y-61622000D01*
X151174200Y-61622000D02*
X144634200Y-61622000D01*
X144634200Y-61622000D02*
X144634200Y-61952000D01*
X144634200Y-65050800D02*
X144634200Y-64720800D01*
X144634200Y-64720800D02*
X151174200Y-64720800D01*
X151174200Y-64720800D02*
X151174200Y-65050800D01*
X144634200Y-67130800D02*
X144634200Y-67460800D01*
X144634200Y-67460800D02*
X151174200Y-67460800D01*
X151174200Y-67460800D02*
X151174200Y-67130800D01*
X159518600Y-70765800D02*
X159518600Y-70435800D01*
X159518600Y-70435800D02*
X166058600Y-70435800D01*
X166058600Y-70435800D02*
X166058600Y-70765800D01*
X159518600Y-72845800D02*
X159518600Y-73175800D01*
X159518600Y-73175800D02*
X166058600Y-73175800D01*
X166058600Y-73175800D02*
X166058600Y-72845800D01*
X155170000Y-67811400D02*
X154840000Y-67811400D01*
X154840000Y-67811400D02*
X154840000Y-61271400D01*
X154840000Y-61271400D02*
X155170000Y-61271400D01*
X157250000Y-67811400D02*
X157580000Y-67811400D01*
X157580000Y-67811400D02*
X157580000Y-61271400D01*
X157580000Y-61271400D02*
X157250000Y-61271400D01*
X107697400Y-81400400D02*
X107367400Y-81400400D01*
X107367400Y-81400400D02*
X107367400Y-74860400D01*
X107367400Y-74860400D02*
X107697400Y-74860400D01*
X109777400Y-81400400D02*
X110107400Y-81400400D01*
X110107400Y-81400400D02*
X110107400Y-74860400D01*
X110107400Y-74860400D02*
X109777400Y-74860400D01*
X109226600Y-69953000D02*
X109226600Y-69623000D01*
X109226600Y-69623000D02*
X115766600Y-69623000D01*
X115766600Y-69623000D02*
X115766600Y-69953000D01*
X109226600Y-72033000D02*
X109226600Y-72363000D01*
X109226600Y-72363000D02*
X115766600Y-72363000D01*
X115766600Y-72363000D02*
X115766600Y-72033000D01*
X131463600Y-75051600D02*
X129343600Y-75051600D01*
X131463600Y-89111600D02*
X131463600Y-75051600D01*
X129343600Y-89111600D02*
X129343600Y-75051600D01*
X131463600Y-89111600D02*
X129343600Y-89111600D01*
X131463600Y-90111600D02*
X131463600Y-91171600D01*
X131463600Y-91171600D02*
X130403600Y-91171600D01*
X119906600Y-77603800D02*
X117786600Y-77603800D01*
X119906600Y-79663800D02*
X119906600Y-77603800D01*
X117786600Y-79663800D02*
X117786600Y-77603800D01*
X119906600Y-79663800D02*
X117786600Y-79663800D01*
X119906600Y-80663800D02*
X119906600Y-81723800D01*
X119906600Y-81723800D02*
X118846600Y-81723800D01*
X129343600Y-73989000D02*
X131463600Y-73989000D01*
X129343600Y-67929000D02*
X129343600Y-73989000D01*
X131463600Y-67929000D02*
X131463600Y-73989000D01*
X129343600Y-67929000D02*
X131463600Y-67929000D01*
X129343600Y-66929000D02*
X129343600Y-65869000D01*
X129343600Y-65869000D02*
X130403600Y-65869000D01*
X108067800Y-60756600D02*
X114537800Y-60756600D01*
X108067800Y-60870718D02*
X114537800Y-60870718D01*
X108067800Y-60984836D02*
X114537800Y-60984836D01*
X108067800Y-61098954D02*
X114537800Y-61098954D01*
X108067800Y-61213072D02*
X114537800Y-61213072D01*
X108067800Y-61327190D02*
X114537800Y-61327190D01*
X108067800Y-61441308D02*
X114537800Y-61441308D01*
X108067800Y-61555426D02*
X114537800Y-61555426D01*
X108067800Y-61669544D02*
X114537800Y-61669544D01*
X108067800Y-61783662D02*
X114537800Y-61783662D01*
X108067800Y-61897780D02*
X114537800Y-61897780D01*
X108067800Y-62011898D02*
X114537800Y-62011898D01*
X108067800Y-62126016D02*
X114537800Y-62126016D01*
X108067800Y-62240134D02*
X114537800Y-62240134D01*
X108067800Y-62354252D02*
X114537800Y-62354252D01*
X108067800Y-62468370D02*
X114537800Y-62468370D01*
X108067800Y-62582488D02*
X114537800Y-62582488D01*
X114537800Y-61336600D02*
X114812800Y-61336600D01*
X114537800Y-62056600D02*
X114812800Y-62056600D01*
X114537800Y-63336600D02*
X114884883Y-63336600D01*
X114537800Y-64056600D02*
X114884883Y-64056600D01*
X114537800Y-65336600D02*
X114884883Y-65336600D01*
X114537800Y-66056600D02*
X114884883Y-66056600D01*
X108067800Y-62696600D02*
X114537800Y-62696600D01*
X108067800Y-64696600D02*
X114537800Y-64696600D01*
X108067800Y-60636600D02*
X114537800Y-60636600D01*
X114537800Y-60636600D02*
X114537800Y-66756600D01*
X108067800Y-66756600D02*
X114537800Y-66756600D01*
X108067800Y-60636600D02*
X108067800Y-66756600D01*
X116682800Y-60636600D02*
X116682800Y-61696600D01*
X115747800Y-60636600D02*
X116682800Y-60636600D01*
X113956208Y-81199735D02*
G75*
G03X114113116Y-77967400I-1078608J1672335D01*
G01*
X111798992Y-81199735D02*
G75*
G02X111642084Y-77967400I1078608J1672335D01*
G01*
X113957437Y-80568530D02*
G75*
G03X113957600Y-78486439I-1079837J1041130D01*
G01*
X111797763Y-80568530D02*
G75*
G02X111797600Y-78486439I1079837J1041130D01*
G01*
X114113600Y-77967400D02*
X113957600Y-77967400D01*
X111797600Y-77967400D02*
X111641600Y-77967400D01*
X126216400Y-79598200D02*
G75*
G03X126216400Y-79598200I-2620000J0D01*
G01*
X121016400Y-79598200D02*
X126176400Y-79598200D01*
X121016400Y-79558200D02*
X126176400Y-79558200D01*
X121017400Y-79518200D02*
X126175400Y-79518200D01*
X121018400Y-79478200D02*
X126174400Y-79478200D01*
X121020400Y-79438200D02*
X126172400Y-79438200D01*
X121023400Y-79398200D02*
X126169400Y-79398200D01*
X121027400Y-79358200D02*
X122556400Y-79358200D01*
X124636400Y-79358200D02*
X126165400Y-79358200D01*
X121031400Y-79318200D02*
X122556400Y-79318200D01*
X124636400Y-79318200D02*
X126161400Y-79318200D01*
X121035400Y-79278200D02*
X122556400Y-79278200D01*
X124636400Y-79278200D02*
X126157400Y-79278200D01*
X121040400Y-79238200D02*
X122556400Y-79238200D01*
X124636400Y-79238200D02*
X126152400Y-79238200D01*
X121046400Y-79198200D02*
X122556400Y-79198200D01*
X124636400Y-79198200D02*
X126146400Y-79198200D01*
X121053400Y-79158200D02*
X122556400Y-79158200D01*
X124636400Y-79158200D02*
X126139400Y-79158200D01*
X121060400Y-79118200D02*
X122556400Y-79118200D01*
X124636400Y-79118200D02*
X126132400Y-79118200D01*
X121068400Y-79078200D02*
X122556400Y-79078200D01*
X124636400Y-79078200D02*
X126124400Y-79078200D01*
X121076400Y-79038200D02*
X122556400Y-79038200D01*
X124636400Y-79038200D02*
X126116400Y-79038200D01*
X121085400Y-78998200D02*
X122556400Y-78998200D01*
X124636400Y-78998200D02*
X126107400Y-78998200D01*
X121095400Y-78958200D02*
X122556400Y-78958200D01*
X124636400Y-78958200D02*
X126097400Y-78958200D01*
X121105400Y-78918200D02*
X122556400Y-78918200D01*
X124636400Y-78918200D02*
X126087400Y-78918200D01*
X121116400Y-78877200D02*
X122556400Y-78877200D01*
X124636400Y-78877200D02*
X126076400Y-78877200D01*
X121128400Y-78837200D02*
X122556400Y-78837200D01*
X124636400Y-78837200D02*
X126064400Y-78837200D01*
X121141400Y-78797200D02*
X122556400Y-78797200D01*
X124636400Y-78797200D02*
X126051400Y-78797200D01*
X121154400Y-78757200D02*
X122556400Y-78757200D01*
X124636400Y-78757200D02*
X126038400Y-78757200D01*
X121168400Y-78717200D02*
X122556400Y-78717200D01*
X124636400Y-78717200D02*
X126024400Y-78717200D01*
X121182400Y-78677200D02*
X122556400Y-78677200D01*
X124636400Y-78677200D02*
X126010400Y-78677200D01*
X121198400Y-78637200D02*
X122556400Y-78637200D01*
X124636400Y-78637200D02*
X125994400Y-78637200D01*
X121214400Y-78597200D02*
X122556400Y-78597200D01*
X124636400Y-78597200D02*
X125978400Y-78597200D01*
X121231400Y-78557200D02*
X122556400Y-78557200D01*
X124636400Y-78557200D02*
X125961400Y-78557200D01*
X121248400Y-78517200D02*
X122556400Y-78517200D01*
X124636400Y-78517200D02*
X125944400Y-78517200D01*
X121267400Y-78477200D02*
X122556400Y-78477200D01*
X124636400Y-78477200D02*
X125925400Y-78477200D01*
X121286400Y-78437200D02*
X122556400Y-78437200D01*
X124636400Y-78437200D02*
X125906400Y-78437200D01*
X121306400Y-78397200D02*
X122556400Y-78397200D01*
X124636400Y-78397200D02*
X125886400Y-78397200D01*
X121328400Y-78357200D02*
X122556400Y-78357200D01*
X124636400Y-78357200D02*
X125864400Y-78357200D01*
X121349400Y-78317200D02*
X122556400Y-78317200D01*
X124636400Y-78317200D02*
X125843400Y-78317200D01*
X121372400Y-78277200D02*
X122556400Y-78277200D01*
X124636400Y-78277200D02*
X125820400Y-78277200D01*
X121396400Y-78237200D02*
X122556400Y-78237200D01*
X124636400Y-78237200D02*
X125796400Y-78237200D01*
X121421400Y-78197200D02*
X122556400Y-78197200D01*
X124636400Y-78197200D02*
X125771400Y-78197200D01*
X121447400Y-78157200D02*
X122556400Y-78157200D01*
X124636400Y-78157200D02*
X125745400Y-78157200D01*
X121474400Y-78117200D02*
X122556400Y-78117200D01*
X124636400Y-78117200D02*
X125718400Y-78117200D01*
X121501400Y-78077200D02*
X122556400Y-78077200D01*
X124636400Y-78077200D02*
X125691400Y-78077200D01*
X121531400Y-78037200D02*
X122556400Y-78037200D01*
X124636400Y-78037200D02*
X125661400Y-78037200D01*
X121561400Y-77997200D02*
X122556400Y-77997200D01*
X124636400Y-77997200D02*
X125631400Y-77997200D01*
X121592400Y-77957200D02*
X122556400Y-77957200D01*
X124636400Y-77957200D02*
X125600400Y-77957200D01*
X121625400Y-77917200D02*
X122556400Y-77917200D01*
X124636400Y-77917200D02*
X125567400Y-77917200D01*
X121659400Y-77877200D02*
X122556400Y-77877200D01*
X124636400Y-77877200D02*
X125533400Y-77877200D01*
X121695400Y-77837200D02*
X122556400Y-77837200D01*
X124636400Y-77837200D02*
X125497400Y-77837200D01*
X121732400Y-77797200D02*
X122556400Y-77797200D01*
X124636400Y-77797200D02*
X125460400Y-77797200D01*
X121770400Y-77757200D02*
X122556400Y-77757200D01*
X124636400Y-77757200D02*
X125422400Y-77757200D01*
X121811400Y-77717200D02*
X122556400Y-77717200D01*
X124636400Y-77717200D02*
X125381400Y-77717200D01*
X121853400Y-77677200D02*
X122556400Y-77677200D01*
X124636400Y-77677200D02*
X125339400Y-77677200D01*
X121897400Y-77637200D02*
X122556400Y-77637200D01*
X124636400Y-77637200D02*
X125295400Y-77637200D01*
X121943400Y-77597200D02*
X122556400Y-77597200D01*
X124636400Y-77597200D02*
X125249400Y-77597200D01*
X121991400Y-77557200D02*
X122556400Y-77557200D01*
X124636400Y-77557200D02*
X125201400Y-77557200D01*
X122042400Y-77517200D02*
X122556400Y-77517200D01*
X124636400Y-77517200D02*
X125150400Y-77517200D01*
X122096400Y-77477200D02*
X122556400Y-77477200D01*
X124636400Y-77477200D02*
X125096400Y-77477200D01*
X122153400Y-77437200D02*
X122556400Y-77437200D01*
X124636400Y-77437200D02*
X125039400Y-77437200D01*
X122213400Y-77397200D02*
X122556400Y-77397200D01*
X124636400Y-77397200D02*
X124979400Y-77397200D01*
X122277400Y-77357200D02*
X122556400Y-77357200D01*
X124636400Y-77357200D02*
X124915400Y-77357200D01*
X122345400Y-77317200D02*
X122556400Y-77317200D01*
X124636400Y-77317200D02*
X124847400Y-77317200D01*
X122418400Y-77277200D02*
X124774400Y-77277200D01*
X122498400Y-77237200D02*
X124694400Y-77237200D01*
X122585400Y-77197200D02*
X124607400Y-77197200D01*
X122681400Y-77157200D02*
X124511400Y-77157200D01*
X122791400Y-77117200D02*
X124401400Y-77117200D01*
X122919400Y-77077200D02*
X124273400Y-77077200D01*
X123078400Y-77037200D02*
X124114400Y-77037200D01*
X123312400Y-76997200D02*
X123880400Y-76997200D01*
X122121400Y-82402975D02*
X122121400Y-81902975D01*
X121871400Y-82152975D02*
X122371400Y-82152975D01*
D11*
X128304680Y-62491833D02*
X129018966Y-62491833D01*
X129161823Y-62539452D01*
X129257061Y-62634690D01*
X129304680Y-62777547D01*
X129304680Y-62872785D01*
X128304680Y-62110880D02*
X128304680Y-61491833D01*
X128685633Y-61825166D01*
X128685633Y-61682309D01*
X128733252Y-61587071D01*
X128780871Y-61539452D01*
X128876109Y-61491833D01*
X129114204Y-61491833D01*
X129209442Y-61539452D01*
X129257061Y-61587071D01*
X129304680Y-61682309D01*
X129304680Y-61968023D01*
X129257061Y-62063261D01*
X129209442Y-62110880D01*
X145317580Y-94945104D02*
X146127104Y-94945104D01*
X146222342Y-94897485D01*
X146269961Y-94849866D01*
X146317580Y-94754628D01*
X146317580Y-94564152D01*
X146269961Y-94468914D01*
X146222342Y-94421295D01*
X146127104Y-94373676D01*
X145317580Y-94373676D01*
X145650914Y-93468914D02*
X146317580Y-93468914D01*
X145269961Y-93707009D02*
X145984247Y-93945104D01*
X145984247Y-93326057D01*
X159643180Y-94919704D02*
X160452704Y-94919704D01*
X160547942Y-94872085D01*
X160595561Y-94824466D01*
X160643180Y-94729228D01*
X160643180Y-94538752D01*
X160595561Y-94443514D01*
X160547942Y-94395895D01*
X160452704Y-94348276D01*
X159643180Y-94348276D01*
X159643180Y-93967323D02*
X159643180Y-93348276D01*
X160024133Y-93681609D01*
X160024133Y-93538752D01*
X160071752Y-93443514D01*
X160119371Y-93395895D01*
X160214609Y-93348276D01*
X160452704Y-93348276D01*
X160547942Y-93395895D01*
X160595561Y-93443514D01*
X160643180Y-93538752D01*
X160643180Y-93824466D01*
X160595561Y-93919704D01*
X160547942Y-93967323D01*
X128909380Y-89560304D02*
X129718904Y-89560304D01*
X129814142Y-89512685D01*
X129861761Y-89465066D01*
X129909380Y-89369828D01*
X129909380Y-89179352D01*
X129861761Y-89084114D01*
X129814142Y-89036495D01*
X129718904Y-88988876D01*
X128909380Y-88988876D01*
X129004619Y-88560304D02*
X128957000Y-88512685D01*
X128909380Y-88417447D01*
X128909380Y-88179352D01*
X128957000Y-88084114D01*
X129004619Y-88036495D01*
X129099857Y-87988876D01*
X129195095Y-87988876D01*
X129337952Y-88036495D01*
X129909380Y-88607923D01*
X129909380Y-87988876D01*
X138574542Y-102644380D02*
X138241209Y-102168190D01*
X138003114Y-102644380D02*
X138003114Y-101644380D01*
X138384066Y-101644380D01*
X138479304Y-101692000D01*
X138526923Y-101739619D01*
X138574542Y-101834857D01*
X138574542Y-101977714D01*
X138526923Y-102072952D01*
X138479304Y-102120571D01*
X138384066Y-102168190D01*
X138003114Y-102168190D01*
X139526923Y-102644380D02*
X138955495Y-102644380D01*
X139241209Y-102644380D02*
X139241209Y-101644380D01*
X139145971Y-101787238D01*
X139050733Y-101882476D01*
X138955495Y-101930095D01*
X140431685Y-101644380D02*
X139955495Y-101644380D01*
X139907876Y-102120571D01*
X139955495Y-102072952D01*
X140050733Y-102025333D01*
X140288828Y-102025333D01*
X140384066Y-102072952D01*
X140431685Y-102120571D01*
X140479304Y-102215809D01*
X140479304Y-102453904D01*
X140431685Y-102549142D01*
X140384066Y-102596761D01*
X140288828Y-102644380D01*
X140050733Y-102644380D01*
X139955495Y-102596761D01*
X139907876Y-102549142D01*
X131234380Y-74574304D02*
X132043904Y-74574304D01*
X132139142Y-74526685D01*
X132186761Y-74479066D01*
X132234380Y-74383828D01*
X132234380Y-74193352D01*
X132186761Y-74098114D01*
X132139142Y-74050495D01*
X132043904Y-74002876D01*
X131234380Y-74002876D01*
X132234380Y-73002876D02*
X132234380Y-73574304D01*
X132234380Y-73288590D02*
X131234380Y-73288590D01*
X131377238Y-73383828D01*
X131472476Y-73479066D01*
X131520095Y-73574304D01*
X122569066Y-68635761D02*
X122711923Y-68683380D01*
X122950019Y-68683380D01*
X123045257Y-68635761D01*
X123092876Y-68588142D01*
X123140495Y-68492904D01*
X123140495Y-68397666D01*
X123092876Y-68302428D01*
X123045257Y-68254809D01*
X122950019Y-68207190D01*
X122759542Y-68159571D01*
X122664304Y-68111952D01*
X122616685Y-68064333D01*
X122569066Y-67969095D01*
X122569066Y-67873857D01*
X122616685Y-67778619D01*
X122664304Y-67731000D01*
X122759542Y-67683380D01*
X122997638Y-67683380D01*
X123140495Y-67731000D01*
X123473828Y-67683380D02*
X123711923Y-68683380D01*
X123902400Y-67969095D01*
X124092876Y-68683380D01*
X124330971Y-67683380D01*
X125235733Y-68683380D02*
X124664304Y-68683380D01*
X124950019Y-68683380D02*
X124950019Y-67683380D01*
X124854780Y-67826238D01*
X124759542Y-67921476D01*
X124664304Y-67969095D01*
X138574542Y-105717780D02*
X138241209Y-105241590D01*
X138003114Y-105717780D02*
X138003114Y-104717780D01*
X138384066Y-104717780D01*
X138479304Y-104765400D01*
X138526923Y-104813019D01*
X138574542Y-104908257D01*
X138574542Y-105051114D01*
X138526923Y-105146352D01*
X138479304Y-105193971D01*
X138384066Y-105241590D01*
X138003114Y-105241590D01*
X139526923Y-105717780D02*
X138955495Y-105717780D01*
X139241209Y-105717780D02*
X139241209Y-104717780D01*
X139145971Y-104860638D01*
X139050733Y-104955876D01*
X138955495Y-105003495D01*
X140384066Y-104717780D02*
X140193590Y-104717780D01*
X140098352Y-104765400D01*
X140050733Y-104813019D01*
X139955495Y-104955876D01*
X139907876Y-105146352D01*
X139907876Y-105527304D01*
X139955495Y-105622542D01*
X140003114Y-105670161D01*
X140098352Y-105717780D01*
X140288828Y-105717780D01*
X140384066Y-105670161D01*
X140431685Y-105622542D01*
X140479304Y-105527304D01*
X140479304Y-105289209D01*
X140431685Y-105193971D01*
X140384066Y-105146352D01*
X140288828Y-105098733D01*
X140098352Y-105098733D01*
X140003114Y-105146352D01*
X139955495Y-105193971D01*
X139907876Y-105289209D01*
X138574542Y-99520180D02*
X138241209Y-99043990D01*
X138003114Y-99520180D02*
X138003114Y-98520180D01*
X138384066Y-98520180D01*
X138479304Y-98567800D01*
X138526923Y-98615419D01*
X138574542Y-98710657D01*
X138574542Y-98853514D01*
X138526923Y-98948752D01*
X138479304Y-98996371D01*
X138384066Y-99043990D01*
X138003114Y-99043990D01*
X139526923Y-99520180D02*
X138955495Y-99520180D01*
X139241209Y-99520180D02*
X139241209Y-98520180D01*
X139145971Y-98663038D01*
X139050733Y-98758276D01*
X138955495Y-98805895D01*
X140384066Y-98853514D02*
X140384066Y-99520180D01*
X140145971Y-98472561D02*
X139907876Y-99186847D01*
X140526923Y-99186847D01*
X138574542Y-96421380D02*
X138241209Y-95945190D01*
X138003114Y-96421380D02*
X138003114Y-95421380D01*
X138384066Y-95421380D01*
X138479304Y-95469000D01*
X138526923Y-95516619D01*
X138574542Y-95611857D01*
X138574542Y-95754714D01*
X138526923Y-95849952D01*
X138479304Y-95897571D01*
X138384066Y-95945190D01*
X138003114Y-95945190D01*
X139526923Y-96421380D02*
X138955495Y-96421380D01*
X139241209Y-96421380D02*
X139241209Y-95421380D01*
X139145971Y-95564238D01*
X139050733Y-95659476D01*
X138955495Y-95707095D01*
X139860257Y-95421380D02*
X140479304Y-95421380D01*
X140145971Y-95802333D01*
X140288828Y-95802333D01*
X140384066Y-95849952D01*
X140431685Y-95897571D01*
X140479304Y-95992809D01*
X140479304Y-96230904D01*
X140431685Y-96326142D01*
X140384066Y-96373761D01*
X140288828Y-96421380D01*
X140003114Y-96421380D01*
X139907876Y-96373761D01*
X139860257Y-96326142D01*
X138549142Y-88582580D02*
X138215809Y-88106390D01*
X137977714Y-88582580D02*
X137977714Y-87582580D01*
X138358666Y-87582580D01*
X138453904Y-87630200D01*
X138501523Y-87677819D01*
X138549142Y-87773057D01*
X138549142Y-87915914D01*
X138501523Y-88011152D01*
X138453904Y-88058771D01*
X138358666Y-88106390D01*
X137977714Y-88106390D01*
X139501523Y-88582580D02*
X138930095Y-88582580D01*
X139215809Y-88582580D02*
X139215809Y-87582580D01*
X139120571Y-87725438D01*
X139025333Y-87820676D01*
X138930095Y-87868295D01*
X139882476Y-87677819D02*
X139930095Y-87630200D01*
X140025333Y-87582580D01*
X140263428Y-87582580D01*
X140358666Y-87630200D01*
X140406285Y-87677819D01*
X140453904Y-87773057D01*
X140453904Y-87868295D01*
X140406285Y-88011152D01*
X139834857Y-88582580D01*
X140453904Y-88582580D01*
X138549142Y-85458380D02*
X138215809Y-84982190D01*
X137977714Y-85458380D02*
X137977714Y-84458380D01*
X138358666Y-84458380D01*
X138453904Y-84506000D01*
X138501523Y-84553619D01*
X138549142Y-84648857D01*
X138549142Y-84791714D01*
X138501523Y-84886952D01*
X138453904Y-84934571D01*
X138358666Y-84982190D01*
X137977714Y-84982190D01*
X139501523Y-85458380D02*
X138930095Y-85458380D01*
X139215809Y-85458380D02*
X139215809Y-84458380D01*
X139120571Y-84601238D01*
X139025333Y-84696476D01*
X138930095Y-84744095D01*
X140453904Y-85458380D02*
X139882476Y-85458380D01*
X140168190Y-85458380D02*
X140168190Y-84458380D01*
X140072952Y-84601238D01*
X139977714Y-84696476D01*
X139882476Y-84744095D01*
X138549142Y-87048780D02*
X138215809Y-86572590D01*
X137977714Y-87048780D02*
X137977714Y-86048780D01*
X138358666Y-86048780D01*
X138453904Y-86096400D01*
X138501523Y-86144019D01*
X138549142Y-86239257D01*
X138549142Y-86382114D01*
X138501523Y-86477352D01*
X138453904Y-86524971D01*
X138358666Y-86572590D01*
X137977714Y-86572590D01*
X139501523Y-87048780D02*
X138930095Y-87048780D01*
X139215809Y-87048780D02*
X139215809Y-86048780D01*
X139120571Y-86191638D01*
X139025333Y-86286876D01*
X138930095Y-86334495D01*
X140120571Y-86048780D02*
X140215809Y-86048780D01*
X140311047Y-86096400D01*
X140358666Y-86144019D01*
X140406285Y-86239257D01*
X140453904Y-86429733D01*
X140453904Y-86667828D01*
X140406285Y-86858304D01*
X140358666Y-86953542D01*
X140311047Y-87001161D01*
X140215809Y-87048780D01*
X140120571Y-87048780D01*
X140025333Y-87001161D01*
X139977714Y-86953542D01*
X139930095Y-86858304D01*
X139882476Y-86667828D01*
X139882476Y-86429733D01*
X139930095Y-86239257D01*
X139977714Y-86144019D01*
X140025333Y-86096400D01*
X140120571Y-86048780D01*
X162596533Y-83949980D02*
X162263200Y-83473790D01*
X162025104Y-83949980D02*
X162025104Y-82949980D01*
X162406057Y-82949980D01*
X162501295Y-82997600D01*
X162548914Y-83045219D01*
X162596533Y-83140457D01*
X162596533Y-83283314D01*
X162548914Y-83378552D01*
X162501295Y-83426171D01*
X162406057Y-83473790D01*
X162025104Y-83473790D01*
X163072723Y-83949980D02*
X163263200Y-83949980D01*
X163358438Y-83902361D01*
X163406057Y-83854742D01*
X163501295Y-83711885D01*
X163548914Y-83521409D01*
X163548914Y-83140457D01*
X163501295Y-83045219D01*
X163453676Y-82997600D01*
X163358438Y-82949980D01*
X163167961Y-82949980D01*
X163072723Y-82997600D01*
X163025104Y-83045219D01*
X162977485Y-83140457D01*
X162977485Y-83378552D01*
X163025104Y-83473790D01*
X163072723Y-83521409D01*
X163167961Y-83569028D01*
X163358438Y-83569028D01*
X163453676Y-83521409D01*
X163501295Y-83473790D01*
X163548914Y-83378552D01*
X162621933Y-77726980D02*
X162288600Y-77250790D01*
X162050504Y-77726980D02*
X162050504Y-76726980D01*
X162431457Y-76726980D01*
X162526695Y-76774600D01*
X162574314Y-76822219D01*
X162621933Y-76917457D01*
X162621933Y-77060314D01*
X162574314Y-77155552D01*
X162526695Y-77203171D01*
X162431457Y-77250790D01*
X162050504Y-77250790D01*
X163193361Y-77155552D02*
X163098123Y-77107933D01*
X163050504Y-77060314D01*
X163002885Y-76965076D01*
X163002885Y-76917457D01*
X163050504Y-76822219D01*
X163098123Y-76774600D01*
X163193361Y-76726980D01*
X163383838Y-76726980D01*
X163479076Y-76774600D01*
X163526695Y-76822219D01*
X163574314Y-76917457D01*
X163574314Y-76965076D01*
X163526695Y-77060314D01*
X163479076Y-77107933D01*
X163383838Y-77155552D01*
X163193361Y-77155552D01*
X163098123Y-77203171D01*
X163050504Y-77250790D01*
X163002885Y-77346028D01*
X163002885Y-77536504D01*
X163050504Y-77631742D01*
X163098123Y-77679361D01*
X163193361Y-77726980D01*
X163383838Y-77726980D01*
X163479076Y-77679361D01*
X163526695Y-77631742D01*
X163574314Y-77536504D01*
X163574314Y-77346028D01*
X163526695Y-77250790D01*
X163479076Y-77203171D01*
X163383838Y-77155552D01*
X162621933Y-80851180D02*
X162288600Y-80374990D01*
X162050504Y-80851180D02*
X162050504Y-79851180D01*
X162431457Y-79851180D01*
X162526695Y-79898800D01*
X162574314Y-79946419D01*
X162621933Y-80041657D01*
X162621933Y-80184514D01*
X162574314Y-80279752D01*
X162526695Y-80327371D01*
X162431457Y-80374990D01*
X162050504Y-80374990D01*
X162955266Y-79851180D02*
X163621933Y-79851180D01*
X163193361Y-80851180D01*
X147737533Y-65814380D02*
X147404200Y-65338190D01*
X147166104Y-65814380D02*
X147166104Y-64814380D01*
X147547057Y-64814380D01*
X147642295Y-64862000D01*
X147689914Y-64909619D01*
X147737533Y-65004857D01*
X147737533Y-65147714D01*
X147689914Y-65242952D01*
X147642295Y-65290571D01*
X147547057Y-65338190D01*
X147166104Y-65338190D01*
X148594676Y-64814380D02*
X148404200Y-64814380D01*
X148308961Y-64862000D01*
X148261342Y-64909619D01*
X148166104Y-65052476D01*
X148118485Y-65242952D01*
X148118485Y-65623904D01*
X148166104Y-65719142D01*
X148213723Y-65766761D01*
X148308961Y-65814380D01*
X148499438Y-65814380D01*
X148594676Y-65766761D01*
X148642295Y-65719142D01*
X148689914Y-65623904D01*
X148689914Y-65385809D01*
X148642295Y-65290571D01*
X148594676Y-65242952D01*
X148499438Y-65195333D01*
X148308961Y-65195333D01*
X148213723Y-65242952D01*
X148166104Y-65290571D01*
X148118485Y-65385809D01*
X147737533Y-64173180D02*
X147404200Y-63696990D01*
X147166104Y-64173180D02*
X147166104Y-63173180D01*
X147547057Y-63173180D01*
X147642295Y-63220800D01*
X147689914Y-63268419D01*
X147737533Y-63363657D01*
X147737533Y-63506514D01*
X147689914Y-63601752D01*
X147642295Y-63649371D01*
X147547057Y-63696990D01*
X147166104Y-63696990D01*
X148642295Y-63173180D02*
X148166104Y-63173180D01*
X148118485Y-63649371D01*
X148166104Y-63601752D01*
X148261342Y-63554133D01*
X148499438Y-63554133D01*
X148594676Y-63601752D01*
X148642295Y-63649371D01*
X148689914Y-63744609D01*
X148689914Y-63982704D01*
X148642295Y-64077942D01*
X148594676Y-64125561D01*
X148499438Y-64173180D01*
X148261342Y-64173180D01*
X148166104Y-64125561D01*
X148118485Y-64077942D01*
X162621933Y-69888180D02*
X162288600Y-69411990D01*
X162050504Y-69888180D02*
X162050504Y-68888180D01*
X162431457Y-68888180D01*
X162526695Y-68935800D01*
X162574314Y-68983419D01*
X162621933Y-69078657D01*
X162621933Y-69221514D01*
X162574314Y-69316752D01*
X162526695Y-69364371D01*
X162431457Y-69411990D01*
X162050504Y-69411990D01*
X163479076Y-69221514D02*
X163479076Y-69888180D01*
X163240980Y-68840561D02*
X163002885Y-69554847D01*
X163621933Y-69554847D01*
X154292380Y-64708066D02*
X153816190Y-65041400D01*
X154292380Y-65279495D02*
X153292380Y-65279495D01*
X153292380Y-64898542D01*
X153340000Y-64803304D01*
X153387619Y-64755685D01*
X153482857Y-64708066D01*
X153625714Y-64708066D01*
X153720952Y-64755685D01*
X153768571Y-64803304D01*
X153816190Y-64898542D01*
X153816190Y-65279495D01*
X153292380Y-64374733D02*
X153292380Y-63755685D01*
X153673333Y-64089019D01*
X153673333Y-63946161D01*
X153720952Y-63850923D01*
X153768571Y-63803304D01*
X153863809Y-63755685D01*
X154101904Y-63755685D01*
X154197142Y-63803304D01*
X154244761Y-63850923D01*
X154292380Y-63946161D01*
X154292380Y-64231876D01*
X154244761Y-64327114D01*
X154197142Y-64374733D01*
X106819780Y-78297066D02*
X106343590Y-78630400D01*
X106819780Y-78868495D02*
X105819780Y-78868495D01*
X105819780Y-78487542D01*
X105867400Y-78392304D01*
X105915019Y-78344685D01*
X106010257Y-78297066D01*
X106153114Y-78297066D01*
X106248352Y-78344685D01*
X106295971Y-78392304D01*
X106343590Y-78487542D01*
X106343590Y-78868495D01*
X105915019Y-77916114D02*
X105867400Y-77868495D01*
X105819780Y-77773257D01*
X105819780Y-77535161D01*
X105867400Y-77439923D01*
X105915019Y-77392304D01*
X106010257Y-77344685D01*
X106105495Y-77344685D01*
X106248352Y-77392304D01*
X106819780Y-77963733D01*
X106819780Y-77344685D01*
X112329933Y-69075380D02*
X111996600Y-68599190D01*
X111758504Y-69075380D02*
X111758504Y-68075380D01*
X112139457Y-68075380D01*
X112234695Y-68123000D01*
X112282314Y-68170619D01*
X112329933Y-68265857D01*
X112329933Y-68408714D01*
X112282314Y-68503952D01*
X112234695Y-68551571D01*
X112139457Y-68599190D01*
X111758504Y-68599190D01*
X113282314Y-69075380D02*
X112710885Y-69075380D01*
X112996600Y-69075380D02*
X112996600Y-68075380D01*
X112901361Y-68218238D01*
X112806123Y-68313476D01*
X112710885Y-68361095D01*
X130070266Y-91623980D02*
X130070266Y-92338266D01*
X130022647Y-92481123D01*
X129927409Y-92576361D01*
X129784552Y-92623980D01*
X129689314Y-92623980D01*
X131022647Y-91623980D02*
X130546457Y-91623980D01*
X130498838Y-92100171D01*
X130546457Y-92052552D01*
X130641695Y-92004933D01*
X130879790Y-92004933D01*
X130975028Y-92052552D01*
X131022647Y-92100171D01*
X131070266Y-92195409D01*
X131070266Y-92433504D01*
X131022647Y-92528742D01*
X130975028Y-92576361D01*
X130879790Y-92623980D01*
X130641695Y-92623980D01*
X130546457Y-92576361D01*
X130498838Y-92528742D01*
X118513266Y-82176180D02*
X118513266Y-82890466D01*
X118465647Y-83033323D01*
X118370409Y-83128561D01*
X118227552Y-83176180D01*
X118132314Y-83176180D01*
X119418028Y-82509514D02*
X119418028Y-83176180D01*
X119179933Y-82128561D02*
X118941838Y-82842847D01*
X119560885Y-82842847D01*
X130070266Y-64321380D02*
X130070266Y-65035666D01*
X130022647Y-65178523D01*
X129927409Y-65273761D01*
X129784552Y-65321380D01*
X129689314Y-65321380D01*
X130498838Y-64416619D02*
X130546457Y-64369000D01*
X130641695Y-64321380D01*
X130879790Y-64321380D01*
X130975028Y-64369000D01*
X131022647Y-64416619D01*
X131070266Y-64511857D01*
X131070266Y-64607095D01*
X131022647Y-64749952D01*
X130451219Y-65321380D01*
X131070266Y-65321380D01*
X112104466Y-58648980D02*
X112104466Y-59363266D01*
X112056847Y-59506123D01*
X111961609Y-59601361D01*
X111818752Y-59648980D01*
X111723514Y-59648980D01*
X113104466Y-59648980D02*
X112533038Y-59648980D01*
X112818752Y-59648980D02*
X112818752Y-58648980D01*
X112723514Y-58791838D01*
X112628276Y-58887076D01*
X112533038Y-58934695D01*
X116289980Y-80265495D02*
X115289980Y-80265495D01*
X115289980Y-80027400D01*
X115337600Y-79884542D01*
X115432838Y-79789304D01*
X115528076Y-79741685D01*
X115718552Y-79694066D01*
X115861409Y-79694066D01*
X116051885Y-79741685D01*
X116147123Y-79789304D01*
X116242361Y-79884542D01*
X116289980Y-80027400D01*
X116289980Y-80265495D01*
X116289980Y-78741685D02*
X116289980Y-79313114D01*
X116289980Y-79027400D02*
X115289980Y-79027400D01*
X115432838Y-79122638D01*
X115528076Y-79217876D01*
X115575695Y-79313114D01*
X120203542Y-79764866D02*
X120251161Y-79812485D01*
X120298780Y-79955342D01*
X120298780Y-80050580D01*
X120251161Y-80193438D01*
X120155923Y-80288676D01*
X120060685Y-80336295D01*
X119870209Y-80383914D01*
X119727352Y-80383914D01*
X119536876Y-80336295D01*
X119441638Y-80288676D01*
X119346400Y-80193438D01*
X119298780Y-80050580D01*
X119298780Y-79955342D01*
X119346400Y-79812485D01*
X119394019Y-79764866D01*
X120298780Y-78812485D02*
X120298780Y-79383914D01*
X120298780Y-79098200D02*
X119298780Y-79098200D01*
X119441638Y-79193438D01*
X119536876Y-79288676D01*
X119584495Y-79383914D01*
M02*
