G04 #@! TF.GenerationSoftware,KiCad,Pcbnew,(5.1.2)-1*
G04 #@! TF.CreationDate,2019-07-05T22:38:24-05:00*
G04 #@! TF.ProjectId,Proyecto,50726f79-6563-4746-9f2e-6b696361645f,rev?*
G04 #@! TF.SameCoordinates,Original*
G04 #@! TF.FileFunction,Other,Fab,Top*
%FSLAX46Y46*%
G04 Gerber Fmt 4.6, Leading zero omitted, Abs format (unit mm)*
G04 Created by KiCad (PCBNEW (5.1.2)-1) date 2019-07-05 22:38:24*
%MOMM*%
%LPD*%
G04 APERTURE LIST*
%ADD10C,0.100000*%
%ADD11C,0.150000*%
G04 APERTURE END LIST*
D10*
X120052300Y-65468500D02*
X120652300Y-65468500D01*
X120052300Y-64198500D02*
X120052300Y-65468500D01*
X120652300Y-65468500D02*
X120652300Y-64198500D01*
X122052300Y-65468500D02*
X122652300Y-65468500D01*
X122052300Y-64198500D02*
X122052300Y-65468500D01*
X122652300Y-65468500D02*
X122652300Y-64198500D01*
X124052300Y-65468500D02*
X124652300Y-65468500D01*
X124052300Y-64198500D02*
X124052300Y-65468500D01*
X124652300Y-65468500D02*
X124652300Y-64198500D01*
X126052300Y-65468500D02*
X126652300Y-65468500D01*
X126052300Y-64198500D02*
X126052300Y-65468500D01*
X126652300Y-65468500D02*
X126652300Y-64198500D01*
X119352300Y-57848500D02*
X127352300Y-57848500D01*
X119352300Y-64198500D02*
X119352300Y-57848500D01*
X126652300Y-64198500D02*
X119352300Y-64198500D01*
X127352300Y-63498500D02*
X126652300Y-64198500D01*
X127352300Y-57848500D02*
X127352300Y-63498500D01*
X148115200Y-103683200D02*
X159615200Y-103683200D01*
X147115200Y-102683200D02*
X148115200Y-103683200D01*
X147115200Y-84683200D02*
X147115200Y-102683200D01*
X159615200Y-84683200D02*
X147115200Y-84683200D01*
X159615200Y-103683200D02*
X159615200Y-84683200D01*
X173940800Y-103657800D02*
X173940800Y-84657800D01*
X173940800Y-84657800D02*
X161440800Y-84657800D01*
X161440800Y-84657800D02*
X161440800Y-102657800D01*
X161440800Y-102657800D02*
X162440800Y-103657800D01*
X162440800Y-103657800D02*
X173940800Y-103657800D01*
X128397000Y-86623400D02*
X128397000Y-91973400D01*
X128397000Y-91973400D02*
X108077000Y-91973400D01*
X108077000Y-91973400D02*
X108077000Y-85623400D01*
X108077000Y-85623400D02*
X127397000Y-85623400D01*
X127397000Y-85623400D02*
X128397000Y-86623400D01*
X128457000Y-83718400D02*
X108017000Y-83718400D01*
X108017000Y-83718400D02*
X108017000Y-93878400D01*
X108017000Y-93878400D02*
X128457000Y-93878400D01*
X128457000Y-93878400D02*
X128457000Y-83718400D01*
X142367400Y-101072000D02*
X142367400Y-98572000D01*
X142367400Y-98572000D02*
X136067400Y-98572000D01*
X136067400Y-98572000D02*
X136067400Y-101072000D01*
X136067400Y-101072000D02*
X142367400Y-101072000D01*
X143027400Y-99822000D02*
X142367400Y-99822000D01*
X135407400Y-99822000D02*
X136067400Y-99822000D01*
X132842000Y-75987400D02*
X132842000Y-70637400D01*
X132842000Y-70637400D02*
X153162000Y-70637400D01*
X153162000Y-70637400D02*
X153162000Y-76987400D01*
X153162000Y-76987400D02*
X133842000Y-76987400D01*
X133842000Y-76987400D02*
X132842000Y-75987400D01*
X132782000Y-78892400D02*
X153222000Y-78892400D01*
X153222000Y-78892400D02*
X153222000Y-68732400D01*
X153222000Y-68732400D02*
X132782000Y-68732400D01*
X132782000Y-68732400D02*
X132782000Y-78892400D01*
X123902400Y-69481000D02*
X126902400Y-69481000D01*
X126902400Y-69481000D02*
X126902400Y-75481000D01*
X126902400Y-75481000D02*
X120902400Y-75481000D01*
X120902400Y-75481000D02*
X120902400Y-69481000D01*
X120902400Y-69481000D02*
X123902400Y-69481000D01*
X125917964Y-72481000D02*
G75*
G03X125917964Y-72481000I-2015564J0D01*
G01*
X142367400Y-104145400D02*
X142367400Y-101645400D01*
X142367400Y-101645400D02*
X136067400Y-101645400D01*
X136067400Y-101645400D02*
X136067400Y-104145400D01*
X136067400Y-104145400D02*
X142367400Y-104145400D01*
X143027400Y-102895400D02*
X142367400Y-102895400D01*
X135407400Y-102895400D02*
X136067400Y-102895400D01*
X142367400Y-97947800D02*
X142367400Y-95447800D01*
X142367400Y-95447800D02*
X136067400Y-95447800D01*
X136067400Y-95447800D02*
X136067400Y-97947800D01*
X136067400Y-97947800D02*
X142367400Y-97947800D01*
X143027400Y-96697800D02*
X142367400Y-96697800D01*
X135407400Y-96697800D02*
X136067400Y-96697800D01*
X142367400Y-94849000D02*
X142367400Y-92349000D01*
X142367400Y-92349000D02*
X136067400Y-92349000D01*
X136067400Y-92349000D02*
X136067400Y-94849000D01*
X136067400Y-94849000D02*
X142367400Y-94849000D01*
X143027400Y-93599000D02*
X142367400Y-93599000D01*
X135407400Y-93599000D02*
X136067400Y-93599000D01*
X136042000Y-89250200D02*
X136042000Y-91750200D01*
X136042000Y-91750200D02*
X142342000Y-91750200D01*
X142342000Y-91750200D02*
X142342000Y-89250200D01*
X142342000Y-89250200D02*
X136042000Y-89250200D01*
X135382000Y-90500200D02*
X136042000Y-90500200D01*
X143002000Y-90500200D02*
X142342000Y-90500200D01*
X136042000Y-86126000D02*
X136042000Y-88626000D01*
X136042000Y-88626000D02*
X142342000Y-88626000D01*
X142342000Y-88626000D02*
X142342000Y-86126000D01*
X142342000Y-86126000D02*
X136042000Y-86126000D01*
X135382000Y-87376000D02*
X136042000Y-87376000D01*
X143002000Y-87376000D02*
X142342000Y-87376000D01*
X142342000Y-85476400D02*
X142342000Y-82976400D01*
X142342000Y-82976400D02*
X136042000Y-82976400D01*
X136042000Y-82976400D02*
X136042000Y-85476400D01*
X136042000Y-85476400D02*
X142342000Y-85476400D01*
X143002000Y-84226400D02*
X142342000Y-84226400D01*
X135382000Y-84226400D02*
X136042000Y-84226400D01*
X165913200Y-82377600D02*
X165913200Y-79877600D01*
X165913200Y-79877600D02*
X159613200Y-79877600D01*
X159613200Y-79877600D02*
X159613200Y-82377600D01*
X159613200Y-82377600D02*
X165913200Y-82377600D01*
X166573200Y-81127600D02*
X165913200Y-81127600D01*
X158953200Y-81127600D02*
X159613200Y-81127600D01*
X165938600Y-76154600D02*
X165938600Y-73654600D01*
X165938600Y-73654600D02*
X159638600Y-73654600D01*
X159638600Y-73654600D02*
X159638600Y-76154600D01*
X159638600Y-76154600D02*
X165938600Y-76154600D01*
X166598600Y-74904600D02*
X165938600Y-74904600D01*
X158978600Y-74904600D02*
X159638600Y-74904600D01*
X165938600Y-79278800D02*
X165938600Y-76778800D01*
X165938600Y-76778800D02*
X159638600Y-76778800D01*
X159638600Y-76778800D02*
X159638600Y-79278800D01*
X159638600Y-79278800D02*
X165938600Y-79278800D01*
X166598600Y-78028800D02*
X165938600Y-78028800D01*
X158978600Y-78028800D02*
X159638600Y-78028800D01*
X151054200Y-64242000D02*
X151054200Y-61742000D01*
X151054200Y-61742000D02*
X144754200Y-61742000D01*
X144754200Y-61742000D02*
X144754200Y-64242000D01*
X144754200Y-64242000D02*
X151054200Y-64242000D01*
X151714200Y-62992000D02*
X151054200Y-62992000D01*
X144094200Y-62992000D02*
X144754200Y-62992000D01*
X144754200Y-64840800D02*
X144754200Y-67340800D01*
X144754200Y-67340800D02*
X151054200Y-67340800D01*
X151054200Y-67340800D02*
X151054200Y-64840800D01*
X151054200Y-64840800D02*
X144754200Y-64840800D01*
X144094200Y-66090800D02*
X144754200Y-66090800D01*
X151714200Y-66090800D02*
X151054200Y-66090800D01*
X159638600Y-70555800D02*
X159638600Y-73055800D01*
X159638600Y-73055800D02*
X165938600Y-73055800D01*
X165938600Y-73055800D02*
X165938600Y-70555800D01*
X165938600Y-70555800D02*
X159638600Y-70555800D01*
X158978600Y-71805800D02*
X159638600Y-71805800D01*
X166598600Y-71805800D02*
X165938600Y-71805800D01*
X154960000Y-67691400D02*
X157460000Y-67691400D01*
X157460000Y-67691400D02*
X157460000Y-61391400D01*
X157460000Y-61391400D02*
X154960000Y-61391400D01*
X154960000Y-61391400D02*
X154960000Y-67691400D01*
X156210000Y-68351400D02*
X156210000Y-67691400D01*
X156210000Y-60731400D02*
X156210000Y-61391400D01*
X107487400Y-81280400D02*
X109987400Y-81280400D01*
X109987400Y-81280400D02*
X109987400Y-74980400D01*
X109987400Y-74980400D02*
X107487400Y-74980400D01*
X107487400Y-74980400D02*
X107487400Y-81280400D01*
X108737400Y-81940400D02*
X108737400Y-81280400D01*
X108737400Y-74320400D02*
X108737400Y-74980400D01*
X109346600Y-69743000D02*
X109346600Y-72243000D01*
X109346600Y-72243000D02*
X115646600Y-72243000D01*
X115646600Y-72243000D02*
X115646600Y-69743000D01*
X115646600Y-69743000D02*
X109346600Y-69743000D01*
X108686600Y-70993000D02*
X109346600Y-70993000D01*
X116306600Y-70993000D02*
X115646600Y-70993000D01*
X130903600Y-91111600D02*
X129403600Y-91111600D01*
X129403600Y-91111600D02*
X129403600Y-75111600D01*
X129403600Y-75111600D02*
X131403600Y-75111600D01*
X131403600Y-75111600D02*
X131403600Y-90611600D01*
X131403600Y-90611600D02*
X130903600Y-91111600D01*
X119346600Y-81663800D02*
X117846600Y-81663800D01*
X117846600Y-81663800D02*
X117846600Y-77663800D01*
X117846600Y-77663800D02*
X119846600Y-77663800D01*
X119846600Y-77663800D02*
X119846600Y-81163800D01*
X119846600Y-81163800D02*
X119346600Y-81663800D01*
X129903600Y-65929000D02*
X131403600Y-65929000D01*
X131403600Y-65929000D02*
X131403600Y-73929000D01*
X131403600Y-73929000D02*
X129403600Y-73929000D01*
X129403600Y-73929000D02*
X129403600Y-66429000D01*
X129403600Y-66429000D02*
X129903600Y-65929000D01*
X108127800Y-60696600D02*
X113777800Y-60696600D01*
X113777800Y-60696600D02*
X114477800Y-61396600D01*
X114477800Y-61396600D02*
X114477800Y-66696600D01*
X114477800Y-66696600D02*
X108127800Y-66696600D01*
X108127800Y-66696600D02*
X108127800Y-60696600D01*
X115747800Y-61396600D02*
X114477800Y-61396600D01*
X114477800Y-61996600D02*
X115747800Y-61996600D01*
X115747800Y-61996600D02*
X115747800Y-61396600D01*
X115747800Y-63396600D02*
X114477800Y-63396600D01*
X114477800Y-63996600D02*
X115747800Y-63996600D01*
X115747800Y-63996600D02*
X115747800Y-63396600D01*
X115747800Y-65396600D02*
X114477800Y-65396600D01*
X114477800Y-65996600D02*
X115747800Y-65996600D01*
X115747800Y-65996600D02*
X115747800Y-65396600D01*
X111712124Y-78026845D02*
G75*
G03X114043790Y-78027400I1165476J-1500555D01*
G01*
X114377600Y-79527400D02*
G75*
G03X114377600Y-79527400I-1500000J0D01*
G01*
X114043790Y-78027400D02*
X111711410Y-78027400D01*
X126096400Y-79598200D02*
G75*
G03X126096400Y-79598200I-2500000J0D01*
G01*
X122508900Y-81731805D02*
X122508900Y-81231805D01*
X122258900Y-81481805D02*
X122758900Y-81481805D01*
D11*
X118209442Y-65063261D02*
X118257061Y-65110880D01*
X118304680Y-65253738D01*
X118304680Y-65348976D01*
X118257061Y-65491833D01*
X118161823Y-65587071D01*
X118066585Y-65634690D01*
X117876109Y-65682309D01*
X117733252Y-65682309D01*
X117542776Y-65634690D01*
X117447538Y-65587071D01*
X117352300Y-65491833D01*
X117304680Y-65348976D01*
X117304680Y-65253738D01*
X117352300Y-65110880D01*
X117399919Y-65063261D01*
X118304680Y-64491833D02*
X118257061Y-64587071D01*
X118209442Y-64634690D01*
X118114204Y-64682309D01*
X117828490Y-64682309D01*
X117733252Y-64634690D01*
X117685633Y-64587071D01*
X117638014Y-64491833D01*
X117638014Y-64348976D01*
X117685633Y-64253738D01*
X117733252Y-64206119D01*
X117828490Y-64158500D01*
X118114204Y-64158500D01*
X118209442Y-64206119D01*
X118257061Y-64253738D01*
X118304680Y-64348976D01*
X118304680Y-64491833D01*
X117638014Y-63729928D02*
X118304680Y-63729928D01*
X117733252Y-63729928D02*
X117685633Y-63682309D01*
X117638014Y-63587071D01*
X117638014Y-63444214D01*
X117685633Y-63348976D01*
X117780871Y-63301357D01*
X118304680Y-63301357D01*
X117638014Y-62825166D02*
X118304680Y-62825166D01*
X117733252Y-62825166D02*
X117685633Y-62777547D01*
X117638014Y-62682309D01*
X117638014Y-62539452D01*
X117685633Y-62444214D01*
X117780871Y-62396595D01*
X118304680Y-62396595D01*
X118399919Y-62158500D02*
X118399919Y-61396595D01*
X117638014Y-61301357D02*
X117638014Y-60920404D01*
X118304680Y-61158500D02*
X117447538Y-61158500D01*
X117352300Y-61110880D01*
X117304680Y-61015642D01*
X117304680Y-60920404D01*
X118304680Y-60444214D02*
X118257061Y-60539452D01*
X118209442Y-60587071D01*
X118114204Y-60634690D01*
X117828490Y-60634690D01*
X117733252Y-60587071D01*
X117685633Y-60539452D01*
X117638014Y-60444214D01*
X117638014Y-60301357D01*
X117685633Y-60206119D01*
X117733252Y-60158500D01*
X117828490Y-60110880D01*
X118114204Y-60110880D01*
X118209442Y-60158500D01*
X118257061Y-60206119D01*
X118304680Y-60301357D01*
X118304680Y-60444214D01*
X117638014Y-59825166D02*
X117638014Y-59444214D01*
X117304680Y-59682309D02*
X118161823Y-59682309D01*
X118257061Y-59634690D01*
X118304680Y-59539452D01*
X118304680Y-59444214D01*
X118304680Y-58968023D02*
X118257061Y-59063261D01*
X118209442Y-59110880D01*
X118114204Y-59158500D01*
X117828490Y-59158500D01*
X117733252Y-59110880D01*
X117685633Y-59063261D01*
X117638014Y-58968023D01*
X117638014Y-58825166D01*
X117685633Y-58729928D01*
X117733252Y-58682309D01*
X117828490Y-58634690D01*
X118114204Y-58634690D01*
X118209442Y-58682309D01*
X118257061Y-58729928D01*
X118304680Y-58825166D01*
X118304680Y-58968023D01*
X123018966Y-60475880D02*
X123018966Y-61190166D01*
X122971347Y-61333023D01*
X122876109Y-61428261D01*
X122733252Y-61475880D01*
X122638014Y-61475880D01*
X123399919Y-60475880D02*
X124018966Y-60475880D01*
X123685633Y-60856833D01*
X123828490Y-60856833D01*
X123923728Y-60904452D01*
X123971347Y-60952071D01*
X124018966Y-61047309D01*
X124018966Y-61285404D01*
X123971347Y-61380642D01*
X123923728Y-61428261D01*
X123828490Y-61475880D01*
X123542776Y-61475880D01*
X123447538Y-61428261D01*
X123399919Y-61380642D01*
X161317580Y-98921295D02*
X160317580Y-98921295D01*
X161317580Y-98349866D02*
X160746152Y-98778438D01*
X160317580Y-98349866D02*
X160889009Y-98921295D01*
X161222342Y-97349866D02*
X161269961Y-97397485D01*
X161317580Y-97540342D01*
X161317580Y-97635580D01*
X161269961Y-97778438D01*
X161174723Y-97873676D01*
X161079485Y-97921295D01*
X160889009Y-97968914D01*
X160746152Y-97968914D01*
X160555676Y-97921295D01*
X160460438Y-97873676D01*
X160365200Y-97778438D01*
X160317580Y-97635580D01*
X160317580Y-97540342D01*
X160365200Y-97397485D01*
X160412819Y-97349866D01*
X161269961Y-96968914D02*
X161317580Y-96826057D01*
X161317580Y-96587961D01*
X161269961Y-96492723D01*
X161222342Y-96445104D01*
X161127104Y-96397485D01*
X161031866Y-96397485D01*
X160936628Y-96445104D01*
X160889009Y-96492723D01*
X160841390Y-96587961D01*
X160793771Y-96778438D01*
X160746152Y-96873676D01*
X160698533Y-96921295D01*
X160603295Y-96968914D01*
X160508057Y-96968914D01*
X160412819Y-96921295D01*
X160365200Y-96873676D01*
X160317580Y-96778438D01*
X160317580Y-96540342D01*
X160365200Y-96397485D01*
X161222342Y-95397485D02*
X161269961Y-95445104D01*
X161317580Y-95587961D01*
X161317580Y-95683200D01*
X161269961Y-95826057D01*
X161174723Y-95921295D01*
X161079485Y-95968914D01*
X160889009Y-96016533D01*
X160746152Y-96016533D01*
X160555676Y-95968914D01*
X160460438Y-95921295D01*
X160365200Y-95826057D01*
X160317580Y-95683200D01*
X160317580Y-95587961D01*
X160365200Y-95445104D01*
X160412819Y-95397485D01*
X160317580Y-94778438D02*
X160317580Y-94683200D01*
X160365200Y-94587961D01*
X160412819Y-94540342D01*
X160508057Y-94492723D01*
X160698533Y-94445104D01*
X160936628Y-94445104D01*
X161127104Y-94492723D01*
X161222342Y-94540342D01*
X161269961Y-94587961D01*
X161317580Y-94683200D01*
X161317580Y-94778438D01*
X161269961Y-94873676D01*
X161222342Y-94921295D01*
X161127104Y-94968914D01*
X160936628Y-95016533D01*
X160698533Y-95016533D01*
X160508057Y-94968914D01*
X160412819Y-94921295D01*
X160365200Y-94873676D01*
X160317580Y-94778438D01*
X160412819Y-94064152D02*
X160365200Y-94016533D01*
X160317580Y-93921295D01*
X160317580Y-93683200D01*
X160365200Y-93587961D01*
X160412819Y-93540342D01*
X160508057Y-93492723D01*
X160603295Y-93492723D01*
X160746152Y-93540342D01*
X161317580Y-94111771D01*
X161317580Y-93492723D01*
X160936628Y-93064152D02*
X160936628Y-92302247D01*
X161317580Y-91302247D02*
X161317580Y-91873676D01*
X161317580Y-91587961D02*
X160317580Y-91587961D01*
X160460438Y-91683200D01*
X160555676Y-91778438D01*
X160603295Y-91873676D01*
X160317580Y-90683200D02*
X160317580Y-90587961D01*
X160365200Y-90492723D01*
X160412819Y-90445104D01*
X160508057Y-90397485D01*
X160698533Y-90349866D01*
X160936628Y-90349866D01*
X161127104Y-90397485D01*
X161222342Y-90445104D01*
X161269961Y-90492723D01*
X161317580Y-90587961D01*
X161317580Y-90683200D01*
X161269961Y-90778438D01*
X161222342Y-90826057D01*
X161127104Y-90873676D01*
X160936628Y-90921295D01*
X160698533Y-90921295D01*
X160508057Y-90873676D01*
X160412819Y-90826057D01*
X160365200Y-90778438D01*
X160317580Y-90683200D01*
X160317580Y-89445104D02*
X160317580Y-89921295D01*
X160793771Y-89968914D01*
X160746152Y-89921295D01*
X160698533Y-89826057D01*
X160698533Y-89587961D01*
X160746152Y-89492723D01*
X160793771Y-89445104D01*
X160889009Y-89397485D01*
X161127104Y-89397485D01*
X161222342Y-89445104D01*
X161269961Y-89492723D01*
X161317580Y-89587961D01*
X161317580Y-89826057D01*
X161269961Y-89921295D01*
X161222342Y-89968914D01*
X152817580Y-94695104D02*
X153627104Y-94695104D01*
X153722342Y-94647485D01*
X153769961Y-94599866D01*
X153817580Y-94504628D01*
X153817580Y-94314152D01*
X153769961Y-94218914D01*
X153722342Y-94171295D01*
X153627104Y-94123676D01*
X152817580Y-94123676D01*
X153150914Y-93218914D02*
X153817580Y-93218914D01*
X152769961Y-93457009D02*
X153484247Y-93695104D01*
X153484247Y-93076057D01*
X175643180Y-98895895D02*
X174643180Y-98895895D01*
X175643180Y-98324466D02*
X175071752Y-98753038D01*
X174643180Y-98324466D02*
X175214609Y-98895895D01*
X175547942Y-97324466D02*
X175595561Y-97372085D01*
X175643180Y-97514942D01*
X175643180Y-97610180D01*
X175595561Y-97753038D01*
X175500323Y-97848276D01*
X175405085Y-97895895D01*
X175214609Y-97943514D01*
X175071752Y-97943514D01*
X174881276Y-97895895D01*
X174786038Y-97848276D01*
X174690800Y-97753038D01*
X174643180Y-97610180D01*
X174643180Y-97514942D01*
X174690800Y-97372085D01*
X174738419Y-97324466D01*
X175595561Y-96943514D02*
X175643180Y-96800657D01*
X175643180Y-96562561D01*
X175595561Y-96467323D01*
X175547942Y-96419704D01*
X175452704Y-96372085D01*
X175357466Y-96372085D01*
X175262228Y-96419704D01*
X175214609Y-96467323D01*
X175166990Y-96562561D01*
X175119371Y-96753038D01*
X175071752Y-96848276D01*
X175024133Y-96895895D01*
X174928895Y-96943514D01*
X174833657Y-96943514D01*
X174738419Y-96895895D01*
X174690800Y-96848276D01*
X174643180Y-96753038D01*
X174643180Y-96514942D01*
X174690800Y-96372085D01*
X175547942Y-95372085D02*
X175595561Y-95419704D01*
X175643180Y-95562561D01*
X175643180Y-95657800D01*
X175595561Y-95800657D01*
X175500323Y-95895895D01*
X175405085Y-95943514D01*
X175214609Y-95991133D01*
X175071752Y-95991133D01*
X174881276Y-95943514D01*
X174786038Y-95895895D01*
X174690800Y-95800657D01*
X174643180Y-95657800D01*
X174643180Y-95562561D01*
X174690800Y-95419704D01*
X174738419Y-95372085D01*
X174643180Y-94753038D02*
X174643180Y-94657800D01*
X174690800Y-94562561D01*
X174738419Y-94514942D01*
X174833657Y-94467323D01*
X175024133Y-94419704D01*
X175262228Y-94419704D01*
X175452704Y-94467323D01*
X175547942Y-94514942D01*
X175595561Y-94562561D01*
X175643180Y-94657800D01*
X175643180Y-94753038D01*
X175595561Y-94848276D01*
X175547942Y-94895895D01*
X175452704Y-94943514D01*
X175262228Y-94991133D01*
X175024133Y-94991133D01*
X174833657Y-94943514D01*
X174738419Y-94895895D01*
X174690800Y-94848276D01*
X174643180Y-94753038D01*
X174738419Y-94038752D02*
X174690800Y-93991133D01*
X174643180Y-93895895D01*
X174643180Y-93657800D01*
X174690800Y-93562561D01*
X174738419Y-93514942D01*
X174833657Y-93467323D01*
X174928895Y-93467323D01*
X175071752Y-93514942D01*
X175643180Y-94086371D01*
X175643180Y-93467323D01*
X175262228Y-93038752D02*
X175262228Y-92276847D01*
X175643180Y-91276847D02*
X175643180Y-91848276D01*
X175643180Y-91562561D02*
X174643180Y-91562561D01*
X174786038Y-91657800D01*
X174881276Y-91753038D01*
X174928895Y-91848276D01*
X174643180Y-90657800D02*
X174643180Y-90562561D01*
X174690800Y-90467323D01*
X174738419Y-90419704D01*
X174833657Y-90372085D01*
X175024133Y-90324466D01*
X175262228Y-90324466D01*
X175452704Y-90372085D01*
X175547942Y-90419704D01*
X175595561Y-90467323D01*
X175643180Y-90562561D01*
X175643180Y-90657800D01*
X175595561Y-90753038D01*
X175547942Y-90800657D01*
X175452704Y-90848276D01*
X175262228Y-90895895D01*
X175024133Y-90895895D01*
X174833657Y-90848276D01*
X174738419Y-90800657D01*
X174690800Y-90753038D01*
X174643180Y-90657800D01*
X174643180Y-89419704D02*
X174643180Y-89895895D01*
X175119371Y-89943514D01*
X175071752Y-89895895D01*
X175024133Y-89800657D01*
X175024133Y-89562561D01*
X175071752Y-89467323D01*
X175119371Y-89419704D01*
X175214609Y-89372085D01*
X175452704Y-89372085D01*
X175547942Y-89419704D01*
X175595561Y-89467323D01*
X175643180Y-89562561D01*
X175643180Y-89800657D01*
X175595561Y-89895895D01*
X175547942Y-89943514D01*
X167143180Y-94669704D02*
X167952704Y-94669704D01*
X168047942Y-94622085D01*
X168095561Y-94574466D01*
X168143180Y-94479228D01*
X168143180Y-94288752D01*
X168095561Y-94193514D01*
X168047942Y-94145895D01*
X167952704Y-94098276D01*
X167143180Y-94098276D01*
X167143180Y-93717323D02*
X167143180Y-93098276D01*
X167524133Y-93431609D01*
X167524133Y-93288752D01*
X167571752Y-93193514D01*
X167619371Y-93145895D01*
X167714609Y-93098276D01*
X167952704Y-93098276D01*
X168047942Y-93145895D01*
X168095561Y-93193514D01*
X168143180Y-93288752D01*
X168143180Y-93574466D01*
X168095561Y-93669704D01*
X168047942Y-93717323D01*
X106802714Y-90346019D02*
X107469380Y-90346019D01*
X106421761Y-90584114D02*
X107136047Y-90822209D01*
X107136047Y-90203161D01*
X106469380Y-89346019D02*
X106469380Y-89822209D01*
X106945571Y-89869828D01*
X106897952Y-89822209D01*
X106850333Y-89726971D01*
X106850333Y-89488876D01*
X106897952Y-89393638D01*
X106945571Y-89346019D01*
X107040809Y-89298400D01*
X107278904Y-89298400D01*
X107374142Y-89346019D01*
X107421761Y-89393638D01*
X107469380Y-89488876D01*
X107469380Y-89726971D01*
X107421761Y-89822209D01*
X107374142Y-89869828D01*
X107469380Y-88346019D02*
X107469380Y-88917447D01*
X107469380Y-88631733D02*
X106469380Y-88631733D01*
X106612238Y-88726971D01*
X106707476Y-88822209D01*
X106755095Y-88917447D01*
X107469380Y-87393638D02*
X107469380Y-87965066D01*
X107469380Y-87679352D02*
X106469380Y-87679352D01*
X106612238Y-87774590D01*
X106707476Y-87869828D01*
X106755095Y-87965066D01*
X107469380Y-86965066D02*
X106802714Y-86965066D01*
X106993190Y-86965066D02*
X106897952Y-86917447D01*
X106850333Y-86869828D01*
X106802714Y-86774590D01*
X106802714Y-86679352D01*
X117689380Y-89560304D02*
X118498904Y-89560304D01*
X118594142Y-89512685D01*
X118641761Y-89465066D01*
X118689380Y-89369828D01*
X118689380Y-89179352D01*
X118641761Y-89084114D01*
X118594142Y-89036495D01*
X118498904Y-88988876D01*
X117689380Y-88988876D01*
X117784619Y-88560304D02*
X117737000Y-88512685D01*
X117689380Y-88417447D01*
X117689380Y-88179352D01*
X117737000Y-88084114D01*
X117784619Y-88036495D01*
X117879857Y-87988876D01*
X117975095Y-87988876D01*
X118117952Y-88036495D01*
X118689380Y-88607923D01*
X118689380Y-87988876D01*
X137979304Y-96999619D02*
X138026923Y-96952000D01*
X138122161Y-96904380D01*
X138360257Y-96904380D01*
X138455495Y-96952000D01*
X138503114Y-96999619D01*
X138550733Y-97094857D01*
X138550733Y-97190095D01*
X138503114Y-97332952D01*
X137931685Y-97904380D01*
X138550733Y-97904380D01*
X138931685Y-96999619D02*
X138979304Y-96952000D01*
X139074542Y-96904380D01*
X139312638Y-96904380D01*
X139407876Y-96952000D01*
X139455495Y-96999619D01*
X139503114Y-97094857D01*
X139503114Y-97190095D01*
X139455495Y-97332952D01*
X138884066Y-97904380D01*
X139503114Y-97904380D01*
X140122161Y-96904380D02*
X140217400Y-96904380D01*
X140312638Y-96952000D01*
X140360257Y-96999619D01*
X140407876Y-97094857D01*
X140455495Y-97285333D01*
X140455495Y-97523428D01*
X140407876Y-97713904D01*
X140360257Y-97809142D01*
X140312638Y-97856761D01*
X140217400Y-97904380D01*
X140122161Y-97904380D01*
X140026923Y-97856761D01*
X139979304Y-97809142D01*
X139931685Y-97713904D01*
X139884066Y-97523428D01*
X139884066Y-97285333D01*
X139931685Y-97094857D01*
X139979304Y-96999619D01*
X140026923Y-96952000D01*
X140122161Y-96904380D01*
X138574542Y-100274380D02*
X138241209Y-99798190D01*
X138003114Y-100274380D02*
X138003114Y-99274380D01*
X138384066Y-99274380D01*
X138479304Y-99322000D01*
X138526923Y-99369619D01*
X138574542Y-99464857D01*
X138574542Y-99607714D01*
X138526923Y-99702952D01*
X138479304Y-99750571D01*
X138384066Y-99798190D01*
X138003114Y-99798190D01*
X139526923Y-100274380D02*
X138955495Y-100274380D01*
X139241209Y-100274380D02*
X139241209Y-99274380D01*
X139145971Y-99417238D01*
X139050733Y-99512476D01*
X138955495Y-99560095D01*
X140431685Y-99274380D02*
X139955495Y-99274380D01*
X139907876Y-99750571D01*
X139955495Y-99702952D01*
X140050733Y-99655333D01*
X140288828Y-99655333D01*
X140384066Y-99702952D01*
X140431685Y-99750571D01*
X140479304Y-99845809D01*
X140479304Y-100083904D01*
X140431685Y-100179142D01*
X140384066Y-100226761D01*
X140288828Y-100274380D01*
X140050733Y-100274380D01*
X139955495Y-100226761D01*
X139907876Y-100179142D01*
X154007714Y-75360019D02*
X154674380Y-75360019D01*
X153626761Y-75598114D02*
X154341047Y-75836209D01*
X154341047Y-75217161D01*
X153674380Y-74360019D02*
X153674380Y-74836209D01*
X154150571Y-74883828D01*
X154102952Y-74836209D01*
X154055333Y-74740971D01*
X154055333Y-74502876D01*
X154102952Y-74407638D01*
X154150571Y-74360019D01*
X154245809Y-74312400D01*
X154483904Y-74312400D01*
X154579142Y-74360019D01*
X154626761Y-74407638D01*
X154674380Y-74502876D01*
X154674380Y-74740971D01*
X154626761Y-74836209D01*
X154579142Y-74883828D01*
X154674380Y-73360019D02*
X154674380Y-73931447D01*
X154674380Y-73645733D02*
X153674380Y-73645733D01*
X153817238Y-73740971D01*
X153912476Y-73836209D01*
X153960095Y-73931447D01*
X154674380Y-72407638D02*
X154674380Y-72979066D01*
X154674380Y-72693352D02*
X153674380Y-72693352D01*
X153817238Y-72788590D01*
X153912476Y-72883828D01*
X153960095Y-72979066D01*
X154674380Y-71979066D02*
X154007714Y-71979066D01*
X154198190Y-71979066D02*
X154102952Y-71931447D01*
X154055333Y-71883828D01*
X154007714Y-71788590D01*
X154007714Y-71693352D01*
X142454380Y-74574304D02*
X143263904Y-74574304D01*
X143359142Y-74526685D01*
X143406761Y-74479066D01*
X143454380Y-74383828D01*
X143454380Y-74193352D01*
X143406761Y-74098114D01*
X143359142Y-74050495D01*
X143263904Y-74002876D01*
X142454380Y-74002876D01*
X143454380Y-73002876D02*
X143454380Y-73574304D01*
X143454380Y-73288590D02*
X142454380Y-73288590D01*
X142597238Y-73383828D01*
X142692476Y-73479066D01*
X142740095Y-73574304D01*
X121354780Y-77335761D02*
X121497638Y-77383380D01*
X121735733Y-77383380D01*
X121830971Y-77335761D01*
X121878590Y-77288142D01*
X121926209Y-77192904D01*
X121926209Y-77097666D01*
X121878590Y-77002428D01*
X121830971Y-76954809D01*
X121735733Y-76907190D01*
X121545257Y-76859571D01*
X121450019Y-76811952D01*
X121402400Y-76764333D01*
X121354780Y-76669095D01*
X121354780Y-76573857D01*
X121402400Y-76478619D01*
X121450019Y-76431000D01*
X121545257Y-76383380D01*
X121783352Y-76383380D01*
X121926209Y-76431000D01*
X122259542Y-76383380D02*
X122497638Y-77383380D01*
X122688114Y-76669095D01*
X122878590Y-77383380D01*
X123116685Y-76383380D01*
X123259542Y-77478619D02*
X124021447Y-77478619D01*
X124259542Y-77383380D02*
X124259542Y-76383380D01*
X124640495Y-76383380D01*
X124735733Y-76431000D01*
X124783352Y-76478619D01*
X124830971Y-76573857D01*
X124830971Y-76716714D01*
X124783352Y-76811952D01*
X124735733Y-76859571D01*
X124640495Y-76907190D01*
X124259542Y-76907190D01*
X125688114Y-76716714D02*
X125688114Y-77383380D01*
X125259542Y-76716714D02*
X125259542Y-77240523D01*
X125307161Y-77335761D01*
X125402400Y-77383380D01*
X125545257Y-77383380D01*
X125640495Y-77335761D01*
X125688114Y-77288142D01*
X126116685Y-77335761D02*
X126211923Y-77383380D01*
X126402400Y-77383380D01*
X126497638Y-77335761D01*
X126545257Y-77240523D01*
X126545257Y-77192904D01*
X126497638Y-77097666D01*
X126402400Y-77050047D01*
X126259542Y-77050047D01*
X126164304Y-77002428D01*
X126116685Y-76907190D01*
X126116685Y-76859571D01*
X126164304Y-76764333D01*
X126259542Y-76716714D01*
X126402400Y-76716714D01*
X126497638Y-76764333D01*
X126973828Y-77383380D02*
X126973828Y-76383380D01*
X127402400Y-77383380D02*
X127402400Y-76859571D01*
X127354780Y-76764333D01*
X127259542Y-76716714D01*
X127116685Y-76716714D01*
X127021447Y-76764333D01*
X126973828Y-76811952D01*
X122569066Y-72885761D02*
X122711923Y-72933380D01*
X122950019Y-72933380D01*
X123045257Y-72885761D01*
X123092876Y-72838142D01*
X123140495Y-72742904D01*
X123140495Y-72647666D01*
X123092876Y-72552428D01*
X123045257Y-72504809D01*
X122950019Y-72457190D01*
X122759542Y-72409571D01*
X122664304Y-72361952D01*
X122616685Y-72314333D01*
X122569066Y-72219095D01*
X122569066Y-72123857D01*
X122616685Y-72028619D01*
X122664304Y-71981000D01*
X122759542Y-71933380D01*
X122997638Y-71933380D01*
X123140495Y-71981000D01*
X123473828Y-71933380D02*
X123711923Y-72933380D01*
X123902400Y-72219095D01*
X124092876Y-72933380D01*
X124330971Y-71933380D01*
X125235733Y-72933380D02*
X124664304Y-72933380D01*
X124950019Y-72933380D02*
X124950019Y-71933380D01*
X124854780Y-72076238D01*
X124759542Y-72171476D01*
X124664304Y-72219095D01*
X137979304Y-100073019D02*
X138026923Y-100025400D01*
X138122161Y-99977780D01*
X138360257Y-99977780D01*
X138455495Y-100025400D01*
X138503114Y-100073019D01*
X138550733Y-100168257D01*
X138550733Y-100263495D01*
X138503114Y-100406352D01*
X137931685Y-100977780D01*
X138550733Y-100977780D01*
X138931685Y-100073019D02*
X138979304Y-100025400D01*
X139074542Y-99977780D01*
X139312638Y-99977780D01*
X139407876Y-100025400D01*
X139455495Y-100073019D01*
X139503114Y-100168257D01*
X139503114Y-100263495D01*
X139455495Y-100406352D01*
X138884066Y-100977780D01*
X139503114Y-100977780D01*
X140122161Y-99977780D02*
X140217400Y-99977780D01*
X140312638Y-100025400D01*
X140360257Y-100073019D01*
X140407876Y-100168257D01*
X140455495Y-100358733D01*
X140455495Y-100596828D01*
X140407876Y-100787304D01*
X140360257Y-100882542D01*
X140312638Y-100930161D01*
X140217400Y-100977780D01*
X140122161Y-100977780D01*
X140026923Y-100930161D01*
X139979304Y-100882542D01*
X139931685Y-100787304D01*
X139884066Y-100596828D01*
X139884066Y-100358733D01*
X139931685Y-100168257D01*
X139979304Y-100073019D01*
X140026923Y-100025400D01*
X140122161Y-99977780D01*
X138574542Y-103347780D02*
X138241209Y-102871590D01*
X138003114Y-103347780D02*
X138003114Y-102347780D01*
X138384066Y-102347780D01*
X138479304Y-102395400D01*
X138526923Y-102443019D01*
X138574542Y-102538257D01*
X138574542Y-102681114D01*
X138526923Y-102776352D01*
X138479304Y-102823971D01*
X138384066Y-102871590D01*
X138003114Y-102871590D01*
X139526923Y-103347780D02*
X138955495Y-103347780D01*
X139241209Y-103347780D02*
X139241209Y-102347780D01*
X139145971Y-102490638D01*
X139050733Y-102585876D01*
X138955495Y-102633495D01*
X140384066Y-102347780D02*
X140193590Y-102347780D01*
X140098352Y-102395400D01*
X140050733Y-102443019D01*
X139955495Y-102585876D01*
X139907876Y-102776352D01*
X139907876Y-103157304D01*
X139955495Y-103252542D01*
X140003114Y-103300161D01*
X140098352Y-103347780D01*
X140288828Y-103347780D01*
X140384066Y-103300161D01*
X140431685Y-103252542D01*
X140479304Y-103157304D01*
X140479304Y-102919209D01*
X140431685Y-102823971D01*
X140384066Y-102776352D01*
X140288828Y-102728733D01*
X140098352Y-102728733D01*
X140003114Y-102776352D01*
X139955495Y-102823971D01*
X139907876Y-102919209D01*
X137979304Y-93875419D02*
X138026923Y-93827800D01*
X138122161Y-93780180D01*
X138360257Y-93780180D01*
X138455495Y-93827800D01*
X138503114Y-93875419D01*
X138550733Y-93970657D01*
X138550733Y-94065895D01*
X138503114Y-94208752D01*
X137931685Y-94780180D01*
X138550733Y-94780180D01*
X138931685Y-93875419D02*
X138979304Y-93827800D01*
X139074542Y-93780180D01*
X139312638Y-93780180D01*
X139407876Y-93827800D01*
X139455495Y-93875419D01*
X139503114Y-93970657D01*
X139503114Y-94065895D01*
X139455495Y-94208752D01*
X138884066Y-94780180D01*
X139503114Y-94780180D01*
X140122161Y-93780180D02*
X140217400Y-93780180D01*
X140312638Y-93827800D01*
X140360257Y-93875419D01*
X140407876Y-93970657D01*
X140455495Y-94161133D01*
X140455495Y-94399228D01*
X140407876Y-94589704D01*
X140360257Y-94684942D01*
X140312638Y-94732561D01*
X140217400Y-94780180D01*
X140122161Y-94780180D01*
X140026923Y-94732561D01*
X139979304Y-94684942D01*
X139931685Y-94589704D01*
X139884066Y-94399228D01*
X139884066Y-94161133D01*
X139931685Y-93970657D01*
X139979304Y-93875419D01*
X140026923Y-93827800D01*
X140122161Y-93780180D01*
X138574542Y-97150180D02*
X138241209Y-96673990D01*
X138003114Y-97150180D02*
X138003114Y-96150180D01*
X138384066Y-96150180D01*
X138479304Y-96197800D01*
X138526923Y-96245419D01*
X138574542Y-96340657D01*
X138574542Y-96483514D01*
X138526923Y-96578752D01*
X138479304Y-96626371D01*
X138384066Y-96673990D01*
X138003114Y-96673990D01*
X139526923Y-97150180D02*
X138955495Y-97150180D01*
X139241209Y-97150180D02*
X139241209Y-96150180D01*
X139145971Y-96293038D01*
X139050733Y-96388276D01*
X138955495Y-96435895D01*
X140384066Y-96483514D02*
X140384066Y-97150180D01*
X140145971Y-96102561D02*
X139907876Y-96816847D01*
X140526923Y-96816847D01*
X138360257Y-90776619D02*
X138407876Y-90729000D01*
X138503114Y-90681380D01*
X138741209Y-90681380D01*
X138836447Y-90729000D01*
X138884066Y-90776619D01*
X138931685Y-90871857D01*
X138931685Y-90967095D01*
X138884066Y-91109952D01*
X138312638Y-91681380D01*
X138931685Y-91681380D01*
X139312638Y-90776619D02*
X139360257Y-90729000D01*
X139455495Y-90681380D01*
X139693590Y-90681380D01*
X139788828Y-90729000D01*
X139836447Y-90776619D01*
X139884066Y-90871857D01*
X139884066Y-90967095D01*
X139836447Y-91109952D01*
X139265019Y-91681380D01*
X139884066Y-91681380D01*
X140503114Y-90681380D02*
X140598352Y-90681380D01*
X140693590Y-90729000D01*
X140741209Y-90776619D01*
X140788828Y-90871857D01*
X140836447Y-91062333D01*
X140836447Y-91300428D01*
X140788828Y-91490904D01*
X140741209Y-91586142D01*
X140693590Y-91633761D01*
X140598352Y-91681380D01*
X140503114Y-91681380D01*
X140407876Y-91633761D01*
X140360257Y-91586142D01*
X140312638Y-91490904D01*
X140265019Y-91300428D01*
X140265019Y-91062333D01*
X140312638Y-90871857D01*
X140360257Y-90776619D01*
X140407876Y-90729000D01*
X140503114Y-90681380D01*
X138574542Y-94051380D02*
X138241209Y-93575190D01*
X138003114Y-94051380D02*
X138003114Y-93051380D01*
X138384066Y-93051380D01*
X138479304Y-93099000D01*
X138526923Y-93146619D01*
X138574542Y-93241857D01*
X138574542Y-93384714D01*
X138526923Y-93479952D01*
X138479304Y-93527571D01*
X138384066Y-93575190D01*
X138003114Y-93575190D01*
X139526923Y-94051380D02*
X138955495Y-94051380D01*
X139241209Y-94051380D02*
X139241209Y-93051380D01*
X139145971Y-93194238D01*
X139050733Y-93289476D01*
X138955495Y-93337095D01*
X139860257Y-93051380D02*
X140479304Y-93051380D01*
X140145971Y-93432333D01*
X140288828Y-93432333D01*
X140384066Y-93479952D01*
X140431685Y-93527571D01*
X140479304Y-93622809D01*
X140479304Y-93860904D01*
X140431685Y-93956142D01*
X140384066Y-94003761D01*
X140288828Y-94051380D01*
X140003114Y-94051380D01*
X139907876Y-94003761D01*
X139860257Y-93956142D01*
X137953904Y-92417819D02*
X138001523Y-92370200D01*
X138096761Y-92322580D01*
X138334857Y-92322580D01*
X138430095Y-92370200D01*
X138477714Y-92417819D01*
X138525333Y-92513057D01*
X138525333Y-92608295D01*
X138477714Y-92751152D01*
X137906285Y-93322580D01*
X138525333Y-93322580D01*
X138906285Y-92417819D02*
X138953904Y-92370200D01*
X139049142Y-92322580D01*
X139287238Y-92322580D01*
X139382476Y-92370200D01*
X139430095Y-92417819D01*
X139477714Y-92513057D01*
X139477714Y-92608295D01*
X139430095Y-92751152D01*
X138858666Y-93322580D01*
X139477714Y-93322580D01*
X140096761Y-92322580D02*
X140192000Y-92322580D01*
X140287238Y-92370200D01*
X140334857Y-92417819D01*
X140382476Y-92513057D01*
X140430095Y-92703533D01*
X140430095Y-92941628D01*
X140382476Y-93132104D01*
X140334857Y-93227342D01*
X140287238Y-93274961D01*
X140192000Y-93322580D01*
X140096761Y-93322580D01*
X140001523Y-93274961D01*
X139953904Y-93227342D01*
X139906285Y-93132104D01*
X139858666Y-92941628D01*
X139858666Y-92703533D01*
X139906285Y-92513057D01*
X139953904Y-92417819D01*
X140001523Y-92370200D01*
X140096761Y-92322580D01*
X138549142Y-90952580D02*
X138215809Y-90476390D01*
X137977714Y-90952580D02*
X137977714Y-89952580D01*
X138358666Y-89952580D01*
X138453904Y-90000200D01*
X138501523Y-90047819D01*
X138549142Y-90143057D01*
X138549142Y-90285914D01*
X138501523Y-90381152D01*
X138453904Y-90428771D01*
X138358666Y-90476390D01*
X137977714Y-90476390D01*
X139501523Y-90952580D02*
X138930095Y-90952580D01*
X139215809Y-90952580D02*
X139215809Y-89952580D01*
X139120571Y-90095438D01*
X139025333Y-90190676D01*
X138930095Y-90238295D01*
X139882476Y-90047819D02*
X139930095Y-90000200D01*
X140025333Y-89952580D01*
X140263428Y-89952580D01*
X140358666Y-90000200D01*
X140406285Y-90047819D01*
X140453904Y-90143057D01*
X140453904Y-90238295D01*
X140406285Y-90381152D01*
X139834857Y-90952580D01*
X140453904Y-90952580D01*
X137953904Y-89293619D02*
X138001523Y-89246000D01*
X138096761Y-89198380D01*
X138334857Y-89198380D01*
X138430095Y-89246000D01*
X138477714Y-89293619D01*
X138525333Y-89388857D01*
X138525333Y-89484095D01*
X138477714Y-89626952D01*
X137906285Y-90198380D01*
X138525333Y-90198380D01*
X138906285Y-89293619D02*
X138953904Y-89246000D01*
X139049142Y-89198380D01*
X139287238Y-89198380D01*
X139382476Y-89246000D01*
X139430095Y-89293619D01*
X139477714Y-89388857D01*
X139477714Y-89484095D01*
X139430095Y-89626952D01*
X138858666Y-90198380D01*
X139477714Y-90198380D01*
X140096761Y-89198380D02*
X140192000Y-89198380D01*
X140287238Y-89246000D01*
X140334857Y-89293619D01*
X140382476Y-89388857D01*
X140430095Y-89579333D01*
X140430095Y-89817428D01*
X140382476Y-90007904D01*
X140334857Y-90103142D01*
X140287238Y-90150761D01*
X140192000Y-90198380D01*
X140096761Y-90198380D01*
X140001523Y-90150761D01*
X139953904Y-90103142D01*
X139906285Y-90007904D01*
X139858666Y-89817428D01*
X139858666Y-89579333D01*
X139906285Y-89388857D01*
X139953904Y-89293619D01*
X140001523Y-89246000D01*
X140096761Y-89198380D01*
X138549142Y-87828380D02*
X138215809Y-87352190D01*
X137977714Y-87828380D02*
X137977714Y-86828380D01*
X138358666Y-86828380D01*
X138453904Y-86876000D01*
X138501523Y-86923619D01*
X138549142Y-87018857D01*
X138549142Y-87161714D01*
X138501523Y-87256952D01*
X138453904Y-87304571D01*
X138358666Y-87352190D01*
X137977714Y-87352190D01*
X139501523Y-87828380D02*
X138930095Y-87828380D01*
X139215809Y-87828380D02*
X139215809Y-86828380D01*
X139120571Y-86971238D01*
X139025333Y-87066476D01*
X138930095Y-87114095D01*
X140453904Y-87828380D02*
X139882476Y-87828380D01*
X140168190Y-87828380D02*
X140168190Y-86828380D01*
X140072952Y-86971238D01*
X139977714Y-87066476D01*
X139882476Y-87114095D01*
X137953904Y-81404019D02*
X138001523Y-81356400D01*
X138096761Y-81308780D01*
X138334857Y-81308780D01*
X138430095Y-81356400D01*
X138477714Y-81404019D01*
X138525333Y-81499257D01*
X138525333Y-81594495D01*
X138477714Y-81737352D01*
X137906285Y-82308780D01*
X138525333Y-82308780D01*
X138906285Y-81404019D02*
X138953904Y-81356400D01*
X139049142Y-81308780D01*
X139287238Y-81308780D01*
X139382476Y-81356400D01*
X139430095Y-81404019D01*
X139477714Y-81499257D01*
X139477714Y-81594495D01*
X139430095Y-81737352D01*
X138858666Y-82308780D01*
X139477714Y-82308780D01*
X140096761Y-81308780D02*
X140192000Y-81308780D01*
X140287238Y-81356400D01*
X140334857Y-81404019D01*
X140382476Y-81499257D01*
X140430095Y-81689733D01*
X140430095Y-81927828D01*
X140382476Y-82118304D01*
X140334857Y-82213542D01*
X140287238Y-82261161D01*
X140192000Y-82308780D01*
X140096761Y-82308780D01*
X140001523Y-82261161D01*
X139953904Y-82213542D01*
X139906285Y-82118304D01*
X139858666Y-81927828D01*
X139858666Y-81689733D01*
X139906285Y-81499257D01*
X139953904Y-81404019D01*
X140001523Y-81356400D01*
X140096761Y-81308780D01*
X138549142Y-84678780D02*
X138215809Y-84202590D01*
X137977714Y-84678780D02*
X137977714Y-83678780D01*
X138358666Y-83678780D01*
X138453904Y-83726400D01*
X138501523Y-83774019D01*
X138549142Y-83869257D01*
X138549142Y-84012114D01*
X138501523Y-84107352D01*
X138453904Y-84154971D01*
X138358666Y-84202590D01*
X137977714Y-84202590D01*
X139501523Y-84678780D02*
X138930095Y-84678780D01*
X139215809Y-84678780D02*
X139215809Y-83678780D01*
X139120571Y-83821638D01*
X139025333Y-83916876D01*
X138930095Y-83964495D01*
X140120571Y-83678780D02*
X140215809Y-83678780D01*
X140311047Y-83726400D01*
X140358666Y-83774019D01*
X140406285Y-83869257D01*
X140453904Y-84059733D01*
X140453904Y-84297828D01*
X140406285Y-84488304D01*
X140358666Y-84583542D01*
X140311047Y-84631161D01*
X140215809Y-84678780D01*
X140120571Y-84678780D01*
X140025333Y-84631161D01*
X139977714Y-84583542D01*
X139930095Y-84488304D01*
X139882476Y-84297828D01*
X139882476Y-84059733D01*
X139930095Y-83869257D01*
X139977714Y-83774019D01*
X140025333Y-83726400D01*
X140120571Y-83678780D01*
X161525104Y-78305219D02*
X161572723Y-78257600D01*
X161667961Y-78209980D01*
X161906057Y-78209980D01*
X162001295Y-78257600D01*
X162048914Y-78305219D01*
X162096533Y-78400457D01*
X162096533Y-78495695D01*
X162048914Y-78638552D01*
X161477485Y-79209980D01*
X162096533Y-79209980D01*
X162477485Y-78305219D02*
X162525104Y-78257600D01*
X162620342Y-78209980D01*
X162858438Y-78209980D01*
X162953676Y-78257600D01*
X163001295Y-78305219D01*
X163048914Y-78400457D01*
X163048914Y-78495695D01*
X163001295Y-78638552D01*
X162429866Y-79209980D01*
X163048914Y-79209980D01*
X163667961Y-78209980D02*
X163763200Y-78209980D01*
X163858438Y-78257600D01*
X163906057Y-78305219D01*
X163953676Y-78400457D01*
X164001295Y-78590933D01*
X164001295Y-78829028D01*
X163953676Y-79019504D01*
X163906057Y-79114742D01*
X163858438Y-79162361D01*
X163763200Y-79209980D01*
X163667961Y-79209980D01*
X163572723Y-79162361D01*
X163525104Y-79114742D01*
X163477485Y-79019504D01*
X163429866Y-78829028D01*
X163429866Y-78590933D01*
X163477485Y-78400457D01*
X163525104Y-78305219D01*
X163572723Y-78257600D01*
X163667961Y-78209980D01*
X162596533Y-81579980D02*
X162263200Y-81103790D01*
X162025104Y-81579980D02*
X162025104Y-80579980D01*
X162406057Y-80579980D01*
X162501295Y-80627600D01*
X162548914Y-80675219D01*
X162596533Y-80770457D01*
X162596533Y-80913314D01*
X162548914Y-81008552D01*
X162501295Y-81056171D01*
X162406057Y-81103790D01*
X162025104Y-81103790D01*
X163072723Y-81579980D02*
X163263200Y-81579980D01*
X163358438Y-81532361D01*
X163406057Y-81484742D01*
X163501295Y-81341885D01*
X163548914Y-81151409D01*
X163548914Y-80770457D01*
X163501295Y-80675219D01*
X163453676Y-80627600D01*
X163358438Y-80579980D01*
X163167961Y-80579980D01*
X163072723Y-80627600D01*
X163025104Y-80675219D01*
X162977485Y-80770457D01*
X162977485Y-81008552D01*
X163025104Y-81103790D01*
X163072723Y-81151409D01*
X163167961Y-81199028D01*
X163358438Y-81199028D01*
X163453676Y-81151409D01*
X163501295Y-81103790D01*
X163548914Y-81008552D01*
X161550504Y-72082219D02*
X161598123Y-72034600D01*
X161693361Y-71986980D01*
X161931457Y-71986980D01*
X162026695Y-72034600D01*
X162074314Y-72082219D01*
X162121933Y-72177457D01*
X162121933Y-72272695D01*
X162074314Y-72415552D01*
X161502885Y-72986980D01*
X162121933Y-72986980D01*
X162502885Y-72082219D02*
X162550504Y-72034600D01*
X162645742Y-71986980D01*
X162883838Y-71986980D01*
X162979076Y-72034600D01*
X163026695Y-72082219D01*
X163074314Y-72177457D01*
X163074314Y-72272695D01*
X163026695Y-72415552D01*
X162455266Y-72986980D01*
X163074314Y-72986980D01*
X163693361Y-71986980D02*
X163788600Y-71986980D01*
X163883838Y-72034600D01*
X163931457Y-72082219D01*
X163979076Y-72177457D01*
X164026695Y-72367933D01*
X164026695Y-72606028D01*
X163979076Y-72796504D01*
X163931457Y-72891742D01*
X163883838Y-72939361D01*
X163788600Y-72986980D01*
X163693361Y-72986980D01*
X163598123Y-72939361D01*
X163550504Y-72891742D01*
X163502885Y-72796504D01*
X163455266Y-72606028D01*
X163455266Y-72367933D01*
X163502885Y-72177457D01*
X163550504Y-72082219D01*
X163598123Y-72034600D01*
X163693361Y-71986980D01*
X162621933Y-75356980D02*
X162288600Y-74880790D01*
X162050504Y-75356980D02*
X162050504Y-74356980D01*
X162431457Y-74356980D01*
X162526695Y-74404600D01*
X162574314Y-74452219D01*
X162621933Y-74547457D01*
X162621933Y-74690314D01*
X162574314Y-74785552D01*
X162526695Y-74833171D01*
X162431457Y-74880790D01*
X162050504Y-74880790D01*
X163193361Y-74785552D02*
X163098123Y-74737933D01*
X163050504Y-74690314D01*
X163002885Y-74595076D01*
X163002885Y-74547457D01*
X163050504Y-74452219D01*
X163098123Y-74404600D01*
X163193361Y-74356980D01*
X163383838Y-74356980D01*
X163479076Y-74404600D01*
X163526695Y-74452219D01*
X163574314Y-74547457D01*
X163574314Y-74595076D01*
X163526695Y-74690314D01*
X163479076Y-74737933D01*
X163383838Y-74785552D01*
X163193361Y-74785552D01*
X163098123Y-74833171D01*
X163050504Y-74880790D01*
X163002885Y-74976028D01*
X163002885Y-75166504D01*
X163050504Y-75261742D01*
X163098123Y-75309361D01*
X163193361Y-75356980D01*
X163383838Y-75356980D01*
X163479076Y-75309361D01*
X163526695Y-75261742D01*
X163574314Y-75166504D01*
X163574314Y-74976028D01*
X163526695Y-74880790D01*
X163479076Y-74833171D01*
X163383838Y-74785552D01*
X161550504Y-75206419D02*
X161598123Y-75158800D01*
X161693361Y-75111180D01*
X161931457Y-75111180D01*
X162026695Y-75158800D01*
X162074314Y-75206419D01*
X162121933Y-75301657D01*
X162121933Y-75396895D01*
X162074314Y-75539752D01*
X161502885Y-76111180D01*
X162121933Y-76111180D01*
X162502885Y-75206419D02*
X162550504Y-75158800D01*
X162645742Y-75111180D01*
X162883838Y-75111180D01*
X162979076Y-75158800D01*
X163026695Y-75206419D01*
X163074314Y-75301657D01*
X163074314Y-75396895D01*
X163026695Y-75539752D01*
X162455266Y-76111180D01*
X163074314Y-76111180D01*
X163693361Y-75111180D02*
X163788600Y-75111180D01*
X163883838Y-75158800D01*
X163931457Y-75206419D01*
X163979076Y-75301657D01*
X164026695Y-75492133D01*
X164026695Y-75730228D01*
X163979076Y-75920704D01*
X163931457Y-76015942D01*
X163883838Y-76063561D01*
X163788600Y-76111180D01*
X163693361Y-76111180D01*
X163598123Y-76063561D01*
X163550504Y-76015942D01*
X163502885Y-75920704D01*
X163455266Y-75730228D01*
X163455266Y-75492133D01*
X163502885Y-75301657D01*
X163550504Y-75206419D01*
X163598123Y-75158800D01*
X163693361Y-75111180D01*
X162621933Y-78481180D02*
X162288600Y-78004990D01*
X162050504Y-78481180D02*
X162050504Y-77481180D01*
X162431457Y-77481180D01*
X162526695Y-77528800D01*
X162574314Y-77576419D01*
X162621933Y-77671657D01*
X162621933Y-77814514D01*
X162574314Y-77909752D01*
X162526695Y-77957371D01*
X162431457Y-78004990D01*
X162050504Y-78004990D01*
X162955266Y-77481180D02*
X163621933Y-77481180D01*
X163193361Y-78481180D01*
X147047057Y-60169619D02*
X147094676Y-60122000D01*
X147189914Y-60074380D01*
X147428009Y-60074380D01*
X147523247Y-60122000D01*
X147570866Y-60169619D01*
X147618485Y-60264857D01*
X147618485Y-60360095D01*
X147570866Y-60502952D01*
X146999438Y-61074380D01*
X147618485Y-61074380D01*
X147999438Y-60169619D02*
X148047057Y-60122000D01*
X148142295Y-60074380D01*
X148380390Y-60074380D01*
X148475628Y-60122000D01*
X148523247Y-60169619D01*
X148570866Y-60264857D01*
X148570866Y-60360095D01*
X148523247Y-60502952D01*
X147951819Y-61074380D01*
X148570866Y-61074380D01*
X149189914Y-60074380D02*
X149285152Y-60074380D01*
X149380390Y-60122000D01*
X149428009Y-60169619D01*
X149475628Y-60264857D01*
X149523247Y-60455333D01*
X149523247Y-60693428D01*
X149475628Y-60883904D01*
X149428009Y-60979142D01*
X149380390Y-61026761D01*
X149285152Y-61074380D01*
X149189914Y-61074380D01*
X149094676Y-61026761D01*
X149047057Y-60979142D01*
X148999438Y-60883904D01*
X148951819Y-60693428D01*
X148951819Y-60455333D01*
X148999438Y-60264857D01*
X149047057Y-60169619D01*
X149094676Y-60122000D01*
X149189914Y-60074380D01*
X147737533Y-63444380D02*
X147404200Y-62968190D01*
X147166104Y-63444380D02*
X147166104Y-62444380D01*
X147547057Y-62444380D01*
X147642295Y-62492000D01*
X147689914Y-62539619D01*
X147737533Y-62634857D01*
X147737533Y-62777714D01*
X147689914Y-62872952D01*
X147642295Y-62920571D01*
X147547057Y-62968190D01*
X147166104Y-62968190D01*
X148594676Y-62444380D02*
X148404200Y-62444380D01*
X148308961Y-62492000D01*
X148261342Y-62539619D01*
X148166104Y-62682476D01*
X148118485Y-62872952D01*
X148118485Y-63253904D01*
X148166104Y-63349142D01*
X148213723Y-63396761D01*
X148308961Y-63444380D01*
X148499438Y-63444380D01*
X148594676Y-63396761D01*
X148642295Y-63349142D01*
X148689914Y-63253904D01*
X148689914Y-63015809D01*
X148642295Y-62920571D01*
X148594676Y-62872952D01*
X148499438Y-62825333D01*
X148308961Y-62825333D01*
X148213723Y-62872952D01*
X148166104Y-62920571D01*
X148118485Y-63015809D01*
X146666104Y-68008419D02*
X146713723Y-67960800D01*
X146808961Y-67913180D01*
X147047057Y-67913180D01*
X147142295Y-67960800D01*
X147189914Y-68008419D01*
X147237533Y-68103657D01*
X147237533Y-68198895D01*
X147189914Y-68341752D01*
X146618485Y-68913180D01*
X147237533Y-68913180D01*
X147618485Y-68008419D02*
X147666104Y-67960800D01*
X147761342Y-67913180D01*
X147999438Y-67913180D01*
X148094676Y-67960800D01*
X148142295Y-68008419D01*
X148189914Y-68103657D01*
X148189914Y-68198895D01*
X148142295Y-68341752D01*
X147570866Y-68913180D01*
X148189914Y-68913180D01*
X148808961Y-67913180D02*
X148904200Y-67913180D01*
X148999438Y-67960800D01*
X149047057Y-68008419D01*
X149094676Y-68103657D01*
X149142295Y-68294133D01*
X149142295Y-68532228D01*
X149094676Y-68722704D01*
X149047057Y-68817942D01*
X148999438Y-68865561D01*
X148904200Y-68913180D01*
X148808961Y-68913180D01*
X148713723Y-68865561D01*
X148666104Y-68817942D01*
X148618485Y-68722704D01*
X148570866Y-68532228D01*
X148570866Y-68294133D01*
X148618485Y-68103657D01*
X148666104Y-68008419D01*
X148713723Y-67960800D01*
X148808961Y-67913180D01*
X147737533Y-66543180D02*
X147404200Y-66066990D01*
X147166104Y-66543180D02*
X147166104Y-65543180D01*
X147547057Y-65543180D01*
X147642295Y-65590800D01*
X147689914Y-65638419D01*
X147737533Y-65733657D01*
X147737533Y-65876514D01*
X147689914Y-65971752D01*
X147642295Y-66019371D01*
X147547057Y-66066990D01*
X147166104Y-66066990D01*
X148642295Y-65543180D02*
X148166104Y-65543180D01*
X148118485Y-66019371D01*
X148166104Y-65971752D01*
X148261342Y-65924133D01*
X148499438Y-65924133D01*
X148594676Y-65971752D01*
X148642295Y-66019371D01*
X148689914Y-66114609D01*
X148689914Y-66352704D01*
X148642295Y-66447942D01*
X148594676Y-66495561D01*
X148499438Y-66543180D01*
X148261342Y-66543180D01*
X148166104Y-66495561D01*
X148118485Y-66447942D01*
X161550504Y-73723419D02*
X161598123Y-73675800D01*
X161693361Y-73628180D01*
X161931457Y-73628180D01*
X162026695Y-73675800D01*
X162074314Y-73723419D01*
X162121933Y-73818657D01*
X162121933Y-73913895D01*
X162074314Y-74056752D01*
X161502885Y-74628180D01*
X162121933Y-74628180D01*
X162502885Y-73723419D02*
X162550504Y-73675800D01*
X162645742Y-73628180D01*
X162883838Y-73628180D01*
X162979076Y-73675800D01*
X163026695Y-73723419D01*
X163074314Y-73818657D01*
X163074314Y-73913895D01*
X163026695Y-74056752D01*
X162455266Y-74628180D01*
X163074314Y-74628180D01*
X163693361Y-73628180D02*
X163788600Y-73628180D01*
X163883838Y-73675800D01*
X163931457Y-73723419D01*
X163979076Y-73818657D01*
X164026695Y-74009133D01*
X164026695Y-74247228D01*
X163979076Y-74437704D01*
X163931457Y-74532942D01*
X163883838Y-74580561D01*
X163788600Y-74628180D01*
X163693361Y-74628180D01*
X163598123Y-74580561D01*
X163550504Y-74532942D01*
X163502885Y-74437704D01*
X163455266Y-74247228D01*
X163455266Y-74009133D01*
X163502885Y-73818657D01*
X163550504Y-73723419D01*
X163598123Y-73675800D01*
X163693361Y-73628180D01*
X162621933Y-72258180D02*
X162288600Y-71781990D01*
X162050504Y-72258180D02*
X162050504Y-71258180D01*
X162431457Y-71258180D01*
X162526695Y-71305800D01*
X162574314Y-71353419D01*
X162621933Y-71448657D01*
X162621933Y-71591514D01*
X162574314Y-71686752D01*
X162526695Y-71734371D01*
X162431457Y-71781990D01*
X162050504Y-71781990D01*
X163479076Y-71591514D02*
X163479076Y-72258180D01*
X163240980Y-71210561D02*
X163002885Y-71924847D01*
X163621933Y-71924847D01*
X158127619Y-65779495D02*
X158080000Y-65731876D01*
X158032380Y-65636638D01*
X158032380Y-65398542D01*
X158080000Y-65303304D01*
X158127619Y-65255685D01*
X158222857Y-65208066D01*
X158318095Y-65208066D01*
X158460952Y-65255685D01*
X159032380Y-65827114D01*
X159032380Y-65208066D01*
X158127619Y-64827114D02*
X158080000Y-64779495D01*
X158032380Y-64684257D01*
X158032380Y-64446161D01*
X158080000Y-64350923D01*
X158127619Y-64303304D01*
X158222857Y-64255685D01*
X158318095Y-64255685D01*
X158460952Y-64303304D01*
X159032380Y-64874733D01*
X159032380Y-64255685D01*
X158032380Y-63636638D02*
X158032380Y-63541400D01*
X158080000Y-63446161D01*
X158127619Y-63398542D01*
X158222857Y-63350923D01*
X158413333Y-63303304D01*
X158651428Y-63303304D01*
X158841904Y-63350923D01*
X158937142Y-63398542D01*
X158984761Y-63446161D01*
X159032380Y-63541400D01*
X159032380Y-63636638D01*
X158984761Y-63731876D01*
X158937142Y-63779495D01*
X158841904Y-63827114D01*
X158651428Y-63874733D01*
X158413333Y-63874733D01*
X158222857Y-63827114D01*
X158127619Y-63779495D01*
X158080000Y-63731876D01*
X158032380Y-63636638D01*
X156662380Y-64708066D02*
X156186190Y-65041400D01*
X156662380Y-65279495D02*
X155662380Y-65279495D01*
X155662380Y-64898542D01*
X155710000Y-64803304D01*
X155757619Y-64755685D01*
X155852857Y-64708066D01*
X155995714Y-64708066D01*
X156090952Y-64755685D01*
X156138571Y-64803304D01*
X156186190Y-64898542D01*
X156186190Y-65279495D01*
X155662380Y-64374733D02*
X155662380Y-63755685D01*
X156043333Y-64089019D01*
X156043333Y-63946161D01*
X156090952Y-63850923D01*
X156138571Y-63803304D01*
X156233809Y-63755685D01*
X156471904Y-63755685D01*
X156567142Y-63803304D01*
X156614761Y-63850923D01*
X156662380Y-63946161D01*
X156662380Y-64231876D01*
X156614761Y-64327114D01*
X156567142Y-64374733D01*
X110655019Y-79368495D02*
X110607400Y-79320876D01*
X110559780Y-79225638D01*
X110559780Y-78987542D01*
X110607400Y-78892304D01*
X110655019Y-78844685D01*
X110750257Y-78797066D01*
X110845495Y-78797066D01*
X110988352Y-78844685D01*
X111559780Y-79416114D01*
X111559780Y-78797066D01*
X110655019Y-78416114D02*
X110607400Y-78368495D01*
X110559780Y-78273257D01*
X110559780Y-78035161D01*
X110607400Y-77939923D01*
X110655019Y-77892304D01*
X110750257Y-77844685D01*
X110845495Y-77844685D01*
X110988352Y-77892304D01*
X111559780Y-78463733D01*
X111559780Y-77844685D01*
X110559780Y-77225638D02*
X110559780Y-77130400D01*
X110607400Y-77035161D01*
X110655019Y-76987542D01*
X110750257Y-76939923D01*
X110940733Y-76892304D01*
X111178828Y-76892304D01*
X111369304Y-76939923D01*
X111464542Y-76987542D01*
X111512161Y-77035161D01*
X111559780Y-77130400D01*
X111559780Y-77225638D01*
X111512161Y-77320876D01*
X111464542Y-77368495D01*
X111369304Y-77416114D01*
X111178828Y-77463733D01*
X110940733Y-77463733D01*
X110750257Y-77416114D01*
X110655019Y-77368495D01*
X110607400Y-77320876D01*
X110559780Y-77225638D01*
X109189780Y-78297066D02*
X108713590Y-78630400D01*
X109189780Y-78868495D02*
X108189780Y-78868495D01*
X108189780Y-78487542D01*
X108237400Y-78392304D01*
X108285019Y-78344685D01*
X108380257Y-78297066D01*
X108523114Y-78297066D01*
X108618352Y-78344685D01*
X108665971Y-78392304D01*
X108713590Y-78487542D01*
X108713590Y-78868495D01*
X108285019Y-77916114D02*
X108237400Y-77868495D01*
X108189780Y-77773257D01*
X108189780Y-77535161D01*
X108237400Y-77439923D01*
X108285019Y-77392304D01*
X108380257Y-77344685D01*
X108475495Y-77344685D01*
X108618352Y-77392304D01*
X109189780Y-77963733D01*
X109189780Y-77344685D01*
X111901361Y-73815380D02*
X111329933Y-73815380D01*
X111615647Y-73815380D02*
X111615647Y-72815380D01*
X111520409Y-72958238D01*
X111425171Y-73053476D01*
X111329933Y-73101095D01*
X112520409Y-72815380D02*
X112615647Y-72815380D01*
X112710885Y-72863000D01*
X112758504Y-72910619D01*
X112806123Y-73005857D01*
X112853742Y-73196333D01*
X112853742Y-73434428D01*
X112806123Y-73624904D01*
X112758504Y-73720142D01*
X112710885Y-73767761D01*
X112615647Y-73815380D01*
X112520409Y-73815380D01*
X112425171Y-73767761D01*
X112377552Y-73720142D01*
X112329933Y-73624904D01*
X112282314Y-73434428D01*
X112282314Y-73196333D01*
X112329933Y-73005857D01*
X112377552Y-72910619D01*
X112425171Y-72863000D01*
X112520409Y-72815380D01*
X113282314Y-73815380D02*
X113282314Y-72815380D01*
X113377552Y-73434428D02*
X113663266Y-73815380D01*
X113663266Y-73148714D02*
X113282314Y-73529666D01*
X112329933Y-71445380D02*
X111996600Y-70969190D01*
X111758504Y-71445380D02*
X111758504Y-70445380D01*
X112139457Y-70445380D01*
X112234695Y-70493000D01*
X112282314Y-70540619D01*
X112329933Y-70635857D01*
X112329933Y-70778714D01*
X112282314Y-70873952D01*
X112234695Y-70921571D01*
X112139457Y-70969190D01*
X111758504Y-70969190D01*
X113282314Y-71445380D02*
X112710885Y-71445380D01*
X112996600Y-71445380D02*
X112996600Y-70445380D01*
X112901361Y-70588238D01*
X112806123Y-70683476D01*
X112710885Y-70731095D01*
X125713123Y-74408742D02*
X125665504Y-74456361D01*
X125522647Y-74503980D01*
X125427409Y-74503980D01*
X125284552Y-74456361D01*
X125189314Y-74361123D01*
X125141695Y-74265885D01*
X125094076Y-74075409D01*
X125094076Y-73932552D01*
X125141695Y-73742076D01*
X125189314Y-73646838D01*
X125284552Y-73551600D01*
X125427409Y-73503980D01*
X125522647Y-73503980D01*
X125665504Y-73551600D01*
X125713123Y-73599219D01*
X126284552Y-74503980D02*
X126189314Y-74456361D01*
X126141695Y-74408742D01*
X126094076Y-74313504D01*
X126094076Y-74027790D01*
X126141695Y-73932552D01*
X126189314Y-73884933D01*
X126284552Y-73837314D01*
X126427409Y-73837314D01*
X126522647Y-73884933D01*
X126570266Y-73932552D01*
X126617885Y-74027790D01*
X126617885Y-74313504D01*
X126570266Y-74408742D01*
X126522647Y-74456361D01*
X126427409Y-74503980D01*
X126284552Y-74503980D01*
X127046457Y-73837314D02*
X127046457Y-74503980D01*
X127046457Y-73932552D02*
X127094076Y-73884933D01*
X127189314Y-73837314D01*
X127332171Y-73837314D01*
X127427409Y-73884933D01*
X127475028Y-73980171D01*
X127475028Y-74503980D01*
X127951219Y-73837314D02*
X127951219Y-74503980D01*
X127951219Y-73932552D02*
X127998838Y-73884933D01*
X128094076Y-73837314D01*
X128236933Y-73837314D01*
X128332171Y-73884933D01*
X128379790Y-73980171D01*
X128379790Y-74503980D01*
X128617885Y-74599219D02*
X129379790Y-74599219D01*
X129570266Y-74218266D02*
X130046457Y-74218266D01*
X129475028Y-74503980D02*
X129808361Y-73503980D01*
X130141695Y-74503980D01*
X130475028Y-74503980D02*
X130475028Y-73837314D01*
X130475028Y-74027790D02*
X130522647Y-73932552D01*
X130570266Y-73884933D01*
X130665504Y-73837314D01*
X130760742Y-73837314D01*
X131522647Y-74503980D02*
X131522647Y-73503980D01*
X131522647Y-74456361D02*
X131427409Y-74503980D01*
X131236933Y-74503980D01*
X131141695Y-74456361D01*
X131094076Y-74408742D01*
X131046457Y-74313504D01*
X131046457Y-74027790D01*
X131094076Y-73932552D01*
X131141695Y-73884933D01*
X131236933Y-73837314D01*
X131427409Y-73837314D01*
X131522647Y-73884933D01*
X132427409Y-73837314D02*
X132427409Y-74503980D01*
X131998838Y-73837314D02*
X131998838Y-74361123D01*
X132046457Y-74456361D01*
X132141695Y-74503980D01*
X132284552Y-74503980D01*
X132379790Y-74456361D01*
X132427409Y-74408742D01*
X132903600Y-74503980D02*
X132903600Y-73837314D01*
X132903600Y-73503980D02*
X132855980Y-73551600D01*
X132903600Y-73599219D01*
X132951219Y-73551600D01*
X132903600Y-73503980D01*
X132903600Y-73599219D01*
X133379790Y-73837314D02*
X133379790Y-74503980D01*
X133379790Y-73932552D02*
X133427409Y-73884933D01*
X133522647Y-73837314D01*
X133665504Y-73837314D01*
X133760742Y-73884933D01*
X133808361Y-73980171D01*
X133808361Y-74503980D01*
X134427409Y-74503980D02*
X134332171Y-74456361D01*
X134284552Y-74408742D01*
X134236933Y-74313504D01*
X134236933Y-74027790D01*
X134284552Y-73932552D01*
X134332171Y-73884933D01*
X134427409Y-73837314D01*
X134570266Y-73837314D01*
X134665504Y-73884933D01*
X134713123Y-73932552D01*
X134760742Y-74027790D01*
X134760742Y-74313504D01*
X134713123Y-74408742D01*
X134665504Y-74456361D01*
X134570266Y-74503980D01*
X134427409Y-74503980D01*
X135713123Y-74503980D02*
X135141695Y-74503980D01*
X135427409Y-74503980D02*
X135427409Y-73503980D01*
X135332171Y-73646838D01*
X135236933Y-73742076D01*
X135141695Y-73789695D01*
X129855980Y-83444933D02*
X130570266Y-83444933D01*
X130713123Y-83492552D01*
X130808361Y-83587790D01*
X130855980Y-83730647D01*
X130855980Y-83825885D01*
X129855980Y-82492552D02*
X129855980Y-82968742D01*
X130332171Y-83016361D01*
X130284552Y-82968742D01*
X130236933Y-82873504D01*
X130236933Y-82635409D01*
X130284552Y-82540171D01*
X130332171Y-82492552D01*
X130427409Y-82444933D01*
X130665504Y-82444933D01*
X130760742Y-82492552D01*
X130808361Y-82540171D01*
X130855980Y-82635409D01*
X130855980Y-82873504D01*
X130808361Y-82968742D01*
X130760742Y-83016361D01*
X112608504Y-76960942D02*
X112560885Y-77008561D01*
X112418028Y-77056180D01*
X112322790Y-77056180D01*
X112179933Y-77008561D01*
X112084695Y-76913323D01*
X112037076Y-76818085D01*
X111989457Y-76627609D01*
X111989457Y-76484752D01*
X112037076Y-76294276D01*
X112084695Y-76199038D01*
X112179933Y-76103800D01*
X112322790Y-76056180D01*
X112418028Y-76056180D01*
X112560885Y-76103800D01*
X112608504Y-76151419D01*
X113179933Y-77056180D02*
X113084695Y-77008561D01*
X113037076Y-76960942D01*
X112989457Y-76865704D01*
X112989457Y-76579990D01*
X113037076Y-76484752D01*
X113084695Y-76437133D01*
X113179933Y-76389514D01*
X113322790Y-76389514D01*
X113418028Y-76437133D01*
X113465647Y-76484752D01*
X113513266Y-76579990D01*
X113513266Y-76865704D01*
X113465647Y-76960942D01*
X113418028Y-77008561D01*
X113322790Y-77056180D01*
X113179933Y-77056180D01*
X113941838Y-76389514D02*
X113941838Y-77056180D01*
X113941838Y-76484752D02*
X113989457Y-76437133D01*
X114084695Y-76389514D01*
X114227552Y-76389514D01*
X114322790Y-76437133D01*
X114370409Y-76532371D01*
X114370409Y-77056180D01*
X114846600Y-76389514D02*
X114846600Y-77056180D01*
X114846600Y-76484752D02*
X114894219Y-76437133D01*
X114989457Y-76389514D01*
X115132314Y-76389514D01*
X115227552Y-76437133D01*
X115275171Y-76532371D01*
X115275171Y-77056180D01*
X115513266Y-77151419D02*
X116275171Y-77151419D01*
X116941838Y-77056180D02*
X116941838Y-76532371D01*
X116894219Y-76437133D01*
X116798980Y-76389514D01*
X116608504Y-76389514D01*
X116513266Y-76437133D01*
X116941838Y-77008561D02*
X116846600Y-77056180D01*
X116608504Y-77056180D01*
X116513266Y-77008561D01*
X116465647Y-76913323D01*
X116465647Y-76818085D01*
X116513266Y-76722847D01*
X116608504Y-76675228D01*
X116846600Y-76675228D01*
X116941838Y-76627609D01*
X117560885Y-77056180D02*
X117465647Y-77008561D01*
X117418028Y-76913323D01*
X117418028Y-76056180D01*
X117941838Y-77056180D02*
X117941838Y-76389514D01*
X117941838Y-76056180D02*
X117894219Y-76103800D01*
X117941838Y-76151419D01*
X117989457Y-76103800D01*
X117941838Y-76056180D01*
X117941838Y-76151419D01*
X118418028Y-77056180D02*
X118418028Y-76389514D01*
X118418028Y-76484752D02*
X118465647Y-76437133D01*
X118560885Y-76389514D01*
X118703742Y-76389514D01*
X118798980Y-76437133D01*
X118846600Y-76532371D01*
X118846600Y-77056180D01*
X118846600Y-76532371D02*
X118894219Y-76437133D01*
X118989457Y-76389514D01*
X119132314Y-76389514D01*
X119227552Y-76437133D01*
X119275171Y-76532371D01*
X119275171Y-77056180D01*
X120132314Y-77008561D02*
X120037076Y-77056180D01*
X119846600Y-77056180D01*
X119751361Y-77008561D01*
X119703742Y-76913323D01*
X119703742Y-76532371D01*
X119751361Y-76437133D01*
X119846600Y-76389514D01*
X120037076Y-76389514D01*
X120132314Y-76437133D01*
X120179933Y-76532371D01*
X120179933Y-76627609D01*
X119703742Y-76722847D01*
X120608504Y-76389514D02*
X120608504Y-77056180D01*
X120608504Y-76484752D02*
X120656123Y-76437133D01*
X120751361Y-76389514D01*
X120894219Y-76389514D01*
X120989457Y-76437133D01*
X121037076Y-76532371D01*
X121037076Y-77056180D01*
X121370409Y-76389514D02*
X121751361Y-76389514D01*
X121513266Y-76056180D02*
X121513266Y-76913323D01*
X121560885Y-77008561D01*
X121656123Y-77056180D01*
X121751361Y-77056180D01*
X122513266Y-77056180D02*
X122513266Y-76532371D01*
X122465647Y-76437133D01*
X122370409Y-76389514D01*
X122179933Y-76389514D01*
X122084695Y-76437133D01*
X122513266Y-77008561D02*
X122418028Y-77056180D01*
X122179933Y-77056180D01*
X122084695Y-77008561D01*
X122037076Y-76913323D01*
X122037076Y-76818085D01*
X122084695Y-76722847D01*
X122179933Y-76675228D01*
X122418028Y-76675228D01*
X122513266Y-76627609D01*
X123418028Y-77008561D02*
X123322790Y-77056180D01*
X123132314Y-77056180D01*
X123037076Y-77008561D01*
X122989457Y-76960942D01*
X122941838Y-76865704D01*
X122941838Y-76579990D01*
X122989457Y-76484752D01*
X123037076Y-76437133D01*
X123132314Y-76389514D01*
X123322790Y-76389514D01*
X123418028Y-76437133D01*
X123846600Y-77056180D02*
X123846600Y-76389514D01*
X123846600Y-76056180D02*
X123798980Y-76103800D01*
X123846600Y-76151419D01*
X123894219Y-76103800D01*
X123846600Y-76056180D01*
X123846600Y-76151419D01*
X124465647Y-77056180D02*
X124370409Y-77008561D01*
X124322790Y-76960942D01*
X124275171Y-76865704D01*
X124275171Y-76579990D01*
X124322790Y-76484752D01*
X124370409Y-76437133D01*
X124465647Y-76389514D01*
X124608504Y-76389514D01*
X124703742Y-76437133D01*
X124751361Y-76484752D01*
X124798980Y-76579990D01*
X124798980Y-76865704D01*
X124751361Y-76960942D01*
X124703742Y-77008561D01*
X124608504Y-77056180D01*
X124465647Y-77056180D01*
X125227552Y-76389514D02*
X125227552Y-77056180D01*
X125227552Y-76484752D02*
X125275171Y-76437133D01*
X125370409Y-76389514D01*
X125513266Y-76389514D01*
X125608504Y-76437133D01*
X125656123Y-76532371D01*
X125656123Y-77056180D01*
X118298980Y-79997133D02*
X119013266Y-79997133D01*
X119156123Y-80044752D01*
X119251361Y-80139990D01*
X119298980Y-80282847D01*
X119298980Y-80378085D01*
X118632314Y-79092371D02*
X119298980Y-79092371D01*
X118251361Y-79330466D02*
X118965647Y-79568561D01*
X118965647Y-78949514D01*
X126165504Y-75346142D02*
X126117885Y-75393761D01*
X125975028Y-75441380D01*
X125879790Y-75441380D01*
X125736933Y-75393761D01*
X125641695Y-75298523D01*
X125594076Y-75203285D01*
X125546457Y-75012809D01*
X125546457Y-74869952D01*
X125594076Y-74679476D01*
X125641695Y-74584238D01*
X125736933Y-74489000D01*
X125879790Y-74441380D01*
X125975028Y-74441380D01*
X126117885Y-74489000D01*
X126165504Y-74536619D01*
X126736933Y-75441380D02*
X126641695Y-75393761D01*
X126594076Y-75346142D01*
X126546457Y-75250904D01*
X126546457Y-74965190D01*
X126594076Y-74869952D01*
X126641695Y-74822333D01*
X126736933Y-74774714D01*
X126879790Y-74774714D01*
X126975028Y-74822333D01*
X127022647Y-74869952D01*
X127070266Y-74965190D01*
X127070266Y-75250904D01*
X127022647Y-75346142D01*
X126975028Y-75393761D01*
X126879790Y-75441380D01*
X126736933Y-75441380D01*
X127498838Y-74774714D02*
X127498838Y-75441380D01*
X127498838Y-74869952D02*
X127546457Y-74822333D01*
X127641695Y-74774714D01*
X127784552Y-74774714D01*
X127879790Y-74822333D01*
X127927409Y-74917571D01*
X127927409Y-75441380D01*
X128403600Y-74774714D02*
X128403600Y-75441380D01*
X128403600Y-74869952D02*
X128451219Y-74822333D01*
X128546457Y-74774714D01*
X128689314Y-74774714D01*
X128784552Y-74822333D01*
X128832171Y-74917571D01*
X128832171Y-75441380D01*
X129070266Y-75536619D02*
X129832171Y-75536619D01*
X130498838Y-75441380D02*
X130498838Y-74917571D01*
X130451219Y-74822333D01*
X130355980Y-74774714D01*
X130165504Y-74774714D01*
X130070266Y-74822333D01*
X130498838Y-75393761D02*
X130403600Y-75441380D01*
X130165504Y-75441380D01*
X130070266Y-75393761D01*
X130022647Y-75298523D01*
X130022647Y-75203285D01*
X130070266Y-75108047D01*
X130165504Y-75060428D01*
X130403600Y-75060428D01*
X130498838Y-75012809D01*
X130975028Y-75441380D02*
X130975028Y-74774714D01*
X130975028Y-74965190D02*
X131022647Y-74869952D01*
X131070266Y-74822333D01*
X131165504Y-74774714D01*
X131260742Y-74774714D01*
X132022647Y-75441380D02*
X132022647Y-74441380D01*
X132022647Y-75393761D02*
X131927409Y-75441380D01*
X131736933Y-75441380D01*
X131641695Y-75393761D01*
X131594076Y-75346142D01*
X131546457Y-75250904D01*
X131546457Y-74965190D01*
X131594076Y-74869952D01*
X131641695Y-74822333D01*
X131736933Y-74774714D01*
X131927409Y-74774714D01*
X132022647Y-74822333D01*
X132927409Y-74774714D02*
X132927409Y-75441380D01*
X132498838Y-74774714D02*
X132498838Y-75298523D01*
X132546457Y-75393761D01*
X132641695Y-75441380D01*
X132784552Y-75441380D01*
X132879790Y-75393761D01*
X132927409Y-75346142D01*
X133403600Y-75441380D02*
X133403600Y-74774714D01*
X133403600Y-74441380D02*
X133355980Y-74489000D01*
X133403600Y-74536619D01*
X133451219Y-74489000D01*
X133403600Y-74441380D01*
X133403600Y-74536619D01*
X133879790Y-74774714D02*
X133879790Y-75441380D01*
X133879790Y-74869952D02*
X133927409Y-74822333D01*
X134022647Y-74774714D01*
X134165504Y-74774714D01*
X134260742Y-74822333D01*
X134308361Y-74917571D01*
X134308361Y-75441380D01*
X134927409Y-75441380D02*
X134832171Y-75393761D01*
X134784552Y-75346142D01*
X134736933Y-75250904D01*
X134736933Y-74965190D01*
X134784552Y-74869952D01*
X134832171Y-74822333D01*
X134927409Y-74774714D01*
X135070266Y-74774714D01*
X135165504Y-74822333D01*
X135213123Y-74869952D01*
X135260742Y-74965190D01*
X135260742Y-75250904D01*
X135213123Y-75346142D01*
X135165504Y-75393761D01*
X135070266Y-75441380D01*
X134927409Y-75441380D01*
X129855980Y-70262333D02*
X130570266Y-70262333D01*
X130713123Y-70309952D01*
X130808361Y-70405190D01*
X130855980Y-70548047D01*
X130855980Y-70643285D01*
X129951219Y-69833761D02*
X129903600Y-69786142D01*
X129855980Y-69690904D01*
X129855980Y-69452809D01*
X129903600Y-69357571D01*
X129951219Y-69309952D01*
X130046457Y-69262333D01*
X130141695Y-69262333D01*
X130284552Y-69309952D01*
X130855980Y-69881380D01*
X130855980Y-69262333D01*
X108652085Y-68553742D02*
X108604466Y-68601361D01*
X108461609Y-68648980D01*
X108366371Y-68648980D01*
X108223514Y-68601361D01*
X108128276Y-68506123D01*
X108080657Y-68410885D01*
X108033038Y-68220409D01*
X108033038Y-68077552D01*
X108080657Y-67887076D01*
X108128276Y-67791838D01*
X108223514Y-67696600D01*
X108366371Y-67648980D01*
X108461609Y-67648980D01*
X108604466Y-67696600D01*
X108652085Y-67744219D01*
X109223514Y-68648980D02*
X109128276Y-68601361D01*
X109080657Y-68553742D01*
X109033038Y-68458504D01*
X109033038Y-68172790D01*
X109080657Y-68077552D01*
X109128276Y-68029933D01*
X109223514Y-67982314D01*
X109366371Y-67982314D01*
X109461609Y-68029933D01*
X109509228Y-68077552D01*
X109556847Y-68172790D01*
X109556847Y-68458504D01*
X109509228Y-68553742D01*
X109461609Y-68601361D01*
X109366371Y-68648980D01*
X109223514Y-68648980D01*
X109985419Y-67982314D02*
X109985419Y-68648980D01*
X109985419Y-68077552D02*
X110033038Y-68029933D01*
X110128276Y-67982314D01*
X110271133Y-67982314D01*
X110366371Y-68029933D01*
X110413990Y-68125171D01*
X110413990Y-68648980D01*
X110890180Y-67982314D02*
X110890180Y-68648980D01*
X110890180Y-68077552D02*
X110937800Y-68029933D01*
X111033038Y-67982314D01*
X111175895Y-67982314D01*
X111271133Y-68029933D01*
X111318752Y-68125171D01*
X111318752Y-68648980D01*
X111556847Y-68744219D02*
X112318752Y-68744219D01*
X112556847Y-68648980D02*
X112556847Y-67648980D01*
X112794942Y-67648980D01*
X112937800Y-67696600D01*
X113033038Y-67791838D01*
X113080657Y-67887076D01*
X113128276Y-68077552D01*
X113128276Y-68220409D01*
X113080657Y-68410885D01*
X113033038Y-68506123D01*
X112937800Y-68601361D01*
X112794942Y-68648980D01*
X112556847Y-68648980D01*
X113556847Y-68648980D02*
X113556847Y-67648980D01*
X113556847Y-68125171D02*
X114128276Y-68125171D01*
X114128276Y-68648980D02*
X114128276Y-67648980D01*
X114461609Y-67648980D02*
X115033038Y-67648980D01*
X114747323Y-68648980D02*
X114747323Y-67648980D01*
X115890180Y-68648980D02*
X115318752Y-68648980D01*
X115604466Y-68648980D02*
X115604466Y-67648980D01*
X115509228Y-67791838D01*
X115413990Y-67887076D01*
X115318752Y-67934695D01*
X116842561Y-68648980D02*
X116271133Y-68648980D01*
X116556847Y-68648980D02*
X116556847Y-67648980D01*
X116461609Y-67791838D01*
X116366371Y-67887076D01*
X116271133Y-67934695D01*
X110969466Y-63148980D02*
X110969466Y-63863266D01*
X110921847Y-64006123D01*
X110826609Y-64101361D01*
X110683752Y-64148980D01*
X110588514Y-64148980D01*
X111969466Y-64148980D02*
X111398038Y-64148980D01*
X111683752Y-64148980D02*
X111683752Y-63148980D01*
X111588514Y-63291838D01*
X111493276Y-63387076D01*
X111398038Y-63434695D01*
X110369980Y-80170257D02*
X110369980Y-80646447D01*
X109369980Y-80646447D01*
X109846171Y-79836923D02*
X109846171Y-79503590D01*
X110369980Y-79360733D02*
X110369980Y-79836923D01*
X109369980Y-79836923D01*
X109369980Y-79360733D01*
X110369980Y-78932161D02*
X109369980Y-78932161D01*
X109369980Y-78694066D01*
X109417600Y-78551209D01*
X109512838Y-78455971D01*
X109608076Y-78408352D01*
X109798552Y-78360733D01*
X109941409Y-78360733D01*
X110131885Y-78408352D01*
X110227123Y-78455971D01*
X110322361Y-78551209D01*
X110369980Y-78694066D01*
X110369980Y-78932161D01*
X127798780Y-80669628D02*
X127798780Y-81241057D01*
X127798780Y-80955342D02*
X126798780Y-80955342D01*
X126941638Y-81050580D01*
X127036876Y-81145819D01*
X127084495Y-81241057D01*
X126798780Y-80050580D02*
X126798780Y-79955342D01*
X126846400Y-79860104D01*
X126894019Y-79812485D01*
X126989257Y-79764866D01*
X127179733Y-79717247D01*
X127417828Y-79717247D01*
X127608304Y-79764866D01*
X127703542Y-79812485D01*
X127751161Y-79860104D01*
X127798780Y-79955342D01*
X127798780Y-80050580D01*
X127751161Y-80145819D01*
X127703542Y-80193438D01*
X127608304Y-80241057D01*
X127417828Y-80288676D01*
X127179733Y-80288676D01*
X126989257Y-80241057D01*
X126894019Y-80193438D01*
X126846400Y-80145819D01*
X126798780Y-80050580D01*
X127132114Y-78860104D02*
X127798780Y-78860104D01*
X127132114Y-79288676D02*
X127655923Y-79288676D01*
X127751161Y-79241057D01*
X127798780Y-79145819D01*
X127798780Y-79002961D01*
X127751161Y-78907723D01*
X127703542Y-78860104D01*
X127274971Y-78050580D02*
X127274971Y-78383914D01*
X127798780Y-78383914D02*
X126798780Y-78383914D01*
X126798780Y-77907723D01*
X123953542Y-79764866D02*
X124001161Y-79812485D01*
X124048780Y-79955342D01*
X124048780Y-80050580D01*
X124001161Y-80193438D01*
X123905923Y-80288676D01*
X123810685Y-80336295D01*
X123620209Y-80383914D01*
X123477352Y-80383914D01*
X123286876Y-80336295D01*
X123191638Y-80288676D01*
X123096400Y-80193438D01*
X123048780Y-80050580D01*
X123048780Y-79955342D01*
X123096400Y-79812485D01*
X123144019Y-79764866D01*
X124048780Y-78812485D02*
X124048780Y-79383914D01*
X124048780Y-79098200D02*
X123048780Y-79098200D01*
X123191638Y-79193438D01*
X123286876Y-79288676D01*
X123334495Y-79383914D01*
M02*
