M48
; DRILL file {KiCad (5.1.2)-1} date 5/07/2019 10:38:31 p. m.
; FORMAT={3:3/ absolute / metric / suppress leading zeros}
; #@! TF.CreationDate,2019-07-05T22:38:31-05:00
; #@! TF.GenerationSoftware,Kicad,Pcbnew,(5.1.2)-1
FMAT,2
METRIC,TZ
T1C0.800
T2C0.900
T3C1.000
T4C1.100
T5C2.000
%
G90
G05
T1
X135382Y-87376
X143002Y-87376
X144094Y-66091
X151714Y-66091
X130404Y-66929
X130404Y-68929
X130404Y-70929
X130404Y-72929
X135407Y-93599
X143027Y-93599
X115748Y-61697
X115748Y-63697
X115748Y-65697
X108687Y-70993
X116307Y-70993
X120352Y-65468
X122352Y-65468
X124352Y-65468
X126352Y-65468
X148285Y-86563
X148285Y-101803
X150825Y-86563
X150825Y-101803
X153365Y-86563
X153365Y-101803
X155905Y-86563
X155905Y-101803
X158445Y-86563
X158445Y-101803
X158953Y-81128
X166573Y-81128
X134112Y-70002
X134112Y-77622
X136652Y-70002
X136652Y-77622
X139192Y-70002
X139192Y-77622
X141732Y-70002
X141732Y-77622
X144272Y-70002
X144272Y-77622
X146812Y-70002
X146812Y-77622
X149352Y-70002
X149352Y-77622
X151892Y-70002
X151892Y-77622
X135382Y-84226
X143002Y-84226
X158979Y-78029
X166599Y-78029
X158979Y-71806
X166599Y-71806
X135407Y-96698
X143027Y-96698
X123596Y-78348
X123596Y-80848
X135407Y-99822
X143027Y-99822
X162611Y-86538
X162611Y-101778
X165151Y-86538
X165151Y-101778
X167691Y-86538
X167691Y-101778
X170231Y-86538
X170231Y-101778
X172771Y-86538
X172771Y-101778
X135382Y-90500
X143002Y-90500
X158979Y-74905
X166599Y-74905
X144094Y-62992
X151714Y-62992
X156210Y-60731
X156210Y-68351
X108737Y-74320
X108737Y-81940
X130404Y-76112
X130404Y-78112
X130404Y-80112
X130404Y-82112
X130404Y-84112
X130404Y-86112
X130404Y-88112
X130404Y-90112
X118847Y-78664
X118847Y-80664
X109347Y-84988
X109347Y-92608
X111887Y-84988
X111887Y-92608
X114427Y-84988
X114427Y-92608
X116967Y-84988
X116967Y-92608
X119507Y-84988
X119507Y-92608
X122047Y-84988
X122047Y-92608
X124587Y-84988
X124587Y-92608
X127127Y-84988
X127127Y-92608
X135407Y-102895
X143027Y-102895
T2
X112878Y-78257
X112878Y-80797
T3
X120167Y-62548
X123914Y-62027
X127610Y-81280
X129032Y-91808
X163297Y-92532
X165837Y-93193
X167945Y-82969
X168783Y-74854
X168783Y-77965
X169240Y-93751
T4
X120652Y-70231
X120652Y-74731
X127152Y-70231
X127152Y-74731
T5
X107645Y-103200
X108153Y-58966
X177063Y-102464
X177775Y-58547
T0
M30
