G04 #@! TF.GenerationSoftware,KiCad,Pcbnew,(5.1.2)-1*
G04 #@! TF.CreationDate,2019-07-05T22:38:24-05:00*
G04 #@! TF.ProjectId,Proyecto,50726f79-6563-4746-9f2e-6b696361645f,rev?*
G04 #@! TF.SameCoordinates,Original*
G04 #@! TF.FileFunction,Legend,Bot*
G04 #@! TF.FilePolarity,Positive*
%FSLAX46Y46*%
G04 Gerber Fmt 4.6, Leading zero omitted, Abs format (unit mm)*
G04 Created by KiCad (PCBNEW (5.1.2)-1) date 2019-07-05 22:38:24*
%MOMM*%
%LPD*%
G04 APERTURE LIST*
%ADD10C,0.150000*%
%ADD11C,0.120000*%
G04 APERTURE END LIST*
D10*
X181066179Y-84446007D02*
X181732832Y-84450269D01*
X180683712Y-84681662D02*
X181396461Y-84924319D01*
X181400419Y-84305284D01*
X181165677Y-83779963D02*
X181117450Y-83874895D01*
X181069528Y-83922209D01*
X180973987Y-83969218D01*
X180926369Y-83968913D01*
X180831437Y-83920686D01*
X180784124Y-83872764D01*
X180737114Y-83777223D01*
X180738332Y-83586751D01*
X180786559Y-83491819D01*
X180834481Y-83444506D01*
X180930022Y-83397496D01*
X180977640Y-83397801D01*
X181072572Y-83446028D01*
X181119885Y-83493950D01*
X181166895Y-83589491D01*
X181165677Y-83779963D01*
X181212686Y-83875504D01*
X181260000Y-83923426D01*
X181354932Y-83971653D01*
X181545404Y-83972871D01*
X181640945Y-83925862D01*
X181688867Y-83878548D01*
X181737094Y-83783616D01*
X181738312Y-83593144D01*
X181691302Y-83497603D01*
X181643989Y-83449681D01*
X181549057Y-83401454D01*
X181358585Y-83400236D01*
X181263044Y-83447245D01*
X181215122Y-83494559D01*
X181166895Y-83589491D01*
X181694955Y-82926186D02*
X181742573Y-82926491D01*
X181837505Y-82974718D01*
X181884819Y-83022640D01*
X181174810Y-82351421D02*
X181126583Y-82446353D01*
X181078660Y-82493666D01*
X180983120Y-82540676D01*
X180935502Y-82540371D01*
X180840570Y-82492144D01*
X180793256Y-82444222D01*
X180746247Y-82348681D01*
X180747465Y-82158209D01*
X180795691Y-82063277D01*
X180843614Y-82015963D01*
X180939155Y-81968954D01*
X180986773Y-81969259D01*
X181081704Y-82017486D01*
X181129018Y-82065408D01*
X181176027Y-82160949D01*
X181174810Y-82351421D01*
X181221819Y-82446961D01*
X181269132Y-82494884D01*
X181364064Y-82543111D01*
X181554536Y-82544329D01*
X181650077Y-82497319D01*
X181698000Y-82450006D01*
X181746226Y-82355074D01*
X181747444Y-82164602D01*
X181700435Y-82069061D01*
X181653121Y-82021139D01*
X181558189Y-81972912D01*
X181367717Y-81971694D01*
X181272177Y-82018703D01*
X181224254Y-82066017D01*
X181176027Y-82160949D01*
X180750813Y-81634410D02*
X180755075Y-80967757D01*
X181752315Y-81402712D01*
X181093577Y-80160381D02*
X181760230Y-80164642D01*
X180711110Y-80396036D02*
X181423859Y-80638692D01*
X181427816Y-80019657D01*
X181768449Y-78878954D02*
X181101796Y-78874693D01*
X181197032Y-78875301D02*
X181149718Y-78827379D01*
X181102709Y-78731838D01*
X181103622Y-78588984D01*
X181151849Y-78494052D01*
X181247390Y-78447043D01*
X181771189Y-78450392D01*
X181247390Y-78447043D02*
X181152458Y-78398816D01*
X181105449Y-78303276D01*
X181106362Y-78160422D01*
X181154589Y-78065490D01*
X181250130Y-78018481D01*
X181773928Y-78021829D01*
X181776973Y-77545648D02*
X181110320Y-77541387D01*
X181205556Y-77541995D02*
X181158242Y-77494073D01*
X181111233Y-77398532D01*
X181112146Y-77255678D01*
X181160373Y-77160746D01*
X181255913Y-77113737D01*
X181779712Y-77117086D01*
X181255913Y-77113737D02*
X181160982Y-77065510D01*
X181113973Y-76969970D01*
X181114886Y-76827115D01*
X181163113Y-76732184D01*
X181258653Y-76685174D01*
X181782452Y-76688523D01*
D11*
X179877707Y-105209284D02*
X180190148Y-56336051D01*
X179489100Y-105206800D02*
X180464116Y-105213033D01*
X179801541Y-56333567D02*
X180776557Y-56339800D01*
X180190148Y-56336051D02*
X180769355Y-57466281D01*
X180190148Y-56336051D02*
X179596538Y-57458783D01*
X179877707Y-105209284D02*
X180471317Y-104086552D01*
X179877707Y-105209284D02*
X179298500Y-104079054D01*
D10*
X138773423Y-54484020D02*
X139440090Y-54484020D01*
X139011519Y-55484020D01*
X140249614Y-54817354D02*
X140249614Y-55484020D01*
X140011519Y-54436401D02*
X139773423Y-55150687D01*
X140392471Y-55150687D01*
X140821042Y-55436401D02*
X140821042Y-55484020D01*
X140773423Y-55579259D01*
X140725804Y-55626878D01*
X141154376Y-54484020D02*
X141773423Y-54484020D01*
X141440090Y-54864973D01*
X141582947Y-54864973D01*
X141678185Y-54912592D01*
X141725804Y-54960211D01*
X141773423Y-55055449D01*
X141773423Y-55293544D01*
X141725804Y-55388782D01*
X141678185Y-55436401D01*
X141582947Y-55484020D01*
X141297233Y-55484020D01*
X141201995Y-55436401D01*
X141154376Y-55388782D01*
X142630566Y-54817354D02*
X142630566Y-55484020D01*
X142392471Y-54436401D02*
X142154376Y-55150687D01*
X142773423Y-55150687D01*
X143582947Y-54484020D02*
X143392471Y-54484020D01*
X143297233Y-54531640D01*
X143249614Y-54579259D01*
X143154376Y-54722116D01*
X143106757Y-54912592D01*
X143106757Y-55293544D01*
X143154376Y-55388782D01*
X143201995Y-55436401D01*
X143297233Y-55484020D01*
X143487709Y-55484020D01*
X143582947Y-55436401D01*
X143630566Y-55388782D01*
X143678185Y-55293544D01*
X143678185Y-55055449D01*
X143630566Y-54960211D01*
X143582947Y-54912592D01*
X143487709Y-54864973D01*
X143297233Y-54864973D01*
X143201995Y-54912592D01*
X143154376Y-54960211D01*
X143106757Y-55055449D01*
X144868661Y-55484020D02*
X144868661Y-54817354D01*
X144868661Y-54912592D02*
X144916280Y-54864973D01*
X145011519Y-54817354D01*
X145154376Y-54817354D01*
X145249614Y-54864973D01*
X145297233Y-54960211D01*
X145297233Y-55484020D01*
X145297233Y-54960211D02*
X145344852Y-54864973D01*
X145440090Y-54817354D01*
X145582947Y-54817354D01*
X145678185Y-54864973D01*
X145725804Y-54960211D01*
X145725804Y-55484020D01*
X146201995Y-55484020D02*
X146201995Y-54817354D01*
X146201995Y-54912592D02*
X146249614Y-54864973D01*
X146344852Y-54817354D01*
X146487709Y-54817354D01*
X146582947Y-54864973D01*
X146630566Y-54960211D01*
X146630566Y-55484020D01*
X146630566Y-54960211D02*
X146678185Y-54864973D01*
X146773423Y-54817354D01*
X146916280Y-54817354D01*
X147011519Y-54864973D01*
X147059138Y-54960211D01*
X147059138Y-55484020D01*
D11*
X105791000Y-56301640D02*
X180136800Y-56301640D01*
X105791000Y-56984900D02*
X105791000Y-55715219D01*
X180136800Y-56984900D02*
X180136800Y-55715219D01*
X180136800Y-56301640D02*
X179010296Y-56888061D01*
X180136800Y-56301640D02*
X179010296Y-55715219D01*
X105791000Y-56301640D02*
X106917504Y-56888061D01*
X105791000Y-56301640D02*
X106917504Y-55715219D01*
M02*
